<svg xmlns="http://www.w3.org/2000/svg" width="452" height="350" viewBox="0 0 452 350">
<g>
<path d="M 452.00 0.00 L 452.00 271.71 L 449.49 274.41 C445.06,279.20 438.59,281.36 428.50,281.43 C417.71,281.51 409.78,279.25 404.30,274.52 L 400.58 271.30 L 402.16 267.40 C403.03,265.25 407.24,254.99 411.51,244.59 C418.02,228.72 419.04,225.50 417.84,224.59 C412.09,220.23 411.21,211.11 416.00,205.65 L 419.00 202.24 L 419.00 155.12 C419.00,129.20 418.81,108.00 418.57,108.00 C418.34,108.00 404.06,116.46 386.85,126.80 L 355.56 145.60 L 341.53 138.47 C302.09,118.41 262.47,109.00 217.50,109.00 C170.86,109.00 126.79,120.13 87.16,141.91 L 80.16 145.76 L 41.52 122.52 C20.27,109.74 2.49,98.88 2.03,98.39 C1.54,97.88 18.31,89.84 41.34,79.55 C63.43,69.68 93.20,56.36 107.50,49.94 C184.23,15.52 216.92,1.00 217.71,1.00 C218.51,1.00 235.78,8.63 289.50,32.74 C299.95,37.42 321.33,46.99 337.00,54.00 C352.67,61.01 376.30,71.59 389.50,77.50 C402.70,83.42 418.23,90.36 424.00,92.92 L 434.50 97.57 L 434.76 150.26 L 435.02 202.94 L 437.51 206.61 C441.50,212.49 440.88,216.84 434.87,225.09 C433.94,226.37 435.47,230.90 442.83,248.59 L 451.96 270.50 L 451.98 135.25 L 452.00 0.00 ZM 128.81 203.67 C120.18,208.44 119.46,208.65 118.67,206.59 C118.37,205.81 114.27,199.20 109.55,191.90 L 100.96 178.62 L 105.73 175.64 C113.50,170.78 133.72,161.44 145.00,157.52 C158.17,152.94 172.25,149.58 186.78,147.57 C202.04,145.45 234.44,145.47 249.32,147.61 C276.56,151.52 304.88,161.17 327.29,174.19 L 334.08 178.13 L 331.86 181.82 C330.63,183.84 326.36,190.56 322.35,196.74 L 315.08 207.98 L 304.79 202.59 C275.33,187.16 244.58,180.15 211.50,181.34 C181.10,182.43 153.94,189.76 128.81,203.67 ZM 165.77 262.13 C161.52,264.26 157.86,266.00 157.63,266.00 C157.31,266.00 142.08,242.95 138.75,237.43 C137.74,235.75 154.31,227.29 167.77,222.62 C184.51,216.80 197.74,214.68 217.50,214.64 C236.38,214.60 249.34,216.56 265.81,221.94 C276.63,225.47 296.00,234.91 296.00,236.64 C296.00,238.28 277.93,266.17 277.11,265.78 C276.78,265.62 272.62,263.59 267.88,261.28 C236.39,245.89 197.53,246.22 165.77,262.13 ZM 452.00 350.00 L 0.00 350.00 L 107.75 349.93 C204.00,349.88 214.92,349.71 210.08,348.41 C203.12,346.54 199.02,343.97 194.10,338.38 C189.09,332.69 187.00,326.54 187.00,317.52 C187.00,311.86 187.53,309.32 189.58,305.22 C192.80,298.76 200.54,291.68 206.68,289.59 C212.34,287.66 223.11,287.59 228.30,289.44 C248.52,296.66 254.85,322.83 240.29,339.02 C235.48,344.37 230.51,347.44 224.27,348.91 C222.00,349.45 266.50,349.84 336.25,349.90 L 452.00 350.00 Z" fill="rgb(30,32,79)"/>
<path d="M 190.15 12.98 C194.12,11.21 197.42,9.74 199.73,8.71 C208.66,4.74 215.97,1.16 215.98,0.75 C215.99,0.34 167.40,0.00 108.00,0.00 L 452.00 0.00 L 334.75 0.03 C253.89,0.05 218.05,0.38 219.27,1.09 C220.24,1.66 231.94,6.99 245.27,12.94 L 246.76 13.61 C225.99,4.35 218.24,1.00 217.71,1.00 C217.31,1.00 208.65,4.76 190.15,12.98 ZM 451.97 200.95 L 451.96 270.50 L 451.72 269.94 C451.74,269.96 451.75,269.97 451.75,269.97 C451.84,269.97 451.92,242.06 451.97,200.95 ZM 107.50 49.94 C93.83,56.08 66.01,68.53 44.28,78.24 C47.97,76.57 51.83,74.83 55.83,73.05 C74.87,64.53 98.31,54.04 118.04,45.22 C114.62,46.75 111.11,48.32 107.50,49.94 ZM 278.95 28.00 C282.73,29.70 286.18,31.24 289.00,32.51 C299.73,37.32 321.33,46.99 337.00,54.00 C321.33,46.99 299.95,37.42 289.50,32.74 C285.81,31.08 282.30,29.50 278.95,28.00 ZM 2.03 98.39 C2.43,98.81 15.67,106.92 32.91,117.33 C15.67,106.92 2.43,98.81 2.02,98.39 C2.01,98.38 2.01,98.37 2.02,98.35 C2.01,98.37 2.02,98.38 2.03,98.39 ZM 434.69 226.88 C434.56,226.01 434.62,225.48 434.83,225.14 C434.63,225.48 434.56,226.01 434.69,226.88 Z" fill="rgb(190,191,211)"/>
</g>
</svg>