<?xml version="1.0" encoding="UTF-8"?>
<svg version="1.1" xmlns="http://www.w3.org/2000/svg" width="211" height="54">
<path d="M0 0 C2.701875 -0.103125 5.40375 -0.20625 8.1875 -0.3125 C9.02949951 -0.35802002 9.87149902 -0.40354004 10.73901367 -0.45043945 C14.98573652 -0.52868051 16.55911241 -0.34140526 20.046875 2.359375 C22 5 22 5 22.0625 7.5625 C20.82942266 10.3913245 19.31314718 11.98532343 17 14 C17.804375 14.45375 18.60875 14.9075 19.4375 15.375 C22 17 22 17 23 19 C23.57884232 26.06187625 23.57884232 26.06187625 21.1875 29.9375 C15.13463648 35.6444856 9.14287327 33 0 33 C0 22.11 0 11.22 0 0 Z " fill="#062260" transform="translate(86,21)"/>
<path d="M0 0 C2.31 0 4.62 0 7 0 C6.67 9.9 6.34 19.8 6 30 C13.24822148 29.35954625 13.24822148 29.35954625 17 28 C17.33 28.66 17.66 29.32 18 30 C25.7336758 15.49202486 25.7336758 15.49202486 31 0 C33.31 0.33 35.62 0.66 38 1 C38.33209473 1.93682617 38.33209473 1.93682617 38.67089844 2.89257812 C39.69201873 5.76361561 40.72094963 8.63179578 41.75 11.5 C42.09804687 12.48226562 42.44609375 13.46453125 42.8046875 14.4765625 C44.42381548 18.97414022 46.08309836 23.33647581 48.265625 27.59375 C50 31 50 31 50 33 C48.02 33 46.04 33 44 33 C43.34760842 31.60721983 42.70339448 30.21060788 42.0625 28.8125 C41.52302734 27.64654297 41.52302734 27.64654297 40.97265625 26.45703125 C40 24 40 24 39 19 C35.37 19.33 31.74 19.66 28 20 C27.525625 21.03125 27.05125 22.0625 26.5625 23.125 C26.29566406 23.70507812 26.02882813 24.28515625 25.75390625 24.8828125 C24.7214961 27.58557844 24.7214961 27.58557844 24 33 C15.75 33 7.5 33 -1 33 C-0.67 30.69 -0.34 28.38 0 26 C0.07574302 23.8774036 0.10822302 21.75282735 0.09765625 19.62890625 C0.09443359 18.47841797 0.09121094 17.32792969 0.08789062 16.14257812 C0.07951172 14.96115234 0.07113281 13.77972656 0.0625 12.5625 C0.05798828 11.35400391 0.05347656 10.14550781 0.04882812 8.90039062 C0.03710145 5.93354211 0.02068896 2.9667973 0 0 Z " fill="#041E66" transform="translate(35,21)"/>
<path d="M0 0 C3.3125 -0.3125 3.3125 -0.3125 7 0 C10.09343702 3.53730767 11.2566973 8.19858924 12.6875 12.625 C12.91244141 13.29273438 13.13738281 13.96046875 13.36914062 14.6484375 C14.3245605 17.55244927 15 19.92265613 15 23 C15.66 23 16.32 23 17 23 C17.23783203 22.12601563 17.23783203 22.12601563 17.48046875 21.234375 C21.73140787 6.29737345 21.73140787 6.29737345 25 1 C27.6557083 -0.38582699 28.9390181 -0.24007701 32 0 C33.30905232 2.61810464 33.09651537 4.52496877 33.0625 7.453125 C33.05476563 8.54753906 33.04703125 9.64195313 33.0390625 10.76953125 C33.01319618 13.07422072 32.9871569 15.37890827 32.9609375 17.68359375 C32.95320313 18.78316406 32.94546875 19.88273437 32.9375 21.015625 C32.92589844 22.01883789 32.91429687 23.02205078 32.90234375 24.05566406 C33.00382863 27.11543333 33.43223816 29.99466224 34 33 C31.36 33 28.72 33 26 33 C26 25.08 26 17.16 26 9 C22.7 16.92 19.4 24.84 16 33 C15.34 33 14.68 33 14 33 C11.03 25.41 8.06 17.82 5 10 C5 17.59 5 25.18 5 33 C3.02 33 1.04 33 -1 33 C-0.83628906 31.948125 -0.67257813 30.89625 -0.50390625 29.8125 C0.23675732 23.88719143 0.10688691 17.96150311 0.0625 12 C0.05573242 10.26556641 0.05573242 10.26556641 0.04882812 8.49609375 C0.03712529 5.66400775 0.02072996 2.83203189 0 0 Z " fill="#031F62" transform="translate(143,21)"/>
<path d="M0 0 C1.98 0 3.96 0 6 0 C8.73238798 6.68631411 11.30598267 13.4249244 13.80517578 20.20117188 C15.41121324 24.52834168 17.15132086 28.77052934 19 33 C16.69 33 14.38 33 12 33 C9.525 26.565 9.525 26.565 7 20 C3.37 19.67 -0.26 19.34 -4 19 C-4.474375 20.753125 -4.94875 22.50625 -5.4375 24.3125 C-6.22970982 27.24023193 -7.04071468 30.12214405 -8 33 C-9.98 33 -11.96 33 -14 33 C-11.8422218 27.26147636 -9.05510708 21.80339198 -6.36523438 16.30078125 C-3.80488648 10.97559844 -1.72366335 5.65219001 0 0 Z " fill="#0C1E5C" transform="translate(14,21)"/>
<path d="M0 0 C2.31 0 4.62 0 7 0 C7.33209473 0.98226563 7.33209473 0.98226563 7.67089844 1.984375 C8.6913661 4.99162205 9.72061265 7.99579507 10.75 11 C11.09804687 12.02996094 11.44609375 13.05992188 11.8046875 14.12109375 C13.83187845 20.01496372 16.15354523 25.46095288 19 31 C19 31.66 19 32.32 19 33 C17.02 33 15.04 33 13 33 C12.15973604 31.23244474 11.32801278 29.46082737 10.5 27.6875 C10.0359375 26.70136719 9.571875 25.71523438 9.09375 24.69921875 C8 22 8 22 8 19 C4.37 19.33 0.74 19.66 -3 20 C-5.02055843 24.39251833 -6.40895235 28.15340923 -7 33 C-9.31 33 -11.62 33 -14 33 C-13.48050781 31.98421875 -12.96101563 30.9684375 -12.42578125 29.921875 C-4.70257188 15.51012605 -4.70257188 15.51012605 0 0 Z " fill="#142562" transform="translate(122,21)"/>
<path d="M0 0 C1.4540625 0.0309375 1.4540625 0.0309375 2.9375 0.0625 C3.26959473 0.99932617 3.26959473 0.99932617 3.60839844 1.95507812 C4.62951873 4.82611561 5.65844963 7.69429578 6.6875 10.5625 C7.03554687 11.54476562 7.38359375 12.52703125 7.7421875 13.5390625 C9.35635266 18.0228546 11.00519587 22.36070131 13.203125 26.59375 C14.9375 30.0625 14.9375 30.0625 14.9375 33.0625 C12.9575 33.0625 10.9775 33.0625 8.9375 33.0625 C8.09985732 31.10600603 7.26750941 29.14724444 6.4375 27.1875 C5.74140625 25.55167969 5.74140625 25.55167969 5.03125 23.8828125 C3.9375 21.0625 3.9375 21.0625 3.9375 19.0625 C0.3075 19.0625 -3.3225 19.0625 -7.0625 19.0625 C-7.536875 20.63 -8.01125 22.1975 -8.5 23.8125 C-8.76683594 24.69421875 -9.03367188 25.5759375 -9.30859375 26.484375 C-9.94718494 28.66815835 -10.53025833 30.85085498 -11.0625 33.0625 C-13.0425 33.0625 -15.0225 33.0625 -17.0625 33.0625 C-15.58855232 28.1442497 -13.49486887 23.83512159 -11.125 19.3125 C-8.345249 13.90801659 -6.02801686 8.70716621 -4.53515625 2.78515625 C-3.70731857 -0.23200422 -3.30348625 0.06741809 0 0 Z " fill="#091F63" transform="translate(195.0625,20.9375)"/>
<path d="M0 0 C0.66 0 1.32 0 2 0 C2.19110352 0.56396484 2.38220703 1.12792969 2.57910156 1.70898438 C3.46354176 4.30802524 4.35670947 6.90398834 5.25 9.5 C5.55035156 10.386875 5.85070312 11.27375 6.16015625 12.1875 C7.6310747 16.44377466 9.17811101 20.52026592 11.234375 24.53125 C13 28 13 28 13 30 C11.02 30 9.04 30 7 30 C2.59225513 20.58997722 2.59225513 20.58997722 2 16 C1.34 16 0.68 16 0 16 C0 15.34 0 14.68 0 14 C-2.64 14 -5.28 14 -8 14 C-7.33501617 9.61110675 -5.81242323 6.0188515 -4 2 C-3.01 2 -2.02 2 -1 2 C-0.67 1.34 -0.34 0.68 0 0 Z " fill="#061C65" transform="translate(72,24)"/>
<path d="M0 0 C1.98 0 3.96 0 6 0 C7.89466871 3.1898524 8.17762064 5.38242244 8 9.0625 C7.81687759 12.86801259 7.79211495 13.68817242 10 17 C9.34 17.66 8.68 18.32 8 19 C7.34 18.67 6.68 18.34 6 18 C4.46331135 17.77532169 2.92031946 17.59203195 1.375 17.4375 C0.55773437 17.35371094 -0.25953125 17.26992188 -1.1015625 17.18359375 C-2.04128906 17.09271484 -2.04128906 17.09271484 -3 17 C-2.67 15.68 -2.34 14.36 -2 13 C-2.66 13 -3.32 13 -4 13 C-3.52140759 11.39566191 -3.04210442 9.79153584 -2.5625 8.1875 C-2.29566406 7.29417969 -2.02882813 6.40085937 -1.75390625 5.48046875 C-1.19612127 3.64526945 -0.60655425 1.81966274 0 0 Z " fill="#0E265B" transform="translate(14,21)"/>
<path d="M0 0 C6.625 -0.2578125 6.625 -0.2578125 10 2.0625 C12 5 12 5 12 8.625 C10.53709199 13.56231454 10.53709199 13.56231454 8 15 C4.375 15.25 4.375 15.25 1 15 C0 14 0 14 -0.09765625 10.83984375 C-0.08025391 8.90818359 -0.08025391 8.90818359 -0.0625 6.9375 C-0.05347656 5.64714844 -0.04445313 4.35679688 -0.03515625 3.02734375 C-0.02355469 2.02832031 -0.01195313 1.02929688 0 0 Z " fill="#E2E7F1" transform="translate(92,37)"/>
<path d="M0 0 C3.86360149 1.28786716 7.13582699 3.27165398 9 7 C9.57884232 14.06187625 9.57884232 14.06187625 7.1875 17.9375 C3.86558434 21.06959191 1.19136228 21.11936834 -3.1875 21.0625 C-4.08855469 21.05347656 -4.98960938 21.04445313 -5.91796875 21.03515625 C-6.60503906 21.02355469 -7.29210937 21.01195313 -8 21 C-9.50156874 17.99686252 -9.09281204 15.20932478 -9.0625 11.875 C-9.05347656 10.59367187 -9.04445313 9.31234375 -9.03515625 7.9921875 C-9.02355469 7.00476562 -9.01195313 6.01734375 -9 5 C-8.67 5 -8.34 5 -8 5 C-7.67 9.29 -7.34 13.58 -7 18 C-2.1632111 18.50367306 -2.1632111 18.50367306 2 16.4375 C3.43135511 12.94857191 2.933966 10.60244028 2 7 C-0.91765 5.0549 -2.62537285 4.54723683 -6 4 C-6 3.67 -6 3.34 -6 3 C-4.35 3 -2.7 3 -1 3 C-0.67 2.01 -0.34 1.02 0 0 Z " fill="#091F5B" transform="translate(100,33)"/>
<path d="M0 0 C2.77813246 2.77813246 3.6463183 6.12038092 4.9375 9.75 C6.70306883 14.68094926 8.64799987 19.31004153 11 24 C11 24.66 11 25.32 11 26 C9.02 26 7.04 26 5 26 C4.15973604 24.23244474 3.32801278 22.46082737 2.5 20.6875 C2.0359375 19.70136719 1.571875 18.71523438 1.09375 17.69921875 C0 15 0 15 0 12 C-0.93972656 12.03480469 -0.93972656 12.03480469 -1.8984375 12.0703125 C-3.12433594 12.09738281 -3.12433594 12.09738281 -4.375 12.125 C-5.18710938 12.14820313 -5.99921875 12.17140625 -6.8359375 12.1953125 C-9 12 -9 12 -11 10 C-7.7 10 -4.4 10 -1 10 C-1.020625 8.72125 -1.04125 7.4425 -1.0625 6.125 C-1.125 2.25 -1.125 2.25 0 0 Z " fill="#031F5B" transform="translate(130,28)"/>
<path d="M0 0 C1.4540625 0.0309375 1.4540625 0.0309375 2.9375 0.0625 C3.46979326 1.32857607 3.98794544 2.60060412 4.5 3.875 C4.79003906 4.58269531 5.08007812 5.29039063 5.37890625 6.01953125 C5.9375 8.0625 5.9375 8.0625 4.9375 11.0625 C3.2875 9.4125 1.6375 7.7625 -0.0625 6.0625 C0.1540625 6.60519531 0.370625 7.14789063 0.59375 7.70703125 C1.01140625 8.78017578 1.01140625 8.78017578 1.4375 9.875 C1.7159375 10.58269531 1.994375 11.29039063 2.28125 12.01953125 C2.9375 14.0625 2.9375 14.0625 2.9375 17.0625 C-0.0325 17.0625 -3.0025 17.0625 -6.0625 17.0625 C-7.75008226 11.23267038 -6.15226104 6.55588175 -4.0625 1.0625 C-3.0625 0.0625 -3.0625 0.0625 0 0 Z " fill="#0A2163" transform="translate(195.0625,20.9375)"/>
<path d="M0 0 C3.5 0.5 3.5 0.5 5.5 2.125 C6.84180884 5.31179601 6.42947204 7.21109893 5.5 10.5 C3.5 12.5 3.5 12.5 0.5625 12.75 C-2.5 12.5 -2.5 12.5 -5.5 10.5 C-6.50451167 7.19946166 -6.85198496 5.33596428 -5.5 2.125 C-3.5 0.5 -3.5 0.5 0 0 Z " fill="#223562" transform="translate(187.5,-0.5)"/>
<path d="M0 0 C2.31 0.33 4.62 0.66 7 1 C6.67 2.98 6.34 4.96 6 7 C5.67 6.34 5.34 5.68 5 5 C4.01 5 3.02 5 2 5 C1.79503906 5.61488281 1.59007813 6.22976562 1.37890625 6.86328125 C0.25260417 10.2421875 -0.87369792 13.62109375 -2 17 C0.64 17 3.28 17 6 17 C6 17.66 6 18.32 6 19 C5.39671875 19.02578125 4.7934375 19.0515625 4.171875 19.078125 C-1.10535339 19.40331983 -1.10535339 19.40331983 -5.5625 22.0625 C-6.036875 22.701875 -6.51125 23.34125 -7 24 C-7.66 23.67 -8.32 23.34 -9 23 C-8.51789062 21.92621094 -8.03578125 20.85242188 -7.5390625 19.74609375 C-6.90080003 18.3100032 -6.26279278 16.87379921 -5.625 15.4375 C-5.30789062 14.73302734 -4.99078125 14.02855469 -4.6640625 13.30273438 C-2.72665078 8.92337664 -1.2060856 4.63551081 0 0 Z " fill="#18265D" transform="translate(66,21)"/>
<path d="M0 0 C6.75 0 6.75 0 10 2 C10.48468708 8.42210386 10.48468708 8.42210386 8.375 10.9375 C6 12 6 12 0 12 C0 8.04 0 4.08 0 0 Z " fill="#CFE1F3" transform="translate(92,23)"/>
<path d="M0 0 C1.98 0 3.96 0 6 0 C8.11351351 3.48108108 8.11351351 3.48108108 7.5625 6 C7.376875 6.66 7.19125 7.32 7 8 C7.37907282 10.18703385 7.37907282 10.18703385 8 12 C7.01 11.67 6.02 11.34 5 11 C4.67 10.34 4.34 9.68 4 9 C3.67 9.99 3.34 10.98 3 12 C2.01 12 1.02 12 0 12 C0 8.04 0 4.08 0 0 Z " fill="#4B6396" transform="translate(117,0)"/>
<path d="M0 0 C3.76687864 1.88343932 4.79421646 2.69132469 7 6 C7.33 4.02 7.66 2.04 8 0 C8.99 0 9.98 0 11 0 C10.67 3.96 10.34 7.92 10 12 C6.23312136 10.11656068 5.20578354 9.30867531 3 6 C2.67 7.98 2.34 9.96 2 12 C1.34 12 0.68 12 0 12 C0 8.04 0 4.08 0 0 Z " fill="#031D67" transform="translate(69,0)"/>
<path d="M0 0 C0.66 0 1.32 0 2 0 C2.50559908 1.43554025 3.0042749 2.8735202 3.5 4.3125 C3.7784375 5.11300781 4.056875 5.91351563 4.34375 6.73828125 C5 9 5 9 5 12 C2.03 12 -0.94 12 -4 12 C-2.66666667 8 -1.33333333 4 0 0 Z " fill="#E6E6F4" transform="translate(193,26)"/>
<path d="M0 0 C0.66 0 1.32 0 2 0 C2.99 3.96 3.98 7.92 5 12 C2.03 12 -0.94 12 -4 12 C-3.33501617 7.61110675 -1.81242323 4.0188515 0 0 Z " fill="#D4DBE9" transform="translate(124,26)"/>
<path d="M0 0 C0.66 0 1.32 0 2 0 C2.33 3.3 2.66 6.6 3 10 C3.99 9.67 4.98 9.34 6 9 C6.33 6.03 6.66 3.06 7 0 C7.99 0 8.98 0 10 0 C10.28571429 8.57142857 10.28571429 8.57142857 8 12 C5.125 12.125 5.125 12.125 2 12 C0 10 0 10 -0.1953125 7.6171875 C-0.17210937 6.71226562 -0.14890625 5.80734375 -0.125 4.875 C-0.10695312 3.96492187 -0.08890625 3.05484375 -0.0703125 2.1171875 C-0.04710937 1.41851562 -0.02390625 0.71984375 0 0 Z " fill="#0A1E51" transform="translate(54,0)"/>
<path d="M0 0 C3.45854519 3.45854519 4 7.21904213 4 12 C1.03 12 -1.94 12 -5 12 C-4.54738642 10.56068883 -4.08767021 9.12361001 -3.625 7.6875 C-3.24214844 6.48673828 -3.24214844 6.48673828 -2.8515625 5.26171875 C-2 3 -2 3 0 0 Z " fill="#C1C9DA" transform="translate(16,26)"/>
<path d="M0 0 C0.99 0.33 1.98 0.66 3 1 C2.79503906 1.67546875 2.59007812 2.3509375 2.37890625 3.046875 C2.10949219 3.93890625 1.84007812 4.8309375 1.5625 5.75 C1.29566406 6.63171875 1.02882812 7.5134375 0.75390625 8.421875 C0.11531506 10.60565835 -0.46775833 12.78835498 -1 15 C-2.98 15 -4.96 15 -7 15 C-5.45454854 9.52067211 -2.84456788 4.88570819 0 0 Z " fill="#051E5E" transform="translate(185,39)"/>
<path d="M0 0 C3.33773709 3.64116773 3.97864902 7.28607242 5 12 C2.03 12 -0.94 12 -4 12 C-3.33501617 7.61110675 -1.81242323 4.0188515 0 0 Z " fill="#E5E9FA" transform="translate(68,26)"/>
<path d="M0 0 C0.99 0 1.98 0 3 0 C2.28547412 4.76350585 1.20465156 9.34201396 0 14 C-2.31 14 -4.62 14 -7 14 C-4.69 9.38 -2.38 4.76 0 0 Z " fill="#021E63" transform="translate(115,40)"/>
<path d="M0 0 C2.31 0 4.62 0 7 0 C7 0.66 7 1.32 7 2 C5.68 2 4.36 2 3 2 C3 2.99 3 3.98 3 5 C4.32 5.33 5.64 5.66 7 6 C5.68 6.33 4.36 6.66 3 7 C3 7.99 3 8.98 3 10 C4.65 10 6.3 10 8 10 C8 10.66 8 11.32 8 12 C5.36 12 2.72 12 0 12 C0 8.04 0 4.08 0 0 Z " fill="#081C5D" transform="translate(34,0)"/>
<path d="M0 0 C1 1 1 1 1.1875 3.9375 C1 7 1 7 -1 9 C-4.53571429 8.46428571 -4.53571429 8.46428571 -6 7 C-6.04092937 4.66702567 -6.04241723 2.33294775 -6 0 C-3.49749232 -1.25125384 -2.59701335 -0.83774624 0 0 Z " fill="#DEE9F0" transform="translate(190,2)"/>
<path d="M0 0 C0.66 0 1.32 0 2 0 C2 1.32 2 2.64 2 4 C3.65 4 5.3 4 7 4 C7 2.68 7 1.36 7 0 C7.66 0 8.32 0 9 0 C9 3.96 9 7.92 9 12 C8.34 12 7.68 12 7 12 C7 10.02 7 8.04 7 6 C5.35 6 3.7 6 2 6 C2 7.98 2 9.96 2 12 C1.34 12 0.68 12 0 12 C0 8.04 0 4.08 0 0 Z " fill="#0D1E43" transform="translate(20,0)"/>
<path d="M0 0 C0.99 0 1.98 0 3 0 C3.66 1.65 4.32 3.3 5 5 C7.2236068 3.0745356 7.2236068 3.0745356 8 0 C8.99 0.33 9.98 0.66 11 1 C10.40975852 2.65087847 9.80233994 4.29562407 9.1875 5.9375 C8.85105469 6.85402344 8.51460937 7.77054687 8.16796875 8.71484375 C7 11 7 11 4 12 C3.3291288 10.3767313 2.66342971 8.75132422 2 7.125 C1.62875 6.22007812 1.2575 5.31515625 0.875 4.3828125 C0 2 0 2 0 0 Z " fill="#041E64" transform="translate(91,0)"/>
<path d="M0 0 C2.31 0 4.62 0 7 0 C7 0.66 7 1.32 7 2 C5.68 2 4.36 2 3 2 C3 2.99 3 3.98 3 5 C4.32 5 5.64 5 7 5 C7 5.66 7 6.32 7 7 C5.68 7 4.36 7 3 7 C3 8.65 3 10.3 3 12 C2.01 12 1.02 12 0 12 C0 8.04 0 4.08 0 0 Z " fill="#081C60" transform="translate(198,0)"/>
<path d="M0 0 C2.31 0 4.62 0 7 0 C7.37254569 3.35291118 7.31050198 4.6038423 5.1875 7.3125 C3 9 3 9 0 9 C0 6.03 0 3.06 0 0 Z " fill="#F4F4F5" transform="translate(94,25)"/>
<path d="M0 0 C1.98 0 3.96 0 6 0 C6 0.66 6 1.32 6 2 C4.68 2 3.36 2 2 2 C2 2.99 2 3.98 2 5 C3.32 5 4.64 5 6 5 C6 5.66 6 6.32 6 7 C4.68 7 3.36 7 2 7 C2 7.99 2 8.98 2 10 C3.65 10 5.3 10 7 10 C7 10.66 7 11.32 7 12 C4.69 12 2.38 12 0 12 C0 8.04 0 4.08 0 0 Z " fill="#0B1D50" transform="translate(106,0)"/>
<path d="M0 0 C1.65 0 3.3 0 5 0 C5 0.66 5 1.32 5 2 C4.01 2.33 3.02 2.66 2 3 C2.680625 3.5775 3.36125 4.155 4.0625 4.75 C4.701875 5.4925 5.34125 6.235 6 7 C5.80984746 9.21844626 5.58477845 10.41522155 4 12 C2.33382885 12.04063832 0.66611905 12.042721 -1 12 C-1 11.01 -1 10.02 -1 9 C0.98 9.495 0.98 9.495 3 10 C3 9.01 3 8.02 3 7 C1.68 6.34 0.36 5.68 -1 5 C-0.67 3.35 -0.34 1.7 0 0 Z " fill="#081E63" transform="translate(131,0)"/>
<path d="M0 0 C3.3 0 6.6 0 10 0 C9.67 0.66 9.34 1.32 9 2 C8.01 2 7.02 2 6 2 C6 5.3 6 8.6 6 12 C5.01 12 4.02 12 3 12 C3 8.7 3 5.4 3 2 C2.01 2 1.02 2 0 2 C0 1.34 0 0.68 0 0 Z " fill="#0A1B67" transform="translate(6,0)"/>
<path d="M0 0 C0.99 0 1.98 0 3 0 C4.32 2.97 5.64 5.94 7 9 C4.69 9 2.38 9 0 9 C-0.87890625 2.84765625 -0.87890625 2.84765625 -1 1 C-0.67 0.67 -0.34 0.34 0 0 Z " fill="#041D6E" transform="translate(26,45)"/>
<path d="M0 0 C0.66 0 1.32 0 2 0 C2.66 2.64 3.32 5.28 4 8 C3.34 8 2.68 8 2 8 C2 10.64 2 13.28 2 16 C1.34 16 0.68 16 0 16 C-0.12375 15.175 -0.2475 14.35 -0.375 13.5 C-1.07102155 9.60227933 -2.00880949 5.83260331 -3 2 C-2.34 2 -1.68 2 -1 2 C-0.67 1.34 -0.34 0.68 0 0 Z " fill="#162A67" transform="translate(72,24)"/>
<path d="M0 0 C0.66 0.33 1.32 0.66 2 1 C1.01 3.97 0.02 6.94 -1 10 C-2.98 10 -4.96 10 -7 10 C-4.39090909 3.29090909 -4.39090909 3.29090909 -3 1 C-2.01 0.67 -1.02 0.34 0 0 Z " fill="#041D63" transform="translate(7,44)"/>
<path d="M0 0 C1.9375 0.375 1.9375 0.375 4 1 C4.33 1.66 4.66 2.32 5 3 C5.66 2.01 6.32 1.02 7 0 C7.99 0.33 8.98 0.66 10 1 C9.2884375 2.051875 9.2884375 2.051875 8.5625 3.125 C6.91260143 6.16081337 6.39631536 8.59168786 6 12 C5.34 12 4.68 12 4 12 C2.66666667 8 1.33333333 4 0 0 Z " fill="#0C1B5D" transform="translate(160,0)"/>
<path d="M0 0 C0.33 0.99 0.66 1.98 1 3 C4.3 3 7.6 3 11 3 C11 3.66 11 4.32 11 5 C10.39671875 5.02578125 9.7934375 5.0515625 9.171875 5.078125 C3.89464661 5.40331983 3.89464661 5.40331983 -0.5625 8.0625 C-1.036875 8.701875 -1.51125 9.34125 -2 10 C-2.66 9.67 -3.32 9.34 -4 9 C-2.68 6.03 -1.36 3.06 0 0 Z " fill="#061E56" transform="translate(61,35)"/>
<path d="M0 0 C3.3 0 6.6 0 10 0 C10 0.66 10 1.32 10 2 C8.68 2 7.36 2 6 2 C6 5.3 6 8.6 6 12 C5.34 12 4.68 12 4 12 C4 8.7 4 5.4 4 2 C2.68 2 1.36 2 0 2 C0 1.34 0 0.68 0 0 Z " fill="#0E1D4E" transform="translate(148,0)"/>
<path d="M0 0 C0.66666667 2.66666667 1.33333333 5.33333333 2 8 C1.01 7.67 0.02 7.34 -1 7 C-1.33 6.34 -1.66 5.68 -2 5 C-2.33 5.99 -2.66 6.98 -3 8 C-3.99 8 -4.98 8 -6 8 C-6 6.35 -6 4.7 -6 3 C-4.02 2.01 -2.04 1.02 0 0 Z " fill="#062160" transform="translate(123,4)"/>
<path d="M0 0 C0.99 0.33 1.98 0.66 3 1 C4.1875 4.5625 4.1875 4.5625 5 8 C4.01 8 3.02 8 2 8 C2 9.65 2 11.3 2 13 C-0.36453193 10.63546807 -0.36652704 9.74130071 -0.6875 6.5 C-0.77386719 5.7059375 -0.86023438 4.911875 -0.94921875 4.09375 C-1 2 -1 2 0 0 Z " fill="#0A215C" transform="translate(74,32)"/>
<path d="M0 0 C0.99 0 1.98 0 3 0 C3 3.96 3 7.92 3 12 C2.01 12 1.02 12 0 12 C0 8.04 0 4.08 0 0 Z " fill="#0A1E5C" transform="translate(141,0)"/>
<path d="M0 0 C3.00617269 3.00617269 2.59585316 5.82381598 3 10 C2.01 10 1.02 10 0 10 C-0.66 9.34 -1.32 8.68 -2 8 C-1.42307692 1.42307692 -1.42307692 1.42307692 0 0 Z " fill="#E1ECF6" transform="translate(16,26)"/>
<path d="M0 0 C2.31 0.33 4.62 0.66 7 1 C6.67 2.98 6.34 4.96 6 7 C5.67 6.34 5.34 5.68 5 5 C2.47266765 4.34444881 2.47266765 4.34444881 0 4 C0 2.68 0 1.36 0 0 Z " fill="#071D59" transform="translate(66,21)"/>
<path d="M0 0 C0.33 0 0.66 0 1 0 C1 1.65 1 3.3 1 5 C3.31 5 5.62 5 8 5 C8.33 5.66 8.66 6.32 9 7 C5.7 7 2.4 7 -1 7 C-1.33 5.68 -1.66 4.36 -2 3 C-1.34 2.01 -0.68 1.02 0 0 Z " fill="#052551" transform="translate(188,33)"/>
<path d="M0 0 C0.99 0.33 1.98 0.66 3 1 C2.34 3.31 1.68 5.62 1 8 C-0.32 8.33 -1.64 8.66 -3 9 C-2.44271087 5.65626525 -1.64826111 2.96687001 0 0 Z " fill="#09186D" transform="translate(185,39)"/>
<path d="M0 0 C1.90318884 2.85478326 2.4619099 4.41941308 3.125 7.6875 C3.29257812 8.49574219 3.46015625 9.30398437 3.6328125 10.13671875 C3.75398438 10.75160156 3.87515625 11.36648437 4 12 C3.01 12 2.02 12 1 12 C0.67 11.01 0.34 10.02 0 9 C-0.33 9 -0.66 9 -1 9 C-1.125 2.25 -1.125 2.25 0 0 Z " fill="#021B58" transform="translate(22,28)"/>
<path d="M0 0 C1.125 1.5 1.125 1.5 2 4 C1.57598348 6.7773082 0.81108065 9.29639783 0 12 C-3.00617269 8.99382731 -2.59585316 6.17618402 -3 2 C-2.01 2 -1.02 2 0 2 C0 1.34 0 0.68 0 0 Z " fill="#153166" transform="translate(129,24)"/>
<path d="M0 0 C0 2.97 0 5.94 0 9 C-0.66 9 -1.32 9 -2 9 C-2 7.02 -2 5.04 -2 3 C-4.475 2.01 -4.475 2.01 -7 1 C-3.375 -1.125 -3.375 -1.125 0 0 Z " fill="#18316D" transform="translate(104,22)"/>
<path d="M0 0 C1.98 0 3.96 0 6 0 C6 1.65 6 3.3 6 5 C4.35 4.67 2.7 4.34 1 4 C0.67 2.68 0.34 1.36 0 0 Z " fill="#051E63" transform="translate(123,21)"/>
<path d="M0 0 C0.66 0 1.32 0 2 0 C2 3.96 2 7.92 2 12 C1.34 12 0.68 12 0 12 C-1.28571429 3.42857143 -1.28571429 3.42857143 0 0 Z " fill="#071A65" transform="translate(27,0)"/>
<path d="M0 0 C0.33 0 0.66 0 1 0 C1 1.98 1 3.96 1 6 C2.98 6 4.96 6 7 6 C7 6.66 7 7.32 7 8 C4.03 8 1.06 8 -2 8 C-1.47731534 5.23723823 -0.89130413 2.6739124 0 0 Z " fill="#BFCBE3" transform="translate(66,30)"/>
<path d="M0 0 C0.66 0 1.32 0 2 0 C2.99 1.98 3.98 3.96 5 6 C6.65 6 8.3 6 10 6 C10 6.66 10 7.32 10 8 C4.375 8.25 4.375 8.25 1 6 C0.3125 2.875 0.3125 2.875 0 0 Z " fill="#112356" transform="translate(181,4)"/>
<path d="M0 0 C0.66 0 1.32 0 2 0 C2 3.96 2 7.92 2 12 C1.34 12 0.68 12 0 12 C0 8.04 0 4.08 0 0 Z " fill="#021F63" transform="translate(85,0)"/>
<path d="M0 0 C0.99 0 1.98 0 3 0 C3 2.64 3 5.28 3 8 C2.01 8 1.02 8 0 8 C0 5.36 0 2.72 0 0 Z " fill="#021F5F" transform="translate(61,0)"/>
<path d="M0 0 C0.33 0 0.66 0 1 0 C1 1.65 1 3.3 1 5 C3.97 5.495 3.97 5.495 7 6 C7 6.33 7 6.66 7 7 C4.03 7 1.06 7 -2 7 C-1.34 4.69 -0.68 2.38 0 0 Z " fill="#B1BBD5" transform="translate(191,31)"/>
<path d="M0 0 C0.99 0.33 1.98 0.66 3 1 C3.33 1.99 3.66 2.98 4 4 C0.30458414 4.95024979 -2.30458414 4.95024979 -6 4 C-6 3.67 -6 3.34 -6 3 C-4.35 3 -2.7 3 -1 3 C-0.67 2.01 -0.34 1.02 0 0 Z " fill="#03204B" transform="translate(100,33)"/>
<path d="M0 0 C0.99 0 1.98 0 3 0 C3.33 0.99 3.66 1.98 4 3 C2.625 4.5 2.625 4.5 1 6 C0.34 6 -0.32 6 -1 6 C-1.042721 4.33388095 -1.04063832 2.66617115 -1 1 C-0.67 0.67 -0.34 0.34 0 0 Z " fill="#0C1872" transform="translate(26,45)"/>
<path d="M0 0 C0.33 0 0.66 0 1 0 C1.25 3.3125 1.25 3.3125 1 7 C-1 8.9375 -1 8.9375 -3 10 C-3.66 9.67 -4.32 9.34 -5 9 C-3.625 7 -3.625 7 -2 5 C-1.34 5 -0.68 5 0 5 C0 3.35 0 1.7 0 0 Z " fill="#D6DDED" transform="translate(101,25)"/>
<path d="M0 0 C0.99 0 1.98 0 3 0 C2.34 1.32 1.68 2.64 1 4 C-0.65 4 -2.3 4 -4 4 C-4 3.01 -4 2.02 -4 1 C-2.02 1.495 -2.02 1.495 0 2 C0 1.34 0 0.68 0 0 Z " fill="#0E1E51" transform="translate(134,8)"/>
<path d="M0 0 C1.32 1.65 2.64 3.3 4 5 C3.01 5.495 3.01 5.495 2 6 C0.86649466 8.01669827 0.86649466 8.01669827 0 10 C-1.231394 6.30581799 -0.64432764 3.7943739 0 0 Z " fill="#0F2057" transform="translate(122,21)"/>
<path d="M0 0 C0.66 0 1.32 0 2 0 C2.99 1.98 3.98 3.96 5 6 C4.34 6.66 3.68 7.32 3 8 C2.34 7.67 1.68 7.34 1 7 C0.59270772 4.67843403 0.25561323 2.3431213 0 0 Z " fill="#172960" transform="translate(19,32)"/>
<path d="M0 0 C0.66 0 1.32 0 2 0 C2.66 2.64 3.32 5.28 4 8 C2 6.8125 2 6.8125 0 5 C-0.25 2.3125 -0.25 2.3125 0 0 Z " fill="#0D2566" transform="translate(131,33)"/>
</svg>
