<?xml version="1.0" encoding="UTF-8"?>
<svg version="1.1" xmlns="http://www.w3.org/2000/svg" width="153" height="67">
<path d="M0 0 C5.94661513 5.64335094 8.0452279 10.66161354 8.375 18.875 C8.2368054 25.44330804 6.82803364 29.78366122 2.4921875 34.71484375 C-6.18193927 42.96535038 -16.8495734 42.39099907 -28.0625 42.1875 C-29.51496005 42.17242256 -30.96743527 42.15873958 -32.41992188 42.14648438 C-35.94693457 42.11372861 -39.47336785 42.06211664 -43 42 C-43 41.01 -43 40.02 -43 39 C-41.35 38.34 -39.7 37.68 -38 37 C-37.67 23.8 -37.34 10.6 -37 -3 C-39.31 -3 -41.62 -3 -44 -3 C-44 -3.99 -44 -4.98 -44 -6 C-10.44694348 -8.35755479 -10.44694348 -8.35755479 0 0 Z M-29 -3 C-29.0741205 2.35682133 -29.12858776 7.71334462 -29.16479492 13.07055664 C-29.1798876 14.89320067 -29.20036395 16.71580836 -29.22631836 18.53833008 C-29.26268103 21.157155 -29.27972124 23.77550007 -29.29296875 26.39453125 C-29.30845261 27.21025101 -29.32393646 28.02597076 -29.33988953 28.8664093 C-29.47517328 33.09096794 -29.47517328 33.09096794 -27.60249329 36.70072937 C-24.53211722 39.19013103 -20.82763697 39.09925801 -17 39 C-10.26092837 37.6545882 -6.62125107 34.08933162 -2.25 28.9375 C0.61087865 24.50313809 0.6768673 19.10437572 0 14 C-2.18633359 6.90774715 -5.60386822 2.85978587 -11.9140625 -0.94140625 C-15.82115942 -2.92422135 -18.86233055 -3.1090072 -23.1875 -3.0625 C-24.27417969 -3.05347656 -25.36085938 -3.04445313 -26.48046875 -3.03515625 C-27.31191406 -3.02355469 -28.14335937 -3.01195312 -29 -3 Z " fill="#031E64" transform="translate(44,10)"/>
<path d="M0 0 C0.33 10.89 0.66 21.78 1 33 C4.3 31.02 7.6 29.04 11 27 C10.505 24.525 10.505 24.525 10 22 C14.95 22 19.9 22 25 22 C25 22.66 25 23.32 25 24 C24.20335937 24.38671875 23.40671875 24.7734375 22.5859375 25.171875 C17.15723678 27.83999555 11.9085743 30.45491856 7 34 C8.55926748 35.58651682 10.12256518 37.16907315 11.6875 38.75 C12.55761719 39.63171875 13.42773438 40.5134375 14.32421875 41.421875 C17.92437838 44.89064194 21.40733783 47.95881681 26 50 C26 50.66 26 51.32 26 52 C20.39 52 14.78 52 9 52 C9.33 51.01 9.66 50.02 10 49 C10.99 48.505 10.99 48.505 12 48 C8.37 44.7 4.74 41.4 1 38 C0.67 41.63 0.34 45.26 0 49 C1.32 49.33 2.64 49.66 4 50 C4 50.66 4 51.32 4 52 C-0.95 52 -5.9 52 -11 52 C-10.67 51.01 -10.34 50.02 -10 49 C-8.515 48.505 -8.515 48.505 -7 48 C-6.92598421 42.05520371 -6.87146187 36.11067407 -6.83520508 30.16552734 C-6.82009474 28.14204234 -6.79960563 26.1185902 -6.77368164 24.09521484 C-6.73739672 21.19099835 -6.72029645 18.28721385 -6.70703125 15.3828125 C-6.69154739 14.47443634 -6.67606354 13.56606018 -6.66011047 12.63015747 C-6.65988388 11.78943695 -6.65965729 10.94871643 -6.65942383 10.08251953 C-6.65276199 9.34083527 -6.64610016 8.599151 -6.63923645 7.83499146 C-6.75828842 7.22944427 -6.87734039 6.62389709 -7 6 C-7.99 5.34 -8.98 4.68 -10 4 C-10 3.34 -10 2.68 -10 2 C-6.19956554 0.26265853 -4.40285423 0 0 0 Z " fill="#051E60" transform="translate(102,0)"/>
<path d="M0 0 C3.63 0 7.26 0 11 0 C11.33 7.92 11.66 15.84 12 24 C17.20571341 26.56461766 17.20571341 26.56461766 24 25 C24.33 17.74 24.66 10.48 25 3 C22.03 2.505 22.03 2.505 19 2 C19 1.34 19 0.68 19 0 C23.29 0 27.58 0 32 0 C32 8.58 32 17.16 32 26 C33.65 26 35.3 26 37 26 C37 26.99 37 27.98 37 29 C33.37 29.66 29.74 30.32 26 31 C25.34 30.01 24.68 29.02 24 28 C23.360625 28.495 22.72125 28.99 22.0625 29.5 C18.09986014 31.44088483 14.3239398 32.12540899 10 31 C7.23828125 29.20703125 7.23828125 29.20703125 5 26 C4.39120432 22.04395687 4.52905351 18.17791402 4.6875 14.1875 C4.71005859 13.11306641 4.73261719 12.03863281 4.75585938 10.93164062 C4.81464402 8.2863315 4.89676043 5.64388587 5 3 C3.35 2.67 1.7 2.34 0 2 C0 1.34 0 0.68 0 0 Z " fill="#031E64" transform="translate(53,22)"/>
<path d="M0 0 C2.64233769 2.19257809 4.46669809 3.93339618 6 7 C6 8.98 6 10.96 6 13 C-0.6 13 -7.2 13 -14 13 C-13.731875 14.588125 -13.46375 16.17625 -13.1875 17.8125 C-13.03667969 18.70582031 -12.88585937 19.59914063 -12.73046875 20.51953125 C-11.93178325 23.23164513 -11.22572332 24.29956904 -9 26 C-4.58675308 27.24722196 -2.09056069 26.9900025 2 25 C2.99 24.67 3.98 24.34 5 24 C4.4376049 27.26189156 3.5859495 28.91134848 1 31 C-3.94742814 32.64914271 -8.93798475 32.8248061 -13.8125 30.875 C-17.61490709 27.61579393 -19.70454267 25.10102991 -20.421875 20 C-20.68374864 13.71503262 -20.40853128 8.65813988 -16.546875 3.52734375 C-11.88177949 -1.07884904 -6.05269565 -2.11907793 0 0 Z M-13 7 C-13 7.99 -13 8.98 -13 10 C-11.58344207 10.0272415 -10.16672955 10.04650467 -8.75 10.0625 C-7.96109375 10.07410156 -7.1721875 10.08570313 -6.359375 10.09765625 C-4.09308998 10.00385306 -2.1711105 9.63241063 0 9 C0.25030977 6.58380177 0.25030977 6.58380177 0 4 C-5.76554279 0.1563048 -8.52202237 2.62379459 -13 7 Z " fill="#041E64" transform="translate(147,21)"/>
<path d="M0 0 C3.63 0 7.26 0 11 0 C11 7.92 11 15.84 11 24 C10.67 24 10.34 24 10 24 C10 16.41 10 8.82 10 1 C8.68 1 7.36 1 6 1 C6 9.25 6 17.5 6 26 C5.67 26 5.34 26 5 26 C5 18.41 5 10.82 5 3 C3.35 2.67 1.7 2.34 0 2 C0 1.34 0 0.68 0 0 Z " fill="#0B1D54" transform="translate(53,22)"/>
<path d="M0 0 C1.98 0.99 1.98 0.99 4 2 C4.33 1.34 4.66 0.68 5 0 C5.66 0 6.32 0 7 0 C7 2.97 7 5.94 7 9 C5.68 8.34 4.36 7.68 3 7 C2.67 7.66 2.34 8.32 2 9 C1.34 9 0.68 9 0 9 C0 6.03 0 3.06 0 0 Z " fill="#031F63" transform="translate(22,57)"/>
<path d="M0 0 C1.98 0 3.96 0 6 0 C6.70074844 3.153368 7 5.72724974 7 9 C6.01 9 5.02 9 4 9 C3.67 8.34 3.34 7.68 3 7 C2.67 7.66 2.34 8.32 2 9 C1.34 9 0.68 9 0 9 C0 6.03 0 3.06 0 0 Z M2 2 C2 2.66 2 3.32 2 4 C2.99 4 3.98 4 5 4 C5 3.34 5 2.68 5 2 C4.01 2 3.02 2 2 2 Z " fill="#041F62" transform="translate(83,57)"/>
<path d="M0 0 C2.31 0 4.62 0 7 0 C7 0.66 7 1.32 7 2 C6.01 2.495 6.01 2.495 5 3 C5 3.66 5 4.32 5 5 C4.34 5 3.68 5 3 5 C3 5.66 3 6.32 3 7 C4.32 7 5.64 7 7 7 C7 7.66 7 8.32 7 9 C4.69 9 2.38 9 0 9 C0 6.03 0 3.06 0 0 Z " fill="#0C1C57" transform="translate(67,57)"/>
<path d="M0 0 C1.65 0 3.3 0 5 0 C5 0.99 5 1.98 5 3 C5.33 3.33 5.66 3.66 6 4 C6.04063832 5.66617115 6.042721 7.33388095 6 9 C4.02 9 2.04 9 0 9 C0 8.01 0 7.02 0 6 C0.66 6 1.32 6 2 6 C1.34 5.67 0.68 5.34 0 5 C0 3.35 0 1.7 0 0 Z " fill="#041E61" transform="translate(100,57)"/>
<path d="M0 0 C0.99 0 1.98 0 3 0 C3.33 0.99 3.66 1.98 4 3 C4.66 2.01 5.32 1.02 6 0 C6.66 0 7.32 0 8 0 C7.34 2.97 6.68 5.94 6 9 C4.68 8.67 3.36 8.34 2 8 C1.34 5.36 0.68 2.72 0 0 Z " fill="#061D62" transform="translate(50,57)"/>
<path d="M0 0 C0.66 0 1.32 0 2 0 C2.12375 0.969375 2.2475 1.93875 2.375 2.9375 C2.684375 4.4534375 2.684375 4.4534375 3 6 C3.66 6.33 4.32 6.66 5 7 C5 4.69 5 2.38 5 0 C5.66 0 6.32 0 7 0 C7.09765625 6.15234375 7.09765625 6.15234375 7 8 C6 9 6 9 3.5 9.125 C1 9 1 9 0 8 C-0.14115161 5.32941149 -0.04247107 2.67567762 0 0 Z " fill="#0C1E4E" transform="translate(5,57)"/>
<path d="M0 0 C2.31 0 4.62 0 7 0 C7 0.66 7 1.32 7 2 C6.34 2 5.68 2 5 2 C5 4.31 5 6.62 5 9 C4.01 9 3.02 9 2 9 C2 6.69 2 4.38 2 2 C1.34 2 0.68 2 0 2 C0 1.34 0 0.68 0 0 Z " fill="#091C5D" transform="translate(127,57)"/>
<path d="M0 0 C1.98 0.99 1.98 0.99 4 2 C4.33 1.34 4.66 0.68 5 0 C5.99 0.33 6.98 0.66 8 1 C7.01 2.485 7.01 2.485 6 4 C5.61500109 5.65549531 5.27206865 7.3222433 5 9 C4.01 9 3.02 9 2 9 C1.855625 8.2575 1.71125 7.515 1.5625 6.75 C1.09812508 4.47972261 0.58136431 2.24240521 0 0 Z " fill="#04205C" transform="translate(143,57)"/>
<path d="M0 0 C0.99 0.33 1.98 0.66 3 1 C2.67 3.64 2.34 6.28 2 9 C1.34 9 0.68 9 0 9 C0 6.03 0 3.06 0 0 Z " fill="#0B1D51" transform="translate(22,57)"/>
<path d="M0 0 C0.66 0 1.32 0 2 0 C2 2.97 2 5.94 2 9 C1.34 9 0.68 9 0 9 C0 6.03 0 3.06 0 0 Z " fill="#0E1D47" transform="translate(116,57)"/>
<path d="M0 0 C0.66 0 1.32 0 2 0 C2 2.97 2 5.94 2 9 C1.34 9 0.68 9 0 9 C0 6.03 0 3.06 0 0 Z " fill="#0B1968" transform="translate(39,57)"/>
<path d="M0 0 C0.66 0 1.32 0 2 0 C2.33 2.64 2.66 5.28 3 8 C2.01 8 1.02 8 0 8 C0 5.36 0 2.72 0 0 Z " fill="#021F63" transform="translate(5,57)"/>
<path d="M0 0 C0.33 0 0.66 0 1 0 C1 1.65 1 3.3 1 5 C-0.98 5 -2.96 5 -5 5 C-5 4.01 -5 3.02 -5 2 C-3.35 2.33 -1.7 2.66 0 3 C0 2.01 0 1.02 0 0 Z " fill="#0F1A58" transform="translate(105,61)"/>
<path d="M0 0 C2.4375 0.8125 2.4375 0.8125 5 2 C5.33 2.99 5.66 3.98 6 5 C4.125 4.75 4.125 4.75 2 4 C0.75 1.9375 0.75 1.9375 0 0 Z " fill="#072052" transform="translate(130,47)"/>
</svg>
