<?xml version="1.0" encoding="UTF-8"?>
<svg version="1.1" xmlns="http://www.w3.org/2000/svg" width="837" height="150">
<path d="M0 0 C0 8.58 0 17.16 0 26 C-2.97 25.67 -5.94 25.34 -9 25 C-8.89217216 32.9629834 -8.77947476 40.92587702 -8.66066074 48.88870335 C-8.60563407 52.58666233 -8.55224802 56.28462945 -8.50268555 59.98266602 C-8.45474125 63.55536753 -8.40239047 67.1279804 -8.34705925 70.70057487 C-8.32677103 72.05960808 -8.30803687 73.41866546 -8.29092598 74.77774239 C-8.26657958 76.68985818 -8.23605811 78.60189226 -8.20532227 80.51391602 C-8.18200584 82.1427346 -8.18200584 82.1427346 -8.15821838 83.80445862 C-8.05054006 87.09928459 -8.05054006 87.09928459 -7.42466736 90.71788025 C-7 94 -7 94 -8 97 C-7.01 97.495 -7.01 97.495 -6 98 C-6.495 99.485 -6.495 99.485 -7 101 C-6.01 101.495 -6.01 101.495 -5 102 C-4.690625 102.804375 -4.38125 103.60875 -4.0625 104.4375 C-3.15452711 107.29863959 -3.15452711 107.29863959 0 109 C1.9896995 109.39013716 3.99019869 109.73202649 6 110 C6 110.33 6 110.66 6 111 C10.31786004 111.16607154 13.25518465 111.19523658 17 109 C18.051875 108.7834375 18.051875 108.7834375 19.125 108.5625 C21.39460571 108.09878979 21.39460571 108.09878979 23 105 C23.63292383 102.88719655 23.63292383 102.88719655 24 101 C24.66 101 25.32 101 26 101 C25.67 100.01 25.34 99.02 25 98 C25.33 97.67 25.66 97.34 26 97 C27.28184854 88.61471026 27.20572136 80.04293898 27.31640625 71.58203125 C27.33703584 70.23011223 27.35803359 68.87819879 27.37937927 67.52629089 C27.43398127 64.00670959 27.48365726 60.48707625 27.53222656 56.96740723 C27.58290016 53.3603871 27.63834422 49.75344043 27.69335938 46.14648438 C27.80018138 39.09772021 27.90178756 32.04888982 28 25 C25.03 25.33 22.06 25.66 19 26 C18.97113016 22.02084841 18.95324594 18.04172347 18.9375 14.0625 C18.92912109 12.92619141 18.92074219 11.78988281 18.91210938 10.61914062 C18.90888672 9.53955078 18.90566406 8.45996094 18.90234375 7.34765625 C18.89710693 6.34742432 18.89187012 5.34719238 18.88647461 4.31665039 C19 2 19 2 20 1 C21.35094982 0.90731001 22.70667091 0.88252674 24.06079102 0.88647461 C24.92160782 0.88655014 25.78242462 0.88662567 26.66932678 0.88670349 C27.60473801 0.89186478 28.54014923 0.89702606 29.50390625 0.90234375 C30.45692123 0.9037587 31.40993622 0.90517365 32.39183044 0.90663147 C35.44875165 0.91224848 38.50560077 0.92480384 41.5625 0.9375 C43.62955624 0.94251281 45.69661362 0.94707609 47.76367188 0.95117188 C52.84247588 0.96222344 57.9212257 0.97949945 63 1 C63.02887236 4.81248426 63.04675492 8.6249407 63.0625 12.4375 C63.07087891 13.52611328 63.07925781 14.61472656 63.08789062 15.73632812 C63.09111328 16.77080078 63.09433594 17.80527344 63.09765625 18.87109375 C63.10289307 19.82943115 63.10812988 20.78776855 63.11352539 21.77514648 C63 24 63 24 62 25 C59.66702567 25.04092937 57.33294775 25.04241723 55 25 C55.00222061 25.94103073 55.00444122 26.88206146 55.00672913 27.85160828 C55.02700885 36.72388367 55.04199545 45.59615436 55.05181217 54.46844769 C55.05702871 59.02967483 55.06410407 63.59088324 55.07543945 68.15209961 C55.08631197 72.55466203 55.09228611 76.95720645 55.09487724 81.35978127 C55.09672361 83.03867692 55.10032909 84.7175716 55.10573006 86.39645958 C55.11299839 88.74959816 55.11398849 91.10266253 55.11352539 93.45581055 C55.11712067 94.1484903 55.12071594 94.84117004 55.12442017 95.55484009 C55.11673371 99.16890879 54.84495017 102.48545487 54 106 C53.76990234 107.12921875 53.76990234 107.12921875 53.53515625 108.28125 C51.31991051 118.68008949 51.31991051 118.68008949 48 122 C47.70351562 122.63679688 47.40703125 123.27359375 47.1015625 123.9296875 C45.83740662 126.30558329 44.48014514 127.4703386 42.375 129.125 C40.49549039 130.56168718 40.49549039 130.56168718 39 132 C39 132.66 39 133.32 39 134 C25.54514866 141.91461843 8.05120347 141.15017192 -7 139 C-7 138.34 -7 137.68 -7 137 C-7.5775 137.226875 -8.155 137.45375 -8.75 137.6875 C-11 138 -11 138 -13 136.6875 C-13.66 136.130625 -14.32 135.57375 -15 135 C-17.01286697 133.93066442 -19.01736899 132.99284806 -21.125 132.125 C-23.43561328 130.73863203 -23.84846934 129.37983002 -25 127 C-26.485 126.505 -26.485 126.505 -28 126 C-29.640625 123.63671875 -29.640625 123.63671875 -31.25 120.6875 C-31.79140625 119.72199219 -32.3328125 118.75648437 -32.890625 117.76171875 C-34.05503177 114.86300189 -34.15811981 113.83470023 -33 111 C-33.66 110.67 -34.32 110.34 -35 110 C-36.71485398 100.21499002 -36.13229966 89.89631489 -36.09765625 79.98046875 C-36.09578597 78.38479151 -36.09436496 76.78911369 -36.09336853 75.19343567 C-36.08959134 71.03923901 -36.07980338 66.88507857 -36.06866455 62.730896 C-36.05834593 58.4735971 -36.05384876 54.21629223 -36.04882812 49.95898438 C-36.03817568 41.63930649 -36.02115863 33.31965778 -36 25 C-38.31 25 -40.62 25 -43 25 C-44.64054442 22.11390973 -45.24936376 20.05511238 -45.23046875 16.7421875 C-45.22853516 15.95199219 -45.22660156 15.16179688 -45.22460938 14.34765625 C-45.21236328 13.53167969 -45.20011719 12.71570312 -45.1875 11.875 C-45.1865332 10.63943359 -45.1865332 10.63943359 -45.18554688 9.37890625 C-45.14063798 3.28127596 -45.14063798 3.28127596 -44 1 C-37.8944533 0.8574374 -31.78890312 0.71502487 -25.68334961 0.57275391 C-23.60457259 0.52429302 -21.52579655 0.47579048 -19.44702148 0.42724609 C-16.46598559 0.35763887 -13.48494629 0.28817944 -10.50390625 0.21875 C-9.10078941 0.18593933 -9.10078941 0.18593933 -7.66932678 0.15246582 C-6.80850998 0.13244507 -5.94769318 0.11242432 -5.06079102 0.09179688 C-3.91828636 0.06514954 -3.91828636 0.06514954 -2.75270081 0.03796387 C-1.8352618 0.01809195 -0.91765419 0 0 0 Z " fill="#132257" transform="translate(76,4)"/>
<path d="M0 0 C47.025 0.495 47.025 0.495 95 1 C95 12.88 95 24.76 95 37 C87.08 37 79.16 37 71 37 C71 33.04 71 29.08 71 25 C60.11 25 49.22 25 38 25 C38 35.23 38 45.46 38 56 C48.56 55.67 59.12 55.34 70 55 C69.67 63.25 69.34 71.5 69 80 C53.655 80.495 53.655 80.495 38 81 C38 91.89 38 102.78 38 114 C40.64 114 43.28 114 46 114 C46 122.25 46 130.5 46 139 C31.15 139 16.3 139 1 139 C1.33 130.75 1.66 122.5 2 114 C4.97 114 7.94 114 11 114 C10.67 84.63 10.34 55.26 10 25 C7.69 25 5.38 25 3 25 C2 24 2 24 1.88647461 21.77514648 C1.89171143 20.81680908 1.89694824 19.85847168 1.90234375 18.87109375 C1.90556641 17.83662109 1.90878906 16.80214844 1.91210938 15.73632812 C1.92048828 14.64771484 1.92886719 13.55910156 1.9375 12.4375 C1.94201172 11.34501953 1.94652344 10.25253906 1.95117188 9.12695312 C1.96300174 6.41791505 1.97948457 3.70898401 2 1 C1.34 0.67 0.68 0.34 0 0 Z " fill="#122358" transform="translate(139,4)"/>
<path d="M0 0 C0.56943329 0.16298584 1.13886658 0.32597168 1.72555542 0.49389648 C4.03671785 1.00817036 6.02729869 1.1140736 8.39111328 1.09765625 C9.2536673 1.09435303 10.11622131 1.0910498 11.00491333 1.08764648 C12.39853592 1.07519897 12.39853592 1.07519897 13.8203125 1.0625 C14.79298065 1.05871338 15.7656488 1.05492676 16.76779175 1.05102539 C20.91474729 1.03479416 25.06160271 1.00707248 29.20849609 0.97949219 C39.51807284 0.91684003 49.81712955 0.86929125 60.1171875 1.375 C60.83343292 1.40585693 61.54967834 1.43671387 62.28762817 1.46850586 C71.81593628 2.02016512 78.83417312 5.93660802 86 12 C88 15 88 15 89 18 C89.495 18.474375 89.99 18.94875 90.5 19.4375 C92.26696767 21.27809132 92.67618716 22.49045052 93 25 C92.67 25.66 92.34 26.32 92 27 C92.66 27.33 93.32 27.66 94 28 C95.80192563 36.28885791 95.61079233 44.87403249 93.49609375 53.0703125 C92.92969154 55.11897925 92.92969154 55.11897925 92.625 57.75 C91.78084398 60.78896166 90.01339907 62.6090886 88 65 C87.505 66.485 87.505 66.485 87 68 C85.59226307 71.57348605 84.3497884 72.3251058 81 74 C80.67 74.66 80.34 75.32 80 76 C78.73275237 78.53449526 77.56198435 78.91309755 75 80 C72.13603672 81.80950061 72.13603672 81.80950061 70.3125 83.5 C62.11664499 88.81623027 50.34149661 88.14684334 40.9375 88.09765625 C39.90560547 88.0962413 38.87371094 88.09482635 37.81054688 88.09336853 C34.54033411 88.08780642 31.2701918 88.07526102 28 88.0625 C25.77213641 88.0574801 23.54427174 88.05291805 21.31640625 88.04882812 C15.87758045 88.03784942 10.43879526 88.02114938 5 88 C5 86.02 5 84.04 5 82 C6.485 81.505 6.485 81.505 8 81 C8.99 80.505 8.99 80.505 10 80 C10.02317215 71.20298831 10.04093997 62.40598712 10.05181217 53.60895157 C10.05703032 49.52412081 10.06410861 45.43931093 10.07543945 41.35449219 C10.08630624 37.41228785 10.09228489 33.4701036 10.09487724 29.52788544 C10.09672464 28.0240014 10.10033213 26.52011846 10.10573006 25.01624298 C10.11299078 22.90956752 10.11398881 20.80297503 10.11352539 18.69628906 C10.11685631 16.89759369 10.11685631 16.89759369 10.12025452 15.06256104 C10.01988193 12.50633972 9.75642501 10.42698555 9 8 C6.69 8 4.38 8 2 8 C0 2.25 0 2.25 0 0 Z M30 10 C29.23794289 16.08851089 28.85142752 22.01229156 28.8671875 28.14453125 C28.86623077 28.99440109 28.86527405 29.84427094 28.86428833 30.71989441 C28.86361192 32.51240107 28.86542836 34.30491025 28.86962891 36.09741211 C28.87491093 38.76747524 28.86970381 41.4373644 28.86328125 44.10742188 C28.85912987 56.10533024 29.32039288 68.02057615 30 80 C36.6 80 43.2 80 50 80 C50 79.34 50 78.68 50 78 C51.175625 78.2784375 51.175625 78.2784375 52.375 78.5625 C54.97089775 79.25962266 54.97089775 79.25962266 57 78 C57 77.34 57 76.68 57 76 C58.093125 75.7525 59.18625 75.505 60.3125 75.25 C64.14607721 73.9504823 65.05197711 73.38340818 67 70 C67.66 69.01 68.32 68.02 69 67 C69.33 66.175 69.66 65.35 70 64.5 C71 62 71 62 73 59 C72.69159401 56.84725052 72.69159401 56.84725052 72 55 C72.66 55 73.32 55 74 55 C74.96638658 50.95038003 75.13396116 47.15797593 75.125 43 C75.12757813 41.80375 75.13015625 40.6075 75.1328125 39.375 C75.01757938 36.44672307 74.67823563 33.84213024 74 31 C73.34 31 72.68 31 72 31 C72.185625 30.38125 72.37125 29.7625 72.5625 29.125 C73.23686176 26.95839822 73.23686176 26.95839822 72 25 C71.34 25 70.68 25 70 25 C69.731875 23.865625 69.46375 22.73125 69.1875 21.5625 C68.5996875 19.7990625 68.5996875 19.7990625 68 18 C67.01 17.67 66.02 17.34 65 17 C64.690625 16.34 64.38125 15.68 64.0625 15 C63.2000385 12.8162357 63.2000385 12.8162357 61.0625 12.375 C60.381875 12.25125 59.70125 12.1275 59 12 C58.01 11.34 57.02 10.68 56 10 C51.11190049 8.85920277 46.30121194 8.84917405 41.3125 8.875 C40.55388672 8.87113281 39.79527344 8.86726563 39.01367188 8.86328125 C35.7522361 8.86903842 33.11486252 8.96171249 30 10 Z " fill="#122157" transform="translate(632,55)"/>
<path d="M0 0 C7.20417518 -0.02551328 14.40833856 -0.04293502 21.61254883 -0.05493164 C24.05949336 -0.05993694 26.50643494 -0.06674318 28.95336914 -0.07543945 C32.4858473 -0.08767252 36.01828565 -0.0932665 39.55078125 -0.09765625 C41.17177483 -0.10539818 41.17177483 -0.10539818 42.82551575 -0.11329651 C57.12778469 -0.11433498 57.12778469 -0.11433498 63 1 C63.99 1.99 63.99 1.99 65 3 C65.99 3.928125 65.99 3.928125 67 4.875 C72.46726543 10.68396952 72.14800513 17.45173856 72 25 C71.34 25 70.68 25 70 25 C70.495 26.485 70.495 26.485 71 28 C69.75 29.875 69.75 29.875 68 32 C67.525625 32.86625 67.05125 33.7325 66.5625 34.625 C64.82079071 37.27239812 63.83114809 37.75096408 61 39 C59.31110128 40.3050581 57.6396721 41.63360658 56 43 C58.49971777 50.18118255 58.49971777 50.18118255 64 55 C64.66666667 57 65.33333333 59 66 61 C66.66 61.66 67.32 62.32 68 63 C68.66666667 64.33333333 69.33333333 65.66666667 70 67 C70.66 67.66 71.32 68.32 72 69 C73.59906468 70.99883084 74.90194045 72.77773168 75.9375 75.125 C77.29066351 77.5129356 78.49173369 77.96718446 81 79 C82.33333333 79.66666667 83.66666667 80.33333333 85 81 C85 82.98 85 84.96 85 87 C80.72952167 87.14486019 76.45967167 87.23392616 72.1875 87.3125 C70.97255859 87.35439453 69.75761719 87.39628906 68.50585938 87.43945312 C67.34248047 87.45556641 66.17910156 87.47167969 64.98046875 87.48828125 C63.37014771 87.52755737 63.37014771 87.52755737 61.72729492 87.56762695 C59 87 59 87 57.1887207 84.65698242 C56 82 56 82 55 79 C54.00069175 76.71586686 53.18145765 75.17447851 51.375 73.4375 C50 72 50 72 50 69 C49.38125 68.38125 48.7625 67.7625 48.125 67.125 C46 65 46 65 45.0625 62.625 C44.06184024 60.15278176 43.15183455 58.85383188 41.4375 56.875 C39 54 39 54 38 51 C36.69254251 49.31295807 35.35827971 47.64639965 34 46 C32 43 32 43 32 40 C32.67546875 39.95101562 33.3509375 39.90203125 34.046875 39.8515625 C34.93890625 39.77679688 35.8309375 39.70203125 36.75 39.625 C38.07257812 39.52058594 38.07257812 39.52058594 39.421875 39.4140625 C43.16923314 38.81221407 45.32588569 37.67411431 48 35 C48.495 34.01 48.495 34.01 49 33 C49.33515625 32.39027344 49.6703125 31.78054687 50.015625 31.15234375 C52.02646804 26.75561949 52.4183382 21.8825219 51.375 17.1875 C49.0245608 13.44816491 45.62131644 11.41421096 42 9 C39.03157342 8.54084493 39.03157342 8.54084493 35.8125 8.375 C34.72582031 8.30023438 33.63914062 8.22546875 32.51953125 8.1484375 C31.68808594 8.09945312 30.85664062 8.05046875 30 8 C29.97682785 16.79701169 29.95906003 25.59401288 29.94818783 34.39104843 C29.94296968 38.47587919 29.93589139 42.56068907 29.92456055 46.64550781 C29.91369376 50.58771215 29.90771511 54.5298964 29.90512276 58.47211456 C29.90327536 59.9759986 29.89966787 61.47988154 29.89426994 62.98375702 C29.88700922 65.09043248 29.88601119 67.19702497 29.88647461 69.30371094 C29.88314369 71.10240631 29.88314369 71.10240631 29.87974548 72.93743896 C29.90307011 76.19108676 29.90307011 76.19108676 31 80 C33.97 80 36.94 80 40 80 C40 82.31 40 84.62 40 87 C26.8 87 13.6 87 0 87 C0 84.69 0 82.38 0 80 C6.625 78.875 6.625 78.875 10 80 C9.814375 79.195625 9.62875 78.39125 9.4375 77.5625 C9.293125 76.716875 9.14875 75.87125 9 75 C9.495 74.505 9.495 74.505 10 74 C10.10450575 72.05249373 10.13855367 70.10117558 10.14526367 68.15087891 C10.15164352 66.89933014 10.15802338 65.64778137 10.16459656 64.35830688 C10.16612528 62.98105915 10.16723922 61.60381089 10.16796875 60.2265625 C10.17118 58.82270269 10.17454397 57.41884322 10.17805481 56.01498413 C10.18405298 53.06759872 10.18589406 50.12024265 10.18530273 47.17285156 C10.18520118 43.39419743 10.19884299 39.6157315 10.21607494 35.83712196 C10.22718985 32.93579238 10.22922209 30.03450833 10.22869301 27.13315964 C10.2298743 25.74008919 10.23430441 24.3470176 10.24202538 22.95396805 C10.25181251 21.00530664 10.24768627 19.05659031 10.24291992 17.10791016 C10.24434494 15.99839996 10.24576996 14.88888977 10.24723816 13.74575806 C10.20098093 10.78380481 10.20098093 10.78380481 8 8 C6.03638136 7.42251197 6.03638136 7.42251197 3.875 7.3125 C2.59625 7.209375 1.3175 7.10625 0 7 C0 4.69 0 2.38 0 0 Z " fill="#122156" transform="translate(504,56)"/>
<path d="M0 0 C1.06347656 0.00322266 2.12695312 0.00644531 3.22265625 0.00976562 C4.86427734 0.02233398 4.86427734 0.02233398 6.5390625 0.03515625 C7.65667969 0.03966797 8.77429688 0.04417969 9.92578125 0.04882812 C12.67193054 0.06056381 15.41796836 0.07698262 18.1640625 0.09765625 C18.1640625 0.75765625 18.1640625 1.41765625 18.1640625 2.09765625 C18.7621875 1.89140625 19.3603125 1.68515625 19.9765625 1.47265625 C22.1640625 1.09765625 22.1640625 1.09765625 25.1640625 3.09765625 C27.35848025 4.26801238 29.4235957 5.18416732 31.7890625 5.97265625 C34.67978177 7.34194433 34.83917285 8.28226575 36.1640625 11.09765625 C37.81791483 12.44685157 39.4857645 13.77899353 41.1640625 15.09765625 C48.01300425 22.14803747 48.50155404 30.4174868 48.42773438 39.84179688 C48.40259766 41.10185547 48.37746094 42.36191406 48.3515625 43.66015625 C48.33125977 45.60245117 48.33125977 45.60245117 48.31054688 47.58398438 C48.2754362 50.75564839 48.22625597 53.92642715 48.1640625 57.09765625 C47.5040625 57.09765625 46.8440625 57.09765625 46.1640625 57.09765625 C46.36644531 57.66226563 46.56882812 58.226875 46.77734375 58.80859375 C47.26913822 61.71961961 46.60413792 63.07587144 45.3515625 65.72265625 C44.99449219 66.49867187 44.63742187 67.2746875 44.26953125 68.07421875 C43.1640625 70.09765625 43.1640625 70.09765625 41.1640625 72.09765625 C40.8340625 72.75765625 40.5040625 73.41765625 40.1640625 74.09765625 C38.40584755 75.64471303 36.58533104 77.09823822 34.7578125 78.5625 C32.90109996 80.11340746 32.90109996 80.11340746 32.1640625 83.09765625 C28.15875069 85.71651397 24.94627841 87.46841731 20.1640625 88.09765625 C19.3390625 88.26265625 18.5140625 88.42765625 17.6640625 88.59765625 C16.8390625 88.76265625 16.0140625 88.92765625 15.1640625 89.09765625 C14.39247803 89.26950439 13.62089355 89.44135254 12.82592773 89.6184082 C8.31460545 90.43063655 3.79881109 90.28215017 -0.7734375 90.28515625 C-1.74990234 90.29740234 -2.72636719 90.30964844 -3.73242188 90.32226562 C-8.85606076 90.33268659 -13.03752414 90.10507957 -17.8359375 88.09765625 C-18.9084375 87.76765625 -19.9809375 87.43765625 -21.0859375 87.09765625 C-23.8359375 86.09765625 -23.8359375 86.09765625 -25.8359375 84.09765625 C-27.0425 83.13859375 -27.0425 83.13859375 -28.2734375 82.16015625 C-30.27853808 80.54629481 -32.06529784 78.95261209 -33.8359375 77.09765625 C-34.4959375 76.43765625 -35.1559375 75.77765625 -35.8359375 75.09765625 C-38.93453065 71.61173896 -40.72266999 68.65193243 -41.8359375 64.09765625 C-41.5059375 63.43765625 -41.1759375 62.77765625 -40.8359375 62.09765625 C-41.4959375 62.09765625 -42.1559375 62.09765625 -42.8359375 62.09765625 C-42.5059375 60.77765625 -42.1759375 59.45765625 -41.8359375 58.09765625 C-42.4959375 57.76765625 -43.1559375 57.43765625 -43.8359375 57.09765625 C-43.86506098 53.36850608 -43.88277787 49.63938535 -43.8984375 45.91015625 C-43.90681641 44.85505859 -43.91519531 43.79996094 -43.92382812 42.71289062 C-43.92705078 41.69130859 -43.93027344 40.66972656 -43.93359375 39.6171875 C-43.93883057 38.67979736 -43.94406738 37.74240723 -43.94946289 36.77661133 C-43.83676407 34.11716148 -43.42970399 31.68845052 -42.8359375 29.09765625 C-42.1759375 29.09765625 -41.5159375 29.09765625 -40.8359375 29.09765625 C-41.1659375 28.10765625 -41.4959375 27.11765625 -41.8359375 26.09765625 C-39.40435855 19.38186678 -39.40435855 19.38186678 -36.8359375 18.09765625 C-36.5059375 17.43765625 -36.1759375 16.77765625 -35.8359375 16.09765625 C-34.07772255 14.55059947 -32.25720604 13.09707428 -30.4296875 11.6328125 C-28.57297496 10.08190504 -28.57297496 10.08190504 -27.8359375 7.09765625 C-26.8459375 6.76765625 -25.8559375 6.43765625 -24.8359375 6.09765625 C-24.2171875 5.60265625 -23.5984375 5.10765625 -22.9609375 4.59765625 C-20.52636705 2.87913593 -18.75906143 2.53612484 -15.8359375 2.09765625 C-15.1965625 1.93265625 -14.5571875 1.76765625 -13.8984375 1.59765625 C-9.24775205 0.47021735 -4.78115355 -0.02570513 0 0 Z M-7.8359375 9.09765625 C-8.1659375 9.75765625 -8.4959375 10.41765625 -8.8359375 11.09765625 C-9.4340625 11.22140625 -10.0321875 11.34515625 -10.6484375 11.47265625 C-13.6365836 12.32641228 -14.86008934 13.72663846 -16.8359375 16.09765625 C-17.98568616 18.51817974 -18.75552044 20.7357795 -19.3359375 23.34765625 C-19.5009375 23.92515625 -19.6659375 24.50265625 -19.8359375 25.09765625 C-20.4959375 25.42765625 -21.1559375 25.75765625 -21.8359375 26.09765625 C-23.96415983 31.73557855 -24.11073698 36.93243908 -24.0234375 42.91015625 C-24.02279297 43.76802734 -24.02214844 44.62589844 -24.02148438 45.50976562 C-24.12997104 49.95492268 -24.12997104 49.95492268 -22.8359375 54.09765625 C-22.40368301 56.7552209 -22.13814231 59.4209851 -21.8359375 62.09765625 C-21.1759375 62.09765625 -20.5159375 62.09765625 -19.8359375 62.09765625 C-20.1659375 63.08765625 -20.4959375 64.07765625 -20.8359375 65.09765625 C-19.83094618 67.72609509 -19.38786379 68.8216931 -16.8359375 70.09765625 C-16.6915625 70.75765625 -16.5471875 71.41765625 -16.3984375 72.09765625 C-16.2128125 72.75765625 -16.0271875 73.41765625 -15.8359375 74.09765625 C-14.8459375 74.42765625 -13.8559375 74.75765625 -12.8359375 75.09765625 C-12.371875 76.08765625 -12.371875 76.08765625 -11.8984375 77.09765625 C-11.0275216 79.28623291 -11.0275216 79.28623291 -8.8359375 79.78515625 C-8.1759375 79.88828125 -7.5159375 79.99140625 -6.8359375 80.09765625 C-6.1759375 80.42765625 -5.5159375 80.75765625 -4.8359375 81.09765625 C-3.8459375 80.60265625 -3.8459375 80.60265625 -2.8359375 80.09765625 C-2.8359375 80.75765625 -2.8359375 81.41765625 -2.8359375 82.09765625 C-0.75325157 82.17891712 1.33034908 82.23696464 3.4140625 82.28515625 C4.57421875 82.31996094 5.734375 82.35476562 6.9296875 82.390625 C10.47989022 82.06904867 11.54486766 81.3830876 14.1640625 79.09765625 C15.3809375 78.62328125 16.5978125 78.14890625 17.8515625 77.66015625 C21.27170744 76.5173342 21.27170744 76.5173342 21.9140625 74.09765625 C21.9965625 73.43765625 22.0790625 72.77765625 22.1640625 72.09765625 C23.1434504 71.07746052 24.14301699 70.0761582 25.1640625 69.09765625 C25.4940625 68.10765625 25.8240625 67.11765625 26.1640625 66.09765625 C25.8340625 65.43765625 25.5040625 64.77765625 25.1640625 64.09765625 C25.8240625 64.09765625 26.4840625 64.09765625 27.1640625 64.09765625 C26.6690625 62.11765625 26.6690625 62.11765625 26.1640625 60.09765625 C26.8240625 60.09765625 27.4840625 60.09765625 28.1640625 60.09765625 C28.98114975 55.07747219 29.34668619 50.18851915 29.3515625 45.09765625 C29.36993164 44.08832031 29.36993164 44.08832031 29.38867188 43.05859375 C29.40241314 38.31327564 28.57633475 34.56333925 27.1640625 30.09765625 C27.1640625 29.43765625 27.1640625 28.77765625 27.1640625 28.09765625 C26.5040625 28.09765625 25.8440625 28.09765625 25.1640625 28.09765625 C25.6590625 26.61265625 25.6590625 26.61265625 26.1640625 25.09765625 C25.6690625 24.10765625 25.6690625 24.10765625 25.1640625 23.09765625 C24.5040625 23.09765625 23.8440625 23.09765625 23.1640625 23.09765625 C22.8959375 21.98390625 22.6278125 20.87015625 22.3515625 19.72265625 C21.50597231 15.87924674 21.50597231 15.87924674 18.1640625 14.09765625 C17.6690625 13.58203125 17.1740625 13.06640625 16.6640625 12.53515625 C15.11203812 10.84248904 15.11203812 10.84248904 12.1640625 10.09765625 C11.1740625 9.43765625 10.1840625 8.77765625 9.1640625 8.09765625 C6.36012446 7.81716437 6.36012446 7.81716437 3.2890625 7.91015625 C2.26039063 7.91660156 1.23171875 7.92304687 0.171875 7.9296875 C-2.62300499 8.08576521 -5.14138526 8.33951162 -7.8359375 9.09765625 Z " fill="#122156" transform="translate(456.8359375,54.90234375)"/>
<path d="M0 0 C3.70786487 -0.28328339 7.29967798 -0.42696023 11 0 C14.23983639 3.23983639 14.83014479 7.63254055 16 12 C16.87936379 14.36329019 17.80862385 16.61962998 18.94140625 18.87109375 C20.00720634 21.01449245 20.97932235 23.18158128 21.9375 25.375 C23.09753471 28.01418678 24.2936013 30.56461788 25.625 33.125 C27 36 27 36 27.9375 39.4375 C28.78615172 42.28297929 29.50966312 44.04176905 31 46.5 C33.03462552 49.86089994 34.01205744 53.18936442 35 57 C36.50888637 61.05513212 38.22607861 64.79268263 40.5625 68.4375 C42.01891567 71.03371923 42.45258073 73.10649814 43 76 C43.66 76.66 44.32 77.32 45 78 C45 78.99 45 79.98 45 81 C47.64 81 50.28 81 53 81 C53 83.64 53 86.28 53 89 C52.1234375 88.9278125 51.246875 88.855625 50.34375 88.78125 C37.8931465 87.87023023 25.47881921 87.89840641 13 88 C13 85.69 13 83.38 13 81 C15.64 81 18.28 81 21 81 C21.33 79.35 21.66 77.7 22 76 C21.34 76 20.68 76 20 76 C19.26919734 74.02253397 18.60578253 72.01927511 18 70 C18.33 69.34 18.66 68.68 19 68 C18.34 68 17.68 68 17 68 C16.34 66.35 15.68 64.7 15 63 C5.76 63 -3.48 63 -13 63 C-15.051856 66.65763889 -15.051856 66.65763889 -15.5 69.5625 C-16 72 -16 72 -18 75 C-17.6878236 77.64632287 -17.6878236 77.64632287 -17 80 C-14.69 80.66 -12.38 81.32 -10 82 C-10 83.98 -10 85.96 -10 88 C-11.08796875 87.98839844 -12.1759375 87.97679687 -13.296875 87.96484375 C-21.92270656 87.90188866 -30.41125865 88.07327646 -39 89 C-39 86.36 -39 83.72 -39 81 C-36.36 80.67 -33.72 80.34 -31 80 C-30.80664062 79.38511719 -30.61328125 78.77023438 -30.4140625 78.13671875 C-30.15367187 77.32847656 -29.89328125 76.52023438 -29.625 75.6875 C-29.36976563 74.88699219 -29.11453125 74.08648437 -28.8515625 73.26171875 C-28 71 -28 71 -26 68 C-25.48195331 66.57604966 -25.00547723 65.13656112 -24.5625 63.6875 C-23.35504709 59.9126851 -21.77337758 56.54675515 -20 53 C-19.32811503 50.66816393 -18.66084583 48.33498858 -18 46 C-17.34 45.01 -16.68 44.02 -16 43 C-15.67 41.845 -15.34 40.69 -15 39.5 C-14 36 -14 36 -12 33 C-11.31060191 30.67328146 -10.64533078 28.33932406 -10 26 C-8.88713997 22.93963492 -7.82077859 20.73116788 -6 18 C-5.690625 16.906875 -5.38125 15.81375 -5.0625 14.6875 C-4.04677492 11.16233648 -2.63380493 8.26760986 -1 5 C-0.63462055 3.34006423 -0.29586048 1.67372503 0 0 Z M-1 27 C-1 28.98 -1 30.96 -1 33 C-1.99 33.495 -1.99 33.495 -3 34 C-3 35.32 -3 36.64 -3 38 C-3.99 38.495 -3.99 38.495 -5 39 C-6.03805303 41.74778742 -6.87919691 44.4412857 -7.5 47.3125 C-7.665 47.869375 -7.83 48.42625 -8 49 C-8.66 49.33 -9.32 49.66 -10 50 C-10.33 51.32 -10.66 52.64 -11 54 C-3.08 54 4.84 54 13 54 C10.47140452 45.70710678 10.47140452 45.70710678 8 41 C7.34 41 6.68 41 6 41 C6.33 40.01 6.66 39.02 7 38 C6.67 37.34 6.34 36.68 6 36 C5.34 36 4.68 36 4 36 C4 34.35 4 32.7 4 31 C3.34 31 2.68 31 2 31 C1.34 29.68 0.68 28.36 0 27 C-0.33 27 -0.66 27 -1 27 Z " fill="#122057" transform="translate(753,55)"/>
<path d="M0 0 C0.99 0.33 1.98 0.66 3 1 C5.84437102 1.09742256 8.66348536 1.13992624 11.5078125 1.1328125 C12.34786835 1.13376923 13.18792419 1.13472595 14.05343628 1.13571167 C15.83380203 1.13639236 17.61417026 1.13454582 19.39453125 1.13037109 C22.09380831 1.12506136 24.7929159 1.13029897 27.4921875 1.13671875 C29.22656286 1.13605716 30.96093812 1.13477435 32.6953125 1.1328125 C33.49252716 1.13483673 34.28974182 1.13686096 35.1111145 1.13894653 C39.79623624 1.11977809 44.34847383 0.81256468 48.99482727 0.20225525 C52.05586236 -0.1065014 55.00723488 0.14805383 58.0625 0.4375 C59.75052734 0.59025391 59.75052734 0.59025391 61.47265625 0.74609375 C62.72369141 0.87177734 62.72369141 0.87177734 64 1 C64.02708567 2.60407328 64.04643483 4.2082785 64.0625 5.8125 C64.07410156 6.70582031 64.08570313 7.59914063 64.09765625 8.51953125 C64 11 64 11 63 14 C62.93259135 15.56118428 62.91485544 17.1250252 62.9375 18.6875 C62.94652344 19.49574219 62.95554687 20.30398437 62.96484375 21.13671875 C62.97644531 21.75160156 62.98804688 22.36648437 63 23 C60.36 22.67 57.72 22.34 55 22 C55 18.37 55 14.74 55 11 C53.081875 11.0309375 53.081875 11.0309375 51.125 11.0625 C47.25 11.125 47.25 11.125 45 10 C40.15582302 9.83852743 35.77125662 10.04574868 31 11 C29.96285478 14.11143567 29.79968139 16.49468096 29.68359375 19.76171875 C29.64169922 20.87998047 29.59980469 21.99824219 29.55664062 23.15039062 C29.51732422 24.31763672 29.47800781 25.48488281 29.4375 26.6875 C29.39431641 27.86634766 29.35113281 29.04519531 29.30664062 30.25976562 C29.20048906 33.17303626 29.09973371 36.0865026 29 39 C35.27 39 41.54 39 48 39 C48.71343747 34.51516853 48.71343747 34.51516853 49 30 C51.64 30 54.28 30 57 30 C57 39.57 57 49.14 57 59 C54.69 58.67 52.38 58.34 50 58 C48.56911472 55.13822943 49.40008303 53.06624227 50 50 C46.04504575 47.38462703 41.83172627 47.55735726 37.25 47.375 C36.45722656 47.33632812 35.66445313 47.29765625 34.84765625 47.2578125 C32.89880584 47.163892 30.94943549 47.08087178 29 47 C29.1390777 51.56273224 29.28743634 56.12511691 29.4375 60.6875 C29.47681641 61.98107422 29.51613281 63.27464844 29.55664062 64.60742188 C29.59853516 65.85458984 29.64042969 67.10175781 29.68359375 68.38671875 C29.72025146 69.53358154 29.75690918 70.68044434 29.79467773 71.86206055 C29.95270193 75.33409273 29.95270193 75.33409273 31 80 C34.3 80.66 37.6 81.32 41 82 C41.495 85.465 41.495 85.465 42 89 C41.40058594 88.9278125 40.80117188 88.855625 40.18359375 88.78125 C32.84501969 88.0296464 25.56070442 87.88900751 18.1875 87.875 C17.19741943 87.87048828 16.20733887 87.86597656 15.18725586 87.86132812 C10.01647479 87.87179618 5.09477926 88.10468314 0 89 C0.33 86.69 0.66 84.38 1 82 C1.56589844 81.81824219 2.13179688 81.63648438 2.71484375 81.44921875 C3.44832031 81.19785156 4.18179687 80.94648438 4.9375 80.6875 C5.66839844 80.44386719 6.39929688 80.20023437 7.15234375 79.94921875 C9.35932024 79.08759559 9.35932024 79.08759559 10 76 C10.093902 74.01754169 10.12793206 72.03204371 10.12939453 70.04736328 C10.13254669 68.82244171 10.13569885 67.59752014 10.13894653 66.33547974 C10.13715623 64.99709029 10.13510515 63.65870118 10.1328125 62.3203125 C10.1334863 60.94652286 10.13445696 59.57273333 10.13571167 58.19894409 C10.13718606 55.31897853 10.13504305 52.43904399 10.13037109 49.55908203 C10.12468469 45.8748991 10.12794752 42.19078919 10.13394356 38.50660896 C10.13756531 35.66868545 10.13640298 32.83077911 10.13381577 29.99285507 C10.13315041 28.6349372 10.13396122 27.27701775 10.13629532 25.91910172 C10.13884711 24.01654339 10.13426541 22.11397958 10.12939453 20.21142578 C10.12859894 19.13015411 10.12780334 18.04888245 10.12698364 16.93484497 C10.00777519 14.17970014 9.62454271 11.681167 9 9 C6.03 8.67 3.06 8.34 0 8 C0 5.36 0 2.72 0 0 Z " fill="#132255" transform="translate(278,55)"/>
<path d="M0 0 C19.8 0.495 19.8 0.495 40 1 C40 2.98 40 4.96 40 7 C38.329375 7.433125 38.329375 7.433125 36.625 7.875 C32.99708908 8.69241329 32.99708908 8.69241329 31 11 C30.70627477 13.87436296 30.70627477 13.87436296 30.77294922 17.28564453 C30.77265717 17.92967224 30.77236511 18.57369995 30.77206421 19.23724365 C30.77345926 21.36923627 30.78902826 23.50088082 30.8046875 25.6328125 C30.80841702 27.10968841 30.81126428 28.58656678 30.81326294 30.06344604 C30.82090426 33.95317398 30.84055692 37.84275288 30.8626709 41.73242188 C30.88311865 45.70050032 30.89226236 49.66860282 30.90234375 53.63671875 C30.92380244 61.42454716 30.95794428 69.21225271 31 77 C35.10403363 77.08694042 39.20783129 77.14037149 43.3125 77.1875 C44.47974609 77.21263672 45.64699219 77.23777344 46.84960938 77.26367188 C47.96787109 77.27333984 49.08613281 77.28300781 50.23828125 77.29296875 C51.26993408 77.3086792 52.30158691 77.32438965 53.36450195 77.34057617 C56.39508168 76.94894498 57.07206821 76.25837059 59 74 C59.66 74 60.32 74 61 74 C60.67 72.68 60.34 71.36 60 70 C60.66 70 61.32 70 62 70 C61.67 69.01 61.34 68.02 61 67 C61.99 65.515 61.99 65.515 63 64 C65.625 63.8125 65.625 63.8125 68 64 C68.33196721 81.33606557 68.33196721 81.33606557 66 86 C62.84665174 87.05111609 60.64487717 87.12070472 57.33520508 87.11352539 C56.17422806 87.11344986 55.01325104 87.11337433 53.8170929 87.11329651 C52.56389755 87.10813522 51.31070221 87.10297394 50.01953125 87.09765625 C48.73640549 87.0962413 47.45327972 87.09482635 46.13127136 87.09336853 C42.72329759 87.08955405 39.31536657 87.07973291 35.90740967 87.06866455 C32.42851337 87.05842743 28.94961015 87.05386598 25.47070312 87.04882812 C18.64711788 87.03810967 11.82356099 87.02104609 5 87 C5 85.02 5 83.04 5 81 C7.475 80.505 7.475 80.505 10 80 C10 79.34 10 78.68 10 78 C10.66 78 11.32 78 12 78 C11.9285376 77.15824219 11.8570752 76.31648438 11.78344727 75.44921875 C10.78181384 61.97046954 10.88862135 48.50895105 10.9375 35 C10.94252673 32.56770926 10.94708756 30.13541751 10.95117188 27.703125 C10.96208057 21.80206094 10.97872501 15.90103532 11 10 C10.34 9.67 9.68 9.34 9 9 C9 8.34 9 7.68 9 7 C6.36 7 3.72 7 1 7 C0.67 4.69 0.34 2.38 0 0 Z " fill="#122255" transform="translate(344,56)"/>
<path d="M0 0 C13.2 0 26.4 0 40 0 C40 1.98 40 3.96 40 6 C39 7 39 7 35.5625 7.375 C34.386875 7.58125 33.21125 7.7875 32 8 C29.61087635 11.58368547 29.72911866 13.22995899 29.68115234 17.4909668 C29.67110672 18.1448941 29.6610611 18.79882141 29.65071106 19.4725647 C29.61984986 21.63144054 29.60283619 23.79019221 29.5859375 25.94921875 C29.56722817 27.4470985 29.54765493 28.94496768 29.5272522 30.44282532 C29.47589999 34.3833697 29.43629095 38.32394827 29.39910889 42.26464844 C29.35908851 46.28654457 29.30798722 50.30829813 29.2578125 54.33007812 C29.16101669 62.21995473 29.07662374 70.10990183 29 78 C32.63 78.66 36.26 79.32 40 80 C40 82.31 40 84.62 40 87 C26.8 87 13.6 87 0 87 C0 84.69 0 82.38 0 80 C4.455 79.505 4.455 79.505 9 79 C9.94646023 71.83105716 10.145995 64.81618418 10.1328125 57.58984375 C10.13376923 56.42296524 10.13472595 55.25608673 10.13571167 54.05384827 C10.13638908 51.59896795 10.13456553 49.14408581 10.13037109 46.68920898 C10.12501182 42.94575966 10.13033355 39.20243003 10.13671875 35.45898438 C10.13605799 33.0651039 10.13477686 30.67122351 10.1328125 28.27734375 C10.13483673 27.16568344 10.13686096 26.05402313 10.13894653 24.90867615 C10.12176275 19.17667693 9.86222585 13.66868541 9 8 C6.03 7.67 3.06 7.34 0 7 C0 4.69 0 2.38 0 0 Z " fill="#132254" transform="translate(591,56)"/>
<path d="M0 0 C1.134375 0.020625 2.26875 0.04125 3.4375 0.0625 C3.33040052 18.16861946 3.21766459 36.27469454 3.09816074 54.38073635 C3.04280933 62.78709439 2.98932424 71.19345667 2.94018555 79.59985352 C2.89736714 86.92420596 2.85109518 94.2485269 2.80062145 101.57283074 C2.77400155 105.45338937 2.74914809 109.33394168 2.72842598 113.21453667 C2.70888937 116.86292618 2.68475473 120.51125564 2.65700912 124.15959167 C2.64312877 126.14536013 2.63419921 128.13116123 2.62538147 130.11695862 C2.61069824 131.87337173 2.61069824 131.87337173 2.59571838 133.66526794 C2.58926583 134.68937995 2.58281328 135.71349195 2.5761652 136.76863766 C2.4375 139.0625 2.4375 139.0625 1.4375 140.0625 C-1.0625 140.1875 -1.0625 140.1875 -3.5625 140.0625 C-5.28400805 138.34099195 -4.68861168 136.05839835 -4.68948364 133.70996094 C-4.69230347 132.54887817 -4.69512329 131.38779541 -4.69802856 130.19152832 C-4.69600433 128.90629272 -4.6939801 127.62105713 -4.69189453 126.296875 C-4.69324856 124.93876091 -4.6950285 123.5806472 -4.69720459 122.22253418 C-4.70177877 118.52428799 -4.69998943 114.82606958 -4.6968255 111.12782288 C-4.69430182 107.26587853 -4.69663946 103.40393663 -4.69821167 99.54199219 C-4.70003334 93.05533418 -4.69762712 86.56868754 -4.69287109 80.08203125 C-4.68742848 72.57200077 -4.68919113 65.06199744 -4.6946975 57.55196762 C-4.6992287 51.1154647 -4.69987915 44.67896997 -4.69725883 38.24246597 C-4.69569609 34.39320684 -4.6955022 30.54396048 -4.69879532 26.69470215 C-4.70167413 23.07669294 -4.69969816 19.45871889 -4.69390106 15.8407135 C-4.69193791 13.87163339 -4.69492729 11.90255033 -4.69802856 9.93347168 C-4.69379883 8.19184753 -4.69379883 8.19184753 -4.68948364 6.41503906 C-4.68910662 5.39960022 -4.68872959 4.38416138 -4.68834114 3.33795166 C-4.48022106 -0.42526261 -3.92490016 0.0688579 0 0 Z " fill="#7C7D8D" transform="translate(258.5625,3.9375)"/>
<path d="M0 0 C3.5625 1.3125 3.5625 1.3125 5.125 3.5625 C5.6053016 6.5815386 5.83358845 9.26275488 5.5625 12.3125 C4.9025 12.9725 4.2425 13.6325 3.5625 14.3125 C3.2325 15.3025 2.9025 16.2925 2.5625 17.3125 C1.5725 17.3125 0.5825 17.3125 -0.4375 17.3125 C1.91835369 23.79109765 5.0997012 31.0811006 11.5625 34.3125 C10.9025 35.6325 10.2425 36.9525 9.5625 38.3125 C5.9325 37.9825 2.3025 37.6525 -1.4375 37.3125 C-2.0975 35.6625 -2.7575 34.0125 -3.4375 32.3125 C-4.41770375 31.2930881 -5.41553008 30.29003644 -6.4375 29.3125 C-6.7675 28.3225 -7.0975 27.3325 -7.4375 26.3125 C-8.41778616 24.96460653 -9.41721135 23.63037285 -10.4375 22.3125 C-10.7675 21.6525 -11.0975 20.9925 -11.4375 20.3125 C-11.7675 24.6025 -12.0975 28.8925 -12.4375 33.3125 C-9.9625 32.8175 -9.9625 32.8175 -7.4375 32.3125 C-7.4375 33.9625 -7.4375 35.6125 -7.4375 37.3125 C-13.3775 37.3125 -19.3175 37.3125 -25.4375 37.3125 C-25.1075 35.9925 -24.7775 34.6725 -24.4375 33.3125 C-23.1175 33.3125 -21.7975 33.3125 -20.4375 33.3125 C-20.49079468 32.26908447 -20.49079468 32.26908447 -20.54516602 31.20458984 C-20.70342613 28.0325181 -20.85180097 24.86005707 -21 21.6875 C-21.05607422 20.59308594 -21.11214844 19.49867187 -21.16992188 18.37109375 C-21.21826172 17.30761719 -21.26660156 16.24414062 -21.31640625 15.1484375 C-21.38710327 13.68736572 -21.38710327 13.68736572 -21.45922852 12.19677734 C-21.43618166 9.13750193 -21.01534025 6.3125999 -20.4375 3.3125 C-22.0875 3.3125 -23.7375 3.3125 -25.4375 3.3125 C-25.1075 2.3225 -24.7775 1.3325 -24.4375 0.3125 C-18.33728998 -2.73760501 -6.63686756 -1.15329174 0 0 Z M-12.4375 4.3125 C-12.4375 8.2725 -12.4375 12.2325 -12.4375 16.3125 C-11.1175 16.6425 -9.7975 16.9725 -8.4375 17.3125 C-8.4375 16.6525 -8.4375 15.9925 -8.4375 15.3125 C-7.4475 15.6425 -6.4575 15.9725 -5.4375 16.3125 C-3.12417514 12.84251271 -3.09792437 11.38740752 -3.4375 7.3125 C-4.0975 6.3225 -4.7575 5.3325 -5.4375 4.3125 C-9.02107241 4.06234127 -9.02107241 4.06234127 -12.4375 4.3125 Z M-12.4375 17.3125 C-11.4375 19.3125 -11.4375 19.3125 -11.4375 19.3125 Z " fill="#122155" transform="translate(515.4375,4.6875)"/>
<path d="M0 0 C4.62 0 9.24 0 14 0 C14.66 1.65 15.32 3.3 16 5 C16.66 5 17.32 5 18 5 C18.268125 5.5775 18.53625 6.155 18.8125 6.75 C20.48743197 9.92355532 22.46644031 12.46644031 25 15 C25.28875 15.639375 25.5775 16.27875 25.875 16.9375 C27.21151655 19.38778034 28.67358193 20.49908512 31 22 C31.33 22 31.66 22 32 22 C32 16.39 32 10.78 32 5 C30.68 5 29.36 5 28 5 C28 3.35 28 1.7 28 0 C32.29 0.33 36.58 0.66 41 1 C41 1.99 41 2.98 41 4 C39.68 4 38.36 4 37 4 C37.05329468 5.38505737 37.05329468 5.38505737 37.10766602 6.7980957 C37.23691362 10.22520715 37.36121924 13.65242386 37.48217773 17.07983398 C37.53553529 18.56297949 37.59085973 20.04605561 37.64819336 21.52905273 C37.73027921 23.66114337 37.80528001 25.79338379 37.87890625 27.92578125 C37.9260376 29.20880127 37.97316895 30.49182129 38.02172852 31.8137207 C38 35 38 35 37 38 C33.42532128 38.19859326 30.95022696 38.13637125 28 36 C27.33333333 34.33333333 26.66666667 32.66666667 26 31 C25.34 30.67 24.68 30.34 24 30 C22 29 22 29 20.75 26.375 C20.5025 25.59125 20.255 24.8075 20 24 C19.34 24 18.68 24 18 24 C17.731875 23.195625 17.46375 22.39125 17.1875 21.5625 C16.795625 20.716875 16.40375 19.87125 16 19 C15.01 18.67 14.02 18.34 13 18 C11.875 15.5 11.875 15.5 11 13 C10.67 12.67 10.34 12.34 10 12 C9.97289877 14.5625718 9.95311229 17.12485365 9.9375 19.6875 C9.92912109 20.40873047 9.92074219 21.12996094 9.91210938 21.87304688 C9.89456368 25.71555382 10.06475779 29.26639526 11 33 C11.99 33.33 12.98 33.66 14 34 C14 34.99 14 35.98 14 37 C9.71 37 5.42 37 1 37 C0.67 35.68 0.34 34.36 0 33 C1.65 33.33 3.3 33.66 5 34 C4.75636719 32.54980469 4.75636719 32.54980469 4.5078125 31.0703125 C3.88051317 26.66591759 3.85290056 22.31698805 3.875 17.875 C3.87113281 17.08996094 3.86726563 16.30492188 3.86328125 15.49609375 C3.86996748 11.53116038 4.02076054 7.87032739 5 4 C3.35 4 1.7 4 0 4 C0 2.68 0 1.36 0 0 Z " fill="#142055" transform="translate(326,4)"/>
<path d="M0 0 C0.66 0.66 1.32 1.32 2 2 C1.86328125 4.12890625 1.86328125 4.12890625 1.3125 6.5625 C1.14363281 7.36816406 0.97476563 8.17382812 0.80078125 9.00390625 C0.53652344 9.66261719 0.27226563 10.32132813 0 11 C-0.99 11.33 -1.98 11.66 -3 12 C-3.33 10.35 -3.66 8.7 -4 7 C-4.99 6.67 -5.98 6.34 -7 6 C-7 5.34 -7 4.68 -7 4 C-7.5775 4.28875 -8.155 4.5775 -8.75 4.875 C-11 6 -11 6 -13.1875 6.875 C-15.20077462 7.86279272 -15.20077462 7.86279272 -15.75 10.125 C-15.8325 10.74375 -15.915 11.3625 -16 12 C-14.35 12.33 -12.7 12.66 -11 13 C-11 13.66 -11 14.32 -11 15 C-9.02 14.67 -7.04 14.34 -5 14 C-5 14.66 -5 15.32 -5 16 C-4.01 15.67 -3.02 15.34 -2 15 C1.51101264 17.79080492 3.35510939 19.97262226 4.0625 24.375 C4.37102041 29.36135691 2.96665371 32.04446172 0 36 C-6.57767448 38.19255816 -14.29283966 40.30287474 -21.1875 38.39453125 C-22.8125 37.5625 -22.8125 37.5625 -25 36 C-25 35.01 -25 34.02 -25 33 C-24.34 33 -23.68 33 -23 33 C-23 30.69 -23 28.38 -23 26 C-22.01 26 -21.02 26 -20 26 C-20 27.65 -20 29.3 -20 31 C-19.34 31 -18.68 31 -18 31 C-17.67 31.66 -17.34 32.32 -17 33 C-11.93048767 33.42913713 -11.93048767 33.42913713 -7.5 31.25 C-5.8167087 29.15568719 -5.8167087 29.15568719 -5.9375 26.875 C-6.89750953 24.80121015 -6.89750953 24.80121015 -9.25 23.75 C-11.92718582 22.87846038 -11.92718582 22.87846038 -14.5 23.0625 C-17.79321335 22.98016967 -19.39396843 21.972132 -22 20 C-23.94516612 16.91734919 -24.27158126 14.48986098 -24.25 10.875 C-24.25773438 9.57175781 -24.25773438 9.57175781 -24.265625 8.2421875 C-23.89677688 5.12867539 -22.17108803 4.17108803 -20 2 C-14.11490855 -1.70542795 -6.59462876 -1.54456682 0 0 Z " fill="#122054" transform="translate(560,4)"/>
<path d="M0 0 C0.33 1.32 0.66 2.64 1 4 C-0.65 4.66 -2.3 5.32 -4 6 C-3.88957056 9.22983662 -3.75907341 12.45856526 -3.625 15.6875 C-3.5940625 16.59951172 -3.563125 17.51152344 -3.53125 18.45117188 C-3.33223046 23.01203631 -3.14309878 26.86190275 -1 31 C2.01226789 31.59215523 4.9244943 32.0584293 8 32 C10.46172153 30.207809 10.46172153 30.207809 12 28 C12.66 28 13.32 28 14 28 C13.96447021 27.37955811 13.92894043 26.75911621 13.89233398 26.11987305 C13.73474853 23.30937992 13.58602567 20.49848584 13.4375 17.6875 C13.38142578 16.71103516 13.32535156 15.73457031 13.26757812 14.72851562 C13.21923828 13.79072266 13.17089844 12.85292969 13.12109375 11.88671875 C13.0739624 11.02264404 13.02683105 10.15856934 12.97827148 9.26831055 C13 7 13 7 14 4 C13.01 4.33 12.02 4.66 11 5 C10.34 4.67 9.68 4.34 9 4 C9.33 2.68 9.66 1.36 10 0 C11.43739513 -0.02712066 12.87493863 -0.04645067 14.3125 -0.0625 C15.51326172 -0.07990234 15.51326172 -0.07990234 16.73828125 -0.09765625 C19 0 19 0 22 1 C22.495 2.485 22.495 2.485 23 4 C21.02 4.99 21.02 4.99 19 6 C18.98018066 6.77714355 18.96036133 7.55428711 18.93994141 8.35498047 C18.84492991 11.86200691 18.73515441 15.36841794 18.625 18.875 C18.5940625 20.09832031 18.563125 21.32164063 18.53125 22.58203125 C18.49257813 23.74863281 18.45390625 24.91523438 18.4140625 26.1171875 C18.3826416 27.19597168 18.3512207 28.27475586 18.31884766 29.38623047 C17.90232512 32.80069471 16.37963655 33.62036345 14 36 C12.68352881 36.69937532 11.34977849 37.36729133 10 38 C9.01 38.495 9.01 38.495 8 39 C5.66463902 38.96279449 3.33017332 38.84746067 1 38.6875 C-0.258125 38.60886719 -1.51625 38.53023437 -2.8125 38.44921875 C-6 38 -6 38 -8 36 C-9.0209375 35.319375 -9.0209375 35.319375 -10.0625 34.625 C-12.38192892 32.67967252 -12.4992147 31.92786332 -13 29 C-13.08026745 27.12122376 -13.10765872 25.2398385 -13.09765625 23.359375 C-13.09282227 21.75449219 -13.09282227 21.75449219 -13.08789062 20.1171875 C-13.07951172 19.00601562 -13.07113281 17.89484375 -13.0625 16.75 C-13.05798828 15.62335937 -13.05347656 14.49671875 -13.04882812 13.3359375 C-13.03705397 10.55723783 -13.0206084 7.77864591 -13 5 C-14.32 4.34 -15.64 3.68 -17 3 C-16.67 2.34 -16.34 1.68 -16 1 C-13.28553021 0.68758545 -10.66090639 0.48663408 -7.9375 0.375 C-7.17888672 0.33632812 -6.42027344 0.29765625 -5.63867188 0.2578125 C-3.75952805 0.16326438 -1.87979664 0.08053244 0 0 Z " fill="#132155" transform="translate(295,4)"/>
<path d="M0 0 C2.01822917 0.06510417 4.03645833 0.13020833 6.0546875 0.1953125 C6.5496875 2.1753125 6.5496875 2.1753125 7.0546875 4.1953125 C6.3946875 4.1953125 5.7346875 4.1953125 5.0546875 4.1953125 C5.5496875 6.6703125 5.5496875 6.6703125 6.0546875 9.1953125 C2.85566111 9.28417434 0.12791294 9.10589781 -2.9453125 8.1953125 C-3.6053125 10.5053125 -4.2653125 12.8153125 -4.9453125 15.1953125 C-2.9653125 15.1953125 -0.9853125 15.1953125 1.0546875 15.1953125 C2.1796875 18.9453125 2.1796875 18.9453125 1.0546875 21.1953125 C-1.5853125 20.8653125 -4.2253125 20.5353125 -6.9453125 20.1953125 C-6.7596875 20.7521875 -6.5740625 21.3090625 -6.3828125 21.8828125 C-5.86980085 24.5944455 -6.2812401 26.53902289 -6.9453125 29.1953125 C-7.6053125 29.1953125 -8.2653125 29.1953125 -8.9453125 29.1953125 C-9.2753125 33.1553125 -9.6053125 37.1153125 -9.9453125 41.1953125 C-10.6053125 41.1953125 -11.2653125 41.1953125 -11.9453125 41.1953125 C-11.7390625 41.7728125 -11.5328125 42.3503125 -11.3203125 42.9453125 C-10.84527497 45.79553766 -11.52198361 46.72321495 -12.9453125 49.1953125 C-13.2753125 50.0821875 -13.6053125 50.9690625 -13.9453125 51.8828125 C-14.9453125 54.1953125 -14.9453125 54.1953125 -16.9453125 55.1953125 C-17.1928125 55.8140625 -17.4403125 56.4328125 -17.6953125 57.0703125 C-19.51471193 60.16329153 -21.65549952 60.90518976 -24.9453125 62.1953125 C-27.8203125 62.3828125 -27.8203125 62.3828125 -29.9453125 62.1953125 C-29.9453125 60.5453125 -29.9453125 58.8953125 -29.9453125 57.1953125 C-29.2853125 57.1953125 -28.6253125 57.1953125 -27.9453125 57.1953125 C-28.2753125 55.8753125 -28.6053125 54.5553125 -28.9453125 53.1953125 C-26.6353125 53.1953125 -24.3253125 53.1953125 -21.9453125 53.1953125 C-20.29730394 49.53083818 -19.60950277 46.38327784 -19.3203125 42.3828125 C-19.24554687 41.40699219 -19.17078125 40.43117187 -19.09375 39.42578125 C-19.04476562 38.68972656 -18.99578125 37.95367187 -18.9453125 37.1953125 C-18.2853125 37.1953125 -17.6253125 37.1953125 -16.9453125 37.1953125 C-17.2753125 35.5453125 -17.6053125 33.8953125 -17.9453125 32.1953125 C-17.2853125 32.1953125 -16.6253125 32.1953125 -15.9453125 32.1953125 C-15.9453125 28.5653125 -15.9453125 24.9353125 -15.9453125 21.1953125 C-18.4203125 20.2053125 -18.4203125 20.2053125 -20.9453125 19.1953125 C-18.77107133 16.69493516 -17.21485452 15.75902664 -13.9453125 15.1953125 C-13.8628125 14.2465625 -13.7803125 13.2978125 -13.6953125 12.3203125 C-13.4478125 11.2890625 -13.2003125 10.2578125 -12.9453125 9.1953125 C-11.0078125 8.0703125 -11.0078125 8.0703125 -8.9453125 7.1953125 C-8.26263112 5.87010747 -7.5946084 4.53719068 -6.9453125 3.1953125 C-5.9553125 2.8653125 -4.9653125 2.5353125 -3.9453125 2.1953125 C-1.9453125 0.1953125 -1.9453125 0.1953125 0 0 Z " fill="#141F54" transform="translate(753.9453125,-0.1953125)"/>
<path d="M0 0 C0.99 0.33 1.98 0.66 3 1 C4.95677555 1.15754704 4.95677555 1.15754704 7 1.125 C8.0209375 1.12886719 8.0209375 1.12886719 9.0625 1.1328125 C11.21874781 1.06631126 11.21874781 1.06631126 14 0 C14 1.98 14 3.96 14 6 C13.01 6.33 12.02 6.66 11 7 C9.83177716 8.65323451 9.83177716 8.65323451 8.9375 10.6875 C8.5971875 11.41066406 8.256875 12.13382813 7.90625 12.87890625 C6.77094182 15.53611462 5.89549796 18.25380625 5 21 C4 23 3 25 2 27 C1.30028027 28.98867713 0.62335603 30.98608051 0 33 C-0.66 33 -1.32 33 -2 33 C-1.67 33.99 -1.34 34.98 -1 36 C-1.66 36.99 -2.32 37.98 -3 39 C-6.68754757 38.50168276 -8.60490662 37.89932357 -11 35 C-10.67 34.01 -10.34 33.02 -10 32 C-10.66 31.67 -11.32 31.34 -12 31 C-14.39895081 26.80183608 -15.71134967 22.63914119 -17 18 C-17.64612746 16.65659331 -18.31424127 15.3236152 -19 14 C-19.31839844 13.30519531 -19.63679688 12.61039063 -19.96484375 11.89453125 C-20.28582031 11.20746094 -20.60679687 10.52039062 -20.9375 9.8125 C-21.25589844 9.11769531 -21.57429688 8.42289063 -21.90234375 7.70703125 C-22.96416596 5.66365617 -22.96416596 5.66365617 -26 5 C-25.67 3.68 -25.34 2.36 -25 1 C-19.06 1 -13.12 1 -7 1 C-7.33 2.32 -7.66 3.64 -8 5 C-9.32 5 -10.64 5 -12 5 C-12 5.99 -12 6.98 -12 8 C-11.34 8.33 -10.68 8.66 -10 9 C-8.3125 12.4375 -8.3125 12.4375 -7 16 C-7.33 16.66 -7.66 17.32 -8 18 C-7.34 18.33 -6.68 18.66 -6 19 C-5.27840576 20.64363134 -4.60648579 22.31050386 -4 24 C-3.731875 23.46375 -3.46375 22.9275 -3.1875 22.375 C-2.29574572 20.59149144 -1.37391916 18.82296802 -0.4375 17.0625 C0.86771517 14.28182421 1.4995677 12.00259379 2 9 C3 7 3 7 4 6 C2.68 5.34 1.36 4.68 0 4 C0 2.68 0 1.36 0 0 Z M-4 26 C-3 28 -3 28 -3 28 Z " fill="#132056" transform="translate(429,3)"/>
<path d="M0 0 C3.72915017 -0.02912348 7.4582709 -0.04684037 11.1875 -0.0625 C12.77014648 -0.07506836 12.77014648 -0.07506836 14.38476562 -0.08789062 C15.91713867 -0.09272461 15.91713867 -0.09272461 17.48046875 -0.09765625 C18.41785889 -0.10289307 19.35524902 -0.10812988 20.32104492 -0.11352539 C22.98049477 -0.00082657 25.40920573 0.40623351 28 1 C28 4.3 28 7.6 28 11 C27.01 10.67 26.02 10.34 25 10 C24.67 8.68 24.34 7.36 24 6 C18.555 5.505 18.555 5.505 13 5 C13 8.96 13 12.92 13 17 C15.97 17 18.94 17 22 17 C22 15.68 22 14.36 22 13 C22.99 13 23.98 13 25 13 C25.33 17.29 25.66 21.58 26 26 C24.68 25.67 23.36 25.34 22 25 C22 23.68 22 22.36 22 21 C19.03 20.67 16.06 20.34 13 20 C13 24.29 13 28.58 13 33 C18.445 32.505 18.445 32.505 24 32 C24 31.34 24 30.68 24 30 C24.66 30 25.32 30 26 30 C26 29.34 26 28.68 26 28 C26.99 28 27.98 28 29 28 C29.6875 29.625 29.6875 29.625 30 32 C29.01 33.98 28.02 35.96 27 38 C18.42 38 9.84 38 1 38 C2 33 2 33 4 31 C4.27844932 28.28065665 4.27844932 28.28065665 4.1953125 25.1171875 C4.18886719 23.95058594 4.18242187 22.78398437 4.17578125 21.58203125 C4.15902344 20.35871094 4.14226562 19.13539062 4.125 17.875 C4.11597656 16.64394531 4.10695313 15.41289062 4.09765625 14.14453125 C4.07402548 11.09616185 4.04108054 8.04817618 4 5 C2.68 4.34 1.36 3.68 0 3 C0 2.01 0 1.02 0 0 Z " fill="#152352" transform="translate(451,4)"/>
<path d="M0 0 C2.2890625 1.6328125 2.2890625 1.6328125 4 4 C4.390625 7.234375 4.390625 7.234375 4.25 10.75 C4.21390625 11.92046875 4.1778125 13.0909375 4.140625 14.296875 C4.07101562 15.63492187 4.07101562 15.63492187 4 17 C3.34 17 2.68 17 2 17 C2.33 17.99 2.66 18.98 3 20 C1.32665287 22.6773554 -0.72876366 24.82339851 -3 27 C-3.474375 27.53625 -3.94875 28.0725 -4.4375 28.625 C-6.28476343 30.25059182 -7.5739455 30.68696071 -10 31 C-10.66 30.67 -11.32 30.34 -12 30 C-12.33 30.66 -12.66 31.32 -13 32 C-14.65 32 -16.3 32 -18 32 C-18 31.34 -18 30.68 -18 30 C-18.99 30.33 -19.98 30.66 -21 31 C-23.68909875 28.78825606 -24.90014631 27.66599661 -25.42578125 24.16015625 C-25.36970703 22.62681641 -25.36970703 22.62681641 -25.3125 21.0625 C-25.28800781 20.04285156 -25.26351562 19.02320312 -25.23828125 17.97265625 C-24.65142857 10.65142857 -24.65142857 10.65142857 -22 8 C-21.67 7.34 -21.34 6.68 -21 6 C-15.12346817 -0.71603638 -8.58578683 -2.46522592 0 0 Z M-12 4 C-12.99 5.485 -12.99 5.485 -14 7 C-13.67 7.66 -13.34 8.32 -13 9 C-13.99 9.495 -13.99 9.495 -15 10 C-14.67 10.66 -14.34 11.32 -14 12 C-14.66 12 -15.32 12 -16 12 C-16.33 15.63 -16.66 19.26 -17 23 C-16.34 23 -15.68 23 -15 23 C-14.67 24.32 -14.34 25.64 -14 27 C-11.59122743 26.88658466 -11.59122743 26.88658466 -9 26 C-7.01077927 23.76802871 -7.01077927 23.76802871 -6 21 C-6.20643199 18.74671588 -6.20643199 18.74671588 -7 17 C-6.34 17 -5.68 17 -5 17 C-5 13.04 -5 9.08 -5 5 C-9.47702364 3.93462795 -9.47702364 3.93462795 -12 4 Z " fill="#121E52" transform="translate(726,15)"/>
<path d="M0 0 C4.37908116 3.71269925 7.20718809 6.59414575 7.875 12.4375 C9.83394361 12.32443303 9.83394361 12.32443303 11.875 11.4375 C13.02520525 9.19006244 13.02520525 9.19006244 13.875 6.4375 C15 3.1875 15 3.1875 16.875 0.4375 C19.63570284 -0.4043777 21.95021647 -0.46660546 24.875 -0.5625 C23.6051117 5.36364542 20.72414503 8.89748279 16.875 13.4375 C15.75714887 15.55535113 15.75714887 15.55535113 14.875 18.4375 C14.215 19.0975 13.555 19.7575 12.875 20.4375 C12.41013282 23.55946336 12.41013282 23.55946336 12.25 27.0625 C12.17523437 28.25101563 12.10046875 29.43953125 12.0234375 30.6640625 C11.94996094 32.03691406 11.94996094 32.03691406 11.875 33.4375 C13.525 33.4375 15.175 33.4375 16.875 33.4375 C16.875 34.4275 16.875 35.4175 16.875 36.4375 C10.935 36.7675 4.995 37.0975 -1.125 37.4375 C-0.795 36.1175 -0.465 34.7975 -0.125 33.4375 C1.36 32.9425 1.36 32.9425 2.875 32.4375 C3.205 28.8075 3.535 25.1775 3.875 21.4375 C3.215 21.4375 2.555 21.4375 1.875 21.4375 C-2.86213491 13.13847357 -2.86213491 13.13847357 -4.25 9.4375 C-4.53875 8.7775 -4.8275 8.1175 -5.125 7.4375 C-6.115 7.1075 -7.105 6.7775 -8.125 6.4375 C-9.115 6.1075 -10.105 5.7775 -11.125 5.4375 C-10.5 3.0625 -10.5 3.0625 -9.125 0.4375 C-5.31668802 -1.72631363 -3.96051478 -1.98025739 0 0 Z " fill="#131F53" transform="translate(652.125,4.5625)"/>
<path d="M0 0 C0.99 0.495 0.99 0.495 2 1 C4.48099734 1.08649451 6.93344928 1.11565054 9.4140625 1.09765625 C10.14370209 1.0962413 10.87334167 1.09482635 11.62509155 1.09336853 C13.95843585 1.08776531 16.29168464 1.07521235 18.625 1.0625 C20.20572778 1.05748541 21.78645707 1.05292243 23.3671875 1.04882812 C27.24482854 1.03779484 31.12239807 1.02052811 35 1 C34.93993922 2.45947705 34.8511311 3.91779272 34.75 5.375 C34.70359375 6.18710938 34.6571875 6.99921875 34.609375 7.8359375 C34 10 34 10 31.953125 11.2890625 C30.98632812 11.64097656 30.98632812 11.64097656 30 12 C29.67 10.35 29.34 8.7 29 7 C26.69 6.67 24.38 6.34 22 6 C22.33 15.24 22.66 24.48 23 34 C24.485 34.495 24.485 34.495 26 35 C26 35.99 26 36.98 26 38 C20.06 38.33 14.12 38.66 8 39 C8.33 37.68 8.66 36.36 9 35 C10.32 35 11.64 35 13 35 C12.82597656 34.25492188 12.65195312 33.50984375 12.47265625 32.7421875 C11.80999598 27.49567065 12.15520003 22.3945995 12.4375 17.125 C12.48970703 16.05507813 12.54191406 14.98515625 12.59570312 13.8828125 C12.72475399 11.25486761 12.85969152 8.62736387 13 6 C10.36 6.33 7.72 6.66 5 7 C4.67 8.32 4.34 9.64 4 11 C3.01 11 2.02 11 1 11 C0.67 7.37 0.34 3.74 0 0 Z " fill="#112055" transform="translate(600,3)"/>
<path d="M0 0 C6.27 0 12.54 0 19 0 C19 1.32 19 2.64 19 4 C17.68 4.33 16.36 4.66 15 5 C15.00523682 5.80743652 15.01047363 6.61487305 15.01586914 7.44677734 C15.03659929 11.08951038 15.04964749 14.73223102 15.0625 18.375 C15.07087891 19.64601563 15.07925781 20.91703125 15.08789062 22.2265625 C15.09111328 23.43828125 15.09433594 24.65 15.09765625 25.8984375 C15.10289307 27.01911621 15.10812988 28.13979492 15.11352539 29.29443359 C15 32 15 32 14 34 C15.32 34 16.64 34 18 34 C18 34.99 18 35.98 18 37 C9.585 37.495 9.585 37.495 1 38 C1 36.35 1 34.7 1 33 C2.32 33.33 3.64 33.66 5 34 C5.0578304 29.54172074 5.09353855 25.0835372 5.125 20.625 C5.14175781 19.35398437 5.15851563 18.08296875 5.17578125 16.7734375 C5.18222656 15.56171875 5.18867188 14.35 5.1953125 13.1015625 C5.20578613 11.98088379 5.21625977 10.86020508 5.22705078 9.70556641 C5.28055323 6.85022157 5.28055323 6.85022157 3 5 C2.01 4.34 1.02 3.68 0 3 C0 2.01 0 1.02 0 0 Z " fill="#112054" transform="translate(376,4)"/>
<path d="M0 0 C5.61 0.33 11.22 0.66 17 1 C17.33 2.32 17.66 3.64 18 5 C16.68 5 15.36 5 14 5 C13.67 14.57 13.34 24.14 13 34 C14.32 34 15.64 34 17 34 C17 34.99 17 35.98 17 37 C8.585 37.495 8.585 37.495 0 38 C0 36.35 0 34.7 0 33 C2.475 32.505 2.475 32.505 5 32 C5 23.09 5 14.18 5 5 C3.35 4.67 1.7 4.34 0 4 C0 2.68 0 1.36 0 0 Z " fill="#142055" transform="translate(574,4)"/>
<path d="M0 0 C0.99 0.33 1.98 0.66 3 1 C3 8.59 3 16.18 3 24 C2.01 24 1.02 24 0 24 C0 16.08 0 8.16 0 0 Z " fill="#0E1762" transform="translate(332,88)"/>
<path d="M0 0 C0.33 0 0.66 0 1 0 C1.35947703 3.77450884 1.07226936 5.84678896 -0.5625 9.3125 C-3 12 -3 12 -6.75 12.875 C-7.8225 12.91625 -8.895 12.9575 -10 13 C-9.67 10.69 -9.34 8.38 -9 6 C-8.15115234 5.72736328 -8.15115234 5.72736328 -7.28515625 5.44921875 C-6.55167969 5.19785156 -5.81820313 4.94648438 -5.0625 4.6875 C-3.96615234 4.32205078 -3.96615234 4.32205078 -2.84765625 3.94921875 C-0.64067976 3.08759559 -0.64067976 3.08759559 0 0 Z " fill="#172143" transform="translate(288,131)"/>
<path d="M0 0 C0.33 0 0.66 0 1 0 C1 6.93 1 13.86 1 21 C-9.23 21 -19.46 21 -30 21 C-29.34 19.68 -28.68 18.36 -28 17 C-27.01 17.66 -26.02 18.32 -25 19 C-22.28924456 19.36798693 -22.28924456 19.36798693 -19.23828125 19.4140625 C-18.12001953 19.45273438 -17.00175781 19.49140625 -15.84960938 19.53125 C-14.68236328 19.5621875 -13.51511719 19.593125 -12.3125 19.625 C-11.13365234 19.66367188 -9.95480469 19.70234375 -8.74023438 19.7421875 C-5.82708332 19.83654057 -2.91356297 19.91936242 0 20 C0 13.4 0 6.8 0 0 Z " fill="#172349" transform="translate(207,63)"/>
<path d="M0 0 C-0.33 0.66 -0.66 1.32 -1 2 C-12.55 2 -24.1 2 -36 2 C-36 1.67 -36 1.34 -36 1 C-32.25151127 0.62851585 -28.50113623 0.28113246 -24.75 -0.0625 C-23.70585937 -0.16626953 -22.66171875 -0.27003906 -21.5859375 -0.37695312 C-14.25676606 -1.03295921 -7.30789214 -0.84504675 0 0 Z " fill="#111A42" transform="translate(340,56)"/>
<path d="M0 0 C0.99 0.33 1.98 0.66 3 1 C3 1.66 3 2.32 3 3 C15.87 3 28.74 3 42 3 C42 3.33 42 3.66 42 4 C27.81 4.33 13.62 4.66 -1 5 C-0.67 3.35 -0.34 1.7 0 0 Z " fill="#182048" transform="translate(141,138)"/>
<path d="M0 0 C0.99 1.32 1.98 2.64 3 4 C1.125 5.0625 1.125 5.0625 -1 6 C-1.66 5.67 -2.32 5.34 -3 5 C-3.33 5.66 -3.66 6.32 -4 7 C-5.65 7 -7.3 7 -9 7 C-9 6.34 -9 5.68 -9 5 C-9.99 5.33 -10.98 5.66 -12 6 C-12.33 5.34 -12.66 4.68 -13 4 C-11.02 4 -9.04 4 -7 4 C-7 3.34 -7 2.68 -7 2 C-4.69 1.34 -2.38 0.68 0 0 Z " fill="#191E58" transform="translate(717,40)"/>
<path d="M0 0 C0.66 0 1.32 0 2 0 C3.70159453 13.81776765 3.70159453 13.81776765 0 19 C-0.66 19 -1.32 19 -2 19 C-2.33 18.01 -2.66 17.02 -3 16 C-2.34 16 -1.68 16 -1 16 C-1.33 14.35 -1.66 12.7 -2 11 C-1.34 11 -0.68 11 0 11 C0 7.37 0 3.74 0 0 Z " fill="#121E42" transform="translate(738,21)"/>
<path d="M0 0 C0.99 0 1.98 0 3 0 C4.0326802 2.78823655 4.04509293 3.8677274 3.0625 6.75 C2.711875 7.4925 2.36125 8.235 2 9 C-0.97 8.505 -0.97 8.505 -4 8 C-3.34 6.02 -2.68 4.04 -2 2 C-1.34 2 -0.68 2 0 2 C0 1.34 0 0.68 0 0 Z " fill="#131B41" transform="translate(477,32)"/>
<path d="M0 0 C0.66 0.33 1.32 0.66 2 1 C0.25 6.75 0.25 6.75 -2 9 C-2.99 9.33 -3.98 9.66 -5 10 C-5.66 8.02 -6.32 6.04 -7 4 C-6.34 3.67 -5.68 3.34 -5 3 C-5 3.66 -5 4.32 -5 5 C-4.34 5 -3.68 5 -3 5 C-2.814375 4.0409375 -2.814375 4.0409375 -2.625 3.0625 C-2.41875 2.381875 -2.2125 1.70125 -2 1 C-1.34 0.67 -0.68 0.34 0 0 Z " fill="#102066" transform="translate(740,45)"/>
<path d="M0 0 C0.99 0.33 1.98 0.66 3 1 C3.6875 3.0625 3.6875 3.0625 4 5 C4.66 4.67 5.32 4.34 6 4 C6.33 5.65 6.66 7.3 7 9 C4.36 8.67 1.72 8.34 -1 8 C-0.67 5.36 -0.34 2.72 0 0 Z " fill="#14194D" transform="translate(334,69)"/>
<path d="M0 0 C-4.74579757 2.73796013 -9.59887759 3.15885654 -15 3 C-13 1 -13 1 -10.375 0.875 C-9.59125 0.91625 -8.8075 0.9575 -8 1 C-8 0.34 -8 -0.32 -8 -1 C-4.37673261 -2.2077558 -3.35853631 -1.54311128 0 0 Z " fill="#121C40" transform="translate(482,141)"/>
<path d="M0 0 C0.99 0 1.98 0 3 0 C2.52269162 1.4589426 2.04308958 2.91713496 1.5625 4.375 C1.29566406 5.18710937 1.02882813 5.99921875 0.75390625 6.8359375 C0 9 0 9 -1 11 C-1.66 11 -2.32 11 -3 11 C-3.33 9.35 -3.66 7.7 -4 6 C-3.01 5.67 -2.02 5.34 -1 5 C-0.67 3.35 -0.34 1.7 0 0 Z " fill="#15166A" transform="translate(430,25)"/>
<path d="M0 0 C3 2 3 2 3.51171875 4.1640625 C3.56972656 4.97617188 3.62773438 5.78828125 3.6875 6.625 C3.75324219 7.44226563 3.81898438 8.25953125 3.88671875 9.1015625 C3.92410156 9.72804688 3.96148438 10.35453125 4 11 C3.01 11 2.02 11 1 11 C0.67 7.37 0.34 3.74 0 0 Z " fill="#121E3F" transform="translate(600,3)"/>
<path d="M0 0 C0.33 0 0.66 0 1 0 C1.24954005 1.43410368 1.47392642 2.87260072 1.6875 4.3125 C1.81511719 5.11300781 1.94273437 5.91351563 2.07421875 6.73828125 C2 9 2 9 0.75 10.8125 C-1 12 -1 12 -4.6875 11.6875 C-5.780625 11.460625 -6.87375 11.23375 -8 11 C-8 10.67 -8 10.34 -8 10 C-4.535 9.505 -4.535 9.505 -1 9 C-0.67 6.03 -0.34 3.06 0 0 Z " fill="#111C40" transform="translate(601,126)"/>
<path d="M0 0 C0.66 0 1.32 0 2 0 C2.08089542 2.77141717 2.14044062 5.54047819 2.1875 8.3125 C2.21263672 9.09818359 2.23777344 9.88386719 2.26367188 10.69335938 C2.27333984 11.45068359 2.28300781 12.20800781 2.29296875 12.98828125 C2.3086792 13.68477783 2.32438965 14.38127441 2.34057617 15.09887695 C2 17 2 17 -1 20 C-0.67 13.4 -0.34 6.8 0 0 Z " fill="#132242" transform="translate(486,92)"/>
<path d="M0 0 C1.9453125 -0.29296875 1.9453125 -0.29296875 4.125 -0.1875 C5.40375 -0.125625 6.6825 -0.06375 8 0 C8 0.99 8 1.98 8 3 C4.7 3 1.4 3 -2 3 C-1.34 2.01 -0.68 1.02 0 0 Z " fill="#0F1A3C" transform="translate(536,61)"/>
<path d="M0 0 C0.66 0.33 1.32 0.66 2 1 C1.745504 2.48206495 1.47088238 3.96068615 1.1875 5.4375 C1.03667969 6.26121094 0.88585937 7.08492187 0.73046875 7.93359375 C0.48941406 8.61550781 0.24835937 9.29742187 0 10 C-0.99 10.33 -1.98 10.66 -3 11 C-3.33 9.35 -3.66 7.7 -4 6 C-3.01 6 -2.02 6 -1 6 C-0.67 4.02 -0.34 2.04 0 0 Z " fill="#0C1E4C" transform="translate(560,5)"/>
<path d="M0 0 C3.3 0 6.6 0 10 0 C10 0.66 10 1.32 10 2 C8.71211992 2.53012738 7.41953322 3.0488329 6.125 3.5625 C5.04605469 3.99755859 5.04605469 3.99755859 3.9453125 4.44140625 C2 5 2 5 0 4 C0 2.68 0 1.36 0 0 Z " fill="#131B3C" transform="translate(304,4)"/>
<path d="M0 0 C1.67542976 0.28604898 3.34385343 0.61781233 5 1 C5.33 3.31 5.66 5.62 6 8 C4.0625 7.25 4.0625 7.25 2 6 C1.375 3.9375 1.375 3.9375 1 2 C0.34 1.67 -0.32 1.34 -1 1 C-0.67 0.67 -0.34 0.34 0 0 Z " fill="#121F3E" transform="translate(314,136)"/>
<path d="M0 0 C2.64 0.33 5.28 0.66 8 1 C6.71034824 2.37562854 5.37310707 3.70766393 4 5 C3.34 5 2.68 5 2 5 C2 5.66 2 6.32 2 7 C1.34 7 0.68 7 0 7 C0 4.69 0 2.38 0 0 Z " fill="#121D3C" transform="translate(504,56)"/>
<path d="M0 0 C0.66 0 1.32 0 2 0 C2 0.66 2 1.32 2 2 C5.96 2 9.92 2 14 2 C14.33 2.66 14.66 3.32 15 4 C9.06 3.67 3.12 3.34 -3 3 C-2.01 2.01 -1.02 1.02 0 0 Z " fill="#132044" transform="translate(669,61)"/>
<path d="M0 0 C0.99 0.33 1.98 0.66 3 1 C3.33 1.99 3.66 2.98 4 4 C6.01508358 4.73323796 6.01508358 4.73323796 8 5 C8 5.66 8 6.32 8 7 C5.69 7 3.38 7 1 7 C0.67 4.69 0.34 2.38 0 0 Z " fill="#111C40" transform="translate(344,56)"/>
<path d="M0 0 C0.33 0.99 0.66 1.98 1 3 C1.66 3.33 2.32 3.66 3 4 C3 5.32 3 6.64 3 8 C1.68 8.33 0.36 8.66 -1 9 C-1.80967438 6.08517222 -2.21845993 4.53886783 -1.0625 1.6875 C-0.711875 1.130625 -0.36125 0.57375 0 0 Z " fill="#152662" transform="translate(306,33)"/>
<path d="M0 0 C1.65 0 3.3 0 5 0 C4.01 0.495 4.01 0.495 3 1 C3.33 2.65 3.66 4.3 4 6 C2.35 6 0.7 6 -1 6 C-1 3 -1 3 0 0 Z " fill="#0F1A4C" transform="translate(756,3)"/>
<path d="M0 0 C0.99 0 1.98 0 3 0 C2.67 3.3 2.34 6.6 2 10 C1.01 10.33 0.02 10.66 -1 11 C-1.33 9.68 -1.66 8.36 -2 7 C-1.34 7 -0.68 7 0 7 C0 4.69 0 2.38 0 0 Z " fill="#0C2144" transform="translate(537,30)"/>
<path d="M0 0 C0.33 0 0.66 0 1 0 C1.04254356 1.99954746 1.04080783 4.00041636 1 6 C0 7 0 7 -2.06640625 7.09765625 C-2.89011719 7.08605469 -3.71382813 7.07445312 -4.5625 7.0625 C-5.38878906 7.05347656 -6.21507812 7.04445312 -7.06640625 7.03515625 C-7.70449219 7.02355469 -8.34257812 7.01195312 -9 7 C-6.95345493 5.96600134 -4.92068665 4.96600856 -2.8125 4.0625 C-0.65604893 3.06565448 -0.65604893 3.06565448 0 0 Z " fill="#0D1A3A" transform="translate(288,131)"/>
<path d="M0 0 C2.475 0.495 2.475 0.495 5 1 C4.67 4.63 4.34 8.26 4 12 C3.67 12 3.34 12 3 12 C2.67 8.7 2.34 5.4 2 2 C1.34 2 0.68 2 0 2 C0 1.34 0 0.68 0 0 Z " fill="#172047" transform="translate(704,84)"/>
<path d="M0 0 C0.66 0 1.32 0 2 0 C2.33 0.99 2.66 1.98 3 3 C4.32 3.66 5.64 4.32 7 5 C3.7 5.33 0.4 5.66 -3 6 C-2 3 -2 3 0 0 Z " fill="#111D47" transform="translate(545,37)"/>
<path d="M0 0 C0.99 0 1.98 0 3 0 C3 0.66 3 1.32 3 2 C3.99 2.33 4.98 2.66 6 3 C5.34 5.31 4.68 7.62 4 10 C3.34 9.67 2.68 9.34 2 9 C2 7.02 2 5.04 2 3 C1.34 2.67 0.68 2.34 0 2 C0 1.34 0 0.68 0 0 Z " fill="#0E164E" transform="translate(431,12)"/>
<path d="M0 0 C0.33 1.32 0.66 2.64 1 4 C-1.64 4.66 -4.28 5.32 -7 6 C-7.33 5.34 -7.66 4.68 -8 4 C-7.34 4 -6.68 4 -6 4 C-6 3.34 -6 2.68 -6 2 C-4.7934375 1.7834375 -4.7934375 1.7834375 -3.5625 1.5625 C-1.07896294 1.25864751 -1.07896294 1.25864751 0 0 Z " fill="#121B3F" transform="translate(383,59)"/>
<path d="M0 0 C0.66 0 1.32 0 2 0 C2 0.66 2 1.32 2 2 C2.66 2 3.32 2 4 2 C4 2.66 4 3.32 4 4 C4.66 4 5.32 4 6 4 C6 4.66 6 5.32 6 6 C6.99 5.67 7.98 5.34 9 5 C9 5.66 9 6.32 9 7 C8.01 7.33 7.02 7.66 6 8 C1.125 3.375 1.125 3.375 0 0 Z " fill="#0C1F48" transform="translate(507,20)"/>
<path d="M0 0 C0.99 0.33 1.98 0.66 3 1 C3 1.66 3 2.32 3 3 C3.99 3.33 4.98 3.66 6 4 C3 5 3 5 -1 5 C-0.67 3.35 -0.34 1.7 0 0 Z " fill="#1A2362" transform="translate(747,3)"/>
<path d="M0 0 C1.32 0.33 2.64 0.66 4 1 C4 3.64 4 6.28 4 9 C3.01 8.67 2.02 8.34 1 8 C1.33 5.69 1.66 3.38 2 1 C1.34 0.67 0.68 0.34 0 0 Z " fill="#0D1838" transform="translate(326,104)"/>
<path d="M0 0 C2.475 0.99 2.475 0.99 5 2 C5 2.99 5 3.98 5 5 C3.02 5 1.04 5 -1 5 C-0.67 3.35 -0.34 1.7 0 0 Z " fill="#191D4F" transform="translate(621,36)"/>
<path d="M0 0 C0.99 1.32 1.98 2.64 3 4 C1.125 5.0625 1.125 5.0625 -1 6 C-1.66 5.67 -2.32 5.34 -3 5 C-3 4.01 -3 3.02 -3 2 C-2.01 1.34 -1.02 0.68 0 0 Z " fill="#141760" transform="translate(717,40)"/>
<path d="M0 0 C1.875 0.3125 1.875 0.3125 4 1 C4.66 1.99 5.32 2.98 6 4 C4.35 4 2.7 4 1 4 C0.67 2.68 0.34 1.36 0 0 Z " fill="#101B6D" transform="translate(536,139)"/>
<path d="M0 0 C0.33 0.66 0.66 1.32 1 2 C-0.175625 2.37125 -0.175625 2.37125 -1.375 2.75 C-4.32317108 4.15389099 -4.9024777 5.00675737 -6 8 C-6 5.69 -6 3.38 -6 1 C-4.02 0.67 -2.04 0.34 0 0 Z " fill="#151C40" transform="translate(510,135)"/>
<path d="M0 0 C0.99 0.33 1.98 0.66 3 1 C2.42415568 3.38564077 1.77772405 5.66682784 1 8 C0.34 8 -0.32 8 -1 8 C-0.67 5.36 -0.34 2.72 0 0 Z " fill="#151E41" transform="translate(334,69)"/>
<path d="M0 0 C0.66 0.33 1.32 0.66 2 1 C1.34 2.32 0.68 3.64 0 5 C-2.31 4.67 -4.62 4.34 -7 4 C-6.1028125 3.566875 -6.1028125 3.566875 -5.1875 3.125 C-2.80672208 1.95257974 -2.80672208 1.95257974 0 0 Z " fill="#111935" transform="translate(525,38)"/>
<path d="M0 0 C1.32 0.66 2.64 1.32 4 2 C3.34 3.32 2.68 4.64 2 6 C1.01 6 0.02 6 -1 6 C-1.042721 4.33388095 -1.04063832 2.66617115 -1 1 C-0.67 0.67 -0.34 0.34 0 0 Z " fill="#1D255D" transform="translate(709,17)"/>
<path d="M0 0 C-0.33 1.32 -0.66 2.64 -1 4 C-2.32 4.33 -3.64 4.66 -5 5 C-5.33 3.68 -5.66 2.36 -6 1 C-4 0 -4 0 0 0 Z " fill="#15245F" transform="translate(546,4)"/>
<path d="M0 0 C2 1 2 1 2 1 Z " fill="#050647" transform="translate(139,28)"/>
<path d="" fill="#040A28" transform="translate(0,0)"/>
<path d="" fill="#000210" transform="translate(0,0)"/>
<path d="" fill="#0D1534" transform="translate(0,0)"/>
<path d="" fill="#1D1D46" transform="translate(0,0)"/>
<path d="" fill="#102227" transform="translate(0,0)"/>
<path d="" fill="#050A2F" transform="translate(0,0)"/>
<path d="" fill="#191927" transform="translate(0,0)"/>
<path d="" fill="#121124" transform="translate(0,0)"/>
<path d="" fill="#000610" transform="translate(0,0)"/>
<path d="" fill="#142846" transform="translate(0,0)"/>
<path d="" fill="#14195E" transform="translate(0,0)"/>
<path d="" fill="#020F3D" transform="translate(0,0)"/>
<path d="" fill="#11143A" transform="translate(0,0)"/>
<path d="" fill="#00063D" transform="translate(0,0)"/>
<path d="" fill="#2A3762" transform="translate(0,0)"/>
<path d="" fill="#121B3A" transform="translate(0,0)"/>
<path d="" fill="#103949" transform="translate(0,0)"/>
<path d="" fill="#222D4C" transform="translate(0,0)"/>
<path d="" fill="#1A2958" transform="translate(0,0)"/>
<path d="" fill="#080E20" transform="translate(0,0)"/>
<path d="" fill="#10192D" transform="translate(0,0)"/>
<path d="" fill="#162C4B" transform="translate(0,0)"/>
<path d="" fill="#1B2F3F" transform="translate(0,0)"/>
<path d="" fill="#000414" transform="translate(0,0)"/>
<path d="" fill="#081120" transform="translate(0,0)"/>
<path d="" fill="#1C2952" transform="translate(0,0)"/>
<path d="" fill="#26335F" transform="translate(0,0)"/>
<path d="" fill="#132450" transform="translate(0,0)"/>
<path d="" fill="#0E124C" transform="translate(0,0)"/>
<path d="" fill="#0C1F38" transform="translate(0,0)"/>
<path d="" fill="#0B1650" transform="translate(0,0)"/>
<path d="" fill="#1D3254" transform="translate(0,0)"/>
<path d="" fill="#0A0D5A" transform="translate(0,0)"/>
<path d="" fill="#051438" transform="translate(0,0)"/>
<path d="" fill="#000F22" transform="translate(0,0)"/>
<path d="" fill="#0A0F53" transform="translate(0,0)"/>
<path d="" fill="#15203F" transform="translate(0,0)"/>
<path d="" fill="#000F22" transform="translate(0,0)"/>
<path d="" fill="#0B1757" transform="translate(0,0)"/>
<path d="" fill="#202662" transform="translate(0,0)"/>
<path d="" fill="#192241" transform="translate(0,0)"/>
<path d="" fill="#192750" transform="translate(0,0)"/>
<path d="" fill="#102136" transform="translate(0,0)"/>
<path d="" fill="#0D1969" transform="translate(0,0)"/>
<path d="" fill="#1E2E66" transform="translate(0,0)"/>
<path d="" fill="#000229" transform="translate(0,0)"/>
<path d="" fill="#101A3D" transform="translate(0,0)"/>
<path d="" fill="#1B2D4D" transform="translate(0,0)"/>
<path d="" fill="#1B2E47" transform="translate(0,0)"/>
<path d="" fill="#0D195A" transform="translate(0,0)"/>
<path d="" fill="#112C57" transform="translate(0,0)"/>
<path d="" fill="#0A1E4C" transform="translate(0,0)"/>
<path d="" fill="#363B62" transform="translate(0,0)"/>
<path d="" fill="#050B4B" transform="translate(0,0)"/>
<path d="" fill="#162546" transform="translate(0,0)"/>
<path d="" fill="#3E506C" transform="translate(0,0)"/>
<path d="" fill="#082D55" transform="translate(0,0)"/>
<path d="" fill="#000918" transform="translate(0,0)"/>
<path d="" fill="#0E2A53" transform="translate(0,0)"/>
<path d="" fill="#000C4C" transform="translate(0,0)"/>
<path d="" fill="#3A4865" transform="translate(0,0)"/>
<path d="" fill="#17275F" transform="translate(0,0)"/>
<path d="" fill="#16285D" transform="translate(0,0)"/>
<path d="" fill="#212455" transform="translate(0,0)"/>
<path d="" fill="#142858" transform="translate(0,0)"/>
<path d="" fill="#19294F" transform="translate(0,0)"/>
<path d="" fill="#243662" transform="translate(0,0)"/>
<path d="" fill="#060D44" transform="translate(0,0)"/>
<path d="" fill="#091638" transform="translate(0,0)"/>
<path d="" fill="#060A42" transform="translate(0,0)"/>
<path d="" fill="#0D2443" transform="translate(0,0)"/>
<path d="" fill="#3A4A66" transform="translate(0,0)"/>
<path d="" fill="#0A1049" transform="translate(0,0)"/>
<path d="" fill="#0B2F43" transform="translate(0,0)"/>
<path d="" fill="#161958" transform="translate(0,0)"/>
<path d="" fill="#171E3E" transform="translate(0,0)"/>
<path d="" fill="#181E32" transform="translate(0,0)"/>
<path d="" fill="#293F63" transform="translate(0,0)"/>
<path d="" fill="#08094B" transform="translate(0,0)"/>
<path d="" fill="#161B50" transform="translate(0,0)"/>
<path d="" fill="#040844" transform="translate(0,0)"/>
<path d="" fill="#070B1C" transform="translate(0,0)"/>
<path d="" fill="#000F36" transform="translate(0,0)"/>
<path d="" fill="#2D3D65" transform="translate(0,0)"/>
<path d="" fill="#203F50" transform="translate(0,0)"/>
<path d="" fill="#051347" transform="translate(0,0)"/>
<path d="" fill="#000228" transform="translate(0,0)"/>
<path d="" fill="#365664" transform="translate(0,0)"/>
<path d="" fill="#041047" transform="translate(0,0)"/>
<path d="" fill="#1A2F5A" transform="translate(0,0)"/>
<path d="" fill="#182258" transform="translate(0,0)"/>
<path d="" fill="#0B0F39" transform="translate(0,0)"/>
<path d="" fill="#0F2156" transform="translate(0,0)"/>
<path d="" fill="#181E4E" transform="translate(0,0)"/>
<path d="" fill="#102156" transform="translate(0,0)"/>
<path d="" fill="#020841" transform="translate(0,0)"/>
<path d="" fill="#061351" transform="translate(0,0)"/>
<path d="" fill="#151F5B" transform="translate(0,0)"/>
<path d="" fill="#232C59" transform="translate(0,0)"/>
<path d="" fill="#112547" transform="translate(0,0)"/>
<path d="" fill="#212131" transform="translate(0,0)"/>
<path d="" fill="#0D1456" transform="translate(0,0)"/>
<path d="" fill="#242C4E" transform="translate(0,0)"/>
<path d="" fill="#232F54" transform="translate(0,0)"/>
<path d="" fill="#151D4F" transform="translate(0,0)"/>
<path d="" fill="#0D1746" transform="translate(0,0)"/>
<path d="" fill="#0E184B" transform="translate(0,0)"/>
<path d="" fill="#000030" transform="translate(0,0)"/>
<path d="" fill="#000732" transform="translate(0,0)"/>
<path d="" fill="#333862" transform="translate(0,0)"/>
<path d="" fill="#0B1433" transform="translate(0,0)"/>
<path d="" fill="#081149" transform="translate(0,0)"/>
<path d="" fill="#142045" transform="translate(0,0)"/>
<path d="" fill="#000444" transform="translate(0,0)"/>
<path d="" fill="#20244E" transform="translate(0,0)"/>
<path d="" fill="#182546" transform="translate(0,0)"/>
<path d="" fill="#15175B" transform="translate(0,0)"/>
<path d="" fill="#000429" transform="translate(0,0)"/>
<path d="" fill="#1A2541" transform="translate(0,0)"/>
<path d="" fill="#131B4F" transform="translate(0,0)"/>
<path d="" fill="#111770" transform="translate(0,0)"/>
<path d="" fill="#060F2B" transform="translate(0,0)"/>
<path d="" fill="#14223B" transform="translate(0,0)"/>
<path d="" fill="#041027" transform="translate(0,0)"/>
<path d="" fill="#182941" transform="translate(0,0)"/>
<path d="" fill="#011227" transform="translate(0,0)"/>
<path d="" fill="#0B173C" transform="translate(0,0)"/>
<path d="" fill="#0F223A" transform="translate(0,0)"/>
<path d="" fill="#0E1D31" transform="translate(0,0)"/>
<path d="" fill="#00112D" transform="translate(0,0)"/>
<path d="" fill="#1D2474" transform="translate(0,0)"/>
<path d="" fill="#162343" transform="translate(0,0)"/>
<path d="" fill="#11233D" transform="translate(0,0)"/>
<path d="" fill="#2E3C63" transform="translate(0,0)"/>
<path d="" fill="#1F243B" transform="translate(0,0)"/>
<path d="" fill="#132450" transform="translate(0,0)"/>
<path d="" fill="#1F2553" transform="translate(0,0)"/>
<path d="" fill="#2E548C" transform="translate(0,0)"/>
<path d="" fill="#192150" transform="translate(0,0)"/>
<path d="" fill="#050D3D" transform="translate(0,0)"/>
<path d="" fill="#18214B" transform="translate(0,0)"/>
<path d="" fill="#162247" transform="translate(0,0)"/>
<path d="" fill="#1A1A55" transform="translate(0,0)"/>
<path d="" fill="#07094F" transform="translate(0,0)"/>
<path d="" fill="#111536" transform="translate(0,0)"/>
<path d="" fill="#00010D" transform="translate(0,0)"/>
<path d="" fill="#00010F" transform="translate(0,0)"/>
<path d="" fill="#060C21" transform="translate(0,0)"/>
<path d="" fill="#00123C" transform="translate(0,0)"/>
<path d="" fill="#0D1B34" transform="translate(0,0)"/>
<path d="" fill="#363450" transform="translate(0,0)"/>
<path d="" fill="#060624" transform="translate(0,0)"/>
<path d="" fill="#1E3455" transform="translate(0,0)"/>
<path d="" fill="#151579" transform="translate(0,0)"/>
<path d="" fill="#181C38" transform="translate(0,0)"/>
<path d="" fill="#211753" transform="translate(0,0)"/>
<path d="" fill="#1B2342" transform="translate(0,0)"/>
<path d="" fill="#1E273B" transform="translate(0,0)"/>
<path d="" fill="#30334B" transform="translate(0,0)"/>
<path d="" fill="#15293B" transform="translate(0,0)"/>
<path d="" fill="#101A32" transform="translate(0,0)"/>
<path d="" fill="#0E1925" transform="translate(0,0)"/>
<path d="" fill="#212040" transform="translate(0,0)"/>
<path d="" fill="#0B2D4B" transform="translate(0,0)"/>
<path d="" fill="#01007A" transform="translate(0,0)"/>
<path d="" fill="#0F1641" transform="translate(0,0)"/>
<path d="" fill="#203947" transform="translate(0,0)"/>
<path d="" fill="#131357" transform="translate(0,0)"/>
<path d="" fill="#40539F" transform="translate(0,0)"/>
<path d="" fill="#16205D" transform="translate(0,0)"/>
<path d="" fill="#353A6F" transform="translate(0,0)"/>
<path d="" fill="#2D2B4E" transform="translate(0,0)"/>
<path d="" fill="#26396D" transform="translate(0,0)"/>
<path d="" fill="#0E1530" transform="translate(0,0)"/>
<path d="" fill="#12194E" transform="translate(0,0)"/>
<path d="" fill="#26324B" transform="translate(0,0)"/>
<path d="" fill="#252945" transform="translate(0,0)"/>
<path d="" fill="#1F1C48" transform="translate(0,0)"/>
<path d="" fill="#15293D" transform="translate(0,0)"/>
<path d="" fill="#1D1E42" transform="translate(0,0)"/>
<path d="" fill="#1C1F60" transform="translate(0,0)"/>
<path d="" fill="#182747" transform="translate(0,0)"/>
<path d="" fill="#112147" transform="translate(0,0)"/>
<path d="" fill="#0D0F2C" transform="translate(0,0)"/>
<path d="" fill="#101938" transform="translate(0,0)"/>
<path d="" fill="#050E46" transform="translate(0,0)"/>
<path d="" fill="#000E34" transform="translate(0,0)"/>
<path d="" fill="#00082C" transform="translate(0,0)"/>
<path d="" fill="#344770" transform="translate(0,0)"/>
<path d="" fill="#18244E" transform="translate(0,0)"/>
<path d="" fill="#080831" transform="translate(0,0)"/>
<path d="" fill="#191D47" transform="translate(0,0)"/>
<path d="" fill="#20255A" transform="translate(0,0)"/>
<path d="" fill="#16171D" transform="translate(0,0)"/>
<path d="" fill="#121E43" transform="translate(0,0)"/>
<path d="" fill="#242B52" transform="translate(0,0)"/>
<path d="" fill="#1B2248" transform="translate(0,0)"/>
<path d="" fill="#E6FFFF" transform="translate(0,0)"/>
<path d="" fill="#0B131A" transform="translate(0,0)"/>
<path d="" fill="#03134F" transform="translate(0,0)"/>
<path d="" fill="#05114A" transform="translate(0,0)"/>
<path d="" fill="#152153" transform="translate(0,0)"/>
<path d="" fill="#212D52" transform="translate(0,0)"/>
<path d="" fill="#01004C" transform="translate(0,0)"/>
<path d="" fill="#03113A" transform="translate(0,0)"/>
<path d="" fill="#1C284D" transform="translate(0,0)"/>
<path d="" fill="#132246" transform="translate(0,0)"/>
<path d="" fill="#1B2F4F" transform="translate(0,0)"/>
<path d="" fill="#152146" transform="translate(0,0)"/>
<path d="" fill="#0E145D" transform="translate(0,0)"/>
<path d="" fill="#1E1E2A" transform="translate(0,0)"/>
<path d="" fill="#15224D" transform="translate(0,0)"/>
<path d="" fill="#0F1469" transform="translate(0,0)"/>
<path d="" fill="#171C44" transform="translate(0,0)"/>
<path d="" fill="#060744" transform="translate(0,0)"/>
<path d="" fill="#1D2B51" transform="translate(0,0)"/>
<path d="" fill="#151A43" transform="translate(0,0)"/>
<path d="" fill="#0B152D" transform="translate(0,0)"/>
<path d="" fill="#39487C" transform="translate(0,0)"/>
<path d="" fill="#333B6A" transform="translate(0,0)"/>
<path d="" fill="#25304A" transform="translate(0,0)"/>
<path d="" fill="#06134F" transform="translate(0,0)"/>
<path d="" fill="#23345C" transform="translate(0,0)"/>
<path d="" fill="#000026" transform="translate(0,0)"/>
<path d="" fill="#0D2E35" transform="translate(0,0)"/>
<path d="" fill="#11213C" transform="translate(0,0)"/>
<path d="" fill="#0F086A" transform="translate(0,0)"/>
<path d="" fill="#0E2138" transform="translate(0,0)"/>
<path d="" fill="#14174A" transform="translate(0,0)"/>
<path d="" fill="#110E5A" transform="translate(0,0)"/>
<path d="" fill="#070F2F" transform="translate(0,0)"/>
<path d="" fill="#3A5A66" transform="translate(0,0)"/>
<path d="" fill="#000326" transform="translate(0,0)"/>
<path d="" fill="#1F3065" transform="translate(0,0)"/>
<path d="" fill="#040756" transform="translate(0,0)"/>
<path d="" fill="#183B7C" transform="translate(0,0)"/>
<path d="" fill="#00082A" transform="translate(0,0)"/>
<path d="" fill="#091135" transform="translate(0,0)"/>
<path d="" fill="#3A4A82" transform="translate(0,0)"/>
<path d="" fill="#2A3851" transform="translate(0,0)"/>
<path d="" fill="#0B1070" transform="translate(0,0)"/>
<path d="" fill="#171374" transform="translate(0,0)"/>
<path d="" fill="#0F0E49" transform="translate(0,0)"/>
<path d="" fill="#0D1F3F" transform="translate(0,0)"/>
<path d="" fill="#1F2E46" transform="translate(0,0)"/>
<path d="" fill="#141E46" transform="translate(0,0)"/>
<path d="" fill="#243354" transform="translate(0,0)"/>
<path d="" fill="#1C2659" transform="translate(0,0)"/>
<path d="" fill="#2C355B" transform="translate(0,0)"/>
<path d="" fill="#162247" transform="translate(0,0)"/>
<path d="" fill="#070B59" transform="translate(0,0)"/>
<path d="" fill="#2D355B" transform="translate(0,0)"/>
<path d="" fill="#162441" transform="translate(0,0)"/>
<path d="" fill="#233248" transform="translate(0,0)"/>
<path d="" fill="#040E51" transform="translate(0,0)"/>
<path d="" fill="#050933" transform="translate(0,0)"/>
<path d="" fill="#11142E" transform="translate(0,0)"/>
<path d="" fill="#1F213E" transform="translate(0,0)"/>
<path d="" fill="#11152A" transform="translate(0,0)"/>
<path d="" fill="#0D1026" transform="translate(0,0)"/>
<path d="" fill="#272C48" transform="translate(0,0)"/>
<path d="" fill="#2A2A4A" transform="translate(0,0)"/>
<path d="" fill="#0F0833" transform="translate(0,0)"/>
<path d="" fill="#142642" transform="translate(0,0)"/>
<path d="" fill="#19203B" transform="translate(0,0)"/>
<path d="" fill="#F9FDFF" transform="translate(0,0)"/>
<path d="" fill="#0F0F45" transform="translate(0,0)"/>
<path d="" fill="#131A28" transform="translate(0,0)"/>
<path d="" fill="#001348" transform="translate(0,0)"/>
</svg>
