<?xml version="1.0" encoding="UTF-8"?>
<svg version="1.1" xmlns="http://www.w3.org/2000/svg" width="238" height="61">
<path d="M0 0 C16.5 0 33 0 50 0 C50.0825 4.2075 50.165 8.415 50.25 12.75 C50.28641602 14.0503418 50.32283203 15.35068359 50.36035156 16.69042969 C50.47369716 28.78915788 47.37624299 38.42382489 40 48 C39.53722656 48.62648437 39.07445312 49.25296875 38.59765625 49.8984375 C34.79748231 54.71971081 30.21887521 57.83388237 25 61 C11.7695485 52.8097205 3.68210234 43.35350793 0 28 C-0.44047301 23.06301768 -0.38330002 18.20097509 -0.25 13.25 C-0.1675 8.8775 -0.085 4.505 0 0 Z " fill="#052166" transform="translate(0,0)"/>
<path d="M0 0 C1.051875 -0.00257813 2.10375 -0.00515625 3.1875 -0.0078125 C6 0.125 6 0.125 9 1.125 C10.6691198 4.74142624 9.65669883 8.33074012 9 12.125 C9.66 12.125 10.32 12.125 11 12.125 C11 12.785 11 13.445 11 14.125 C10.34 14.125 9.68 14.125 9 14.125 C9 15.115 9 16.105 9 17.125 C6.03 17.785 3.06 18.445 0 19.125 C0 21.105 0 23.085 0 25.125 C0.99 24.795 1.98 24.465 3 24.125 C4.33363703 23.98096652 5.67218046 23.87909577 7.01171875 23.80859375 C7.76904297 23.76669922 8.52636719 23.72480469 9.30664062 23.68164062 C10.48516602 23.62266602 10.48516602 23.62266602 11.6875 23.5625 C12.48478516 23.51931641 13.28207031 23.47613281 14.10351562 23.43164062 C16.06881447 23.32572632 18.03438496 23.22487449 20 23.125 C20 21.805 20 20.485 20 19.125 C18.35 18.795 16.7 18.465 15 18.125 C13.9838308 13.49578475 14.16203269 9.78037393 15 5.125 C14.34 5.125 13.68 5.125 13 5.125 C14.75 1.25 14.75 1.25 17 0.125 C19.33093612 0.00216881 21.66586039 -0.05054232 24 -0.0625 C25.8871875 -0.08376953 25.8871875 -0.08376953 27.8125 -0.10546875 C31 0.125 31 0.125 33 2.125 C33.4140625 4.9453125 33.4140625 4.9453125 33.625 8.25 C33.69976562 9.34570312 33.77453125 10.44140625 33.8515625 11.5703125 C33.90054688 12.41335937 33.94953125 13.25640625 34 14.125 C33.34 14.125 32.68 14.125 32 14.125 C32 15.445 32 16.765 32 18.125 C29.03 18.125 26.06 18.125 23 18.125 C22.02559069 21.91436953 22.15871714 24.33922715 23 28.125 C23.22996266 29.83055643 23.43631103 31.53938548 23.625 33.25 C23.72039063 34.09820312 23.81578125 34.94640625 23.9140625 35.8203125 C24 38.125 24 38.125 23 41.125 C20.03 41.125 17.06 41.125 14 41.125 C14 40.795 14 40.465 14 40.125 C16.64 40.125 19.28 40.125 22 40.125 C21.67 39.135 21.34 38.145 21 37.125 C20.67 37.455 20.34 37.785 20 38.125 C17.32941149 38.26615161 14.67567762 38.16747107 12 38.125 C12 37.135 12 36.145 12 35.125 C12.66 35.125 13.32 35.125 14 35.125 C13.34 33.145 12.68 31.165 12 29.125 C10.20317184 32.93004787 9.92650209 33.83100835 11 38.125 C8.03 38.125 5.06 38.125 2 38.125 C2 38.785 2 39.445 2 40.125 C3.65 40.125 5.3 40.125 7 40.125 C4.23776722 42.88723278 1.79293383 42.70356291 -2 43.125 C-8.22977341 35.21528769 -13.47364997 26.52635331 -13 16.125 C-11.68 16.455 -10.36 16.785 -9 17.125 C-9 11.845 -9 6.565 -9 1.125 C-5.77717587 0.05072529 -3.38488847 -0.0082963 0 0 Z " fill="#2F4373" transform="translate(13,6.875)"/>
<path d="M0 0 C1.051875 -0.00257813 2.10375 -0.00515625 3.1875 -0.0078125 C6 0.125 6 0.125 9 1.125 C10.6691198 4.74142624 9.65669883 8.33074012 9 12.125 C9.66 12.125 10.32 12.125 11 12.125 C11 12.785 11 13.445 11 14.125 C10.34 14.125 9.68 14.125 9 14.125 C9 15.115 9 16.105 9 17.125 C6.03 17.785 3.06 18.445 0 19.125 C0.2165625 20.44564453 0.2165625 20.44564453 0.4375 21.79296875 C0.623125 22.95441406 0.80875 24.11585937 1 25.3125 C1.185625 26.46105469 1.37125 27.60960938 1.5625 28.79296875 C1.93489477 31.62915393 2.08596021 34.27219564 2 37.125 C1.01 37.62 1.01 37.62 0 38.125 C-0.65555119 40.65233235 -0.65555119 40.65233235 -1 43.125 C-7.59643425 37.4709135 -11.18618552 29.5345035 -13 21.125 C-13.125 18.1875 -13.125 18.1875 -13 16.125 C-11.68 16.455 -10.36 16.785 -9 17.125 C-9 11.845 -9 6.565 -9 1.125 C-5.77717587 0.05072529 -3.38488847 -0.0082963 0 0 Z " fill="#082466" transform="translate(13,6.875)"/>
<path d="M0 0 C2.536875 -0.061875 5.07375 -0.12375 7.6875 -0.1875 C8.47729248 -0.21481201 9.26708496 -0.24212402 10.08081055 -0.27026367 C14.60326123 -0.32344207 17.48685291 0.09953534 21 3 C23.68797341 7.00336465 23.81427328 11.34009945 23 16 C21.28631391 19.07061968 19.19098548 21.40450726 16 23 C13.28024285 23.07187519 10.59325368 23.0927862 7.875 23.0625 C5.27625 23.041875 2.6775 23.02125 0 23 C0 15.41 0 7.82 0 0 Z " fill="#EDF2F7" transform="translate(215,7)"/>
<path d="M0 0 C2.4178712 -0.10826289 4.83087556 -0.18739789 7.25 -0.25 C8.27287109 -0.30027344 8.27287109 -0.30027344 9.31640625 -0.3515625 C12.78747829 -0.41896196 14.65462463 -0.25320298 17.48828125 1.82421875 C19 4 19 4 18.9375 7.0625 C18 10 18 10 15 13 C17.64 15.97 20.28 18.94 23 22 C22.67 22.66 22.34 23.32 22 24 C19.4375 24.0625 19.4375 24.0625 16 23 C13.95645582 20.79568009 12.24281853 18.48977773 10.515625 16.03125 C9.15493259 13.89020881 9.15493259 13.89020881 7 13 C7.144375 14.27875 7.28875 15.5575 7.4375 16.875 C7.51871094 17.59429688 7.59992188 18.31359375 7.68359375 19.0546875 C7.91292961 21.07404316 7.91292961 21.07404316 9 23 C6.03 23 3.06 23 0 23 C0.33 22.34 0.66 21.68 1 21 C1.09504525 19.5753972 1.1307286 18.14651833 1.1328125 16.71875 C1.13410156 15.87699219 1.13539063 15.03523438 1.13671875 14.16796875 C1.13285156 13.28753906 1.12898437 12.40710937 1.125 11.5 C1.12886719 10.61957031 1.13273438 9.73914062 1.13671875 8.83203125 C1.13542969 7.99027344 1.13414062 7.14851562 1.1328125 6.28125 C1.13168457 5.50845703 1.13055664 4.73566406 1.12939453 3.93945312 C1.12007086 1.91790801 1.12007086 1.91790801 0 0 Z " fill="#062164" transform="translate(189,7)"/>
<path d="M0 0 C2.4178712 -0.10826289 4.83087556 -0.18739789 7.25 -0.25 C8.27287109 -0.30027344 8.27287109 -0.30027344 9.31640625 -0.3515625 C12.78747829 -0.41896196 14.65462463 -0.25320298 17.48828125 1.82421875 C19 4 19 4 18.9375 7.0625 C17.98714173 10.04028925 17.22975389 10.9636123 15 13 C15.76713644 14.10673834 16.53889003 15.21027694 17.3125 16.3125 C17.74175781 16.92738281 18.17101562 17.54226562 18.61328125 18.17578125 C19.95929534 19.94645331 21.39192803 21.46738009 23 23 C20.33294707 24.08657712 19.26576699 24.10903261 16.5625 23 C13.72629408 20.78637586 12.05352954 18.5191303 10.11328125 15.5234375 C9.06139093 13.83974166 9.06139093 13.83974166 7 13 C7.144375 14.27875 7.28875 15.5575 7.4375 16.875 C7.51871094 17.59429688 7.59992188 18.31359375 7.68359375 19.0546875 C7.91292961 21.07404316 7.91292961 21.07404316 9 23 C6.03 23 3.06 23 0 23 C0.33 22.34 0.66 21.68 1 21 C1.09504525 19.5753972 1.1307286 18.14651833 1.1328125 16.71875 C1.13410156 15.87699219 1.13539062 15.03523438 1.13671875 14.16796875 C1.13285156 13.28753906 1.12898438 12.40710937 1.125 11.5 C1.12886719 10.61957031 1.13273437 9.73914062 1.13671875 8.83203125 C1.13542969 7.99027344 1.13414063 7.14851562 1.1328125 6.28125 C1.13168457 5.50845703 1.13055664 4.73566406 1.12939453 3.93945312 C1.12007086 1.91790801 1.12007086 1.91790801 0 0 Z " fill="#0A2467" transform="translate(119,7)"/>
<path d="M0 0 C0.66 0.33 1.32 0.66 2 1 C2.625 4.0625 2.625 4.0625 3 7 C2.34 7 1.68 7 1 7 C1 7.99 1 8.98 1 10 C6.1693489 9.59443869 6.1693489 9.59443869 11 8 C11.33 9.65 11.66 11.3 12 13 C12 11.02 12 9.04 12 7 C12.66 7 13.32 7 14 7 C14.33 7.99 14.66 8.98 15 10 C14.01 11.485 14.01 11.485 13 13 C13.66 13.33 14.32 13.66 15 14 C11.0679294 19.32732146 6.61946506 22.5475182 1 26 C-8.59453303 20.03416856 -8.59453303 20.03416856 -12 15 C-10.02 14.34 -8.04 13.68 -6 13 C-6.99 12.67 -7.98 12.34 -9 12 C-9 11.34 -9 10.68 -9 10 C-6.03 10 -3.06 10 0 10 C-0.37125 9.278125 -0.7425 8.55625 -1.125 7.8125 C-2.18974141 4.39011689 -1.60339848 3.11771927 0 0 Z " fill="#062166" transform="translate(24,35)"/>
<path d="M0 0 C2.64 0 5.28 0 8 0 C7.34 2.97 6.68 5.94 6 9 C9.96 9 13.92 9 18 9 C17.51515724 4.35413108 17.51515724 4.35413108 16 0 C18.64 0 21.28 0 24 0 C23.67 0.66 23.34 1.32 23 2 C22.90495475 3.4246028 22.8692714 4.85348167 22.8671875 6.28125 C22.86589844 7.12300781 22.86460938 7.96476563 22.86328125 8.83203125 C22.86908203 10.15267578 22.86908203 10.15267578 22.875 11.5 C22.87113281 12.38042969 22.86726563 13.26085938 22.86328125 14.16796875 C22.86521484 15.43060547 22.86521484 15.43060547 22.8671875 16.71875 C22.86831543 17.49154297 22.86944336 18.26433594 22.87060547 19.06054688 C22.87992914 21.08209199 22.87992914 21.08209199 24 23 C21.36 23 18.72 23 16 23 C16 22.34 16 21.68 16 21 C16.66 21 17.32 21 18 21 C18 18.03 18 15.06 18 12 C14.04 12 10.08 12 6 12 C6.33 15.63 6.66 19.26 7 23 C4.69 23 2.38 23 0 23 C0 15.41 0 7.82 0 0 Z " fill="#112B70" transform="translate(66,7)"/>
<path d="M0 0 C2.536875 -0.061875 5.07375 -0.12375 7.6875 -0.1875 C8.47729248 -0.21481201 9.26708496 -0.24212402 10.08081055 -0.27026367 C14.60326123 -0.32344207 17.48685291 0.09953534 21 3 C23.68797341 7.00336465 23.81427328 11.34009945 23 16 C21.28631391 19.07061968 19.19098548 21.40450726 16 23 C13.28024285 23.07187519 10.59325368 23.0927862 7.875 23.0625 C5.27625 23.041875 2.6775 23.02125 0 23 C0 15.41 0 7.82 0 0 Z M5 2 C5 8.27 5 14.54 5 21 C12.45692046 21.7173806 12.45692046 21.7173806 15.9375 19.125 C18.77493852 16.20157849 18.96451772 15.36073651 19.375 11.1875 C19.30791111 7.83915436 18.97938747 6.96808382 17.0625 4 C13.35371403 1.17981665 13.35371403 1.17981665 5 2 Z " fill="#0C245F" transform="translate(215,7)"/>
<path d="M0 0 C2.63406245 1.31703122 2.82202149 2.4918763 3.9453125 5.18359375 C4.29980469 6.02857422 4.65429688 6.87355469 5.01953125 7.74414062 C5.38433594 8.63294922 5.74914062 9.52175781 6.125 10.4375 C6.68380859 11.76491211 6.68380859 11.76491211 7.25390625 13.11914062 C10 19.72284226 10 19.72284226 10 22 C10.66 22 11.32 22 12 22 C12 22.66 12 23.32 12 24 C9.36 24 6.72 24 4 24 C3.67 22.02 3.34 20.04 3 18 C0.69 18 -1.62 18 -4 18 C-4.5534764 20.07553648 -5 21.84365964 -5 24 C-7.31 24 -9.62 24 -12 24 C-11.69707031 23.42894531 -11.39414063 22.85789062 -11.08203125 22.26953125 C-7.93981842 16.18814087 -5.42163737 10.03369128 -3.11328125 3.58984375 C-2 1 -2 1 0 0 Z " fill="#0A215D" transform="translate(175,6)"/>
<path d="M0 0 C0.99 0 1.98 0 3 0 C3.26216309 0.59014893 3.52432617 1.18029785 3.79443359 1.78833008 C4.98511229 4.46432911 6.18000577 7.1384255 7.375 9.8125 C7.7875 10.74126953 8.2 11.67003906 8.625 12.62695312 C9.02460937 13.51962891 9.42421875 14.41230469 9.8359375 15.33203125 C10.20251465 16.15421143 10.5690918 16.9763916 10.94677734 17.82348633 C12.03821412 20.20561193 12.03821412 20.20561193 14 23 C11.03 23 8.06 23 5 23 C5 20.69 5 18.38 5 16 C1.04 16.495 1.04 16.495 -3 17 C-3.33 18.98 -3.66 20.96 -4 23 C-5.98 23 -7.96 23 -10 23 C-9.70488525 22.42854248 -9.40977051 21.85708496 -9.10571289 21.26831055 C-8.05286793 19.10845572 -7.16242816 16.95198613 -6.30859375 14.70703125 C-6.00373047 13.91232422 -5.69886719 13.11761719 -5.38476562 12.29882812 C-4.74886125 10.62974302 -4.11345122 8.9604695 -3.47851562 7.29101562 C-3.17494141 6.50017578 -2.87136719 5.70933594 -2.55859375 4.89453125 C-2.28329834 4.17112549 -2.00800293 3.44771973 -1.72436523 2.70239258 C-1 1 -1 1 0 0 Z " fill="#0C2467" transform="translate(103,7)"/>
<path d="M0 0 C0.66 0.99 1.32 1.98 2 3 C2.33 2.01 2.66 1.02 3 0 C7.95 0 12.9 0 18 0 C18 4.29 18 8.58 18 13 C15.69 13 13.38 13 11 13 C11 12.01 11 11.02 11 10 C11.66 10 12.32 10 13 10 C12.34 8.02 11.68 6.04 11 4 C9.20317184 7.80504787 8.92650209 8.70600835 10 13 C7.03 13 4.06 13 1 13 C1 13.66 1 14.32 1 15 C2.65 15 4.3 15 6 15 C4 17 4 17 1.375 17.125 C0.59125 17.08375 -0.1925 17.0425 -1 17 C-1.33 15.35 -1.66 13.7 -2 12 C-1.01 12 -0.02 12 1 12 C0.835 11.319375 0.67 10.63875 0.5 9.9375 C-0.07089059 6.5835178 -0.06659023 3.39610195 0 0 Z " fill="#E4F8F7" transform="translate(14,32)"/>
<path d="M0 0 C2.97 0 5.94 0 9 0 C9.12375 1.485 9.12375 1.485 9.25 3 C9.86308007 7.47456948 11.81968045 11.09570685 14 15 C14.67756882 13.44219668 15.34159457 11.87849904 16 10.3125 C16.37125 9.44238281 16.7425 8.57226562 17.125 7.67578125 C18.01870488 4.9427998 18.16449676 2.85299066 18 0 C20.31 0 22.62 0 25 0 C25 0.66 25 1.32 25 2 C24.34 2 23.68 2 23 2 C22.608125 3.2375 22.21625 4.475 21.8125 5.75 C19.86118823 11.63207922 17.43753821 17.30598782 15 23 C13.68 23 12.36 23 11 23 C10.73783691 22.40985107 10.47567383 21.81970215 10.20556641 21.21166992 C9.01488771 18.53567089 7.81999423 15.8615745 6.625 13.1875 C6.2125 12.25873047 5.8 11.32996094 5.375 10.37304688 C4.97539062 9.48037109 4.57578125 8.58769531 4.1640625 7.66796875 C3.61419678 6.43469849 3.61419678 6.43469849 3.05322266 5.17651367 C1.96178588 2.79438807 1.96178588 2.79438807 0 0 Z " fill="#062161" transform="translate(140,7)"/>
<path d="M0 0 C3.96 0 7.92 0 12 0 C12.02685938 2.14576637 12.04633088 4.29162645 12.0625 6.4375 C12.07410156 7.63246094 12.08570313 8.82742188 12.09765625 10.05859375 C12 13 12 13 11 14 C7.3308423 14.14310287 3.67284559 14.04221662 0 14 C0 9.38 0 4.76 0 0 Z " fill="#53637B" transform="translate(7,7)"/>
<path d="M0 0 C2.43816585 -0.0809723 4.87364384 -0.14046972 7.3125 -0.1875 C8.34793945 -0.22520508 8.34793945 -0.22520508 9.40429688 -0.26367188 C14.55674183 -0.33834499 14.55674183 -0.33834499 16.98046875 1.51171875 C17.31691406 2.00285156 17.65335938 2.49398438 18 3 C17.01 3 16.02 3 15 3 C15 5.64 15 8.28 15 11 C13.20866022 11.05391993 11.41686101 11.09275571 9.625 11.125 C8.62726563 11.14820313 7.62953125 11.17140625 6.6015625 11.1953125 C4 11 4 11 2 9 C1.62599214 6.67284 1.29235267 4.33882138 1 2 C0.67 1.34 0.34 0.68 0 0 Z " fill="#042262" transform="translate(189,7)"/>
<path d="M0 0 C3.63 0 7.26 0 11 0 C11 0.33 11 0.66 11 1 C9.35 1 7.7 1 6 1 C6 4.3 6 7.6 6 11 C7.65 11 9.3 11 11 11 C11 12.32 11 13.64 11 15 C9.68 14.34 8.36 13.68 7 13 C7.144375 14.27875 7.28875 15.5575 7.4375 16.875 C7.51871094 17.59429688 7.59992188 18.31359375 7.68359375 19.0546875 C7.91292961 21.07404316 7.91292961 21.07404316 9 23 C6.03 23 3.06 23 0 23 C0.33 22.34 0.66 21.68 1 21 C1.09504525 19.5753972 1.1307286 18.14651833 1.1328125 16.71875 C1.13410156 15.87699219 1.13539062 15.03523438 1.13671875 14.16796875 C1.13285156 13.28753906 1.12898438 12.40710937 1.125 11.5 C1.12886719 10.61957031 1.13273437 9.73914062 1.13671875 8.83203125 C1.13542969 7.99027344 1.13414063 7.14851562 1.1328125 6.28125 C1.13168457 5.50845703 1.13055664 4.73566406 1.12939453 3.93945312 C1.12007086 1.91790801 1.12007086 1.91790801 0 0 Z " fill="#031D60" transform="translate(119,7)"/>
<path d="M0 0 C2.64 0 5.28 0 8 0 C7.67 0.66 7.34 1.32 7 2 C6.90495475 3.4246028 6.8692714 4.85348167 6.8671875 6.28125 C6.86589844 7.12300781 6.86460938 7.96476563 6.86328125 8.83203125 C6.86714844 9.71246094 6.87101562 10.59289063 6.875 11.5 C6.87113281 12.38042969 6.86726563 13.26085938 6.86328125 14.16796875 C6.86521484 15.43060547 6.86521484 15.43060547 6.8671875 16.71875 C6.86831543 17.49154297 6.86944336 18.26433594 6.87060547 19.06054688 C6.87992914 21.08209199 6.87992914 21.08209199 8 23 C5.36 23 2.72 23 0 23 C0 22.34 0 21.68 0 21 C0.66 21 1.32 21 2 21 C2 18.03 2 15.06 2 12 C0.02 12 -1.96 12 -4 12 C-3.67 11.01 -3.34 10.02 -3 9 C-1.35 9 0.3 9 2 9 C1.51515724 4.35413108 1.51515724 4.35413108 0 0 Z " fill="#041F59" transform="translate(82,7)"/>
<path d="M0 0 C3.375 -0.125 3.375 -0.125 7 0 C9.68092691 2.68092691 9.38670257 4.39167363 9.625 8.125 C9.69976562 9.22070312 9.77453125 10.31640625 9.8515625 11.4453125 C9.92503906 12.70988281 9.92503906 12.70988281 10 14 C9.34 14 8.68 14 8 14 C8 15.32 8 16.64 8 18 C6.02 18 4.04 18 2 18 C2 17.34 2 16.68 2 16 C3.32 15.67 4.64 15.34 6 15 C3.03 14.505 3.03 14.505 0 14 C0.33 12.68 0.66 11.36 1 10 C1.66 10.33 2.32 10.66 3 11 C3 8.69 3 6.38 3 4 C2.34 4 1.68 4 1 4 C0.67 2.68 0.34 1.36 0 0 Z " fill="#E9F0FA" transform="translate(37,7)"/>
<path d="M0 0 C7.75 -0.125 7.75 -0.125 10 1 C9.773125 2.093125 9.54625 3.18625 9.3125 4.3125 C8.5841746 7.90092967 8.5841746 7.90092967 10.4375 9.8125 C10.953125 10.204375 11.46875 10.59625 12 11 C12 11.66 12 12.32 12 13 C8.73045798 12.43628586 7.17424117 11.50037734 5 9 C4.67 10.32 4.34 11.64 4 13 C2.68 13 1.36 13 0 13 C0 8.71 0 4.42 0 0 Z " fill="#16316A" transform="translate(157,40)"/>
<path d="M0 0 C1.65 1.65 3.3 3.3 5 5 C5.33 4.34 5.66 3.68 6 3 C6.83819158 4.62249941 7.6704116 6.24808497 8.5 7.875 C8.9640625 8.77992187 9.428125 9.68484375 9.90625 10.6171875 C11 13 11 13 11 15 C11.66 15 12.32 15 13 15 C13 15.66 13 16.32 13 17 C10.36 17 7.72 17 5 17 C4.855625 16.05125 4.71125 15.1025 4.5625 14.125 C4.17064601 11.1065506 4.17064601 11.1065506 3 9 C-0.02934491 8.34227572 -0.02934491 8.34227572 -3 8 C-1.125 1.125 -1.125 1.125 0 0 Z " fill="#11255F" transform="translate(174,13)"/>
<path d="M0 0 C4.53460431 1.13365108 5.90024653 2.64193374 9 6 C9 4.02 9 2.04 9 0 C9.99 0 10.98 0 12 0 C12 3.96 12 7.92 12 12 C8.41087588 12 7.89142971 11.33563446 5.3125 9 C4.68988281 8.443125 4.06726563 7.88625 3.42578125 7.3125 C2.95527344 6.879375 2.48476562 6.44625 2 6 C2.33 8.31 2.66 10.62 3 13 C2.01 13 1.02 13 0 13 C0 8.71 0 4.42 0 0 Z " fill="#081D62" transform="translate(110,40)"/>
<path d="M0 0 C2.31 0 4.62 0 7 0 C7 0.66 7 1.32 7 2 C6.34 2 5.68 2 5 2 C4.82984375 2.54527344 4.6596875 3.09054688 4.484375 3.65234375 C2.67459186 9.28384978 0.49654622 14.63939569 -2 20 C-2.66 20 -3.32 20 -4 20 C-4 19.34 -4 18.68 -4 18 C-4.66 18 -5.32 18 -6 18 C-6 16.68 -6 15.36 -6 14 C-6.66 14 -7.32 14 -8 14 C-8 13.01 -8 12.02 -8 11 C-8.66 11 -9.32 11 -10 11 C-10 10.34 -10 9.68 -10 9 C-9.01 9 -8.02 9 -7 9 C-6.01 10.98 -5.02 12.96 -4 15 C-3.32243118 13.44219668 -2.65840543 11.87849904 -2 10.3125 C-1.62875 9.44238281 -1.2575 8.57226562 -0.875 7.67578125 C0.01870488 4.9427998 0.16449676 2.85299066 0 0 Z " fill="#091E65" transform="translate(158,7)"/>
<path d="M0 0 C1.98 0 3.96 0 6 0 C6.02685938 2.14576637 6.04633088 4.29162645 6.0625 6.4375 C6.07410156 7.63246094 6.08570313 8.82742188 6.09765625 10.05859375 C6 13 6 13 5 14 C3.35 14 1.7 14 0 14 C0 9.38 0 4.76 0 0 Z " fill="#D5DFEB" transform="translate(13,7)"/>
<path d="M0 0 C3.96 0 7.92 0 12 0 C12 4.29 12 8.58 12 13 C9.69 13 7.38 13 5 13 C5 12.01 5 11.02 5 10 C5.66 10 6.32 10 7 10 C6.7215625 8.2984375 6.7215625 8.2984375 6.4375 6.5625 C6.293125 5.386875 6.14875 4.21125 6 3 C6.33 2.67 6.66 2.34 7 2 C4.69 2 2.38 2 0 2 C0 1.34 0 0.68 0 0 Z " fill="#F5FAFD" transform="translate(20,32)"/>
<path d="M0 0 C1.32 0 2.64 0 4 0 C4 2.97 4 5.94 4 9 C5.32 9.33 6.64 9.66 8 10 C8.33 6.7 8.66 3.4 9 0 C9.99 0 10.98 0 12 0 C12.21153631 4.16021408 12.34125965 7.08997426 10.875 11 C9 13 9 13 6 13.5625 C3 13 3 13 1.125 11.5625 C-0.5494151 7.74855449 -0.23678107 4.10420515 0 0 Z " fill="#041D5C" transform="translate(95,40)"/>
<path d="M0 0 C1.32 0 2.64 0 4 0 C4 0.99 4 1.98 4 3 C3.01 3 2.02 3 1 3 C1.33 4.65 1.66 6.3 2 8 C2.66 8 3.32 8 4 8 C4.33 7.34 4.66 6.68 5 6 C5.02689216 7.47906892 5.04634621 8.95827483 5.0625 10.4375 C5.07410156 11.26121094 5.08570313 12.08492187 5.09765625 12.93359375 C5 15 5 15 4 16 C1.66702567 16.04092937 -0.66705225 16.04241723 -3 16 C-4.15837626 11.94568308 -3.83691257 9.78187881 -2 6 C-1.67 6 -1.34 6 -1 6 C-0.67 4.02 -0.34 2.04 0 0 Z " fill="#C1D4E5" transform="translate(31,8)"/>
<path d="M0 0 C1.22589844 0.15275391 1.22589844 0.15275391 2.4765625 0.30859375 C3.41628906 0.43427734 3.41628906 0.43427734 4.375 0.5625 C4.045 1.5525 3.715 2.5425 3.375 3.5625 C4.035 3.5625 4.695 3.5625 5.375 3.5625 C5.375 5.8725 5.375 8.1825 5.375 10.5625 C4.385 10.2325 3.395 9.9025 2.375 9.5625 C2.045 7.9125 1.715 6.2625 1.375 4.5625 C1.045 5.8825 0.715 7.2025 0.375 8.5625 C-0.285 8.5625 -0.945 8.5625 -1.625 8.5625 C-1.955 9.2225 -2.285 9.8825 -2.625 10.5625 C-2.625 8.2525 -2.625 5.9425 -2.625 3.5625 C-1.635 3.5625 -0.645 3.5625 0.375 3.5625 C0.375 2.5725 0.375 1.5825 0.375 0.5625 C-0.945 0.5625 -2.265 0.5625 -3.625 0.5625 C-3.563125 1.655625 -3.50125 2.74875 -3.4375 3.875 C-3.625 7.5625 -3.625 7.5625 -5.125 9.5 C-5.62 9.850625 -6.115 10.20125 -6.625 10.5625 C-6.625 8.5825 -6.625 6.6025 -6.625 4.5625 C-7.285 4.5625 -7.945 4.5625 -8.625 4.5625 C-6.48538859 -0.17521098 -5.07875667 -0.652983 0 0 Z " fill="#8B9BB7" transform="translate(34.625,7.4375)"/>
<path d="M0 0 C2.97 0 5.94 0 9 0 C8.67 0.99 8.34 1.98 8 3 C6.68 2.67 5.36 2.34 4 2 C4 2.99 4 3.98 4 5 C5.32 5 6.64 5 8 5 C8 5.66 8 6.32 8 7 C6.68 7 5.36 7 4 7 C4 8.32 4 9.64 4 11 C5.98 10.67 7.96 10.34 10 10 C9.67 10.99 9.34 11.98 9 13 C6.03 13 3.06 13 0 13 C0 8.71 0 4.42 0 0 Z " fill="#07205B" transform="translate(145,40)"/>
<path d="M0 0 C1.134375 0.020625 2.26875 0.04125 3.4375 0.0625 C3.4375 1.0525 3.4375 2.0425 3.4375 3.0625 C2.1175 2.7325 0.7975 2.4025 -0.5625 2.0625 C-0.5625 2.7225 -0.5625 3.3825 -0.5625 4.0625 C1.06376404 5.44482443 2.7300002 6.78187515 4.4375 8.0625 C3.7775 9.7125 3.1175 11.3625 2.4375 13.0625 C0.4575 13.0625 -1.5225 13.0625 -3.5625 13.0625 C-3.8925 11.7425 -4.2225 10.4225 -4.5625 9.0625 C-2.0875 9.5575 -2.0875 9.5575 0.4375 10.0625 C-0.3875 9.505625 -1.2125 8.94875 -2.0625 8.375 C-4.5625 6.0625 -4.5625 6.0625 -4.9375 3.375 C-4.32883883 -0.37841054 -4.02063137 0.07053739 0 0 Z " fill="#1A2E66" transform="translate(174.5625,39.9375)"/>
<path d="M0 0 C1.32 0 2.64 0 4 0 C4.66 2.31 5.32 4.62 6 7 C6.66 7 7.32 7 8 7 C8.33 4.69 8.66 2.38 9 0 C10.32 0 11.64 0 13 0 C11.31326082 4.49797113 9.18326108 8.72886302 7 13 C4.20836288 10.59231297 3.10282443 8.23853384 1.8125 4.8125 C1.46832031 3.91144531 1.12414062 3.01039062 0.76953125 2.08203125 C0.51558594 1.39496094 0.26164063 0.70789062 0 0 Z " fill="#0C265F" transform="translate(131,40)"/>
<path d="M0 0 C2.33294775 -0.04241723 4.66702567 -0.04092937 7 0 C8 1 8 1 8.25 3.9375 C8.1675 4.948125 8.085 5.95875 8 7 C4.77208445 9.1519437 3.71599191 9.20086443 0 9 C0 6.03 0 3.06 0 0 Z " fill="#E2EBF7" transform="translate(195,9)"/>
<path d="M0 0 C2.875 -0.125 2.875 -0.125 6 0 C8 2 8 2 8.3125 4.5 C8.1578125 5.7375 8.1578125 5.7375 8 7 C4.77208445 9.1519437 3.71599191 9.20086443 0 9 C0 6.03 0 3.06 0 0 Z " fill="#E4F1FD" transform="translate(125,9)"/>
<path d="M0 0 C0.66 0.33 1.32 0.66 2 1 C2.625 4.0625 2.625 4.0625 3 7 C2.34 7 1.68 7 1 7 C1 7.99 1 8.98 1 10 C6.1693489 9.59443869 6.1693489 9.59443869 11 8 C11 9.32 11 10.64 11 12 C7.7 12 4.4 12 1 12 C0.67 12.99 0.34 13.98 0 15 C-0.33 13.68 -0.66 12.36 -1 11 C-3.64 11 -6.28 11 -9 11 C-9 10.67 -9 10.34 -9 10 C-6.03 10 -3.06 10 0 10 C-0.37125 9.278125 -0.7425 8.55625 -1.125 7.8125 C-2.18974141 4.39011689 -1.60339848 3.11771927 0 0 Z " fill="#273D63" transform="translate(24,35)"/>
<path d="M0 0 C0.99 0 1.98 0 3 0 C5.33333333 4.66666667 7.66666667 9.33333333 10 14 C7.03 14 4.06 14 1 14 C0.67 9.38 0.34 4.76 0 0 Z " fill="#081D5E" transform="translate(107,16)"/>
<path d="M0 0 C3.96 0 7.92 0 12 0 C11.67 0.66 11.34 1.32 11 2 C10.01 2 9.02 2 8 2 C8.08378906 2.71027344 8.16757813 3.42054687 8.25390625 4.15234375 C8.35574219 5.07144531 8.45757812 5.99054687 8.5625 6.9375 C8.66691406 7.85402344 8.77132812 8.77054688 8.87890625 9.71484375 C8.91886719 10.46894531 8.95882812 11.22304688 9 12 C8 13 8 13 5.4375 13.0625 C4.633125 13.041875 3.82875 13.02125 3 13 C3 12.34 3 11.68 3 11 C3.66 11 4.32 11 5 11 C5 8.03 5 5.06 5 2 C3.35 2 1.7 2 0 2 C0 1.34 0 0.68 0 0 Z " fill="#485F8F" transform="translate(186,40)"/>
<path d="M0 0 C1.32 0 2.64 0 4 0 C4.66 0.99 5.32 1.98 6 3 C6.33 2.01 6.66 1.02 7 0 C8.32 0.33 9.64 0.66 11 1 C10.34 2.051875 9.68 3.10375 9 4.1875 C7.2228415 7.26623937 6.56193494 9.38596328 7 13 C5.68 12.67 4.36 12.34 3 12 C2.814375 10.4221875 2.814375 10.4221875 2.625 8.8125 C2.08859218 5.54041229 1.36119965 2.99463924 0 0 Z " fill="#0A215E" transform="translate(199,40)"/>
<path d="M0 0 C0.99 0.33 1.98 0.66 3 1 C3.36644578 2.55966592 3.71760862 4.12292651 4.0625 5.6875 C4.25972656 6.55761719 4.45695312 7.42773438 4.66015625 8.32421875 C5.02032279 11.16001276 4.70909969 13.24789982 4 16 C1.03 16 -1.94 16 -5 16 C-5 15.67 -5 15.34 -5 15 C-2.36 15 0.28 15 3 15 C2.67 14.01 2.34 13.02 2 12 C1.01 12.495 1.01 12.495 0 13 C0 8.71 0 4.42 0 0 Z " fill="#8698C0" transform="translate(32,32)"/>
<path d="M0 0 C0.99 0 1.98 0 3 0 C3.22786458 2.01822917 3.45572917 4.03645833 3.68359375 6.0546875 C3.91292961 8.07404316 3.91292961 8.07404316 5 10 C2.03 10 -0.94 10 -4 10 C-3.52449439 8.51965236 -3.04448784 7.04074979 -2.5625 5.5625 C-2.29566406 4.73878906 -2.02882812 3.91507813 -1.75390625 3.06640625 C-1 1 -1 1 0 0 Z " fill="#112860" transform="translate(193,20)"/>
<path d="M0 0 C7.75 -0.125 7.75 -0.125 10 1 C9.67 2.65 9.34 4.3 9 6 C8.7525 5.360625 8.505 4.72125 8.25 4.0625 C7.03378366 1.50980961 7.03378366 1.50980961 3 1 C3.33 4.96 3.66 8.92 4 13 C2.68 13 1.36 13 0 13 C0 8.71 0 4.42 0 0 Z " fill="#08245D" transform="translate(157,40)"/>
<path d="M0 0 C2.13586678 3.20380017 2.23132175 4.01939967 2.125 7.6875 C2.10695313 8.49574219 2.08890625 9.30398437 2.0703125 10.13671875 C2.03550781 11.05904297 2.03550781 11.05904297 2 12 C4.31 12 6.62 12 9 12 C9.33 11.01 9.66 10.02 10 9 C10 10.32 10 11.64 10 13 C7.03 13 4.06 13 1 13 C1 13.66 1 14.32 1 15 C2.65 15 4.3 15 6 15 C4 17 4 17 1.375 17.125 C0.59125 17.08375 -0.1925 17.0425 -1 17 C-1.33 15.35 -1.66 13.7 -2 12 C-1.01 12 -0.02 12 1 12 C0.835 11.319375 0.67 10.63875 0.5 9.9375 C-0.07089059 6.5835178 -0.06659023 3.39610195 0 0 Z " fill="#B7CBE1" transform="translate(14,32)"/>
<path d="M0 0 C1.98 0 3.96 0 6 0 C6 1.32 6 2.64 6 4 C4.68 3.34 3.36 2.68 2 2 C2.144375 3.27875 2.28875 4.5575 2.4375 5.875 C2.55931641 6.95394531 2.55931641 6.95394531 2.68359375 8.0546875 C2.91292961 10.07404316 2.91292961 10.07404316 4 12 C1.03 12 -1.94 12 -5 12 C-5 11.67 -5 11.34 -5 11 C-3.35 11 -1.7 11 0 11 C0 7.37 0 3.74 0 0 Z " fill="#0A2059" transform="translate(124,18)"/>
<path d="M0 0 C0.66 0 1.32 0 2 0 C3.37432457 3.81756824 2.67975039 7.07255329 2 11 C2.66 11 3.32 11 4 11 C4 11.66 4 12.32 4 13 C3.34 13 2.68 13 2 13 C2 13.99 2 14.98 2 16 C-0.31 16 -2.62 16 -5 16 C-5 15.67 -5 15.34 -5 15 C-3.35 15 -1.7 15 0 15 C0 10.05 0 5.1 0 0 Z " fill="#CCDBEF" transform="translate(20,8)"/>
<path d="M0 0 C1.32 0.33 2.64 0.66 4 1 C3.67 4.96 3.34 8.92 3 13 C2.01 13 1.02 13 0 13 C0 8.71 0 4.42 0 0 Z " fill="#06215D" transform="translate(126,40)"/>
<path d="M0 0 C1.125 1.6875 1.125 1.6875 2 4 C1.125 6.625 1.125 6.625 0 9 C0 9.66 0 10.32 0 11 C-1.98 11 -3.96 11 -6 11 C-5.33333333 9.66666667 -4.66666667 8.33333333 -4 7 C-3.2265625 5.4221875 -3.2265625 5.4221875 -2.4375 3.8125 C-1 1 -1 1 0 0 Z " fill="#071D5A" transform="translate(99,19)"/>
<path d="M0 0 C1.32 0 2.64 0 4 0 C4 4.29 4 8.58 4 13 C2.68 13 1.36 13 0 13 C0 8.71 0 4.42 0 0 Z " fill="#092364" transform="translate(181,40)"/>
<path d="M0 0 C0.99 0 1.98 0 3 0 C3 3.96 3 7.92 3 12 C2.01 12 1.02 12 0 12 C-0.79953138 8.71303767 -1.09658936 7.28976808 0 4 C0 2.68 0 1.36 0 0 Z " fill="#162C66" transform="translate(119,40)"/>
<path d="M0 0 C1.32 0 2.64 0 4 0 C4 0.99 4 1.98 4 3 C3.01 3 2.02 3 1 3 C1.33 4.65 1.66 6.3 2 8 C2.66 8 3.32 8 4 8 C4.33 7.34 4.66 6.68 5 6 C5 8.31 5 10.62 5 13 C4.01 13 3.02 13 2 13 C2 12.34 2 11.68 2 11 C1.34 11 0.68 11 0 11 C0 7.37 0 3.74 0 0 Z " fill="#ECF7FB" transform="translate(31,8)"/>
<path d="M0 0 C1.98 0.495 1.98 0.495 4 1 C3.67 4.63 3.34 8.26 3 12 C1.68 11.67 0.36 11.34 -1 11 C-0.67 7.37 -0.34 3.74 0 0 Z " fill="#05226B" transform="translate(121,17)"/>
<path d="M0 0 C1.43655854 -0.08131463 2.8744483 -0.13933559 4.3125 -0.1875 C5.51326172 -0.23970703 5.51326172 -0.23970703 6.73828125 -0.29296875 C9.47851584 0.06198392 10.29171079 0.89366282 12 3 C11.01 3 10.02 3 9 3 C9 5.64 9 8.28 9 11 C7.68 10.67 6.36 10.34 5 10 C5.66 9.67 6.32 9.34 7 9 C7 7.02 7 5.04 7 3 C4.69 2.67 2.38 2.34 0 2 C0 1.34 0 0.68 0 0 Z " fill="#2F3D76" transform="translate(195,7)"/>
<path d="M0 0 C0.99 0 1.98 0 3 0 C3.99 1.98 4.98 3.96 6 6 C6.99 5.34 7.98 4.68 9 4 C10 7 10 7 9.0625 9.1875 C8.711875 9.785625 8.36125 10.38375 8 11 C7.34 11 6.68 11 6 11 C6 10.34 6 9.68 6 9 C5.34 9 4.68 9 4 9 C4 7.68 4 6.36 4 5 C3.34 5 2.68 5 2 5 C2 4.01 2 3.02 2 2 C1.34 2 0.68 2 0 2 C0 1.34 0 0.68 0 0 Z " fill="#142972" transform="translate(148,16)"/>
<path d="M0 0 C0.66 0 1.32 0 2 0 C2.33 4.29 2.66 8.58 3 13 C4.65 13.33 6.3 13.66 8 14 C7.67 14.66 7.34 15.32 7 16 C4.69 16 2.38 16 0 16 C0 10.72 0 5.44 0 0 Z " fill="#BAD3E8" transform="translate(4,8)"/>
<path d="M0 0 C0.33 0 0.66 0 1 0 C1 5.61 1 11.22 1 17 C-0.98 17 -2.96 17 -5 17 C-4.6875 15.0625 -4.6875 15.0625 -4 13 C-3.01 12.67 -2.02 12.34 -1 12 C-0.67 8.04 -0.34 4.08 0 0 Z " fill="#385175" transform="translate(19,8)"/>
<path d="M0 0 C2.62386487 3.06117568 3 3.73173127 3 8 C1.02 8 -0.96 8 -3 8 C-1.125 1.125 -1.125 1.125 0 0 Z " fill="#C2CEE6" transform="translate(174,13)"/>
<path d="M0 0 C2.31 1.98 4.62 3.96 7 6 C6.67 6.66 6.34 7.32 6 8 C3.03 7.505 3.03 7.505 0 7 C-0.93423645 3.98968256 -1.04449911 3.13349732 0 0 Z " fill="#0F2B60" transform="translate(135,23)"/>
<path d="M0 0 C2.64 0 5.28 0 8 0 C6.68 2.64 5.36 5.28 4 8 C2.22293791 5.33440687 1.12451727 2.9719385 0 0 Z " fill="#0A1F64" transform="translate(82,7)"/>
<path d="M0 0 C0.99 0.66 1.98 1.32 3 2 C3.1875 4.625 3.1875 4.625 3 7 C1.0625 7.5625 1.0625 7.5625 -1 8 C-2 7 -2 7 -2.1875 4.5625 C-2 2 -2 2 0 0 Z " fill="#F1FAFD" transform="translate(130,9)"/>
<path d="M0 0 C3.96 0 7.92 0 12 0 C11.67 0.66 11.34 1.32 11 2 C10.01 2 9.02 2 8 2 C8 3.98 8 5.96 8 8 C7.67 8 7.34 8 7 8 C7 6.02 7 4.04 7 2 C4.69 2 2.38 2 0 2 C0 1.34 0 0.68 0 0 Z " fill="#081D4D" transform="translate(186,40)"/>
<path d="M0 0 C2.24027294 2.88035092 4.16172132 5.84866512 6 9 C3.03 9 0.06 9 -3 9 C-1.68 8.34 -0.36 7.68 1 7 C1.33 6.34 1.66 5.68 2 5 C1.34 5 0.68 5 0 5 C0 4.34 0 3.68 0 3 C-0.66 3 -1.32 3 -2 3 C-2 2.34 -2 1.68 -2 1 C-1.34 0.67 -0.68 0.34 0 0 Z " fill="#0A2454" transform="translate(111,21)"/>
<path d="M0 0 C2.15377564 2.62198774 3.40072174 4.64404172 4 8 C2.02 8 0.04 8 -2 8 C-1.125 2.25 -1.125 2.25 0 0 Z " fill="#C8D4ED" transform="translate(103,13)"/>
<path d="M0 0 C0.66 1.32 1.32 2.64 2 4 C2.66 4 3.32 4 4 4 C4.33 3.01 4.66 2.02 5 1 C5 3.31 5 5.62 5 8 C3.35 8 1.7 8 0 8 C0 5.36 0 2.72 0 0 Z " fill="#E6F2FA" transform="translate(7,13)"/>
<path d="M0 0 C2 3 2 3 2 5 C1.34 5 0.68 5 0 5 C0 6.32 0 7.64 0 9 C-1.98 9 -3.96 9 -6 9 C-6 8.34 -6 7.68 -6 7 C-4.68 6.67 -3.36 6.34 -2 6 C-2.33 5.34 -2.66 4.68 -3 4 C-2.34 3.67 -1.68 3.34 -1 3 C-0.67 2.01 -0.34 1.02 0 0 Z " fill="#A9BBE1" transform="translate(45,16)"/>
<path d="M0 0 C1.65 0 3.3 0 5 0 C5.1875 2.375 5.1875 2.375 5 5 C4.01 5.66 3.02 6.32 2 7 C2 6.01 2 5.02 2 4 C1.34 4 0.68 4 0 4 C0 2.68 0 1.36 0 0 Z " fill="#E1EFFB" transform="translate(7,7)"/>
<path d="M0 0 C0.33 0.66 0.66 1.32 1 2 C0.01 3.485 0.01 3.485 -1 5 C-4.125 5.1875 -4.125 5.1875 -7 5 C-7.33 3.68 -7.66 2.36 -8 1 C-6.8553125 1.309375 -6.8553125 1.309375 -5.6875 1.625 C-2.78114056 2.33391203 -2.78114056 2.33391203 0 0 Z " fill="#09216E" transform="translate(178,48)"/>
<path d="M0 0 C0.33 0 0.66 0 1 0 C1 2.31 1 4.62 1 7 C-0.98 7.99 -0.98 7.99 -3 9 C-3 7.35 -3 5.7 -3 4 C-2.34 4 -1.68 4 -1 4 C-0.67 2.68 -0.34 1.36 0 0 Z " fill="#11316A" transform="translate(48,17)"/>
<path d="M0 0 C2.64 0 5.28 0 8 0 C7.34 2.97 6.68 5.94 6 9 C5.67 9 5.34 9 5 9 C4.34 6.69 3.68 4.38 3 2 C2.01 2 1.02 2 0 2 C0 1.34 0 0.68 0 0 Z " fill="#0D1C5E" transform="translate(66,7)"/>
<path d="M0 0 C-0.33 0.66 -0.66 1.32 -1 2 C-0.34 2 0.32 2 1 2 C0.67 3.65 0.34 5.3 0 7 C-0.185625 6.38125 -0.37125 5.7625 -0.5625 5.125 C-2.71437233 1.94397134 -5.37533763 1.80548053 -9 1 C-9 0.67 -9 0.34 -9 0 C-5.62182575 -0.84454356 -3.32534757 -1.10844919 0 0 Z " fill="#314977" transform="translate(134,8)"/>
<path d="M0 0 C0.99 0.99 1.98 1.98 3 3 C2.67 3.99 2.34 4.98 2 6 C-0.0625 6.6875 -0.0625 6.6875 -2 7 C-2 5.35 -2 3.7 -2 2 C-1.34 2 -0.68 2 0 2 C0 1.34 0 0.68 0 0 Z " fill="#0E2A6E" transform="translate(179,16)"/>
<path d="M0 0 C0 0.66 0 1.32 0 2 C-4.41225737 3.47075246 -7.48281619 4.36884358 -12 3 C-7.59360646 0.79680323 -5.02549129 -0.10924981 0 0 Z " fill="#011F59" transform="translate(19,4)"/>
<path d="M0 0 C0.33 1.32 0.66 2.64 1 4 C2.32 4 3.64 4 5 4 C5 4.66 5 5.32 5 6 C3.02 6.33 1.04 6.66 -1 7 C-1.04254356 5.00045254 -1.04080783 2.99958364 -1 1 C-0.67 0.67 -0.34 0.34 0 0 Z " fill="#355582" transform="translate(148,41)"/>
<path d="M0 0 C0.66 0.33 1.32 0.66 2 1 C2.625 4.0625 2.625 4.0625 3 7 C1.35 7 -0.3 7 -2 7 C-1.34 4.69 -0.68 2.38 0 0 Z " fill="#455176" transform="translate(24,35)"/>
<path d="M0 0 C0.33 1.65 0.66 3.3 1 5 C-0.65 5 -2.3 5 -4 5 C-4.33 4.01 -4.66 3.02 -5 2 C-2 0 -2 0 0 0 Z " fill="#042265" transform="translate(183,21)"/>
<path d="M0 0 C0.99 0.33 1.98 0.66 3 1 C3 3.31 3 5.62 3 8 C2.01 7.67 1.02 7.34 0 7 C0 4.69 0 2.38 0 0 Z " fill="#8E97BC" transform="translate(37,10)"/>
<path d="M0 0 C0.99 0 1.98 0 3 0 C2.34 2.64 1.68 5.28 1 8 C0.01 7.67 -0.98 7.34 -2 7 C-1.34 4.69 -0.68 2.38 0 0 Z " fill="#192F66" transform="translate(100,13)"/>
<path d="M0 0 C0.66 0 1.32 0 2 0 C2 2.31 2 4.62 2 7 C0.68 7 -0.64 7 -2 7 C-1.42415568 4.61435923 -0.77772405 2.33317216 0 0 Z " fill="#B3C2CC" transform="translate(19,36)"/>
<path d="M0 0 C1.32 0 2.64 0 4 0 C3.67 1.65 3.34 3.3 3 5 C2.01 4.67 1.02 4.34 0 4 C0 2.68 0 1.36 0 0 Z " fill="#E0E4F6" transform="translate(160,41)"/>
<path d="M0 0 C0 3.63 0 7.26 0 11 C-0.33 11 -0.66 11 -1 11 C-1.66 7.7 -2.32 4.4 -3 1 C-1 0 -1 0 0 0 Z " fill="#0F285F" transform="translate(5,10)"/>
<path d="M0 0 C1.98 0.99 1.98 0.99 4 2 C4 2.99 4 3.98 4 5 C4.66 5.33 5.32 5.66 6 6 C4.68 6 3.36 6 2 6 C2 5.01 2 4.02 2 3 C1.34 3 0.68 3 0 3 C0 2.01 0 1.02 0 0 Z " fill="#021E57" transform="translate(20,4)"/>
<path d="M0 0 C1.32 0.33 2.64 0.66 4 1 C3.67 1.66 3.34 2.32 3 3 C2.34 3 1.68 3 1 3 C1 5.31 1 7.62 1 10 C0.67 10 0.34 10 0 10 C0 6.7 0 3.4 0 0 Z " fill="#637FA4" transform="translate(110,40)"/>
<path d="M0 0 C1.65 0 3.3 0 5 0 C4.34 1.32 3.68 2.64 3 4 C1.35 4 -0.3 4 -2 4 C-1.34 2.68 -0.68 1.36 0 0 Z " fill="#162862" transform="translate(233,22)"/>
<path d="M0 0 C1.32 0 2.64 0 4 0 C4 1.32 4 2.64 4 4 C2.68 4.33 1.36 4.66 0 5 C0 3.35 0 1.7 0 0 Z " fill="#192876" transform="translate(191,22)"/>
<path d="M0 0 C0 3.38023517 -0.87455622 5.83468937 -2 9 C-2.33 9 -2.66 9 -3 9 C-3.1875 5.625 -3.1875 5.625 -3 2 C-2.01 1.34 -1.02 0.68 0 0 Z " fill="#1D336A" transform="translate(25,10)"/>
<path d="M0 0 C1.32 0.33 2.64 0.66 4 1 C3.67 2.32 3.34 3.64 3 5 C2.01 5 1.02 5 0 5 C0 3.35 0 1.7 0 0 Z " fill="#0A1E51" transform="translate(204,10)"/>
</svg>
