<?xml version="1.0" encoding="UTF-8"?>
<svg version="1.1" xmlns="http://www.w3.org/2000/svg" width="593" height="150">
<path d="M0 0 C9.57 0 19.14 0 29 0 C28.67 43.56 28.34 87.12 28 132 C18.76 132.33 9.52 132.66 0 133 C0 89.11 0 45.22 0 0 Z " fill="#132258" transform="translate(2,4)"/>
<path d="M0 0 C9.57 0 19.14 0 29 0 C28.67 43.56 28.34 87.12 28 132 C18.76 132.33 9.52 132.66 0 133 C0 89.11 0 45.22 0 0 Z " fill="#152358" transform="translate(90,4)"/>
<path d="M0 0 C9.57 0 19.14 0 29 0 C29 30.03 29 60.06 29 91 C19.43 91 9.86 91 0 91 C0 60.97 0 30.94 0 0 Z " fill="#132258" transform="translate(46,4)"/>
<path d="M0 0 C9.24 0 18.48 0 28 0 C28 29.7 28 59.4 28 90 C18.76 90 9.52 90 0 90 C0 60.3 0 30.6 0 0 Z " fill="#122358" transform="translate(178,46)"/>
<path d="M0 0 C9.24 0 18.48 0 28 0 C28 29.7 28 59.4 28 90 C18.76 90 9.52 90 0 90 C0 60.3 0 30.6 0 0 Z " fill="#4A4D6B" transform="translate(134,46)"/>
<path d="M0 0 C24.09 0 48.18 0 73 0 C73 9.24 73 18.48 73 28 C48.91 28 24.82 28 0 28 C0 18.76 0 9.52 0 0 Z " fill="#142256" transform="translate(177,4)"/>
<path d="M0 0 C2.64 0 5.28 0 8 0 C8 2.64 8 5.28 8 8 C9.65 8 11.3 8 13 8 C13 5.69 13 3.38 13 1 C15.31 1 17.62 1 20 1 C20 3.31 20 5.62 20 8 C22.475 7.505 22.475 7.505 25 7 C25 8.32 25 9.64 25 11 C25.4125 10.54625 25.825 10.0925 26.25 9.625 C30.1409004 6.01202106 33.67264907 5.63731294 38.8046875 5.73046875 C41.7360615 6.09037054 43.68447538 7.20733578 46 9 C45.42655063 11.86724686 45.1385485 12.8614515 43 15 C43.99 16.485 43.99 16.485 45 18 C46.1149272 21.34478161 46.42884908 23.49773248 46 27 C44.25 29.375 44.25 29.375 41 31 C36.93117482 31.54399027 33.04388918 31.75649096 29 31 C26.62890625 28.96875 26.62890625 28.96875 25 27 C25.33 26.401875 25.66 25.80375 26 25.1875 C27.96489905 20.88928332 26.30397142 17.31940533 25 13 C23.35 13 21.7 13 20 13 C20 16.3 20 19.6 20 23 C21.98 23.495 21.98 23.495 24 24 C24 25.98 24 27.96 24 30 C17.9453125 30.9765625 17.9453125 30.9765625 16 31 C13.33610311 28.33610311 13.01857923 26.59676491 12.90234375 22.86328125 C12.91394531 21.69152344 12.92554688 20.51976562 12.9375 19.3125 C12.94652344 18.13300781 12.95554687 16.95351563 12.96484375 15.73828125 C12.97644531 14.83464844 12.98804688 13.93101563 13 13 C11.35 13 9.7 13 8 13 C8.495 17.95 8.495 17.95 9 23 C9.99 23 10.98 23 12 23 C12 24.98 12 26.96 12 29 C5.25 31 5.25 31 3 31 C0.33610311 28.33610311 0.01857923 26.59676491 -0.09765625 22.86328125 C-0.08605469 21.69152344 -0.07445312 20.51976562 -0.0625 19.3125 C-0.05347656 18.13300781 -0.04445313 16.95351563 -0.03515625 15.73828125 C-0.02355469 14.83464844 -0.01195312 13.93101563 0 13 C-0.99 13.66 -1.98 14.32 -3 15 C-3 16.65 -3 18.3 -3 20 C-7.62 20.33 -12.24 20.66 -17 21 C-16.34 21.99 -15.68 22.98 -15 24 C-14.13375 23.5359375 -14.13375 23.5359375 -13.25 23.0625 C-9.44868981 21.26743685 -7.05982172 20.6950573 -3 22 C-3.48697068 27.4784202 -3.48697068 27.4784202 -5.640625 29.66796875 C-8.71518319 31.40377064 -10.98214574 31.46772611 -14.5 31.5 C-16.18609375 31.54640625 -16.18609375 31.54640625 -17.90625 31.59375 C-21 31 -21 31 -23.40625 28.46875 C-23.9321875 27.6540625 -24.458125 26.839375 -25 26 C-27.05171143 26.86809203 -27.05171143 26.86809203 -28.3125 28.5 C-31.95160295 31.73475818 -37.25674689 31.26537169 -41.90625 31.234375 C-44.6292503 30.92956153 -46.11814795 29.96367171 -48 28 C-47.40072174 24.64404172 -46.15377564 22.62198774 -44 20 C-44.680625 19.484375 -45.36125 18.96875 -46.0625 18.4375 C-48 16 -48 16 -47.875 12.3125 C-47.58625 11.219375 -47.2975 10.12625 -47 9 C-46.34 8.67 -45.68 8.34 -45 8 C-44.39027344 7.65582031 -43.78054688 7.31164062 -43.15234375 6.95703125 C-39.52308955 5.34329753 -35.89586004 5.52168266 -32 6 C-28.9375 7.5 -28.9375 7.5 -27 9 C-27.66 9.804375 -28.32 10.60875 -29 11.4375 C-31.10254514 13.58961915 -31.10254514 13.58961915 -31 15 C-30.01 16.1446875 -30.01 16.1446875 -29 17.3125 C-27 20 -27 20 -27 24 C-25.7158283 22.94886751 -25.7158283 22.94886751 -25.97265625 20.56640625 C-26.03247665 18.56632431 -26.09497 16.5663205 -26.16015625 14.56640625 C-25.9451091 11.12040675 -24.3793792 10.3793792 -22 8 C-19.03978252 6.21127284 -16.81973673 5.72695828 -13.375 5.75 C-12.59898437 5.74484375 -11.82296875 5.7396875 -11.0234375 5.734375 C-8.09880333 6.11830381 -7.04200173 7.95799827 -5 10 C-4.01 9.01 -3.02 8.02 -2 7 C-1.34 7.33 -0.68 7.66 0 8 C0 5.36 0 2.72 0 0 Z M-39 12 C-38.67 12.99 -38.34 13.98 -38 15 C-37.34 15 -36.68 15 -36 15 C-35.67 14.01 -35.34 13.02 -35 12 C-36.32 12 -37.64 12 -39 12 Z M-16 12 C-16.33 12.99 -16.66 13.98 -17 15 C-15.35 15 -13.7 15 -12 15 C-12 14.01 -12 13.02 -12 12 C-13.32 12 -14.64 12 -16 12 Z M34 12 C34 12.99 34 13.98 34 15 C35.32 14.67 36.64 14.34 38 14 C37.67 13.34 37.34 12.68 37 12 C36.01 12 35.02 12 34 12 Z M-42 21 C-41.34 22.32 -40.68 23.64 -40 25 C-38.68 25 -37.36 25 -36 25 C-35.67 24.01 -35.34 23.02 -35 22 C-37.31 21.67 -39.62 21.34 -42 21 Z M32 21 C32 21.99 32 22.98 32 24 C33.65 24.33 35.3 24.66 37 25 C36.67 24.01 36.34 23.02 36 22 C33.98491642 21.26676204 33.98491642 21.26676204 32 21 Z " fill="#162456" transform="translate(545,5)"/>
<path d="M0 0 C4.36752181 0.06304822 7.21458497 0.43836343 10.6875 3.3125 C8.7075 6.2825 8.7075 6.2825 6.6875 9.3125 C8.3375 11.6225 9.9875 13.9325 11.6875 16.3125 C12.3475 15.9825 13.0075 15.6525 13.6875 15.3125 C13.6875 14.6525 13.6875 13.9925 13.6875 13.3125 C13.0275 12.6525 12.3675 11.9925 11.6875 11.3125 C11.7109375 9.1484375 11.7109375 9.1484375 12.0625 6.6875 C12.22878906 5.46160156 12.22878906 5.46160156 12.3984375 4.2109375 C12.54152344 3.27121094 12.54152344 3.27121094 12.6875 2.3125 C17.39080431 -0.19592897 22.47528188 -0.31481121 27.6875 0.3125 C28.3475 0.9725 29.0075 1.6325 29.6875 2.3125 C30.3475 2.6425 31.0075 2.9725 31.6875 3.3125 C31.11165568 5.69814077 30.46522405 7.97932784 29.6875 10.3125 C30.203125 10.68375 30.71875 11.055 31.25 11.4375 C32.6875 13.3125 32.6875 13.3125 32.375 16.5 C32.148125 17.428125 31.92125 18.35625 31.6875 19.3125 C32.3475 19.3125 33.0075 19.3125 33.6875 19.3125 C33.44 18.755625 33.1925 18.19875 32.9375 17.625 C32.6875 15.3125 32.6875 15.3125 34.5 12.625 C36.6875 10.3125 36.6875 10.3125 38.6875 9.3125 C37.7284375 9.1578125 37.7284375 9.1578125 36.75 9 C36.069375 8.773125 35.38875 8.54625 34.6875 8.3125 C34.1925 6.8275 34.1925 6.8275 33.6875 5.3125 C36.37214054 2.3593954 38.88674318 0.61853202 42.87109375 -0.05859375 C43.61488281 -0.08050781 44.35867188 -0.10242187 45.125 -0.125 C45.86621094 -0.16496094 46.60742188 -0.20492188 47.37109375 -0.24609375 C51.12581049 0.65934384 52.44838854 2.18870465 54.6875 5.3125 C55.28532749 8.77413191 55.1607516 12.12556139 55 15.625 C54.97744141 16.55634766 54.95488281 17.48769531 54.93164062 18.44726562 C54.87292078 20.7373396 54.79086858 23.02407875 54.6875 25.3125 C51.74945004 25.39336376 48.81361925 25.4529283 45.875 25.5 C44.62493164 25.53770508 44.62493164 25.53770508 43.34960938 25.57617188 C42.54716797 25.58583984 41.74472656 25.59550781 40.91796875 25.60546875 C39.81038208 25.62903442 39.81038208 25.62903442 38.68041992 25.65307617 C36.12490571 25.21635654 35.33826641 24.26184393 33.6875 22.3125 C33.0275 21.6525 32.3675 20.9925 31.6875 20.3125 C31.3575 20.9725 31.0275 21.6325 30.6875 22.3125 C29.5234375 23.9140625 29.5234375 23.9140625 27.6875 25.3125 C24.7265625 25.7109375 24.7265625 25.7109375 21.3125 25.6875 C20.19101562 25.69523437 19.06953125 25.70296875 17.9140625 25.7109375 C14.43551977 25.2813838 12.52222556 24.31910349 9.6875 22.3125 C9.15125 22.79976562 8.615 23.28703125 8.0625 23.7890625 C5.08229809 25.70070517 3.20440335 25.71387678 -0.3125 25.6875 C-1.34375 25.69523437 -2.375 25.70296875 -3.4375 25.7109375 C-6.60361368 25.27215544 -7.97627097 24.43532349 -10.3125 22.3125 C-9.68490135 19.38370629 -8.72627341 16.95154371 -7.3125 14.3125 C-7.828125 13.796875 -8.34375 13.28125 -8.875 12.75 C-10.90732809 9.30387846 -10.24299733 7.10606604 -9.3125 3.3125 C-8.6525 2.9825 -7.9925 2.6525 -7.3125 2.3125 C-4.73034328 -0.26965672 -3.58546873 0.01455535 0 0 Z M-1.3125 6.3125 C-0.9825 7.3025 -0.6525 8.2925 -0.3125 9.3125 C0.3475 9.3125 1.0075 9.3125 1.6875 9.3125 C2.0175 8.3225 2.3475 7.3325 2.6875 6.3125 C1.3675 6.3125 0.0475 6.3125 -1.3125 6.3125 Z M19.6875 6.3125 C20.0175 7.3025 20.3475 8.2925 20.6875 9.3125 C21.6775 8.9825 22.6675 8.6525 23.6875 8.3125 C23.6875 7.6525 23.6875 6.9925 23.6875 6.3125 C22.3675 6.3125 21.0475 6.3125 19.6875 6.3125 Z M43.6875 6.3125 C43.6875 7.3025 43.6875 8.2925 43.6875 9.3125 C44.6775 9.3125 45.6675 9.3125 46.6875 9.3125 C46.3575 8.3225 46.0275 7.3325 45.6875 6.3125 C45.0275 6.3125 44.3675 6.3125 43.6875 6.3125 Z M44.6875 14.3125 C45.0175 15.3025 45.3475 16.2925 45.6875 17.3125 C46.0175 16.3225 46.3475 15.3325 46.6875 14.3125 C46.0275 14.3125 45.3675 14.3125 44.6875 14.3125 Z M-3.3125 15.3125 C-2.9825 16.6325 -2.6525 17.9525 -2.3125 19.3125 C-0.9925 19.3125 0.3275 19.3125 1.6875 19.3125 C2.0175 18.3225 2.3475 17.3325 2.6875 16.3125 C-0.2825 15.8175 -0.2825 15.8175 -3.3125 15.3125 Z M18.6875 15.3125 C18.3575 15.9725 18.0275 16.6325 17.6875 17.3125 C18.3475 17.3125 19.0075 17.3125 19.6875 17.3125 C19.6875 17.9725 19.6875 18.6325 19.6875 19.3125 C20.6775 19.3125 21.6675 19.3125 22.6875 19.3125 C22.3575 18.3225 22.0275 17.3325 21.6875 16.3125 C20.6975 15.9825 19.7075 15.6525 18.6875 15.3125 Z M41.6875 15.3125 C41.6875 16.6325 41.6875 17.9525 41.6875 19.3125 C42.6775 18.3225 43.6675 17.3325 44.6875 16.3125 C43.6975 15.9825 42.7075 15.6525 41.6875 15.3125 Z M23.6875 16.3125 C24.6875 18.3125 24.6875 18.3125 24.6875 18.3125 Z M46.6875 22.3125 C46.3575 22.9725 46.0275 23.6325 45.6875 24.3125 C46.3475 24.3125 47.0075 24.3125 47.6875 24.3125 C47.3575 23.6525 47.0275 22.9925 46.6875 22.3125 Z " fill="#152356" transform="translate(371.3125,10.6875)"/>
<path d="M0 0 C4.29 0 8.58 0 13 0 C15.125 6.75 15.125 6.75 14 9 C14.66 9 15.32 9 16 9 C16.12375 9.804375 16.2475 10.60875 16.375 11.4375 C16.58125 12.283125 16.7875 13.12875 17 14 C17.66 14.33 18.32 14.66 19 15 C18.67 13.68 18.34 12.36 18 11 C18.66 11 19.32 11 20 11 C19.67 9.68 19.34 8.36 19 7 C19.66 7 20.32 7 21 7 C20.814375 6.401875 20.62875 5.80375 20.4375 5.1875 C20 3 20 3 21 0 C25.29 0 29.58 0 34 0 C34 10.56 34 21.12 34 32 C31.36 31.67 28.72 31.34 26 31 C25.505 26.05 25.505 26.05 25 21 C24.34 21 23.68 21 23 21 C23.33 21.99 23.66 22.98 24 24 C23.5625 26.1875 23.5625 26.1875 23 28 C22.34 28 21.68 28 21 28 C21.33 29.32 21.66 30.64 22 32 C18.7 31.34 15.4 30.68 12 30 C11.4254048 26.26513121 11 22.78706732 11 19 C10.34 19 9.68 19 9 19 C9 23.29 9 27.58 9 32 C6.36 31.67 3.72 31.34 1 31 C0.67 20.77 0.34 10.54 0 0 Z M8 12 C8 13.65 8 15.3 8 17 C8.66 16.67 9.32 16.34 10 16 C9.34 14.68 8.68 13.36 8 12 Z M25 14 C26 16 26 16 26 16 Z M16 15 C17 17 17 17 17 17 Z M17 17 C18 19 18 19 18 19 Z M24 17 C24 17.66 24 18.32 24 19 C24.66 19 25.32 19 26 19 C26 18.34 26 17.68 26 17 C25.34 17 24.68 17 24 17 Z " fill="#172558" transform="translate(301,4)"/>
<path d="M0 0 C9.9 0 19.8 0 30 0 C30 9.24 30 18.48 30 28 C20.1 28 10.2 28 0 28 C0 18.76 0 9.52 0 0 Z " fill="#152357" transform="translate(133,4)"/>
<path d="M0 0 C2.97 0 5.94 0 9 0 C9 2.64 9 5.28 9 8 C9.99 7.67 10.98 7.34 12 7 C15.38498178 6.63989556 17.28828652 6.55533653 20.20703125 8.37890625 C23.02503994 12.49847887 22.17574534 16.42488616 21.75 21.25 C21.68425781 22.18585938 21.61851562 23.12171875 21.55078125 24.0859375 C21.38601171 26.39271099 21.20181863 28.69622128 21 31 C18.69 31 16.38 31 14 31 C13.67 25.72 13.34 20.44 13 15 C12.34 15.33 11.68 15.66 11 16 C10.01 16.33 9.02 16.66 8 17 C8 21.62 8 26.24 8 31 C5 31 2 31 -1 31 C-1.86625 31.350625 -2.7325 31.70125 -3.625 32.0625 C-7.76719788 33.21311052 -10.89023931 33.26844466 -15 32 C-18.17300858 29.90716455 -19.65133092 28.37632532 -20.59375 24.65625 C-21.24722972 19.72544845 -21.32551313 15.5347506 -19 11 C-18.01 10.67 -17.02 10.34 -16 10 C-16 9.34 -16 8.68 -16 8 C-11.94392005 7.01670789 -8.16937798 6.76399747 -4 7 C-2.66666667 8.33333333 -1.33333333 9.66666667 0 11 C0 7.37 0 3.74 0 0 Z M-11 14 C-11.66 16.31 -12.32 18.62 -13 21 C-12.34 21 -11.68 21 -11 21 C-10.67 22.65 -10.34 24.3 -10 26 C-9.01 26 -8.02 26 -7 26 C-6.67 24.68 -6.34 23.36 -6 22 C-4.02 22.99 -2.04 23.98 0 25 C1.23267348 23.99163938 1.23267348 23.99163938 1.09765625 21.93359375 C1.08605469 21.10988281 1.07445312 20.28617188 1.0625 19.4375 C1.05347656 18.61121094 1.04445313 17.78492188 1.03515625 16.93359375 C1.02355469 16.29550781 1.01195312 15.65742187 1 15 C0.05125 15.20625 -0.8975 15.4125 -1.875 15.625 C-2.90625 15.74875 -3.9375 15.8725 -5 16 C-5.66 15.34 -6.32 14.68 -7 14 C-8.32 14 -9.64 14 -11 14 Z " fill="#182256" transform="translate(359,105)"/>
<path d="M0 0 C2.64 0 5.28 0 8 0 C8 2.31 8 4.62 8 7 C9.32 6.67 10.64 6.34 12 6 C12 8.31 12 10.62 12 13 C12.37511719 12.50628906 12.75023437 12.01257813 13.13671875 11.50390625 C17.34045209 6.24129802 17.34045209 6.24129802 20.5625 5.0625 C21.366875 5.041875 22.17125 5.02125 23 5 C23.825 4.896875 24.65 4.79375 25.5 4.6875 C29.71884871 5.21485609 32.09524065 8.09524065 35 11 C36.60206987 14.73816303 35.41559886 17.33609706 34 21 C34.66 21.66 35.32 22.32 36 23 C35.11593727 25.97366555 34.31696033 27.7127547 32 29.8125 C27.18125318 31.71992062 21.69150106 32.04696045 16.80078125 30.14453125 C14.32228819 28.56926343 13.34837576 26.56191394 12 24 C12 25.98 12 27.96 12 30 C9.15916359 31.42041821 7.14522722 31.31452272 4 31 C1.8203125 29.46484375 1.8203125 29.46484375 0 27 C-0.2911521 24.26317029 -0.38322418 21.96059961 -0.25 19.25 C-0.23195313 18.55261719 -0.21390625 17.85523437 -0.1953125 17.13671875 C-0.14838554 15.42388461 -0.07664605 13.71176176 0 12 C-0.99 12.33 -1.98 12.66 -3 13 C-3 11.02 -3 9.04 -3 7 C-2.01 7 -1.02 7 0 7 C0 4.69 0 2.38 0 0 Z M8 12 C8 15.96 8 19.92 8 24 C11.74275212 23.42874646 11.74275212 23.42874646 13 22 C13.33856828 16.67326964 13.33856828 16.67326964 11 12 C10.01 12 9.02 12 8 12 Z M22 13 C21.34 13.66 20.68 14.32 20 15 C22.64 15 25.28 15 28 15 C27.34 14.34 26.68 13.68 26 13 C24.68 13 23.36 13 22 13 Z M20 20 C20 20.66 20 21.32 20 22 C23.51033129 23.68630119 23.51033129 23.68630119 27.3125 23.625 C27.869375 23.41875 28.42625 23.2125 29 23 C28.67 22.01 28.34 21.02 28 20 C25.36 20 22.72 20 20 20 Z " fill="#152255" transform="translate(427,56)"/>
<path d="M0 0 C2.1640625 0.0234375 2.1640625 0.0234375 4.625 0.375 C5.44226563 0.48585937 6.25953125 0.59671875 7.1015625 0.7109375 C7.72804688 0.80632813 8.35453125 0.90171875 9 1 C9.495 3.97 9.495 3.97 10 7 C8.35 7 6.7 7 5 7 C5 7.66 5 8.32 5 9 C6.32 9 7.64 9 9 9 C9 10.65 9 12.3 9 14 C7.68 14 6.36 14 5 14 C5.495 22.91 5.495 22.91 6 32 C3.03 32 0.06 32 -3 32 C-2.67 26.06 -2.34 20.12 -2 14 C-3.98 14.99 -3.98 14.99 -6 16 C-5.97679687 16.69867188 -5.95359375 17.39734375 -5.9296875 18.1171875 C-5.90261719 19.48230469 -5.90261719 19.48230469 -5.875 20.875 C-5.85179687 21.77992187 -5.82859375 22.68484375 -5.8046875 23.6171875 C-6 26 -6 26 -8 28 C-8.66 28.86625 -9.32 29.7325 -10 30.625 C-13.78353792 33.62030086 -16.01554036 33.49199972 -20.6953125 33.37109375 C-24.32867218 32.78606126 -26.63274971 30.67602206 -29 28 C-31.50561741 23.73862148 -31.58898631 19.83682701 -31 15 C-29.6875 12.625 -29.6875 12.625 -28 11 C-27.60296875 10.48050781 -27.2059375 9.96101563 -26.796875 9.42578125 C-24.12375106 7.30471552 -21.92624896 7.5663181 -18.5625 7.5625 C-17.42941406 7.54316406 -16.29632813 7.52382813 -15.12890625 7.50390625 C-11.4463297 8.08778543 -10.30040765 9.14568584 -8 12 C-7.01 10.68 -6.02 9.36 -5 8 C-4.01 8.33 -3.02 8.66 -2 9 C-2.04125 7.88625 -2.0825 6.7725 -2.125 5.625 C-2 2 -2 2 0 0 Z M-21.75 15.125 C-23.57455806 17.8618371 -23.40186757 19.78505943 -23 23 C-21.87359395 24.96040481 -21.87359395 24.96040481 -20 26 C-18.68 26 -17.36 26 -16 26 C-14.42687504 22.32937509 -13.85559952 20.55697326 -14.875 16.625 C-15.24625 15.75875 -15.6175 14.8925 -16 14 C-19.78595012 13.63949494 -19.78595012 13.63949494 -21.75 15.125 Z " fill="#162256" transform="translate(505,54)"/>
<path d="M0 0 C2.64 0 5.28 0 8 0 C8 2.31 8 4.62 8 7 C9.32 7 10.64 7 12 7 C12 8.65 12 10.3 12 12 C10.68 12 9.36 12 8 12 C8.495 17.445 8.495 17.445 9 23 C9.99 23 10.98 23 12 23 C12 25.31 12 27.62 12 30 C9.20129973 31.39935013 7.09501208 31.25265405 4 31 C1.44050454 29.14657225 1.02081202 28.06243607 0 25 C-0.068991 22.93854893 -0.08467727 20.87498599 -0.0625 18.8125 C-0.05347656 17.72582031 -0.04445313 16.63914062 -0.03515625 15.51953125 C-0.02355469 14.68808594 -0.01195312 13.85664062 0 13 C-2.64 13.33 -5.28 13.66 -8 14 C-7.195625 14.350625 -6.39125 14.70125 -5.5625 15.0625 C-3 17 -3 17 -2.0625 20.5 C-2 24 -2 24 -4 27 C-6.79354727 29.79354727 -8.71903399 30.97797766 -12.7265625 31.046875 C-13.68304688 30.94890625 -14.63953125 30.8509375 -15.625 30.75 C-16.58664062 30.66234375 -17.54828125 30.5746875 -18.5390625 30.484375 C-21.73406563 29.85551724 -22.73457796 28.26542204 -25 26 C-24.505 25.1028125 -24.505 25.1028125 -24 24.1875 C-22.52880343 20.96925751 -23.08203279 18.31526113 -23.625 14.9375 C-23.74875 13.638125 -23.8725 12.33875 -24 11 C-23.34 10.34 -22.68 9.68 -22 9 C-21.34 8.01 -20.68 7.02 -20 6 C-15.18309724 4.77444342 -10.53750308 4.21489204 -6.0625 6.5 C-5.0415625 7.2425 -5.0415625 7.2425 -4 8 C-1.74671588 7.79356801 -1.74671588 7.79356801 0 7 C0 4.69 0 2.38 0 0 Z M-16 12 C-15 14 -15 14 -15 14 Z M-14 12 C-14 12.66 -14 13.32 -14 14 C-12.68 14.33 -11.36 14.66 -10 15 C-10.66 14.01 -11.32 13.02 -12 12 C-12.66 12 -13.32 12 -14 12 Z M-18 20 C-17 22 -17 22 -17 22 Z M-16 21 C-16 21.99 -16 22.98 -16 24 C-14.68 23.67 -13.36 23.34 -12 23 C-12 22.34 -12 21.68 -12 21 C-13.32 21 -14.64 21 -16 21 Z " fill="#142157" transform="translate(361,56)"/>
<path d="M0 0 C1.8780264 0.2347533 3.75557446 0.47790332 5.625 0.7734375 C9.78768549 1.17053579 13.87130034 0.54992926 18 0 C17.67 0.66 17.34 1.32 17 2 C16.95076623 3.75582222 16.9634547 5.51357908 17.0078125 7.26953125 C17.02457031 8.32333984 17.04132813 9.37714844 17.05859375 10.46289062 C17.10263571 12.68441877 17.15463583 14.90580432 17.21484375 17.12695312 C17.22902344 18.18462891 17.24320312 19.24230469 17.2578125 20.33203125 C17.29092529 21.78186401 17.29092529 21.78186401 17.32470703 23.26098633 C16.93800972 26.52290902 15.92086329 28.35946407 14 31 C9.9588649 33.42468106 5.59931078 33.56593082 1 33 C-2.4375 31.875 -2.4375 31.875 -5 30 C-5.97636076 26.81055486 -6.51413749 25.02827499 -5 22 C-4.67 21.67 -4.34 21.34 -4 21 C-4 20.34 -4 19.68 -4 19 C-4.66 18.67 -5.32 18.34 -6 18 C-6.05410687 16.22950311 -6.09284119 14.45853151 -6.125 12.6875 C-6.14820313 11.70136719 -6.17140625 10.71523437 -6.1953125 9.69921875 C-5.86927716 5.19341036 -3.03666919 3.03666919 0 0 Z M3 7 C1.79438816 7.98267859 1.79438816 7.98267859 1.90234375 9.84765625 C1.91394531 10.57855469 1.92554688 11.30945313 1.9375 12.0625 C1.958125 13.361875 1.97875 14.66125 2 16 C3.84725052 16.69159401 3.84725052 16.69159401 6 17 C6.99 16.34 7.98 15.68 9 15 C9.2502157 11.91634129 9.2502157 11.91634129 9 9 C7.02 8.34 5.04 7.68 3 7 Z M5 23 C4.01 23 3.02 23 2 23 C2 23.66 2 24.32 2 25 C2.66 25 3.32 25 4 25 C4 25.66 4 26.32 4 27 C5.65 26.67 7.3 26.34 9 26 C9 24.68 9 23.36 9 22 C6.9254644 21.8509288 6.9254644 21.8509288 5 23 Z " fill="#182558" transform="translate(477,112)"/>
<path d="M0 0 C9.57 0 19.14 0 29 0 C28.67 0.66 28.34 1.32 28 2 C19.42 2 10.84 2 2 2 C2 44.57 2 87.14 2 131 C9.92 131 17.84 131 26 131 C26 88.76 26 46.52 26 3 C26.66 3 27.32 3 28 3 C28 45.57 28 88.14 28 132 C18.76 132.33 9.52 132.66 0 133 C0 89.11 0 45.22 0 0 Z " fill="#4A4F7E" transform="translate(2,4)"/>
<path d="M0 0 C1.45212891 -0.03867188 1.45212891 -0.03867188 2.93359375 -0.078125 C5.96811414 0.30062643 6.70559298 0.90291566 8.5625 3.25 C9.119375 3.806875 9.67625 4.36375 10.25 4.9375 C12.22424136 8.41592526 11.76063306 11.28733872 11.5625 15.25 C10.5725 15.25 9.5825 15.25 8.5625 15.25 C9.5525 16.24 10.5425 17.23 11.5625 18.25 C10.875 20.625 10.875 20.625 9.5625 23.25 C5.94973622 25.11342553 2.90921 25.52201479 -1.125 25.5 C-2.55392578 25.50773437 -2.55392578 25.50773437 -4.01171875 25.515625 C-6.4375 25.25 -6.4375 25.25 -8.4375 23.25 C-9.21673828 22.57710937 -9.21673828 22.57710937 -10.01171875 21.890625 C-12.62919311 18.87873669 -12.44388132 15.10432003 -12.4375 11.25 C-12.07868912 8.59578256 -11.4851272 6.76430528 -10.4375 4.25 C-9.4475 3.92 -8.4575 3.59 -7.4375 3.25 C-7.4375 2.59 -7.4375 1.93 -7.4375 1.25 C-4.85741408 -0.04004296 -2.88008426 0.04589776 0 0 Z M-1.4375 6.25 C-3.14282323 8.19009522 -3.14282323 8.19009522 -4.4375 10.25 C-1.7975 10.25 0.8425 10.25 3.5625 10.25 C2.9025 8.93 2.2425 7.61 1.5625 6.25 C0.5725 6.25 -0.4175 6.25 -1.4375 6.25 Z M-2.4375 15.25 C-2.7675 16.24 -3.0975 17.23 -3.4375 18.25 C-0.9625 18.745 -0.9625 18.745 1.5625 19.25 C2.5525 17.93 3.5425 16.61 4.5625 15.25 C2.2525 15.25 -0.0575 15.25 -2.4375 15.25 Z " fill="#162356" transform="translate(326.4375,111.75)"/>
<path d="M0 0 C0.95648438 -0.01675781 1.91296875 -0.03351563 2.8984375 -0.05078125 C6.02029202 0.36516785 7.30522704 1.24072058 9.625 3.3125 C10.181875 3.76625 10.73875 4.22 11.3125 4.6875 C13.53332293 7.43709029 13.68455855 10.39217853 13.4609375 13.84765625 C13.30882812 14.68167969 13.15671875 15.51570313 13 16.375 C12.86335938 17.21160156 12.72671875 18.04820312 12.5859375 18.91015625 C11.25434722 22.23913196 9.66692552 23.45026859 6.625 25.3125 C0.91386612 26.33739407 -4.51326679 26.35077429 -9.625 23.5 C-12.13345704 18.93102468 -12.48708331 14.48434419 -12.375 9.3125 C-11.25053409 5.93910226 -9.92910127 4.71180725 -7.375 2.3125 C-4.78299871 -0.27950129 -3.59977771 0.01447632 0 0 Z M-2.375 7.3125 C-4.5269437 10.54041555 -4.57586443 11.59650809 -4.375 15.3125 C-3.715 15.3125 -3.055 15.3125 -2.375 15.3125 C-2.045 16.6325 -1.715 17.9525 -1.375 19.3125 C-0.385 19.3125 0.605 19.3125 1.625 19.3125 C4.53533076 15.64763904 4.94636655 12.91875394 4.625 8.3125 C2.09078263 7.04539132 0.43061762 7.03193824 -2.375 7.3125 Z " fill="#182356" transform="translate(457.375,111.6875)"/>
<path d="M0 0 C0.9796875 -0.01417969 1.959375 -0.02835937 2.96875 -0.04296875 C5.5 0.1875 5.5 0.1875 7.5 2.1875 C8.36625 3.033125 9.2325 3.87875 10.125 4.75 C12.86507798 8.06565649 13.12464163 10.78911215 12.84765625 15.0078125 C12.31775766 18.33009806 11.50530042 20.47064137 9.5 23.1875 C5.09394371 25.68149413 1.54248396 26.73559608 -3.5 26.1875 C-6.3125 25.375 -6.3125 25.375 -8.5 24.1875 C-8.83 23.1975 -9.16 22.2075 -9.5 21.1875 C-10.16 21.1875 -10.82 21.1875 -11.5 21.1875 C-12.79205445 16.34229581 -13.01999304 11.16709436 -12.5 6.1875 C-11.84 5.5275 -11.18 4.8675 -10.5 4.1875 C-10.005 3.671875 -9.51 3.15625 -9 2.625 C-6.1443183 -0.11169496 -3.83831559 0.02525208 0 0 Z M-3.1875 8.25 C-5.21681335 11.24565304 -4.88312356 13.67553403 -4.5 17.1875 C-3.015 18.1775 -3.015 18.1775 -1.5 19.1875 C1.6315587 18.28982344 1.6315587 18.28982344 4.5 16.1875 C4.91235301 12.95740139 5.08820073 11.02778675 3.1875 8.3125 C0.80435131 6.72373421 -0.76476922 6.72457692 -3.1875 8.25 Z " fill="#172358" transform="translate(420.5,111.8125)"/>
<path d="M0 0 C2.97 0 5.94 0 9 0 C9 2.31 9 4.62 9 7 C9.61488281 6.95359375 10.22976563 6.9071875 10.86328125 6.859375 C11.67152344 6.82328125 12.47976563 6.7871875 13.3125 6.75 C14.11300781 6.70359375 14.91351563 6.6571875 15.73828125 6.609375 C18 7 18 7 19.62304688 8.7265625 C21.20990824 11.3465719 21.35130953 12.7319042 21.29296875 15.765625 C21.28330078 16.65507812 21.27363281 17.54453125 21.26367188 18.4609375 C21.23853516 19.38132812 21.21339844 20.30171875 21.1875 21.25 C21.16719727 22.65378906 21.16719727 22.65378906 21.14648438 24.0859375 C21.11119954 26.39121327 21.06190281 28.6953106 21 31 C18.69 31 16.38 31 14 31 C14 26.05 14 21.1 14 16 C12.35 15.67 10.7 15.34 9 15 C8.67 20.28 8.34 25.56 8 31 C5.69 31 3.38 31 1 31 C0.67 20.77 0.34 10.54 0 0 Z " fill="#162257" transform="translate(449,4)"/>
<path d="M0 0 C2.97 0 5.94 0 9 0 C9.24042276 4.08718695 8.42258812 7.17679443 7 11 C6.34 11 5.68 11 5 11 C5.33 11.99 5.66 12.98 6 14 C5.34 14 4.68 14 4 14 C4.309375 14.86625 4.309375 14.86625 4.625 15.75 C5.09927552 18.59565309 4.30397178 19.47011108 3 22 C2.28180804 24.34793524 1.62028632 26.70484975 0.9765625 29.07421875 C0 31 0 31 -1.8359375 31.765625 C-3.99800349 31.99978377 -6.07576579 32.09873724 -8.25 32.0625 C-10.10625 32.0315625 -10.10625 32.0315625 -12 32 C-11.75 29.125 -11.75 29.125 -11 26 C-8.9375 24.625 -8.9375 24.625 -7 24 C-7.33 23.34 -7.66 22.68 -8 22 C-7.67 21.34 -7.34 20.68 -7 20 C-7.66 20 -8.32 20 -9 20 C-9.13277344 19.37351563 -9.26554687 18.74703125 -9.40234375 18.1015625 C-9.66724609 16.87566406 -9.66724609 16.87566406 -9.9375 15.625 C-10.19853516 14.40683594 -10.19853516 14.40683594 -10.46484375 13.1640625 C-10.92330693 10.970537 -10.92330693 10.970537 -12 9 C-11.67 8.34 -11.34 7.68 -11 7 C-11.66 7 -12.32 7 -13 7 C-13.38218767 5.34385343 -13.71395102 3.67542976 -14 2 C-13 1 -13 1 -10.93359375 0.90234375 C-9.69802734 0.91974609 -9.69802734 0.91974609 -8.4375 0.9375 C-7.61121094 0.94652344 -6.78492188 0.95554687 -5.93359375 0.96484375 C-5.29550781 0.97644531 -4.65742188 0.98804687 -4 1 C-4.33 2.32 -4.66 3.64 -5 5 C-4.34 5 -3.68 5 -3 5 C-2.67 7.31 -2.34 9.62 -2 12 C-1.93941406 11.38511719 -1.87882812 10.77023438 -1.81640625 10.13671875 C-1.73261719 9.32847656 -1.64882813 8.52023438 -1.5625 7.6875 C-1.48128906 6.88699219 -1.40007812 6.08648437 -1.31640625 5.26171875 C-1 3 -1 3 0 0 Z " fill="#162055" transform="translate(508,112)"/>
<path d="M0 0 C0.07347656 1.71509766 0.07347656 1.71509766 0.1484375 3.46484375 C0.22345189 4.95575473 0.29900028 6.44663892 0.375 7.9375 C0.4059375 8.69224609 0.436875 9.44699219 0.46875 10.22460938 C0.5726315 12.15507395 0.77895614 14.07942081 1 16 C1.66 16.33 2.32 16.66 3 17 C4.4807848 14.0384304 4.35314037 11.16493705 4.5625 7.875 C4.64628906 6.59367187 4.73007812 5.31234375 4.81640625 3.9921875 C4.87699219 3.00476563 4.93757813 2.01734375 5 1 C7.64 0.67 10.28 0.34 13 0 C13 8.25 13 16.5 13 25 C8.6378125 25.0928125 8.6378125 25.0928125 4.1875 25.1875 C3.27508545 25.21481201 2.3626709 25.24212402 1.42260742 25.27026367 C0.33749878 25.28150269 0.33749878 25.28150269 -0.76953125 25.29296875 C-1.87711792 25.31653442 -1.87711792 25.31653442 -3.00708008 25.34057617 C-5 25 -5 25 -6.74609375 23.78710938 C-8.39826207 21.4323835 -8.34497472 19.97360971 -8.29296875 17.11328125 C-8.28330078 16.17548828 -8.27363281 15.23769531 -8.26367188 14.27148438 C-8.23853516 13.29501953 -8.21339844 12.31855469 -8.1875 11.3125 C-8.17396484 10.32443359 -8.16042969 9.33636719 -8.14648438 8.31835938 C-8.11112203 5.87835769 -8.06177033 3.43945281 -8 1 C-1.125 0 -1.125 0 0 0 Z " fill="#162458" transform="translate(482,11)"/>
<path d="M0 0 C3.2578125 0.0234375 3.2578125 0.0234375 7.125 0.375 C8.40632813 0.48585938 9.68765625 0.59671875 11.0078125 0.7109375 C12.48894531 0.85402344 12.48894531 0.85402344 14 1 C14 1.66 14 2.32 14 3 C14.66 3.66 15.32 4.32 16 5 C15.98251781 7.91952568 15.86055367 10.72297885 15.625 13.625 C15.56828125 14.42679688 15.5115625 15.22859375 15.453125 16.0546875 C15.31152018 18.03715498 15.15697741 20.01869051 15 22 C15.66 22.33 16.32 22.66 17 23 C14.50298194 25.49701806 8.38958948 24.76448356 5 25 C4.28070313 25.05542969 3.56140625 25.11085938 2.8203125 25.16796875 C0.20369489 25.28588499 -1.51647453 25.35278199 -3.67578125 23.77734375 C-5.3884097 21.47868314 -5.31067287 20.14547605 -5.1875 17.3125 C-5.16042969 16.50425781 -5.13335937 15.69601563 -5.10546875 14.86328125 C-5.07066406 14.24839844 -5.03585937 13.63351563 -5 13 C-4.01 12.67 -3.02 12.34 -2 12 C-2 11.34 -2 10.68 -2 10 C-1.01 9.67 -0.02 9.34 1 9 C-0.65 9 -2.3 9 -4 9 C-4 7.02 -4 5.04 -4 3 C-3.34 2.67 -2.68 2.34 -2 2 C-1.34 1.34 -0.68 0.68 0 0 Z M6 6 C4.36323743 7.9600281 4.36323743 7.9600281 3 10 C6.12197478 8.6910428 6.12197478 8.6910428 8 6 C7.34 6 6.68 6 6 6 Z M6 14 C6 14.66 6 15.32 6 16 C5.34 16 4.68 16 4 16 C4.33 16.99 4.66 17.98 5 19 C5.33 18.34 5.66 17.68 6 17 C6.66 16.67 7.32 16.34 8 16 C7.34 15.34 6.68 14.68 6 14 Z " fill="#152257" transform="translate(343,11)"/>
<path d="M0 0 C2.64 0.33 5.28 0.66 8 1 C8.33 5.95 8.66 10.9 9 16 C9.99 16 10.98 16 12 16 C12.33 10.72 12.66 5.44 13 0 C15.97 0 18.94 0 22 0 C21.67 7.92 21.34 15.84 21 24 C18.2775 24.268125 15.555 24.53625 12.75 24.8125 C11.89889648 24.91022705 11.04779297 25.0079541 10.17089844 25.10864258 C6.39022696 25.40369972 4.61034852 25.44457485 1.46875 23.15625 C-0.64127829 18.62193389 -0.43125586 14.61975074 -0.25 9.6875 C-0.23195313 8.75615234 -0.21390625 7.82480469 -0.1953125 6.86523438 C-0.14834888 4.57575803 -0.08269475 2.28841816 0 0 Z " fill="#172357" transform="translate(401,62)"/>
<path d="M0 0 C3.1875 1.5 3.1875 1.5 5 3 C4.42655063 5.86724686 4.1385485 6.8614515 2 9 C2.99 10.485 2.99 10.485 4 12 C5.1149272 15.34478161 5.42884908 17.49773248 5 21 C3.25 23.375 3.25 23.375 0 25 C-4.06882518 25.54399027 -7.95611082 25.75649096 -12 25 C-14.37109375 22.96875 -14.37109375 22.96875 -16 21 C-15.505 20.1028125 -15.505 20.1028125 -15 19.1875 C-13.54756302 16.01029411 -13.90433041 14.28700877 -15 11 C-15.24993939 7.08428284 -15.21009997 4.31514995 -13 1 C-9.08729537 -0.95635231 -4.2758022 -0.3696659 0 0 Z M-7 6 C-7 6.99 -7 7.98 -7 9 C-5.68 8.67 -4.36 8.34 -3 8 C-3.33 7.34 -3.66 6.68 -4 6 C-4.99 6 -5.98 6 -7 6 Z M-9 15 C-9 15.99 -9 16.98 -9 18 C-7.35 18.33 -5.7 18.66 -4 19 C-4.33 18.01 -4.66 17.02 -5 16 C-7.01508358 15.26676204 -7.01508358 15.26676204 -9 15 Z " fill="#162558" transform="translate(586,11)"/>
<path d="M0 0 C1.63487825 3.26975649 2.12183248 5.84696015 2.09765625 9.44921875 C2.09443359 10.29677734 2.09121094 11.14433594 2.08789062 12.01757812 C2.07951172 12.89865234 2.07113281 13.77972656 2.0625 14.6875 C2.05798828 15.58017578 2.05347656 16.47285156 2.04882812 17.39257812 C2.03704983 19.59511987 2.02060164 21.79752599 2 24 C-0.64 24 -3.28 24 -6 24 C-6.33 18.06 -6.66 12.12 -7 6 C-7.66 6 -8.32 6 -9 6 C-9.95619733 9.99795892 -10.1039592 13.70803922 -10.0625 17.8125 C-10.04896484 19.55466797 -10.04896484 19.55466797 -10.03515625 21.33203125 C-10.02355469 22.21246094 -10.01195312 23.09289062 -10 24 C-12.97 24 -15.94 24 -19 24 C-18.67 16.41 -18.34 8.82 -18 1 C-4.25289213 -1.36061448 -4.25289213 -1.36061448 0 0 Z " fill="#162356" transform="translate(333,62)"/>
<path d="M0 0 C1.24523437 -0.02126953 1.24523437 -0.02126953 2.515625 -0.04296875 C4.75 0.1875 4.75 0.1875 7.75 2.1875 C8.09057617 4.43408203 8.09057617 4.43408203 8.04296875 7.1953125 C8.03330078 8.18144531 8.02363281 9.16757813 8.01367188 10.18359375 C7.98853516 11.21613281 7.96339844 12.24867187 7.9375 13.3125 C7.91719727 14.87291016 7.91719727 14.87291016 7.89648438 16.46484375 C7.86105228 19.03957627 7.81165221 21.6132833 7.75 24.1875 C5.44 24.1875 3.13 24.1875 0.75 24.1875 C0.42 18.9075 0.09 13.6275 -0.25 8.1875 C-1.9 8.5175 -3.55 8.8475 -5.25 9.1875 C-5.25 14.1375 -5.25 19.0875 -5.25 24.1875 C-7.56 24.1875 -9.87 24.1875 -12.25 24.1875 C-12.25 16.5975 -12.25 9.0075 -12.25 1.1875 C-4.16680532 0.0327579 -4.16680532 0.0327579 0 0 Z " fill="#182152" transform="translate(397.25,111.8125)"/>
<path d="M0 0 C7.92 0 15.84 0 24 0 C24 2.64 24 5.28 24 8 C21.36 7.67 18.72 7.34 16 7 C16 14.92 16 22.84 16 31 C13.36 31 10.72 31 8 31 C8 23.08 8 15.16 8 7 C5.36 7.33 2.72 7.66 0 8 C0 5.36 0 2.72 0 0 Z " fill="#1A2355" transform="translate(294,105)"/>
<path d="M0 0 C0.86882812 -0.00515625 1.73765625 -0.0103125 2.6328125 -0.015625 C4.875 0.25 4.875 0.25 6.875 2.25 C8.875 5.25 8.875 5.25 8.5 7.4375 C8.190625 8.3346875 8.190625 8.3346875 7.875 9.25 C6.225 9.58 4.575 9.91 2.875 10.25 C2.215 8.93 1.555 7.61 0.875 6.25 C0.545 6.91 0.215 7.57 -0.125 8.25 C-0.785 8.25 -1.445 8.25 -2.125 8.25 C-3.14187046 13.02762638 -3.14187046 13.02762638 -2.1875 17.6875 C-1.836875 18.203125 -1.48625 18.71875 -1.125 19.25 C-0.5475 18.775625 0.03 18.30125 0.625 17.8125 C2.82375756 16.28558503 4.22502176 15.51499782 6.875 15.25 C7.535 15.91 8.195 16.57 8.875 17.25 C8.47967975 19.70098556 7.66198574 21.88904279 6.875 24.25 C5.885 24.58 4.895 24.91 3.875 25.25 C3.215 24.92 2.555 24.59 1.875 24.25 C1.545 24.91 1.215 25.57 0.875 26.25 C-0.60706495 25.995504 -2.08568615 25.72088238 -3.5625 25.4375 C-4.38621094 25.28667969 -5.20992188 25.13585937 -6.05859375 24.98046875 C-6.74050781 24.73941406 -7.42242187 24.49835937 -8.125 24.25 C-8.455 23.26 -8.785 22.27 -9.125 21.25 C-9.785 21.25 -10.445 21.25 -11.125 21.25 C-12.2982849 16.70352102 -12.66628467 11.91972706 -12.125 7.25 C-11.465 6.59 -10.805 5.93 -10.125 5.25 C-9.795 4.26 -9.465 3.27 -9.125 2.25 C-6.11231236 0.22352849 -3.58029061 -0.02137487 0 0 Z " fill="#162356" transform="translate(440.125,10.75)"/>
<path d="M0 0 C2.97 0 5.94 0 9 0 C8.67 2.31 8.34 4.62 8 7 C9.32 7 10.64 7 12 7 C12 8.65 12 10.3 12 12 C10.68 12 9.36 12 8 12 C8.33 15.63 8.66 19.26 9 23 C9.99 23.33 10.98 23.66 12 24 C12.33 25.98 12.66 27.96 13 30 C11.37509046 30.02698189 9.75005367 30.04638757 8.125 30.0625 C7.22007812 30.07410156 6.31515625 30.08570312 5.3828125 30.09765625 C3 30 3 30 1 29 C-0.41707182 25.4361068 0.09978809 22.00235459 0.4375 18.25 C0.53933594 17.07953125 0.64117187 15.9090625 0.74609375 14.703125 C0.82988281 13.81109375 0.91367187 12.9190625 1 12 C0.01 12 -0.98 12 -2 12 C-2 10.35 -2 8.7 -2 7 C-1.01 7 -0.02 7 1 7 C0.67 4.69 0.34 2.38 0 0 Z " fill="#162356" transform="translate(387,56)"/>
<path d="M0 0 C9.24 0 18.48 0 28 0 C28 0.66 28 1.32 28 2 C27.34926514 1.98952637 26.69853027 1.97905273 26.02807617 1.96826172 C23.0812567 1.92670165 20.13449889 1.90067392 17.1875 1.875 C15.65125977 1.84986328 15.65125977 1.84986328 14.08398438 1.82421875 C13.10107422 1.81777344 12.11816406 1.81132813 11.10546875 1.8046875 C10.19949951 1.79421387 9.29353027 1.78374023 8.36010742 1.77294922 C5.73063552 1.83834609 5.73063552 1.83834609 3 4 C2.68394992 6.74845403 2.5626106 9.27665154 2.56762695 12.02978516 C2.55233948 13.27380348 2.55233948 13.27380348 2.53674316 14.54295349 C2.50648284 17.29172404 2.49732749 20.0401469 2.48828125 22.7890625 C2.4714442 24.69193695 2.45329529 26.59480022 2.43388367 28.49765015 C2.38627166 33.51176457 2.35653489 38.52583365 2.33044434 43.5401001 C2.30069516 48.65442871 2.25414557 53.76860087 2.20898438 58.8828125 C2.12282377 68.92181142 2.05708754 78.96079361 2 89 C14.87 88.01 14.87 88.01 28 87 C28 87.99 28 88.98 28 90 C18.76 90 9.52 90 0 90 C0 60.3 0 30.6 0 0 Z " fill="#122245" transform="translate(178,46)"/>
<path d="M0 0 C2.64 0 5.28 0 8 0 C8 10.56 8 21.12 8 32 C5.36 32 2.72 32 0 32 C0 21.44 0 10.88 0 0 Z " fill="#162456" transform="translate(435,105)"/>
<path d="M0 0 C2.64 0 5.28 0 8 0 C8 10.23 8 20.46 8 31 C5.03 31 2.06 31 -1 31 C-0.67 20.77 -0.34 10.54 0 0 Z " fill="#142157" transform="translate(302,55)"/>
<path d="M0 0 C2.64 0 5.28 0 8 0 C8 10.56 8 21.12 8 32 C5.36 32 2.72 32 0 32 C0 24.08 0 16.16 0 8 C2.31 8.33 4.62 8.66 7 9 C7 8.34 7 7.68 7 7 C4.69 7 2.38 7 0 7 C0 4.69 0 2.38 0 0 Z " fill="#162556" transform="translate(375,54)"/>
<path d="M0 0 C2.41705938 2.41705938 2.25207009 2.98445577 2.25878906 6.28759766 C2.26509338 7.17677887 2.27139771 8.06596008 2.27789307 8.98208618 C2.2738446 9.94963837 2.26979614 10.91719055 2.265625 11.9140625 C2.26753845 12.91649994 2.2694519 13.91893738 2.27142334 14.95175171 C2.27278768 17.08535003 2.26907399 19.21895658 2.26074219 21.35253906 C2.25020237 24.56335079 2.26054673 27.77358262 2.2734375 30.984375 C2.28014725 42.48555577 1.84351474 53.63445865 0 65 C0.57975586 64.83701416 1.15951172 64.67402832 1.75683594 64.50610352 C5.22673123 63.72322444 8.712623 63.89687641 12.25 63.9375 C12.99507812 63.94201172 13.74015625 63.94652344 14.5078125 63.95117188 C16.3385764 63.96290754 18.16929873 63.9808415 20 64 C20 64.66 20 65.32 20 66 C9.11 66.495 9.11 66.495 -2 67 C-1.89208874 58.41186009 -1.78005136 49.82380486 -1.66066074 41.23581791 C-1.60539527 37.24846784 -1.55196963 33.26111048 -1.50268555 29.27368164 C-1.45509524 25.42868399 -1.40275464 21.58377818 -1.34705925 17.73888969 C-1.32661143 16.26883658 -1.30790244 14.79875826 -1.29092598 13.32866096 C-1.26693536 11.27638724 -1.2368741 9.22428853 -1.20532227 7.17211914 C-1.18977798 6.00185684 -1.1742337 4.83159454 -1.15821838 3.62586975 C-1 1 -1 1 0 0 Z " fill="#0E1F4F" transform="translate(92,70)"/>
<path d="M0 0 C0.99 0.495 0.99 0.495 2 1 C2 28.39 2 55.78 2 84 C3.65 84.33 5.3 84.66 7 85 C7.99 85.33 8.98 85.66 10 86 C10 86.66 10 87.32 10 88 C18.415 87.505 18.415 87.505 27 87 C27 69.84 27 52.68 27 35 C27.33 35 27.66 35 28 35 C28.33 52.82 28.66 70.64 29 89 C19.43 89 9.86 89 0 89 C0 59.63 0 30.26 0 0 Z " fill="#1A264A" transform="translate(46,6)"/>
<path d="M0 0 C24.09 0 48.18 0 73 0 C72.67 0.99 72.34 1.98 72 3 C48.57 2.67 25.14 2.34 1 2 C0.67 1.34 0.34 0.68 0 0 Z " fill="#5A5F8F" transform="translate(177,4)"/>
<path d="M0 0 C2.6875 0.875 2.6875 0.875 5 2 C4.80037128 5.59331694 4.21261372 6.79828955 1.5625 9.3125 C-3.03336765 11.48948994 -6.9866829 11.71146084 -12 11 C-14.74426182 9.90229527 -15.73509663 9.45033573 -17.25 6.875 C-17.4975 6.25625 -17.745 5.6375 -18 5 C-17.34 4.67 -16.68 4.34 -16 4 C-15.01 4.33 -14.02 4.66 -13 5 C-10.97954558 4.39816251 -8.97888961 3.72693904 -7 3 C-6.278125 2.835 -5.55625 2.67 -4.8125 2.5 C-2.68144951 2.01402122 -2.68144951 2.01402122 0 0 Z " fill="#19275B" transform="translate(458,76)"/>
<path d="M0 0 C9.57 0 19.14 0 29 0 C28.67 12.21 28.34 24.42 28 37 C27.67 37 27.34 37 27 37 C26.67 25.45 26.34 13.9 26 2 C17.42 2 8.84 2 0 2 C0 1.34 0 0.68 0 0 Z " fill="#424873" transform="translate(46,4)"/>
<path d="M0 0 C9.9 0 19.8 0 30 0 C30 9.24 30 18.48 30 28 C29.01 28 28.02 28 27 28 C26.4375 26.0625 26.4375 26.0625 26 24 C26.33 23.67 26.66 23.34 27 23 C27.09860131 21.59651265 27.13078937 20.18819523 27.1328125 18.78125 C27.13410156 17.93175781 27.13539063 17.08226563 27.13671875 16.20703125 C27.13091797 14.86705078 27.13091797 14.86705078 27.125 13.5 C27.12886719 12.60667969 27.13273437 11.71335937 27.13671875 10.79296875 C27.13542969 9.94347656 27.13414062 9.09398437 27.1328125 8.21875 C27.13168457 7.43435547 27.13055664 6.64996094 27.12939453 5.84179688 C27.20107442 3.98247012 27.20107442 3.98247012 26 3 C24.14825294 2.84213692 22.2909089 2.74892644 20.43359375 2.68359375 C18.7465332 2.62075195 18.7465332 2.62075195 17.02539062 2.55664062 C15.84138672 2.51732422 14.65738281 2.47800781 13.4375 2.4375 C12.24962891 2.39431641 11.06175781 2.35113281 9.83789062 2.30664062 C6.89205216 2.20016454 3.9461257 2.09815159 1 2 C0.67 1.34 0.34 0.68 0 0 Z " fill="#444B74" transform="translate(133,4)"/>
<path d="M0 0 C0.66 0 1.32 0 2 0 C2 9.57 2 19.14 2 29 C3.32 28.67 4.64 28.34 6 28 C6.33 19.09 6.66 10.18 7 1 C7.33 1 7.66 1 8 1 C8 10.9 8 20.8 8 31 C5.03 31 2.06 31 -1 31 C-0.67 20.77 -0.34 10.54 0 0 Z " fill="#1C274B" transform="translate(302,55)"/>
<path d="M0 0 C0.495 1.98 0.495 1.98 1 4 C-2.3 4 -5.6 4 -9 4 C-9 3.34 -9 2.68 -9 2 C-25.17 2 -41.34 2 -58 2 C-58 1.67 -58 1.34 -58 1 C-29.29 0.505 -29.29 0.505 0 0 Z " fill="#1C274E" transform="translate(249,28)"/>
<path d="M0 0 C1.65 0 3.3 0 5 0 C5 3.96 5 7.92 5 12 C2.69 12 0.38 12 -2 12 C-2.05395478 10.37536158 -2.09277195 8.75021459 -2.125 7.125 C-2.14820313 6.22007813 -2.17140625 5.31515625 -2.1953125 4.3828125 C-2 2 -2 2 0 0 Z " fill="#132259" transform="translate(452,23)"/>
<path d="M0 0 C4.29 0 8.58 0 13 0 C12.67 0.66 12.34 1.32 12 2 C7.545 2.495 7.545 2.495 3 3 C3 12.24 3 21.48 3 31 C2.34 31 1.68 31 1 31 C0.67 20.77 0.34 10.54 0 0 Z " fill="#373E66" transform="translate(301,4)"/>
<path d="M0 0 C1.67542976 0.28604898 3.34385343 0.61781233 5 1 C5 1.66 5 2.32 5 3 C5.66 3 6.32 3 7 3 C6.67 4.65 6.34 6.3 6 8 C3.75 8.75 3.75 8.75 1 9 C-1.3125 7.0625 -1.3125 7.0625 -3 5 C-1.125 1.125 -1.125 1.125 0 0 Z " fill="#142256" transform="translate(573,27)"/>
<path d="M0 0 C0.61875 0.33 1.2375 0.66 1.875 1 C3.91018344 2.14193235 3.91018344 2.14193235 6 2 C6.33 2.99 6.66 3.98 7 5 C4.375 7.125 4.375 7.125 1 9 C-2.375 8.25 -2.375 8.25 -5 7 C-5 6.34 -5 5.68 -5 5 C-4.34 5 -3.68 5 -3 5 C-2.5359375 4.0409375 -2.5359375 4.0409375 -2.0625 3.0625 C-1 1 -1 1 0 0 Z " fill="#1B2D62" transform="translate(385,26)"/>
<path d="M0 0 C5.28 0 10.56 0 16 0 C16 0.99 16 1.98 16 3 C10.72 3 5.44 3 0 3 C0 2.01 0 1.02 0 0 Z " fill="#182144" transform="translate(144,29)"/>
<path d="M0 0 C2.475 0.495 2.475 0.495 5 1 C4.52433594 1.76570313 4.52433594 1.76570313 4.0390625 2.546875 C2.66023727 5.80214659 2.5706427 8.72843132 2.375 12.25 C2.30023438 13.51328125 2.22546875 14.7765625 2.1484375 16.078125 C2.09945313 17.04234375 2.05046875 18.0065625 2 19 C-0.52775351 15.20836973 -0.22443035 12.19125969 -0.125 7.8125 C-0.11597656 7.06291016 -0.10695313 6.31332031 -0.09765625 5.54101562 C-0.07412578 3.69387346 -0.03825561 1.84689588 0 0 Z " fill="#10163B" transform="translate(401,62)"/>
<path d="M0 0 C3.63 0 7.26 0 11 0 C11 1.32 11 2.64 11 4 C9.02 4.66 7.04 5.32 5 6 C4.67 5.34 4.34 4.68 4 4 C3.01 4 2.02 4 1 4 C0.67 2.68 0.34 1.36 0 0 Z " fill="#131750" transform="translate(452,112)"/>
<path d="M0 0 C0 1.65 0 3.3 0 5 C-0.99 4.67 -1.98 4.34 -3 4 C-3 5.32 -3 6.64 -3 8 C-3.99 7.67 -4.98 7.34 -6 7 C-6.875 5.125 -6.875 5.125 -7 3 C-4.8243318 -0.20624788 -4.07796486 0 0 0 Z M-5 4 C-4 6 -4 6 -4 6 Z " fill="#182469" transform="translate(350,64)"/>
<path d="M0 0 C0.33 1.32 0.66 2.64 1 4 C-2.3 4 -5.6 4 -9 4 C-9 3.01 -9 2.02 -9 1 C-4.545 0.505 -4.545 0.505 0 0 Z " fill="#22295A" transform="translate(249,28)"/>
<path d="M0 0 C2.97 0 5.94 0 9 0 C8.67 0.66 8.34 1.32 8 2 C6.7625 2.4021875 6.7625 2.4021875 5.5 2.8125 C4.2625 3.4003125 4.2625 3.4003125 3 4 C2.10613836 6.54775306 2.10613836 6.54775306 2 9 C1.67 9 1.34 9 1 9 C0.67 6.03 0.34 3.06 0 0 Z " fill="#505279" transform="translate(449,4)"/>
<path d="M0 0 C1.32 0.99 2.64 1.98 4 3 C3.67 3.99 3.34 4.98 3 6 C1.02 6.33 -0.96 6.66 -3 7 C-2.34 6.67 -1.68 6.34 -1 6 C-1.20625 5.38125 -1.4125 4.7625 -1.625 4.125 C-1.74875 3.42375 -1.8725 2.7225 -2 2 C-1.34 1.34 -0.68 0.68 0 0 Z " fill="#223056" transform="translate(355,63)"/>
<path d="M0 0 C1.32 0.66 2.64 1.32 4 2 C3.01 2.33 2.02 2.66 1 3 C0.26676204 5.01508358 0.26676204 5.01508358 0 7 C-1.32 7 -2.64 7 -4 7 C-2.84826645 4.53199953 -1.95216435 2.95216435 0 1 C0 0.67 0 0.34 0 0 Z " fill="#212962" transform="translate(343,113)"/>
<path d="M0 0 C3.625 0.375 3.625 0.375 7 1 C2.375 5 2.375 5 -1 5 C-1.33 4.01 -1.66 3.02 -2 2 C-1.34 1.34 -0.68 0.68 0 0 Z " fill="#1E2658" transform="translate(341,62)"/>
<path d="M0 0 C-0.99 0.33 -1.98 0.66 -3 1 C-3.73323796 3.01508358 -3.73323796 3.01508358 -4 5 C-4.99 5 -5.98 5 -7 5 C-7.33 3.35 -7.66 1.7 -8 0 C-2.25 -1.125 -2.25 -1.125 0 0 Z " fill="#132248" transform="translate(445,12)"/>
<path d="M0 0 C0.99 0.99 1.98 1.98 3 3 C-0.465 4.485 -0.465 4.485 -4 6 C-4.33 4.68 -4.66 3.36 -5 2 C-4.34 1.67 -3.68 1.34 -3 1 C-3 1.66 -3 2.32 -3 3 C-2.01 2.01 -1.02 1.02 0 0 Z " fill="#113262" transform="translate(442,27)"/>
<path d="M0 0 C1.09658936 3.28976808 0.79953138 4.71303767 0 8 C-0.99 8 -1.98 8 -3 8 C-3.33 7.01 -3.66 6.02 -4 5 C-2.0625 2.3125 -2.0625 2.3125 0 0 Z " fill="#1A1D6A" transform="translate(516,112)"/>
<path d="M0 0 C1.06546953 3.1964086 1.07427838 5.65747276 1 9 C0.01 8.67 -0.98 8.34 -2 8 C-2.125 5.125 -2.125 5.125 -2 2 C-1.34 1.34 -0.68 0.68 0 0 Z " fill="#58607E" transform="translate(590,23)"/>
<path d="M0 0 C1.32 0.33 2.64 0.66 4 1 C3.67 2.32 3.34 3.64 3 5 C0.03 4.505 0.03 4.505 -3 4 C-2.01 2.68 -1.02 1.36 0 0 Z " fill="#131E67" transform="translate(482,131)"/>
<path d="M0 0 C2 3.875 2 3.875 2 5 C0.35 5 -1.3 5 -3 5 C-3.33 3.68 -3.66 2.36 -4 1 C-2.68 0.67 -1.36 0.34 0 0 Z " fill="#191C50" transform="translate(569,12)"/>
<path d="M0 0 C0.66 0.33 1.32 0.66 2 1 C1.34 2.32 0.68 3.64 0 5 C-1.32 5 -2.64 5 -4 5 C-2.25 1.125 -2.25 1.125 0 0 Z " fill="#222A5F" transform="translate(495,80)"/>
<path d="M0 0 C0.33 0.99 0.66 1.98 1 3 C0.34 3 -0.32 3 -1 3 C-1 3.99 -1 4.98 -1 6 C-1.99 6 -2.98 6 -4 6 C-4.33 6.66 -4.66 7.32 -5 8 C-4.64950425 4.75791433 -4.43778819 3.38472296 -1.9375 1.1875 C-1.298125 0.795625 -0.65875 0.40375 0 0 Z " fill="#1C277A" transform="translate(418,26)"/>
<path d="M0 0 C0.66 0.66 1.32 1.32 2 2 C1.34 3.32 0.68 4.64 0 6 C-0.66 6 -1.32 6 -2 6 C-2.33 4.68 -2.66 3.36 -3 2 C-2.01 1.34 -1.02 0.68 0 0 Z " fill="#2D3460" transform="translate(589,13)"/>
<path d="M0 0 C0.99 0.33 1.98 0.66 3 1 C2.67 2.65 2.34 4.3 2 6 C-1 4 -1 4 -2 1 C-1.34 0.67 -0.68 0.34 0 0 Z " fill="#1C2370" transform="translate(575,11)"/>
<path d="M0 0 C0.66 1.32 1.32 2.64 2 4 C0.125 5.0625 0.125 5.0625 -2 6 C-2.66 5.67 -3.32 5.34 -4 5 C-4 4.34 -4 3.68 -4 3 C-3.01 2.67 -2.02 2.34 -1 2 C-0.67 1.34 -0.34 0.68 0 0 Z " fill="#283056" transform="translate(357,116)"/>
<path d="M0 0 C0.33 0 0.66 0 1 0 C1 1.65 1 3.3 1 5 C-1 6 -1 6 -4 6 C-3.34 4.68 -2.68 3.36 -2 2 C-1.34 2 -0.68 2 0 2 C0 1.34 0 0.68 0 0 Z " fill="#213170" transform="translate(402,28)"/>
<path d="M0 0 C0.66 0 1.32 0 2 0 C2.33 0.99 2.66 1.98 3 3 C1.35 4.65 -0.3 6.3 -2 8 C-2 6.02 -2 4.04 -2 2 C-1.34 1.67 -0.68 1.34 0 1 C0 0.67 0 0.34 0 0 Z " fill="#1D2A5F" transform="translate(341,12)"/>
<path d="M0 0 C2 1 2 1 2 1 Z " fill="#192354" transform="translate(569,28)"/>
<path d="" fill="#132234" transform="translate(0,0)"/>
<path d="" fill="#7184A7" transform="translate(0,0)"/>
<path d="" fill="#0C1D42" transform="translate(0,0)"/>
<path d="" fill="#09083A" transform="translate(0,0)"/>
<path d="" fill="#2D3144" transform="translate(0,0)"/>
<path d="" fill="#2C3146" transform="translate(0,0)"/>
<path d="" fill="#040921" transform="translate(0,0)"/>
<path d="" fill="#292B3C" transform="translate(0,0)"/>
<path d="" fill="#060E24" transform="translate(0,0)"/>
<path d="" fill="#131B24" transform="translate(0,0)"/>
<path d="" fill="#000422" transform="translate(0,0)"/>
<path d="" fill="#3F454A" transform="translate(0,0)"/>
<path d="" fill="#2A2D45" transform="translate(0,0)"/>
<path d="" fill="#09093E" transform="translate(0,0)"/>
<path d="" fill="#000004" transform="translate(0,0)"/>
<path d="" fill="#7C8387" transform="translate(0,0)"/>
<path d="" fill="#5C5C7C" transform="translate(0,0)"/>
<path d="" fill="#272E64" transform="translate(0,0)"/>
<path d="" fill="#070A4B" transform="translate(0,0)"/>
<path d="" fill="#262E72" transform="translate(0,0)"/>
<path d="" fill="#162350" transform="translate(0,0)"/>
<path d="" fill="#1E305C" transform="translate(0,0)"/>
<path d="" fill="#000C32" transform="translate(0,0)"/>
<path d="" fill="#4A5479" transform="translate(0,0)"/>
<path d="" fill="#0E2649" transform="translate(0,0)"/>
<path d="" fill="#6F79A1" transform="translate(0,0)"/>
<path d="" fill="#1C2956" transform="translate(0,0)"/>
<path d="" fill="#141B5F" transform="translate(0,0)"/>
<path d="" fill="#000010" transform="translate(0,0)"/>
<path d="" fill="#010518" transform="translate(0,0)"/>
<path d="" fill="#00064C" transform="translate(0,0)"/>
<path d="" fill="#000D24" transform="translate(0,0)"/>
<path d="" fill="#444D6C" transform="translate(0,0)"/>
<path d="" fill="#2E2E49" transform="translate(0,0)"/>
<path d="" fill="#2B385A" transform="translate(0,0)"/>
<path d="" fill="#383B6C" transform="translate(0,0)"/>
<path d="" fill="#00002E" transform="translate(0,0)"/>
<path d="" fill="#252552" transform="translate(0,0)"/>
<path d="" fill="#192055" transform="translate(0,0)"/>
<path d="" fill="#71798F" transform="translate(0,0)"/>
<path d="" fill="#2C425F" transform="translate(0,0)"/>
<path d="" fill="#20225A" transform="translate(0,0)"/>
<path d="" fill="#353D6C" transform="translate(0,0)"/>
<path d="" fill="#262D58" transform="translate(0,0)"/>
<path d="" fill="#403D79" transform="translate(0,0)"/>
<path d="" fill="#191B51" transform="translate(0,0)"/>
<path d="" fill="#1B3D68" transform="translate(0,0)"/>
<path d="" fill="#212060" transform="translate(0,0)"/>
<path d="" fill="#545F6B" transform="translate(0,0)"/>
<path d="" fill="#3F4A6D" transform="translate(0,0)"/>
<path d="" fill="#040C30" transform="translate(0,0)"/>
<path d="" fill="#00081E" transform="translate(0,0)"/>
<path d="" fill="#36446D" transform="translate(0,0)"/>
<path d="" fill="#464664" transform="translate(0,0)"/>
<path d="" fill="#353D5F" transform="translate(0,0)"/>
<path d="" fill="#33437B" transform="translate(0,0)"/>
<path d="" fill="#3A3A65" transform="translate(0,0)"/>
<path d="" fill="#3F4661" transform="translate(0,0)"/>
<path d="" fill="#3D4164" transform="translate(0,0)"/>
<path d="" fill="#232E51" transform="translate(0,0)"/>
<path d="" fill="#202742" transform="translate(0,0)"/>
<path d="" fill="#252F52" transform="translate(0,0)"/>
<path d="" fill="#3D4A7A" transform="translate(0,0)"/>
<path d="" fill="#3C3B52" transform="translate(0,0)"/>
<path d="" fill="#0D1243" transform="translate(0,0)"/>
<path d="" fill="#333E7A" transform="translate(0,0)"/>
<path d="" fill="#455562" transform="translate(0,0)"/>
<path d="" fill="#2A2D41" transform="translate(0,0)"/>
<path d="" fill="#2C304C" transform="translate(0,0)"/>
<path d="" fill="#34476C" transform="translate(0,0)"/>
<path d="" fill="#223460" transform="translate(0,0)"/>
<path d="" fill="#6E7DAC" transform="translate(0,0)"/>
<path d="" fill="#37455C" transform="translate(0,0)"/>
<path d="" fill="#11234F" transform="translate(0,0)"/>
<path d="" fill="#4C5F74" transform="translate(0,0)"/>
<path d="" fill="#252C60" transform="translate(0,0)"/>
<path d="" fill="#293963" transform="translate(0,0)"/>
<path d="" fill="#2B395F" transform="translate(0,0)"/>
<path d="" fill="#4A5278" transform="translate(0,0)"/>
<path d="" fill="#3C4B6D" transform="translate(0,0)"/>
<path d="" fill="#334060" transform="translate(0,0)"/>
<path d="" fill="#000115" transform="translate(0,0)"/>
<path d="" fill="#182641" transform="translate(0,0)"/>
<path d="" fill="#0E2041" transform="translate(0,0)"/>
<path d="" fill="#182457" transform="translate(0,0)"/>
<path d="" fill="#1C263B" transform="translate(0,0)"/>
<path d="" fill="#030E1F" transform="translate(0,0)"/>
<path d="" fill="#040C1E" transform="translate(0,0)"/>
<path d="" fill="#000020" transform="translate(0,0)"/>
<path d="" fill="#1A1C47" transform="translate(0,0)"/>
<path d="" fill="#4D4D69" transform="translate(0,0)"/>
<path d="" fill="#00080E" transform="translate(0,0)"/>
<path d="" fill="#2B5552" transform="translate(0,0)"/>
<path d="" fill="#100A2F" transform="translate(0,0)"/>
<path d="" fill="#000005" transform="translate(0,0)"/>
<path d="" fill="#313A65" transform="translate(0,0)"/>
<path d="" fill="#495B75" transform="translate(0,0)"/>
<path d="" fill="#262F4C" transform="translate(0,0)"/>
<path d="" fill="#3D4761" transform="translate(0,0)"/>
<path d="" fill="#1E2A3F" transform="translate(0,0)"/>
<path d="" fill="#2D3653" transform="translate(0,0)"/>
<path d="" fill="#263048" transform="translate(0,0)"/>
<path d="" fill="#434C69" transform="translate(0,0)"/>
<path d="" fill="#222435" transform="translate(0,0)"/>
<path d="" fill="#1F345A" transform="translate(0,0)"/>
<path d="" fill="#306069" transform="translate(0,0)"/>
<path d="" fill="#465884" transform="translate(0,0)"/>
<path d="" fill="#1F2D54" transform="translate(0,0)"/>
<path d="" fill="#1D2549" transform="translate(0,0)"/>
<path d="" fill="#344893" transform="translate(0,0)"/>
<path d="" fill="#223B57" transform="translate(0,0)"/>
<path d="" fill="#15264C" transform="translate(0,0)"/>
<path d="" fill="#1D2545" transform="translate(0,0)"/>
<path d="" fill="#111B40" transform="translate(0,0)"/>
<path d="" fill="#223956" transform="translate(0,0)"/>
<path d="" fill="#40495A" transform="translate(0,0)"/>
<path d="" fill="#253454" transform="translate(0,0)"/>
<path d="" fill="#3D4962" transform="translate(0,0)"/>
<path d="" fill="#1C235A" transform="translate(0,0)"/>
<path d="" fill="#707BA5" transform="translate(0,0)"/>
<path d="" fill="#42528C" transform="translate(0,0)"/>
<path d="" fill="#697FA3" transform="translate(0,0)"/>
<path d="" fill="#212B5C" transform="translate(0,0)"/>
<path d="" fill="#7882B3" transform="translate(0,0)"/>
<path d="" fill="#1B2944" transform="translate(0,0)"/>
<path d="" fill="#A2BAE8" transform="translate(0,0)"/>
<path d="" fill="#00031B" transform="translate(0,0)"/>
<path d="" fill="#374579" transform="translate(0,0)"/>
<path d="" fill="#2A3B6A" transform="translate(0,0)"/>
<path d="" fill="#224E6F" transform="translate(0,0)"/>
<path d="" fill="#304376" transform="translate(0,0)"/>
<path d="" fill="#1F2F3E" transform="translate(0,0)"/>
<path d="" fill="#172B56" transform="translate(0,0)"/>
<path d="" fill="#344161" transform="translate(0,0)"/>
<path d="" fill="#1F2C5A" transform="translate(0,0)"/>
<path d="" fill="#152456" transform="translate(0,0)"/>
<path d="" fill="#00112A" transform="translate(0,0)"/>
<path d="" fill="#081341" transform="translate(0,0)"/>
<path d="" fill="#1F303A" transform="translate(0,0)"/>
<path d="" fill="#333C5B" transform="translate(0,0)"/>
<path d="" fill="#303E72" transform="translate(0,0)"/>
<path d="" fill="#344357" transform="translate(0,0)"/>
<path d="" fill="#363B62" transform="translate(0,0)"/>
<path d="" fill="#6F7AA2" transform="translate(0,0)"/>
<path d="" fill="#848AAC" transform="translate(0,0)"/>
<path d="" fill="#020731" transform="translate(0,0)"/>
<path d="" fill="#7A80AE" transform="translate(0,0)"/>
<path d="" fill="#3B4E82" transform="translate(0,0)"/>
<path d="" fill="#2D3A5F" transform="translate(0,0)"/>
<path d="" fill="#777AA2" transform="translate(0,0)"/>
<path d="" fill="#36456B" transform="translate(0,0)"/>
<path d="" fill="#2E3358" transform="translate(0,0)"/>
<path d="" fill="#394671" transform="translate(0,0)"/>
<path d="" fill="#51567D" transform="translate(0,0)"/>
<path d="" fill="#1F2B55" transform="translate(0,0)"/>
<path d="" fill="#28395E" transform="translate(0,0)"/>
<path d="" fill="#152445" transform="translate(0,0)"/>
<path d="" fill="#273368" transform="translate(0,0)"/>
<path d="" fill="#2F4154" transform="translate(0,0)"/>
<path d="" fill="#0F1C5A" transform="translate(0,0)"/>
<path d="" fill="#20304F" transform="translate(0,0)"/>
<path d="" fill="#1C255F" transform="translate(0,0)"/>
<path d="" fill="#1F2A59" transform="translate(0,0)"/>
<path d="" fill="#37426C" transform="translate(0,0)"/>
<path d="" fill="#3D4870" transform="translate(0,0)"/>
<path d="" fill="#42517C" transform="translate(0,0)"/>
<path d="" fill="#212C58" transform="translate(0,0)"/>
<path d="" fill="#445377" transform="translate(0,0)"/>
<path d="" fill="#091334" transform="translate(0,0)"/>
<path d="" fill="#4C587D" transform="translate(0,0)"/>
<path d="" fill="#555F87" transform="translate(0,0)"/>
<path d="" fill="#121733" transform="translate(0,0)"/>
<path d="" fill="#1B2536" transform="translate(0,0)"/>
</svg>
