<?xml version="1.0" encoding="UTF-8"?>
<svg version="1.1" xmlns="http://www.w3.org/2000/svg" width="286" height="69">
<path d="M0 0 C0.33 0.66 0.66 1.32 1 2 C1 1.34 1 0.68 1 0 C2.32 0 3.64 0 5 0 C5.495 1.98 5.495 1.98 6 4 C6.33 2.68 6.66 1.36 7 0 C9.31 0.33 11.62 0.66 14 1 C13.34 2.98 12.68 4.96 12 7 C9.69 6.67 7.38 6.34 5 6 C5.66386719 6.19335938 6.32773437 6.38671875 7.01171875 6.5859375 C15.78207381 9.17223199 15.78207381 9.17223199 20 11 C21.65 9.68 23.3 8.36 25 7 C25.495 8.485 25.495 8.485 26 10 C26.66 10 27.32 10 28 10 C27.67 11.32 27.34 12.64 27 14 C27.99 13.34 28.98 12.68 30 12 C30 12.99 30 13.98 30 15 C28 16.6875 28 16.6875 26 18 C26.495 19.36125 26.495 19.36125 27 20.75 C29.03264108 28.09421412 29.10965733 35.46894563 25.875 42.4375 C22.59278726 48.19059199 18.4234466 52.07545527 12.10546875 54.48828125 C4.3115191 56.3825436 -2.81944086 55.54964358 -9.796875 51.64453125 C-13.33834955 49.00098376 -15.71306646 45.74648056 -18 42 C-18.44988281 42.50144531 -18.89976563 43.00289062 -19.36328125 43.51953125 C-20.17345703 44.25236328 -20.17345703 44.25236328 -21 45 C-23.1875 44.6875 -23.1875 44.6875 -25 44 C-25 42.35 -25 40.7 -25 39 C-25.66 39 -26.32 39 -27 39 C-27 37.35 -27 35.7 -27 34 C-25.02 33.34 -23.04 32.68 -21 32 C-21 30.35 -21 28.7 -21 27 C-22.98 26.67 -24.96 26.34 -27 26 C-27 25.34 -27 24.68 -27 24 C-26.01 24 -25.02 24 -24 24 C-24.66 23.67 -25.32 23.34 -26 23 C-26 22.01 -26 21.02 -26 20 C-23.69 20.33 -21.38 20.66 -19 21 C-18.55269531 20.39671875 -18.10539062 19.7934375 -17.64453125 19.171875 C-14.41178386 14.89830703 -11.44389827 11.09726243 -7 8 C-8.32 6.35 -9.64 4.7 -11 3 C-9.73160474 2.49384702 -8.46016898 1.99530901 -7.1875 1.5 C-6.12595703 1.08234375 -6.12595703 1.08234375 -5.04296875 0.65625 C-3 0 -3 0 0 0 Z M-5 2 C-5.66 2.66 -6.32 3.32 -7 4 C-6.34 5.32 -5.68 6.64 -5 8 C-4.01 7.67 -3.02 7.34 -2 7 C-2.66 5.35 -3.32 3.7 -4 2 C-4.33 2 -4.66 2 -5 2 Z M1 8 C1.99 8.33 2.98 8.66 4 9 C3.67 10.65 3.34 12.3 3 14 C5.31 14.33 7.62 14.66 10 15 C10.33 13.02 10.66 11.04 11 9 C7.7 8.67 4.4 8.34 1 8 Z M-3 9 C-2.34 10.32 -1.68 11.64 -1 13 C-1 11.68 -1 10.36 -1 9 C-1.66 9 -2.32 9 -3 9 Z M22 11 C21.67 11.99 21.34 12.98 21 14 C21.99 14.495 21.99 14.495 23 15 C22.67 13.68 22.34 12.36 22 11 Z M-9 12 C-8 14 -8 14 -8 14 Z M16 12 C15.67 13.32 15.34 14.64 15 16 C15.66 15.67 16.32 15.34 17 15 C16.67 14.01 16.34 13.02 16 12 Z M-7 13 C-6.34 13.66 -5.68 14.32 -5 15 C-5 14.34 -5 13.68 -5 13 C-5.66 13 -6.32 13 -7 13 Z M-11 14 C-11.33 14.66 -11.66 15.32 -12 16 C-11.34 16 -10.68 16 -10 16 C-10.33 15.34 -10.66 14.68 -11 14 Z M20 15 C21 17 21 17 21 17 Z M-1 16 C-1.33 16.66 -1.66 17.32 -2 18 C-1.34 18.66 -0.68 19.32 0 20 C0.66 19.67 1.32 19.34 2 19 C2 18.01 2 17.02 2 16 C1.01 16 0.02 16 -1 16 Z M4 16 C5 20 5 20 5 20 Z M6 16 C6 17.65 6 19.3 6 21 C8.18490007 18.32357511 8.18490007 18.32357511 8 16 C7.34 16 6.68 16 6 16 Z M9 17 C9.33 17.66 9.66 18.32 10 19 C10.33 18.34 10.66 17.68 11 17 C10.34 17 9.68 17 9 17 Z M14 17 C14.66 17.66 15.32 18.32 16 19 C16 18.34 16 17.68 16 17 C15.34 17 14.68 17 14 17 Z M-15 18 C-15.33 18.66 -15.66 19.32 -16 20 C-14.68 20.33 -13.36 20.66 -12 21 C-12.99 20.01 -13.98 19.02 -15 18 Z M-5 18 C-4.01 18.99 -3.02 19.98 -2 21 C-2.33 20.01 -2.66 19.02 -3 18 C-3.66 18 -4.32 18 -5 18 Z M11 18 C11.89767656 21.1315587 11.89767656 21.1315587 14 24 C14.99 24 15.98 24 17 24 C15.95125002 21.37812506 15.35068687 20.20628639 12.875 18.75 C11.946875 18.37875 11.946875 18.37875 11 18 Z M-6 19 C-6 22 -6 22 -6 22 Z M8 19 C9 21 9 21 9 21 Z M16 19 C16.66 19.66 17.32 20.32 18 21 C18 20.34 18 19.68 18 19 C17.34 19 16.68 19 16 19 Z M20 19 C19.67 19.66 19.34 20.32 19 21 C19.99 20.67 20.98 20.34 22 20 C21.34 19.67 20.68 19.34 20 19 Z M-8 21 C-8.33 21.66 -8.66 22.32 -9 23 C-8.34 23 -7.68 23 -7 23 C-7.33 22.34 -7.66 21.68 -8 21 Z M-15 22 C-15.33 22.99 -15.66 23.98 -16 25 C-15.34 25 -14.68 25 -14 25 C-13.67 24.01 -13.34 23.02 -13 22 C-13.66 22 -14.32 22 -15 22 Z M-12 22 C-11 24 -11 24 -11 24 Z M-4 22 C-3.67 22.99 -3.34 23.98 -3 25 C-0.69 25 1.62 25 4 25 C4 24.01 4 23.02 4 22 C1.36 22 -1.28 22 -4 22 Z M5 22 C5.33 22.99 5.66 23.98 6 25 C6.66 25 7.32 25 8 25 C8.33 25.66 8.66 26.32 9 27 C7.68 27 6.36 27 5 27 C5.33 27.66 5.66 28.32 6 29 C7.32 29 8.64 29 10 29 C8 31 8 31 5 32 C7.97 32.495 7.97 32.495 11 33 C11 33.99 11 34.98 11 36 C9.35 35.67 7.7 35.34 6 35 C5.67 35.66 5.34 36.32 5 37 C7.31 37.33 9.62 37.66 12 38 C12 33.05 12 28.1 12 23 C9.69 22.67 7.38 22.34 5 22 Z M19 23 C19.66 26.3 20.32 29.6 21 33 C22.65 33 24.3 33 26 33 C26.33 33.66 26.66 34.32 27 35 C27.1799928 29.78020872 26.97094808 25.92737019 25 21 C22.91571791 21 20.90182036 22.21976601 19 23 Z M-20 22 C-20.99 22.33 -21.98 22.66 -23 23 C-23 23.66 -23 24.32 -23 25 C-21.68 25 -20.36 25 -19 25 C-19.33 24.01 -19.66 23.02 -20 22 Z M-10 23 C-10 23.99 -10 24.98 -10 26 C-9.01 25.67 -8.02 25.34 -7 25 C-7.99 24.34 -8.98 23.68 -10 23 Z M-18 24 C-17 26 -17 26 -17 26 Z M17 24 C16.67 24.66 16.34 25.32 16 26 C16.66 26 17.32 26 18 26 C17.67 25.34 17.34 24.68 17 24 Z M-11 26 C-11 26.66 -11 27.32 -11 28 C-10.01 27.67 -9.02 27.34 -8 27 C-8.99 26.67 -9.98 26.34 -11 26 Z M-4 27 C-4 27.66 -4 28.32 -4 29 C-1.36 29 1.28 29 4 29 C4 28.34 4 27.68 4 27 C1.36 27 -1.28 27 -4 27 Z M17 27 C16.34 27.66 15.68 28.32 15 29 C16.32 29 17.64 29 19 29 C19 28.34 19 27.68 19 27 C18.34 27 17.68 27 17 27 Z M-13 25 C-13.268125 26.134375 -13.53625 27.26875 -13.8125 28.4375 C-14.204375 29.613125 -14.59625 30.78875 -15 32 C-15.99 32.33 -16.98 32.66 -18 33 C-18 32.34 -18 31.68 -18 31 C-17.01 30.67 -16.02 30.34 -15 30 C-15.99 30 -16.98 30 -18 30 C-18.33 29.34 -18.66 28.68 -19 28 C-19.04254356 29.99954746 -19.04080783 32.00041636 -19 34 C-18.67 34.33 -18.34 34.66 -18 35 C-16.35 35 -14.7 35 -13 35 C-12.67 31.7 -12.34 28.4 -12 25 C-12.33 25 -12.66 25 -13 25 Z M-11 29 C-11.93065133 31.60582371 -12.14917407 32.64198224 -11.0625 35.25 C-10.711875 35.8275 -10.36125 36.405 -10 37 C-9.34 36.34 -8.68 35.68 -8 35 C-8.33 34.67 -8.66 34.34 -9 34 C-8.01 33.34 -7.02 32.68 -6 32 C-6 31.34 -6 30.68 -6 30 C-7.65 29.67 -9.3 29.34 -11 29 Z M16 30 C17.98 30.99 17.98 30.99 20 32 C20 31.34 20 30.68 20 30 C18.68 30 17.36 30 16 30 Z M-4 31 C-4 31.66 -4 32.32 -4 33 C-3.01 32.67 -2.02 32.34 -1 32 C-1.99 31.67 -2.98 31.34 -4 31 Z M1 31 C0.34 31.66 -0.32 32.32 -1 33 C0.65 33 2.3 33 4 33 C4 32.34 4 31.68 4 31 C3.01 31 2.02 31 1 31 Z M15 35 C16.98 35.99 16.98 35.99 19 37 C19 36.34 19 35.68 19 35 C17.68 35 16.36 35 15 35 Z M20 35 C21 38 21 38 21 38 Z M-16 36 C-16.66 36.66 -17.32 37.32 -18 38 C-16.68 37.67 -15.36 37.34 -14 37 C-14.66 36.67 -15.32 36.34 -16 36 Z M-13 36 C-12 38 -12 38 -12 38 Z M-4 36 C-4 36.66 -4 37.32 -4 38 C-1.36 38 1.28 38 4 38 C3.67 37.01 3.34 36.02 3 35 C0.37886292 35 -1.50935112 35.31292445 -4 36 Z M24 36 C24.99 37.485 24.99 37.485 26 39 C26 38.01 26 37.02 26 36 C25.34 36 24.68 36 24 36 Z M-20 37 C-20 40 -20 40 -20 40 Z M-10 37 C-9.67 37.99 -9.34 38.98 -9 40 C-8.34 39.01 -7.68 38.02 -7 37 C-7.99 37 -8.98 37 -10 37 Z M14 37 C14.99 37.99 15.98 38.98 17 40 C17.33 39.34 17.66 38.68 18 38 C16.68 37.67 15.36 37.34 14 37 Z M-7 39 C-7 40.32 -7 41.64 -7 43 C-6.01 43.33 -5.02 43.66 -4 44 C-4.33 42.35 -4.66 40.7 -5 39 C-5.66 39 -6.32 39 -7 39 Z M21 39 C21.66 40.32 22.32 41.64 23 43 C23.66 41.68 24.32 40.36 25 39 C23.68 39 22.36 39 21 39 Z M-23 40 C-23.33 40.99 -23.66 41.98 -24 43 C-22.68 42.67 -21.36 42.34 -20 42 C-20.33 41.34 -20.66 40.68 -21 40 C-21.66 40 -22.32 40 -23 40 Z M-14 40 C-14 40.66 -14 41.32 -14 42 C-13.34 42 -12.68 42 -12 42 C-12 41.34 -12 40.68 -12 40 C-12.66 40 -13.32 40 -14 40 Z M11 40 C11.66 41.32 12.32 42.64 13 44 C13 43.01 13 42.02 13 41 C12.34 40.67 11.68 40.34 11 40 Z M14 40 C14.33 40.66 14.66 41.32 15 42 C15.33 41.34 15.66 40.68 16 40 C15.34 40 14.68 40 14 40 Z M-2 41 C-2.66 42.32 -3.32 43.64 -4 45 C-3.34 45 -2.68 45 -2 45 C-1.67 43.68 -1.34 42.36 -1 41 C-1.33 41 -1.66 41 -2 41 Z M-12.625 43.5 C-13.07875 43.995 -13.5325 44.49 -14 45 C-8.65450859 50.19276309 -4.39583983 54.02581742 3.44921875 53.98828125 C11.50168561 53.4466355 16.54355577 51.08003786 22 45 C22.33 44.34 22.66 43.68 23 43 C20.24293584 42.13617572 20.24293584 42.13617572 17 42 C14.28536927 43.80495512 14.28536927 43.80495512 12 46 C6.96457789 47.67847404 1.53731886 48.19945982 -3.36328125 45.8828125 C-4.73777665 44.99328531 -6.08873787 44.06568518 -7.40625 43.09375 C-9.75865584 41.47935383 -10.52693715 41.5633266 -12.625 43.5 Z M0 42 C-0.66 43.32 -1.32 44.64 -2 46 C-1.01 46 -0.02 46 1 46 C0.67 44.68 0.34 43.36 0 42 Z M7 42 C7 43.32 7 44.64 7 46 C7.66 46 8.32 46 9 46 C8.34 44.68 7.68 43.36 7 42 Z M2 43 C3 47 3 47 3 47 Z M5 43 C4.67 44.32 4.34 45.64 4 47 C4.66 47 5.32 47 6 47 C5.67 45.68 5.34 44.36 5 43 Z M10 43 C10 43.66 10 44.32 10 45 C10.66 44.67 11.32 44.34 12 44 C11.34 43.67 10.68 43.34 10 43 Z " fill="#011F66" transform="translate(30,3)"/>
<path d="M0 0 C0.63164063 0.33902344 1.26328125 0.67804687 1.9140625 1.02734375 C9.01759935 5.42402625 13.60325519 12.734595 15.9375 20.625 C18.24682153 30.95921383 16.83053575 40.33129527 11.4921875 49.625 C5.01093592 58.54802544 -3.23770844 63.07816222 -14 65 C-23.49569888 66.25678368 -32.51033634 62.62564423 -40 57 C-46.89449189 51.06753024 -51.51476825 43.39397155 -52.3359375 34.265625 C-52.62517596 21.62355898 -50.31256639 13.50935185 -41.4453125 4.203125 C-30.23070461 -5.90077092 -13.119357 -7.38878285 0 0 Z M-44 10 C-50.09278609 18.85562465 -51.08308424 27.41910011 -50 38 C-46.8825681 47.70857365 -41.17454362 54.84872346 -32.375 59.875 C-24.08504878 63.67981044 -14.93217315 64.16549097 -6.34375 61.0703125 C2.7111947 56.93522109 8.01618649 51.35028629 12.8125 42.75 C16.00058191 32.68237293 15.55047325 23.59451634 11 14 C5.87867923 6.1667562 -1.01226498 0.7132785 -10 -2 C-23.90353126 -3.85380417 -34.64499804 -0.49900614 -44 10 Z " fill="#041E62" transform="translate(52,4)"/>
<path d="M0 0 C5.0511804 0.38087895 6.95139262 2.64441933 10.1875 6.375 C11.04730469 7.35210938 11.90710938 8.32921875 12.79296875 9.3359375 C15 12 15 12 17 15 C17.08086147 13.20906809 17.13912702 11.41710372 17.1875 9.625 C17.22230469 8.62726562 17.25710937 7.62953125 17.29296875 6.6015625 C17.19628906 5.74304688 17.09960938 4.88453125 17 4 C16.01 3.34 15.02 2.68 14 2 C14 1.34 14 0.68 14 0 C17.3 0 20.6 0 24 0 C24 0.66 24 1.32 24 2 C23.01 2.495 23.01 2.495 22 3 C21.67 9.93 21.34 16.86 21 24 C16.5 22.875 16.5 22.875 14.203125 20.05859375 C13.71972656 19.47529297 13.23632812 18.89199219 12.73828125 18.29101562 C12.24714844 17.67935547 11.75601563 17.06769531 11.25 16.4375 C10.74339844 15.82197266 10.23679687 15.20644531 9.71484375 14.57226562 C8.46814405 13.05505562 7.2329362 11.52841574 6 10 C6 13.63 6 17.26 6 21 C6.66 21.33 7.32 21.66 8 22 C8 22.66 8 23.32 8 24 C5.03 24 2.06 24 -1 24 C-0.505 22.515 -0.505 22.515 0 21 C0.66 21 1.32 21 2 21 C1.85888117 18.24968413 1.71228835 15.49984582 1.5625 12.75 C1.52318359 11.97269531 1.48386719 11.19539063 1.44335938 10.39453125 C1.40146484 9.64042969 1.35957031 8.88632813 1.31640625 8.109375 C1.27974854 7.41811523 1.24309082 6.72685547 1.20532227 6.01464844 C0.99324476 3.93371671 0.55491323 2.01427578 0 0 Z " fill="#041E63" transform="translate(86,7)"/>
<path d="M0 0 C0 3.3 0 6.6 0 10 C0.66 9.67 1.32 9.34 2 9 C5.5 8.8125 5.5 8.8125 9 9 C12.17273461 12.17273461 11.4502419 16.01633592 11.65625 20.34765625 C11.7696875 21.22292969 11.883125 22.09820313 12 23 C12.66 23.33 13.32 23.66 14 24 C14 24.66 14 25.32 14 26 C11.03 26 8.06 26 5 26 C5 25.34 5 24.68 5 24 C5.66 24 6.32 24 7 24 C6.67 20.37 6.34 16.74 6 13 C4.35 13 2.7 13 1 13 C1 16.3 1 19.6 1 23 C1.66 23.33 2.32 23.66 3 24 C3 24.66 3 25.32 3 26 C0.03 26 -2.94 26 -6 26 C-6 25.34 -6 24.68 -6 24 C-5.34 24 -4.68 24 -4 24 C-4 17.4 -4 10.8 -4 4 C-4.66 4 -5.32 4 -6 4 C-6 3.34 -6 2.68 -6 2 C-1.125 0 -1.125 0 0 0 Z " fill="#031F65" transform="translate(159,5)"/>
<path d="M0 0 C2.64 0 5.28 0 8 0 C7.67 0.99 7.34 1.98 7 3 C7.88319294 6.15020361 7.88319294 6.15020361 9 9 C9.66 6.69 10.32 4.38 11 2 C10.34 2 9.68 2 9 2 C9 1.34 9 0.68 9 0 C11.64 0 14.28 0 17 0 C17 0.66 17 1.32 17 2 C16.34 2 15.68 2 15 2 C15.99 4.31 16.98 6.62 18 9 C18.99 6.69 19.98 4.38 21 2 C20.34 2 19.68 2 19 2 C19 1.34 19 0.68 19 0 C21.31 0 23.62 0 26 0 C26 0.66 26 1.32 26 2 C25.55011719 2.41894531 25.10023438 2.83789062 24.63671875 3.26953125 C22.49428644 5.53468045 21.81511981 7.74878676 20.8125 10.6875 C20.46832031 11.68136719 20.12414062 12.67523438 19.76953125 13.69921875 C19.38861328 14.83810547 19.38861328 14.83810547 19 16 C17.68 16 16.36 16 15 16 C14.34 14.02 13.68 12.04 13 10 C11.45428722 12.31856917 10.20381448 14.50638429 9 17 C8.01 17 7.02 17 6 17 C5.3299166 14.87607494 4.66403203 12.75082476 4 10.625 C3.62875 9.44164062 3.2575 8.25828125 2.875 7.0390625 C2 4 2 4 2 2 C1.34 2 0.68 2 0 2 C0 1.34 0 0.68 0 0 Z " fill="#031E63" transform="translate(171,14)"/>
<path d="M0 0 C3.3 0 6.6 0 10 0 C10 0.66 10 1.32 10 2 C9.01 2 8.02 2 7 2 C7.0867572 4.62664903 7.19357981 7.24978082 7.3125 9.875 C7.33505859 10.62136719 7.35761719 11.36773437 7.38085938 12.13671875 C7.47811945 14.099604 7.73042294 16.05328322 8 18 C10.78114056 20.33391203 10.78114056 20.33391203 13.6875 19.625 C14.450625 19.41875 15.21375 19.2125 16 19 C17.04882391 15.43928688 17.30386953 11.94472103 17.5625 8.25 C17.64628906 7.07953125 17.73007813 5.9090625 17.81640625 4.703125 C17.90728516 3.36507812 17.90728516 3.36507812 18 2 C16.68 1.67 15.36 1.34 14 1 C14 0.67 14 0.34 14 0 C17.3 0 20.6 0 24 0 C23.67 0.66 23.34 1.32 23 2 C22.34 2 21.68 2 21 2 C21.05220703 3.53720703 21.05220703 3.53720703 21.10546875 5.10546875 C21.13362035 6.46612936 21.16091904 7.8268078 21.1875 9.1875 C21.21263672 9.86103516 21.23777344 10.53457031 21.26367188 11.22851562 C21.32907182 15.69751197 20.75630065 18.45618488 18 22 C15.70013269 23.14993366 14.18530912 23.2316929 11.625 23.3125 C10.46871094 23.36857422 10.46871094 23.36857422 9.2890625 23.42578125 C5.9700536 22.80842294 4.93630513 21.75750596 3 19 C2.60310828 16.1613614 2.3951743 13.64951155 2.375 10.8125 C2.32904109 8.18594838 2.2074603 5.62289089 2 3 C1.34 2.67 0.68 2.34 0 2 C0 1.34 0 0.68 0 0 Z " fill="#041F5F" transform="translate(85,38)"/>
<path d="M0 0 C1.60875 -0.00386719 1.60875 -0.00386719 3.25 -0.0078125 C6 0.125 6 0.125 8 1.125 C9.04976964 4.27430893 9.10131595 6.51314456 9.0625 9.8125 C9.05347656 10.80636719 9.04445313 11.80023438 9.03515625 12.82421875 C9.02355469 13.58347656 9.01195312 14.34273437 9 15.125 C9.66 15.125 10.32 15.125 11 15.125 C11 15.785 11 16.445 11 17.125 C8.36 17.125 5.72 17.125 3 17.125 C3.33 16.135 3.66 15.145 4 14.125 C4.06740865 12.56381572 4.08514456 10.9999748 4.0625 9.4375 C4.05347656 8.62925781 4.04445313 7.82101563 4.03515625 6.98828125 C4.02355469 6.37339844 4.01195312 5.75851563 4 5.125 C2.35 4.795 0.7 4.465 -1 4.125 C-1 7.425 -1 10.725 -1 14.125 C-0.34 14.455 0.32 14.785 1 15.125 C1 15.785 1 16.445 1 17.125 C-1.97 17.125 -4.94 17.125 -8 17.125 C-8 16.465 -8 15.805 -8 15.125 C-7.34 15.125 -6.68 15.125 -6 15.125 C-6.14133499 13.35380197 -6.28823208 11.58304713 -6.4375 9.8125 C-6.51871094 8.82636719 -6.59992188 7.84023438 -6.68359375 6.82421875 C-6.91812559 4.03124401 -6.91812559 4.03124401 -8 1.125 C-5.26922124 -0.24038938 -3.04439633 -0.00731826 0 0 Z " fill="#041F61" transform="translate(274,13.875)"/>
<path d="M0 0 C1.33333333 0.33333333 2.66666667 0.66666667 4 1 C5.7634375 0.690625 5.7634375 0.690625 7.5625 0.375 C11 0 11 0 12.703125 1.08984375 C14.56151468 3.82705023 14.29298601 5.91743381 14.1875 9.1875 C14.16042969 10.27417969 14.13335937 11.36085938 14.10546875 12.48046875 C14.07066406 13.31191406 14.03585938 14.14335938 14 15 C14.99 15 15.98 15 17 15 C17 15.66 17 16.32 17 17 C14.03 17 11.06 17 8 17 C8 16.34 8 15.68 8 15 C8.66 15 9.32 15 10 15 C9.67 11.7 9.34 8.4 9 5 C5.36380344 3.91915479 5.36380344 3.91915479 3 4 C3.1135629 5.64666203 3.24117381 7.29236082 3.375 8.9375 C3.44460937 9.85402344 3.51421875 10.77054688 3.5859375 11.71484375 C3.72257812 12.46894531 3.85921875 13.22304688 4 14 C4.66 14.33 5.32 14.66 6 15 C6 15.66 6 16.32 6 17 C3.03 17 0.06 17 -3 17 C-3 16.34 -3 15.68 -3 15 C-2.01 15 -1.02 15 0 15 C-0.11509661 13.58249437 -0.24253658 12.16598831 -0.375 10.75 C-0.44460937 9.96109375 -0.51421875 9.1721875 -0.5859375 8.359375 C-1.01507113 5.914123 -1.78600638 4.15163097 -3 2 C-2.01 1.34 -1.02 0.68 0 0 Z " fill="#031E64" transform="translate(111,44)"/>
<path d="M0 0 C2.64 0 5.28 0 8 0 C7.79375 0.556875 7.5875 1.11375 7.375 1.6875 C6.89304789 4.659538 7.73434972 6.31979941 9 9 C10.81301758 4.56906802 10.81301758 4.56906802 10 0 C12.31 0 14.62 0 17 0 C16.59201172 0.74443359 16.59201172 0.74443359 16.17578125 1.50390625 C14.26888311 5.55210528 12.89362549 9.82686188 11.47460938 14.06835938 C9.80983985 18.73058793 8.00866105 21.86305391 4 25 C2.68 25 1.36 25 0 25 C0 23.68 0 22.36 0 21 C0.804375 20.7525 1.60875 20.505 2.4375 20.25 C5.07769953 19.29157831 5.07769953 19.29157831 5.80859375 17.30078125 C6.08087583 14.02783957 4.96069428 11.9151389 3.625 8.9375 C1.00754717 3.02264151 1.00754717 3.02264151 0 0 Z " fill="#051E62" transform="translate(218,44)"/>
<path d="M0 0 C3.48326597 0.85529699 4.97293913 2.60978164 6.97265625 5.484375 C7.86691841 9.68740714 7.1608389 11.17643975 4.91015625 14.859375 C1.97265625 17.484375 1.97265625 17.484375 -1.52734375 18.109375 C-5.6480553 17.37353365 -7.35539546 16.72310019 -10.02734375 13.484375 C-10.69172442 8.83371029 -10.61585947 6.66140644 -8.52734375 2.484375 C-5.66601043 0.19530834 -3.66094842 -0.24634419 0 0 Z M-4.02734375 2.484375 C-6.45554595 4.47994613 -6.45554595 4.47994613 -6.33984375 8.421875 C-6.26742733 11.07714357 -6.17375716 12.24279287 -4.77734375 14.546875 C-3.05405594 15.66701574 -3.05405594 15.66701574 -0.96484375 15.359375 C1.32378055 14.53185407 1.32378055 14.53185407 2.97265625 11.484375 C2.74052659 6.44436092 2.74052659 6.44436092 -0.02734375 2.484375 C-1.34734375 2.484375 -2.66734375 2.484375 -4.02734375 2.484375 Z " fill="#021F65" transform="translate(119.02734375,13.515625)"/>
<path d="M0 0 C2.875 0.5 2.875 0.5 4.75 1.6875 C5.875 3.5 5.875 3.5 5.875 8.5 C2.575 8.5 -0.725 8.5 -4.125 8.5 C-3.795 10.15 -3.465 11.8 -3.125 13.5 C-0.155 13.5 2.815 13.5 5.875 13.5 C5.875 14.49 5.875 15.48 5.875 16.5 C-0.30681818 18.68181818 -0.30681818 18.68181818 -3.9375 17.875 C-6.54985078 16.23295094 -7.24750118 15.45158693 -8.125 12.5 C-8.68808865 8.075732 -8.64438231 6.21796966 -6 2.5625 C-3.125 0.5 -3.125 0.5 0 0 Z M-1.125 2.5 C-2.115 3.16 -3.105 3.82 -4.125 4.5 C-4.125 5.16 -4.125 5.82 -4.125 6.5 C-2.145 6.5 -0.165 6.5 1.875 6.5 C1.875 5.51 1.875 4.52 1.875 3.5 C0.885 3.17 -0.105 2.84 -1.125 2.5 Z " fill="#061D61" transform="translate(162.125,43.5)"/>
<path d="M0 0 C3.875 0.4375 3.875 0.4375 5.875 2.4375 C6 5.5625 6 5.5625 5.875 8.4375 C2.575 8.4375 -0.725 8.4375 -4.125 8.4375 C-3.13364359 11.0648026 -3.13364359 11.0648026 -1.125 13.4375 C2.50099422 13.85475678 2.50099422 13.85475678 5.875 13.4375 C4.875 16.4375 4.875 16.4375 2.875 17.4375 C-0.5 17.8125 -0.5 17.8125 -4.125 17.4375 C-7.32188909 14.73244 -8.03302205 13.08134566 -8.625 8.9375 C-7.81593 3.27400997 -5.90326274 0.17173128 0 0 Z M-2.125 2.4375 C-2.785 3.7575 -3.445 5.0775 -4.125 6.4375 C-2.145 6.4375 -0.165 6.4375 1.875 6.4375 C1.545 5.1175 1.215 3.7975 0.875 2.4375 C-0.115 2.4375 -1.105 2.4375 -2.125 2.4375 Z " fill="#041F60" transform="translate(245.125,13.5625)"/>
<path d="M0 0 C3.4375 0.5 3.4375 0.5 5.375 1.6875 C6.4375 3.5 6.4375 3.5 6.4375 8.5 C3.1375 8.5 -0.1625 8.5 -3.5625 8.5 C-2.57114359 11.1273026 -2.57114359 11.1273026 -0.5625 13.5 C3.06349422 13.91725678 3.06349422 13.91725678 6.4375 13.5 C5.4375 16.5 5.4375 16.5 3.4375 17.5 C0.0625 17.875 0.0625 17.875 -3.5625 17.5 C-6.75938909 14.79494 -7.47052205 13.14384566 -8.0625 9 C-7.26794944 3.4381461 -5.72769833 0.80388748 0 0 Z M-1.5625 2.5 C-2.2225 3.82 -2.8825 5.14 -3.5625 6.5 C-1.5825 6.5 0.3975 6.5 2.4375 6.5 C2.1075 5.18 1.7775 3.86 1.4375 2.5 C0.4475 2.5 -0.5425 2.5 -1.5625 2.5 Z " fill="#061E5C" transform="translate(203.5625,13.5)"/>
<path d="M0 0 C1.23556641 0.01740234 1.23556641 0.01740234 2.49609375 0.03515625 C3.32238281 0.04417969 4.14867187 0.05320312 5 0.0625 C5.63808594 0.07410156 6.27617187 0.08570313 6.93359375 0.09765625 C6.93359375 1.74765625 6.93359375 3.39765625 6.93359375 5.09765625 C5.94359375 5.09765625 4.95359375 5.09765625 3.93359375 5.09765625 C3.93359375 4.10765625 3.93359375 3.11765625 3.93359375 2.09765625 C1.95359375 3.08765625 1.95359375 3.08765625 -0.06640625 4.09765625 C1.06796875 4.63390625 2.20234375 5.17015625 3.37109375 5.72265625 C6.33907307 7.41434426 6.82157127 7.79270617 8.05859375 11.16015625 C7.93359375 14.09765625 7.93359375 14.09765625 6.99609375 15.97265625 C3.64886414 17.79841785 0.70845505 17.34119569 -3.06640625 17.09765625 C-4.06640625 16.09765625 -4.06640625 16.09765625 -4.12890625 13.53515625 C-4.10828125 12.73078125 -4.08765625 11.92640625 -4.06640625 11.09765625 C-1.06640625 12.09765625 -1.06640625 12.09765625 -0.06640625 14.09765625 C0.92359375 14.09765625 1.91359375 14.09765625 2.93359375 14.09765625 C1.6002728 10.09769339 -0.56218895 9.25983288 -4.06640625 7.09765625 C-3.03063989 0.14322495 -3.03063989 0.14322495 0 0 Z " fill="#041F61" transform="translate(216.06640625,13.90234375)"/>
<path d="M0 0 C2.01822917 0.06510417 4.03645833 0.13020833 6.0546875 0.1953125 C6.3846875 1.8453125 6.7146875 3.4953125 7.0546875 5.1953125 C6.0646875 5.5253125 5.0746875 5.8553125 4.0546875 6.1953125 C3.7246875 5.2053125 3.3946875 4.2153125 3.0546875 3.1953125 C2.0646875 3.1953125 1.0746875 3.1953125 0.0546875 3.1953125 C-0.2753125 3.8553125 -0.6053125 4.5153125 -0.9453125 5.1953125 C-0.1821875 5.4840625 0.5809375 5.7728125 1.3671875 6.0703125 C6.62308827 8.27045701 6.62308827 8.27045701 7.9296875 11.0703125 C8.0546875 13.1953125 8.0546875 13.1953125 7.1796875 15.4453125 C3.82501306 18.20798557 0.23510883 17.510816 -3.9453125 17.1953125 C-3.9453125 15.5453125 -3.9453125 13.8953125 -3.9453125 12.1953125 C-3.3471875 12.5253125 -2.7490625 12.8553125 -2.1328125 13.1953125 C0.10855221 14.40319238 0.10855221 14.40319238 3.0546875 14.1953125 C3.3846875 13.5353125 3.7146875 12.8753125 4.0546875 12.1953125 C3.2915625 11.9271875 2.5284375 11.6590625 1.7421875 11.3828125 C-0.89391368 10.21802361 -2.29862755 9.53533848 -3.9453125 7.1953125 C-4.2578125 4.6328125 -4.2578125 4.6328125 -3.9453125 2.1953125 C-1.9453125 0.1953125 -1.9453125 0.1953125 0 0 Z " fill="#031E61" transform="translate(187.9453125,43.8046875)"/>
<path d="M0 0 C2.64 0 5.28 0 8 0 C7.79375 0.556875 7.5875 1.11375 7.375 1.6875 C6.89304789 4.659538 7.73434972 6.31979941 9 9 C10.74627478 6.38058783 11.38722388 4.96175123 12 2 C11.34 1.67 10.68 1.34 10 1 C11 0 11 0 14.0625 -0.0625 C15.5165625 -0.0315625 15.5165625 -0.0315625 17 0 C15.49637741 3.78716158 13.94512999 7.55245187 12.375 11.3125 C11.92898437 12.38113281 11.48296875 13.44976562 11.0234375 14.55078125 C10.51683594 15.76314453 10.51683594 15.76314453 10 17 C9.01 17 8.02 17 7 17 C6.66226563 16.10796875 6.32453125 15.2159375 5.9765625 14.296875 C5.53054687 13.12640625 5.08453125 11.9559375 4.625 10.75 C3.96371094 9.00976562 3.96371094 9.00976562 3.2890625 7.234375 C2.29409145 4.73790219 1.25589954 2.37095053 0 0 Z " fill="#051C66" transform="translate(137,44)"/>
<path d="M0 0 C0.99 0 1.98 0 3 0 C3 1.32 3 2.64 3 4 C4.65 3.67 6.3 3.34 8 3 C8 4.32 8 5.64 8 7 C6.35 7 4.7 7 3 7 C3.33 10.3 3.66 13.6 4 17 C5.32 17.33 6.64 17.66 8 18 C7.67 18.99 7.34 19.98 7 21 C4.125 21.125 4.125 21.125 1 21 C-1 19 -1 19 -1.1953125 16.1796875 C-1.16050781 14.54386719 -1.16050781 14.54386719 -1.125 12.875 C-1.10695312 11.77929688 -1.08890625 10.68359375 -1.0703125 9.5546875 C-1.04710937 8.71164063 -1.02390625 7.86859375 -1 7 C-1.99 7 -2.98 7 -4 7 C-4 6.34 -4 5.68 -4 5 C-3.01 4.34 -2.02 3.68 -1 3 C-0.67 2.01 -0.34 1.02 0 0 Z " fill="#021F65" transform="translate(144,10)"/>
<path d="M0 0 C0.99 0 1.98 0 3 0 C3 1.32 3 2.64 3 4 C4.98 3.67 6.96 3.34 9 3 C8.67 4.32 8.34 5.64 8 7 C6.35 7 4.7 7 3 7 C3.33 10.3 3.66 13.6 4 17 C5.65 17.33 7.3 17.66 9 18 C8.34 18.99 7.68 19.98 7 21 C4 21.375 4 21.375 1 21 C-1.28062828 17.57905758 -1.21925007 16.31812778 -1.125 12.3125 C-1.10695312 11.31863281 -1.08890625 10.32476562 -1.0703125 9.30078125 C-1.04710937 8.54152344 -1.02390625 7.78226563 -1 7 C-1.66 7 -2.32 7 -3 7 C-2.67 6.01 -2.34 5.02 -2 4 C-1.34 4 -0.68 4 0 4 C0 2.68 0 1.36 0 0 Z " fill="#041F63" transform="translate(228,10)"/>
<path d="M0 0 C0.99 0 1.98 0 3 0 C3 0.99 3 1.98 3 3 C4.65 2.67 6.3 2.34 8 2 C8 3.32 8 4.64 8 6 C6.35 6 4.7 6 3 6 C3.33 9.3 3.66 12.6 4 16 C5.65 16.33 7.3 16.66 9 17 C9 17.66 9 18.32 9 19 C6.42786866 20.61949011 5.32330841 21.04408751 2.25 20.625 C1.5075 20.41875 0.765 20.2125 0 20 C-1.00496852 16.98509443 -1.10335303 14.95818308 -1.0625 11.8125 C-1.05347656 10.91144531 -1.04445312 10.01039062 -1.03515625 9.08203125 C-1.02355469 8.39496094 -1.01195312 7.70789062 -1 7 C-1.66 6.67 -2.32 6.34 -3 6 C-3 5.34 -3 4.68 -3 4 C-2.01 4 -1.02 4 0 4 C0 2.68 0 1.36 0 0 Z " fill="#031F60" transform="translate(209,41)"/>
<path d="M0 0 C0.33 -0.33 0.66 -0.66 1 -1 C2.66617115 -1.04063832 4.33388095 -1.042721 6 -1 C5.67 0.65 5.34 2.3 5 4 C3.35 4 1.7 4 0 4 C-0.33 7.3 -0.66 10.6 -1 14 C-0.01 14 0.98 14 2 14 C2 14.66 2 15.32 2 16 C-0.97 16 -3.94 16 -7 16 C-7 15.34 -7 14.68 -7 14 C-6.34 14 -5.68 14 -5 14 C-5.14133499 12.22880197 -5.28823208 10.45804713 -5.4375 8.6875 C-5.51871094 7.70136719 -5.59992188 6.71523438 -5.68359375 5.69921875 C-5.91812559 2.90624401 -5.91812559 2.90624401 -7 0 C-3.80756358 -1.06414547 -3.07152658 -0.81907375 0 0 Z " fill="#041E60" transform="translate(177,45)"/>
<path d="M0 0 C2.90598539 0.54064844 4.84993077 0.22966066 7.6875 -0.5 C7.6875 1.15 7.6875 2.8 7.6875 4.5 C6.0375 4.5 4.3875 4.5 2.6875 4.5 C2.6875 7.47 2.6875 10.44 2.6875 13.5 C3.3475 13.83 4.0075 14.16 4.6875 14.5 C4.6875 15.16 4.6875 15.82 4.6875 16.5 C1.7175 16.5 -1.2525 16.5 -4.3125 16.5 C-4.3125 15.84 -4.3125 15.18 -4.3125 14.5 C-3.6525 14.5 -2.9925 14.5 -2.3125 14.5 C-2.45383499 12.72880197 -2.60073208 10.95804713 -2.75 9.1875 C-2.83121094 8.20136719 -2.91242188 7.21523438 -2.99609375 6.19921875 C-3.23062559 3.40624401 -3.23062559 3.40624401 -4.3125 0.5 C-2.3125 -0.5 -2.3125 -0.5 0 0 Z " fill="#051D66" transform="translate(131.3125,14.5)"/>
<path d="M0 0 C2.125 0.4375 2.125 0.4375 4 1 C4.33 0.67 4.66 0.34 5 0 C6.66617115 -0.04063832 8.33388095 -0.042721 10 0 C9.67 1.65 9.34 3.3 9 5 C7.35 4.67 5.7 4.34 4 4 C4 7.3 4 10.6 4 14 C4.66 14.33 5.32 14.66 6 15 C6 15.66 6 16.32 6 17 C3.36 17 0.72 17 -2 17 C-1.67 16.01 -1.34 15.02 -1 14 C-0.88259878 12.315429 -0.82493455 10.62611123 -0.8125 8.9375 C-0.79832031 8.05964844 -0.78414062 7.18179687 -0.76953125 6.27734375 C-0.77770564 3.80074945 -0.77770564 3.80074945 -3 2 C-2.01 1.34 -1.02 0.68 0 0 Z " fill="#041E63" transform="translate(255,14)"/>
<path d="M0 0 C0 4.95 0 9.9 0 15 C0.66 15 1.32 15 2 15 C2 15.66 2 16.32 2 17 C-0.64 17 -3.28 17 -6 17 C-6 16.34 -6 15.68 -6 15 C-5.34 15 -4.68 15 -4 15 C-4.11389875 13.20759337 -4.24147687 11.41605165 -4.375 9.625 C-4.44460937 8.62726562 -4.51421875 7.62953125 -4.5859375 6.6015625 C-4.76363964 3.84491121 -4.76363964 3.84491121 -7 2 C-4.35261084 0.5393715 -3.10551666 0 0 0 Z " fill="#012063" transform="translate(135,44)"/>
<path d="M0 0 C0.969375 0.144375 1.93875 0.28875 2.9375 0.4375 C3.57429688 0.52515625 4.21109375 0.6128125 4.8671875 0.703125 C6.33285618 0.90713749 7.79640976 1.12676418 9.2578125 1.359375 C14.18566966 2.06096822 17.25991892 1.7637511 22 0 C24.375 0.375 24.375 0.375 26 1 C25 3 25 3 22.34765625 4.109375 C18.89661603 5.02750472 16.00121593 5.26682983 12.4375 5.25 C11.34308594 5.25515625 10.24867187 5.2603125 9.12109375 5.265625 C5.96775744 4.99725595 3.77773469 4.50690851 1 3 C0.67 2.01 0.34 1.02 0 0 Z " fill="#021E67" transform="translate(21,50)"/>
<path d="M0 0 C0.04898438 0.99902344 0.09796875 1.99804688 0.1484375 3.02734375 C0.22320312 4.31769531 0.29796875 5.60804687 0.375 6.9375 C0.44460937 8.22527344 0.51421875 9.51304688 0.5859375 10.83984375 C0.72257813 11.88269531 0.85921875 12.92554688 1 14 C1.66 14.33 2.32 14.66 3 15 C3 15.66 3 16.32 3 17 C0.03 17 -2.94 17 -6 17 C-5.67 16.34 -5.34 15.68 -5 15 C-4.34 15 -3.68 15 -3 15 C-3.11347619 13.02013918 -3.2410935 11.04108402 -3.375 9.0625 C-3.44460937 7.96035156 -3.51421875 6.85820313 -3.5859375 5.72265625 C-3.72257813 4.82417969 -3.85921875 3.92570312 -4 3 C-4.66 2.67 -5.32 2.34 -6 2 C-3 0 -3 0 0 0 Z " fill="#022064" transform="translate(203,44)"/>
<path d="M0 0 C0 0.99 0 1.98 0 3 C-0.33 3.33 -0.66 3.66 -1 4 C-0.67 4 -0.34 4 0 4 C0 5.65 0 7.3 0 9 C-0.99 9.33 -1.98 9.66 -3 10 C-2.01 10.33 -1.02 10.66 0 11 C0 12.32 0 13.64 0 15 C-1.66611905 15.042721 -3.33382885 15.04063832 -5 15 C-6 14 -6 14 -6.0625 11.85546875 C-6.02101625 10.08463112 -5.9793512 8.31379773 -5.9375 6.54296875 C-5.99551496 4.18248515 -6.32781044 2.25288534 -7 0 C-2.25 -1.125 -2.25 -1.125 0 0 Z M-2 12 C-1 14 -1 14 -1 14 Z " fill="#011F67" transform="translate(65,26)"/>
<path d="M0 0 C0.66 0.33 1.32 0.66 2 1 C1.83701416 1.57975586 1.67402832 2.15951172 1.50610352 2.75683594 C0.72322444 6.22673123 0.89687641 9.712623 0.9375 13.25 C0.94201172 13.99507812 0.94652344 14.74015625 0.95117188 15.5078125 C0.96290754 17.3385764 0.9808415 19.16929873 1 21 C0.01 20.67 -0.98 20.34 -2 20 C-2.05407567 17.41638482 -2.093707 14.83390745 -2.125 12.25 C-2.14175781 11.52039062 -2.15851563 10.79078125 -2.17578125 10.0390625 C-2.21072239 6.1955376 -2.17499684 3.25393228 0 0 Z " fill="#041C6B" transform="translate(2,22)"/>
<path d="M0 0 C0.598125 0.165 1.19625 0.33 1.8125 0.5 C4.11344336 1.1114124 4.11344336 1.1114124 7 1 C5.6062718 5.43458973 3.39417765 7.87378374 0 11 C-0.99 9.02 -1.98 7.04 -3 5 C0 5 0 5 3 6 C2.67 5.01 2.34 4.02 2 3 C1.34 2.67 0.68 2.34 0 2 C0 1.34 0 0.68 0 0 Z " fill="#021F66" transform="translate(56,45)"/>
<path d="M0 0 C0.33 0 0.66 0 1 0 C1 2.97 1 5.94 1 9 C1.66 9 2.32 9 3 9 C3 9.66 3 10.32 3 11 C0.36 11 -2.28 11 -5 11 C-4.67 10.01 -4.34 9.02 -4 8 C-3.34 8 -2.68 8 -2 8 C-1.7834375 7.13375 -1.7834375 7.13375 -1.5625 6.25 C-1.04166667 4.16666667 -0.52083333 2.08333333 0 0 Z " fill="#021D6D" transform="translate(282,20)"/>
<path d="M0 0 C0.33 0 0.66 0 1 0 C1.28875 0.969375 1.5775 1.93875 1.875 2.9375 C2.64214682 6.10664203 2.64214682 6.10664203 5 7 C5 7.66 5 8.32 5 9 C2.03 9 -0.94 9 -4 9 C-4 8.34 -4 7.68 -4 7 C-3.34 6.67 -2.68 6.34 -2 6 C-1.27306096 4.02111039 -0.60183749 2.02045442 0 0 Z " fill="#011E6A" transform="translate(168,22)"/>
<path d="M0 0 C1.32 0.99 2.64 1.98 4 3 C3.67 4.32 3.34 5.64 3 7 C0.69 7 -1.62 7 -4 7 C-1.125 1.125 -1.125 1.125 0 0 Z " fill="#031F5F" transform="translate(9,15)"/>
<path d="M0 0 C2.31 0 4.62 0 7 0 C7 0.66 7 1.32 7 2 C6.319375 2.61875 6.319375 2.61875 5.625 3.25 C3.46013354 5.58139465 2.87294123 7.97828036 2 11 C1.34 10.01 0.68 9.02 0 8 C0.875 4.8125 0.875 4.8125 2 2 C1.34 2 0.68 2 0 2 C0 1.34 0 0.68 0 0 Z " fill="#0B1B5F" transform="translate(190,14)"/>
<path d="M0 0 C2.51083114 1.25541557 2.87125446 2.50063488 4 5 C3.360625 5.12375 2.72125 5.2475 2.0625 5.375 C1.0415625 5.684375 1.0415625 5.684375 0 6 C-0.33 6.66 -0.66 7.32 -1 8 C-3 5 -3 5 -3 2 C-2.01 1.34 -1.02 0.68 0 0 Z " fill="#041E66" transform="translate(11,47)"/>
<path d="M0 0 C2.64 0 5.28 0 8 0 C7.67 0.99 7.34 1.98 7 3 C6.34 3 5.68 3 5 3 C4.34 4.32 3.68 5.64 3 7 C0 2.25 0 2.25 0 0 Z " fill="#081F54" transform="translate(137,44)"/>
<path d="M0 0 C2.31 0 4.62 0 7 0 C7 1.98 7 3.96 7 6 C6.01 6 5.02 6 4 6 C4 4.68 4 3.36 4 2 C2.68 2 1.36 2 0 2 C0 1.34 0 0.68 0 0 Z " fill="#011D68" transform="translate(160,45)"/>
<path d="M0 0 C0.99 0.33 1.98 0.66 3 1 C2.34 2.32 1.68 3.64 1 5 C1.45375 4.505 1.9075 4.01 2.375 3.5 C4 2 4 2 6 2 C5.34 3.65 4.68 5.3 4 7 C2.35 6.67 0.7 6.34 -1 6 C-0.67 4.02 -0.34 2.04 0 0 Z " fill="#011F66" transform="translate(47,6)"/>
<path d="M0 0 C0.99 0.33 1.98 0.66 3 1 C3 2.65 3 4.3 3 6 C1.68 6 0.36 6 -1 6 C-1.042721 4.33388095 -1.04063832 2.66617115 -1 1 C-0.67 0.67 -0.34 0.34 0 0 Z " fill="#021E68" transform="translate(31,59)"/>
<path d="M0 0 C6.0546875 -0.1953125 6.0546875 -0.1953125 8 0 C8.66 0.66 9.32 1.32 10 2 C9.625 4.625 9.625 4.625 9 7 C8.62875 6.38125 8.2575 5.7625 7.875 5.125 C5.51377094 2.4489404 3.39868348 1.9063156 0 1 C0 0.67 0 0.34 0 0 Z " fill="#081C5D" transform="translate(113,14)"/>
<path d="M0 0 C1.32 0.66 2.64 1.32 4 2 C4 3.32 4 4.64 4 6 C3.01 6.495 3.01 6.495 2 7 C0.68 5.35 -0.64 3.7 -2 2 C-1.34 1.34 -0.68 0.68 0 0 Z M1 1 C2 3 2 3 2 3 Z " fill="#051C69" transform="translate(12,11)"/>
<path d="M0 0 C1.32 0.99 2.64 1.98 4 3 C3.67 4.32 3.34 5.64 3 7 C2.01 7 1.02 7 0 7 C-0.66 5.35 -1.32 3.7 -2 2 C-1.34 1.34 -0.68 0.68 0 0 Z M1 4 C1.33 4.66 1.66 5.32 2 6 C2.33 5.34 2.66 4.68 3 4 C2.34 4 1.68 4 1 4 Z " fill="#001F64" transform="translate(17,7)"/>
<path d="M0 0 C0.99 0 1.98 0 3 0 C3.33 1.65 3.66 3.3 4 5 C2.02 5.99 2.02 5.99 0 7 C0 4.69 0 2.38 0 0 Z " fill="#011F66" transform="translate(35,59)"/>
<path d="M0 0 C0.66 0 1.32 0 2 0 C3.5625 2.8125 3.5625 2.8125 5 6 C4.67 6.99 4.34 7.98 4 9 C1.49701566 6.06171403 0.53069061 3.82097239 0 0 Z " fill="#042158" transform="translate(1,43)"/>
<path d="M0 0 C1.98 0.495 1.98 0.495 4 1 C3.67 2.32 3.34 3.64 3 5 C1.68 4.67 0.36 4.34 -1 4 C-0.67 2.68 -0.34 1.36 0 0 Z " fill="#071F59" transform="translate(200,37)"/>
<path d="M0 0 C1.5625 1.125 1.5625 1.125 3 3 C2.6875 6.1875 2.6875 6.1875 2 9 C1.34 8.67 0.68 8.34 0 8 C0 5.36 0 2.72 0 0 Z " fill="#002169" transform="translate(197,17)"/>
<path d="M0 0 C1.98 0.495 1.98 0.495 4 1 C3.67 2.32 3.34 3.64 3 5 C1.68 4.34 0.36 3.68 -1 3 C-0.67 2.01 -0.34 1.02 0 0 Z " fill="#081B5E" transform="translate(131,37)"/>
<path d="M0 0 C-1 3 -1 3 -3 4 C-5.3329866 4.04022391 -7.66706666 4.04320247 -10 4 C-7.25346796 1.25346796 -3.91404908 0 0 0 Z " fill="#051D68" transform="translate(251,27)"/>
<path d="M0 0 C0.66 0 1.32 0 2 0 C2 0.99 2 1.98 2 3 C2.66 3.66 3.32 4.32 4 5 C1.69 5 -0.62 5 -3 5 C-1.125 1.125 -1.125 1.125 0 0 Z " fill="#061D61" transform="translate(60,19)"/>
<path d="M0 0 C1.98 0.66 3.96 1.32 6 2 C6 2.66 6 3.32 6 4 C4.02 4.66 2.04 5.32 0 6 C0 4.02 0 2.04 0 0 Z " fill="#021E65" transform="translate(3,30)"/>
<path d="M0 0 C1.65 0 3.3 0 5 0 C4.67 1.65 4.34 3.3 4 5 C3.34 5 2.68 5 2 5 C1.34 3.35 0.68 1.7 0 0 Z " fill="#061A6C" transform="translate(190,45)"/>
<path d="M0 0 C0.99 0 1.98 0 3 0 C2.67 1.98 2.34 3.96 2 6 C1.01 5.67 0.02 5.34 -1 5 C-0.67 3.35 -0.34 1.7 0 0 Z " fill="#01235D" transform="translate(26,59)"/>
<path d="M0 0 C2.97 0.495 2.97 0.495 6 1 C5.67 1.99 5.34 2.98 5 4 C2.525 3.01 2.525 3.01 0 2 C0 1.34 0 0.68 0 0 Z " fill="#011F65" transform="translate(58,41)"/>
<path d="M0 0 C2.1385485 2.1385485 2.42655063 3.13275314 3 6 C2.01 6.495 2.01 6.495 1 7 C0.34 5.02 -0.32 3.04 -1 1 C-0.67 0.67 -0.34 0.34 0 0 Z " fill="#002067" transform="translate(40,58)"/>
<path d="M0 0 C0 1.32 0 2.64 0 4 C-1.32 3.67 -2.64 3.34 -4 3 C-4 2.34 -4 1.68 -4 1 C-2 0 -2 0 0 0 Z " fill="#002062" transform="translate(56,31)"/>
<path d="M0 0 C0.99 0.33 1.98 0.66 3 1 C2.34 1.66 1.68 2.32 1 3 C0.67 2.01 0.34 1.02 0 0 Z " fill="#051C69" transform="translate(49,57)"/>
<path d="M0 0 C0.66 0 1.32 0 2 0 C1.67 0.99 1.34 1.98 1 3 C0.34 2.34 -0.32 1.68 -1 1 C-0.67 0.67 -0.34 0.34 0 0 Z " fill="#081C63" transform="translate(18,57)"/>
</svg>
