<?xml version="1.0" encoding="UTF-8"?>
<svg version="1.1" xmlns="http://www.w3.org/2000/svg" width="440" height="150">
<path d="M0 0 C49.5 0 99 0 150 0 C150 49.5 150 99 150 150 C100.5 150 51 150 0 150 C0 100.5 0 51 0 0 Z " fill="#021A55" transform="translate(0,0)"/>
<path d="M0 0 C6.6 0 13.2 0 20 0 C21.65 2.64 23.3 5.28 25 8 C26.45165284 10.06581366 27.84306546 11.84306546 29.625 13.625 C31 15 31 15 32 17 C33.49495259 19.13564656 34.96602502 20.96829002 36.875 22.75 C39.31521329 25.33375525 41.00270393 28.07727803 42.83984375 31.10546875 C44.53447108 33.87278948 46.33088065 36.33088065 48.625 38.625 C50 40 50 40 51 42 C52.56633838 44.17925339 54.09894521 46.09894521 56 48 C56.33 32.16 56.66 16.32 57 0 C63.6 0 70.2 0 77 0 C77 28.38 77 56.76 77 86 C71.39 86 65.78 86 60 86 C58.68 84.68 57.36 83.36 56 82 C55.443125 81.46375 54.88625 80.9275 54.3125 80.375 C53 79 53 79 52 77 C51.4225 76.46375 50.845 75.9275 50.25 75.375 C47.75311378 72.73939788 46.03572458 69.98606436 44.16015625 66.89453125 C42.46552892 64.12721052 40.66911935 61.66911935 38.375 59.375 C37 58 37 58 36 56 C34.44745131 53.7820733 32.91533652 51.92046764 30.9375 50.0625 C28.81093614 47.79873847 28.10386467 45.87004814 27 43 C25.60411246 41.35405861 25.60411246 41.35405861 24 40 C23.01 39.01 22.02 38.02 21 37 C20.67 53.5 20.34 70 20 87 C13.4 87 6.8 87 0 87 C0 58.29 0 29.58 0 0 Z " fill="#021A54" transform="translate(188,31)"/>
<path d="M0 0 C6.93 0 13.86 0 21 0 C20.99476318 1.62534668 20.98952637 3.25069336 20.98413086 4.92529297 C20.96607407 10.93733167 20.95456548 16.94936796 20.94506836 22.96142578 C20.9400297 25.56689863 20.9331987 28.17236863 20.92456055 30.77783203 C20.91247456 34.51595764 20.90676712 38.25404597 20.90234375 41.9921875 C20.89718246 43.16304901 20.89202118 44.33391052 20.88670349 45.54025269 C20.88662796 46.62122223 20.88655243 47.70219177 20.88647461 48.81591797 C20.88314369 50.24821243 20.88314369 50.24821243 20.87974548 51.70944214 C20.8485755 54.030239 20.8485755 54.030239 22 56 C21.67 56.66 21.34 57.32 21 58 C21.66 58 22.32 58 23 58 C23.33 59.65 23.66 61.3 24 63 C24.66 63 25.32 63 26 63 C26.99 64.485 26.99 64.485 28 66 C29.485 66.495 29.485 66.495 31 67 C31 67.66 31 68.32 31 69 C38.51538124 68.97708725 44.39220304 68.72057314 50.4140625 63.9609375 C55.73575135 57.38091828 55.46731223 50.39468243 55.51171875 42.28515625 C55.52966995 41.07427841 55.54762115 39.86340057 55.56611633 38.61582947 C55.62011128 34.7647546 55.65408149 30.91380295 55.6875 27.0625 C55.72068249 24.44464436 55.75517301 21.82680495 55.79101562 19.20898438 C55.87583209 12.80607861 55.94269564 6.40320871 56 0 C62.27 0 68.54 0 75 0 C75 21.12 75 42.24 75 64 C74.34 64 73.68 64 73 64 C73.33 64.99 73.66 65.98 74 67 C72.39893053 72.52133517 69.13773719 76.21365194 64.68359375 79.67578125 C62.96428963 80.96025257 62.96428963 80.96025257 61.53515625 82.55859375 C59.77519477 84.21107667 58.25569949 84.91265701 56 85.75 C54.9790625 86.14445312 54.9790625 86.14445312 53.9375 86.546875 C52 87 52 87 49 86 C48.67 86.66 48.34 87.32 48 88 C19.74430558 88.33906833 19.74430558 88.33906833 11.1796875 80.2890625 C9.69495182 78.58049733 8.34729416 76.81757608 7 75 C5.88625 73.8553125 5.88625 73.8553125 4.75 72.6875 C-1.19196764 63.56233541 -0.14837181 49.47008907 -0.09765625 38.96484375 C-0.0962413 37.84557999 -0.09482635 36.72631622 -0.09336853 35.57313538 C-0.08780879 32.02789542 -0.07526385 28.48272059 -0.0625 24.9375 C-0.05747979 22.52148529 -0.0529178 20.10546959 -0.04882812 17.68945312 C-0.03785257 11.79294398 -0.02061596 5.896483 0 0 Z " fill="#021A55" transform="translate(365,31)"/>
<path d="M0 0 C21.31937133 -2.11839943 21.31937133 -2.11839943 27.12890625 2.47265625 C29.15266878 5.90283154 30.59043181 9.27810645 32 13 C33.23195302 15.18900744 34.50139512 17.35746276 35.8125 19.5 C36.35519531 20.4384375 36.89789063 21.376875 37.45703125 22.34375 C38.94797097 24.91043104 40.46675782 27.45840936 42 30 C45.55669266 28.81443578 45.67419662 28.26591795 47.3125 25.0625 C49.19182482 21.5088676 51.12926319 18.01632177 53.1875 14.5625 C53.67605469 13.73878906 54.16460937 12.91507813 54.66796875 12.06640625 C56 10 56 10 58 8 C58.33 7.01 58.66 6.02 59 5 C59.66 4.34 60.32 3.68 61 3 C61.33 2.01 61.66 1.02 62 0 C69.92 0 77.84 0 86 0 C84.76742486 4.93030055 82.59160978 8.40839022 79 12 C78.731875 12.7425 78.46375 13.485 78.1875 14.25 C76.95556286 17.10290705 75.3361524 19.00513286 73.296875 21.3203125 C71.42747722 23.74152047 70.23321272 26.38389889 68.9921875 29.16796875 C67.90747949 31.17083511 66.60296363 32.39703637 65 34 C63.97708843 35.83264869 63.97708843 35.83264869 63.125 37.8125 C61.79466954 40.60619397 60.42011147 42.86569698 58.375 45.1875 C54.18577503 50.1484243 53.6879367 54.58657994 53.5859375 60.92578125 C53.56657135 61.67337204 53.5472052 62.42096283 53.5272522 63.19120789 C53.46776082 65.56485806 53.42119408 67.93855754 53.375 70.3125 C53.33679211 71.92775482 53.29773875 73.54298987 53.2578125 75.15820312 C53.16050195 79.10536238 53.08069478 83.05232655 53 87 C46.4 86.67 39.8 86.34 33 86 C32.99613281 82.58333984 32.99613281 82.58333984 32.9921875 79.09765625 C32.96929677 76.86335788 32.93629102 74.62941828 32.90234375 72.39526367 C32.88430448 70.85628868 32.87659313 69.31715337 32.87988281 67.77807617 C32.89213245 58.34279367 32.46554974 51.39943939 26 44 C24.846546 42.21322992 23.69933485 40.42238977 22.5625 38.625 C21.97597656 37.69945312 21.38945312 36.77390625 20.78515625 35.8203125 C20.19605469 34.88960937 19.60695313 33.95890625 19 33 C17.83383755 31.1663459 16.66717349 29.33301071 15.5 27.5 C14.63761719 26.14261719 14.63761719 26.14261719 13.7578125 24.7578125 C12.57047109 22.89500576 11.37761516 21.03570417 10.1796875 19.1796875 C0 3.35930736 0 3.35930736 0 0 Z " fill="#031A54" transform="translate(273,31)"/>
<path d="M0 0 C3.30751642 2.61806229 3.88551401 5.41447212 4.8125 9.4375 C5.22435547 11.13712891 5.22435547 11.13712891 5.64453125 12.87109375 C6.02692611 16.23700899 5.94643541 17.30271413 4 20 C2.74810556 21.28983064 1.45229798 22.53790147 0.125 23.75 C-5.90682533 29.72699055 -8.20596596 34.08729767 -8.3125 42.6875 C-8.22384739 46.58354911 -7.86714794 50.20005902 -7 54 C-12.41494708 50.77681721 -17.13415436 46.73169127 -20 41 C-21.04962418 33.20279183 -19.32097378 27.48146068 -15 21 C-12.5262175 17.90574418 -9.97748519 14.91152396 -7.3828125 11.91796875 C-4.34791439 8.20146237 -2.07022559 4.31478596 0 0 Z " fill="#F4F8FA" transform="translate(77,24)"/>
<path d="M0 0 C2.18740911 4.37481823 0.04145545 10.42172059 -1 15 C-3.91320248 23.14820542 -7.63309489 27.64858956 -15.25 31.75 C-19.83626481 33.27875494 -24.1949324 33.71962382 -29 34 C-28.57426614 27.18825825 -26.31156668 22.06871845 -21.2421875 17.37109375 C-17.62235348 14.56462325 -13.79681494 12.3096062 -9.8125 10.0625 C-5.13939329 7.34792183 -2.76607987 4.61013312 0 0 Z " fill="#F6F9FB" transform="translate(105,45)"/>
<path d="M0 0 C2 1 2 1 3.125 3.3125 C5.60603947 13.76830919 5.60603947 13.76830919 4 19 C0.98552308 21.58571242 -2.22809442 23.38363231 -5.72265625 25.21484375 C-13.50602464 29.4544139 -16.21997296 35.87250918 -19 44 C-20.97041001 40.68971119 -21.32536463 38.08185051 -21.375 34.25 C-21.40335937 33.26515625 -21.43171875 32.2803125 -21.4609375 31.265625 C-20.36825476 23.52424556 -16.09691212 18.57117563 -10.5 13.4375 C-5.99116927 9.27117682 -2.82167655 5.48428801 0 0 Z " fill="#F2F8FB" transform="translate(92,33)"/>
<path d="M0 0 C3.50839061 2.71102911 4.37526398 5.69626299 5 10 C4.23046875 12.10546875 4.23046875 12.10546875 3.125 14.3125 C0.63788337 19.27827369 0.11580332 23.51251135 1 29 C2.94253506 34.8161109 7.25630115 38.36227588 12 42 C6.96865715 43.70810023 2.77150173 41.86677259 -2 40 C-6.69623325 37.20224402 -8.33503558 34.17015267 -10 29 C-10.74487943 22.38712595 -8.48071914 17.98016019 -5.5625 12.25 C-4.72929935 10.5682872 -3.89721879 8.88601887 -3.06640625 7.203125 C-2.69459229 6.46739258 -2.32277832 5.73166016 -1.93969727 4.97363281 C-0.88863848 2.86976346 -0.88863848 2.86976346 0 0 Z " fill="#F2F7F9" transform="translate(54,36)"/>
<path d="M0 0 C4.29 0 8.58 0 13 0 C11.35 13.86 9.7 27.72 8 42 C6.68 41.67 5.36 41.34 4 41 C2.68 27.47 1.36 13.94 0 0 Z " fill="#F3FAFC" transform="translate(65,91)"/>
<path d="M0 0 C6.93 0 13.86 0 21 0 C21 1.98 21 3.96 21 6 C14.07 6 7.14 6 0 6 C0 4.02 0 2.04 0 0 Z " fill="#F6FBFE" transform="translate(61,82)"/>
<path d="M0 0 C0.33 0 0.66 0 1 0 C1.12375 0.804375 1.2475 1.60875 1.375 2.4375 C1.58125 3.283125 1.7875 4.12875 2 5 C2.66 5.33 3.32 5.66 4 6 C4 6.66 4 7.32 4 8 C2.09375 9.296875 2.09375 9.296875 -0.5 10.75 C-9.6443699 16.13056277 -14.86328007 19.93663324 -19 30 C-19.66 30 -20.32 30 -21 30 C-21.66 31.32 -22.32 32.64 -23 34 C-22.36093324 26.33119893 -20.05876302 20.58944672 -14.3125 15.3125 C-11.38800358 12.87725204 -8.47449908 11.1679677 -5.0625 9.5 C-2.80008073 8.41655035 -2.80008073 8.41655035 -1 7 C0.2180773 3.33515719 0.2180773 3.33515719 0 0 Z " fill="#14133F" transform="translate(96,45)"/>
<path d="M0 0 C0.85078125 0.36931641 0.85078125 0.36931641 1.71875 0.74609375 C1.11546875 1.30296875 0.5121875 1.85984375 -0.109375 2.43359375 C-8.58924946 10.42821379 -8.58924946 10.42821379 -11.44140625 21.2890625 C-11.41852173 23.78347531 -11.34927011 26.27803335 -11.2265625 28.76953125 C-11.28125 31.74609375 -11.28125 31.74609375 -13.28125 33.74609375 C-16.45558923 28.51478269 -15.82766177 22.65017939 -15.28125 16.74609375 C-13.80076167 10.86388507 -6.60225851 -0.73484042 0 0 Z " fill="#14163C" transform="translate(83.28125,43.25390625)"/>
<path d="M0 0 C0.66 0.33 1.32 0.66 2 1 C1.65066406 1.54269531 1.30132812 2.08539063 0.94140625 2.64453125 C0.48636719 3.35996094 0.03132813 4.07539062 -0.4375 4.8125 C-0.88996094 5.52019531 -1.34242187 6.22789063 -1.80859375 6.95703125 C-4.56709875 11.68718901 -4.86541953 16.67373617 -4 22 C-2.3385405 25.00952993 -0.26890025 27.43570277 2 30 C2.33 30.66 2.66 31.32 3 32 C1.515 32.495 1.515 32.495 0 33 C-1.15147661 31.73427767 -2.29599314 30.46222094 -3.4375 29.1875 C-4.07558594 28.47980469 -4.71367188 27.77210937 -5.37109375 27.04296875 C-8.37115551 23.28030136 -8.38955026 19.4759248 -8.35546875 14.84765625 C-7.72990796 9.83629567 -5.72795795 5.23409812 -3 1 C-2.01 0.67 -1.02 0.34 0 0 Z " fill="#171842" transform="translate(62,43)"/>
<path d="M0 0 C1.65 0.33 3.3 0.66 5 1 C5 2.32 5 3.64 5 5 C11.93 5.495 11.93 5.495 19 6 C19 6.33 19 6.66 19 7 C12.07 7 5.14 7 -2 7 C-2 8.98 -2 10.96 -2 13 C-2.33 13 -2.66 13 -3 13 C-3.1953125 6.9453125 -3.1953125 6.9453125 -3 5 C-2.34 4.34 -1.68 3.68 -1 3 C-0.01 3 0.98 3 2 3 C1.34 2.67 0.68 2.34 0 2 C0 1.34 0 0.68 0 0 Z " fill="#263867" transform="translate(63,75)"/>
<path d="M0 0 C0.33 0 0.66 0 1 0 C1.17102725 4.37484059 1.33598883 8.74989121 1.5 13.125 C1.54769531 14.34316406 1.59539062 15.56132813 1.64453125 16.81640625 C1.91836987 24.21004888 2.02759837 31.57371581 1.91992188 38.97216797 C1.99421658 41.78132329 2.35334527 44.27200461 3 47 C2.01 47.66 1.02 48.32 0 49 C0 32.83 0 16.66 0 0 Z " fill="#01094E" transform="translate(365,32)"/>
<path d="M0 0 C0.33 0 0.66 0 1 0 C1.12375 0.804375 1.2475 1.60875 1.375 2.4375 C1.58125 3.283125 1.7875 4.12875 2 5 C2.66 5.33 3.32 5.66 4 6 C4 6.66 4 7.32 4 8 C1.953125 9.4375 1.953125 9.4375 -0.75 11 C-1.63171875 11.515625 -2.5134375 12.03125 -3.421875 12.5625 C-5.5901988 13.77150479 -7.76767294 14.91513077 -10 16 C-10 14.68 -10 13.36 -10 12 C-9.36191406 11.72027344 -8.72382812 11.44054688 -8.06640625 11.15234375 C-5.52038192 9.91706518 -3.2529223 8.71732191 -1 7 C0.2180773 3.33515719 0.2180773 3.33515719 0 0 Z " fill="#232346" transform="translate(96,45)"/>
<path d="M0 0 C0.99 0 1.98 0 3 0 C3 5.28 3 10.56 3 16 C2.01 16 1.02 16 0 16 C0 10.72 0 5.44 0 0 Z " fill="#03133B" transform="translate(205,80)"/>
<path d="M0 0 C0.66 0 1.32 0 2 0 C2.33 2.31 2.66 4.62 3 7 C3.66 7 4.32 7 5 7 C5 9.64 5 12.28 5 15 C3.68 14.67 2.36 14.34 1 14 C0.67 9.38 0.34 4.76 0 0 Z " fill="#DBE6F1" transform="translate(68,118)"/>
<path d="M0 0 C5.94 0 11.88 0 18 0 C18 0.33 18 0.66 18 1 C12.35600642 3.44064587 7.02248522 3.19289099 1 3 C0.67 2.01 0.34 1.02 0 0 Z " fill="#070F31" transform="translate(64,88)"/>
<path d="M0 0 C0.99 0.66 1.98 1.32 3 2 C3.66 1.34 4.32 0.68 5 0 C5 1.32 5 2.64 5 4 C6.65 4 8.3 4 10 4 C9.67 4.66 9.34 5.32 9 6 C7.56260487 6.02712066 6.12506137 6.04645067 4.6875 6.0625 C3.48673828 6.07990234 3.48673828 6.07990234 2.26171875 6.09765625 C0 6 0 6 -3 5 C-2 2 -2 2 0 0 Z " fill="#041744" transform="translate(71,75)"/>
<path d="M0 0 C2.45898655 -0.08076963 4.91533742 -0.14037143 7.375 -0.1875 C8.07367188 -0.21263672 8.77234375 -0.23777344 9.4921875 -0.26367188 C11.5234375 -0.29296875 11.5234375 -0.29296875 15 0 C15.66 0.99 16.32 1.98 17 3 C11.21408489 3.10477512 5.70690634 2.99250545 0 2 C0 1.34 0 0.68 0 0 Z " fill="#071847" transform="translate(391,116)"/>
<path d="M0 0 C0.33 0 0.66 0 1 0 C1.33 4.29 1.66 8.58 2 13 C1.01 13 0.02 13 -1 13 C-1.02696365 11.20841511 -1.04637917 9.41671527 -1.0625 7.625 C-1.07410156 6.62726563 -1.08570313 5.62953125 -1.09765625 4.6015625 C-1 2 -1 2 0 0 Z " fill="#162150" transform="translate(65,94)"/>
<path d="M0 0 C1.32 0.33 2.64 0.66 4 1 C3.34 2.65 2.68 4.3 2 6 C1.34 6 0.68 6 0 6 C-0.66 7.32 -1.32 8.64 -2 10 C-1.54177532 6.53058454 -1.10868317 3.32604951 0 0 Z " fill="#1C1E43" transform="translate(75,69)"/>
<path d="M0 0 C0.66 0.99 1.32 1.98 2 3 C1.34 3 0.68 3 0 3 C-0.04125 3.7425 -0.0825 4.485 -0.125 5.25 C-1.34857383 9.09551776 -3.59346582 10.04305483 -7 12 C-5.61735163 9.13132769 -4.07851447 6.43975968 -2.375 3.75 C-1.92898437 3.04359375 -1.48296875 2.3371875 -1.0234375 1.609375 C-0.68570313 1.07828125 -0.34796875 0.5471875 0 0 Z " fill="#091542" transform="translate(102,63)"/>
<path d="M0 0 C0.33 0 0.66 0 1 0 C1.22151549 1.79008467 1.42682213 3.58218162 1.625 5.375 C1.74101563 6.37273437 1.85703125 7.37046875 1.9765625 8.3984375 C1.98429687 9.25695312 1.99203125 10.11546875 2 11 C1.34 11.66 0.68 12.32 0 13 C-1.94522377 9.54182441 -2.08254219 7.43122397 -1.125 3.6875 C-0.75375 2.470625 -0.3825 1.25375 0 0 Z " fill="#232D51" transform="translate(70,64)"/>
<path d="M0 0 C0.33 0.66 0.66 1.32 1 2 C3.64 1.67 6.28 1.34 9 1 C9.33 1.66 9.66 2.32 10 3 C6.7 3.33 3.4 3.66 0 4 C0 2.68 0 1.36 0 0 Z " fill="#D1DDEB" transform="translate(76,75)"/>
<path d="M0 0 C1.98 0.99 1.98 0.99 4 2 C4 4.31 4 6.62 4 9 C3.34 9 2.68 9 2 9 C1.34 6.03 0.68 3.06 0 0 Z " fill="#081C42" transform="translate(79,25)"/>
<path d="M0 0 C1.67542976 0.28604898 3.34385343 0.61781233 5 1 C4.34 3.31 3.68 5.62 3 8 C1 5 1 5 1 2 C0.34 1.67 -0.32 1.34 -1 1 C-0.67 0.67 -0.34 0.34 0 0 Z " fill="#071946" transform="translate(77,89)"/>
<path d="M0 0 C0.33 0 0.66 0 1 0 C1.66 4.62 2.32 9.24 3 14 C1.68 13.34 0.36 12.68 -1 12 C-0.67 8.04 -0.34 4.08 0 0 Z " fill="#C0C8DA" transform="translate(67,64)"/>
<path d="M0 0 C0.99 0 1.98 0 3 0 C2.34 3.63 1.68 7.26 1 11 C0.67 11 0.34 11 0 11 C0 7.37 0 3.74 0 0 Z " fill="#091133" transform="translate(68,61)"/>
<path d="M0 0 C0.80566406 0.17144531 1.61132812 0.34289062 2.44140625 0.51953125 C4.4375 1.1875 4.4375 1.1875 5.4375 3.1875 C3.99913249 3.07291307 2.56179034 2.94540884 1.125 2.8125 C0.32449219 2.74289063 -0.47601563 2.67328125 -1.30078125 2.6015625 C-3.5625 2.1875 -3.5625 2.1875 -6.5625 0.1875 C-3.9640401 -1.11172995 -2.80288549 -0.62536289 0 0 Z " fill="#C6D2E7" transform="translate(60.5625,75.8125)"/>
<path d="M0 0 C0.66 0 1.32 0 2 0 C1.69381595 3.67420866 1.24228216 4.78135513 -1.5625 7.3125 C-2.366875 7.869375 -3.17125 8.42625 -4 9 C-4 8.01 -4 7.02 -4 6 C-3.34 5.67 -2.68 5.34 -2 5 C-1.27840576 3.35636866 -0.60648579 1.68949614 0 0 Z " fill="#0F1947" transform="translate(69,32)"/>
<path d="M0 0 C5.445 1.485 5.445 1.485 11 3 C7 5 7 5 5 5 C5 4.34 5 3.68 5 3 C3.35 2.67 1.7 2.34 0 2 C0 1.34 0 0.68 0 0 Z " fill="#04133C" transform="translate(50,75)"/>
<path d="M0 0 C1.6415049 3.2830098 0.51888624 6.42545033 0 10 C-0.33 9.01 -0.66 8.02 -1 7 C-1.99 6.67 -2.98 6.34 -4 6 C-2.68 4.02 -1.36 2.04 0 0 Z " fill="#D4E6F3" transform="translate(105,45)"/>
<path d="M0 0 C0.66 0.33 1.32 0.66 2 1 C2.625 3.5625 2.625 3.5625 3 6 C1.02 6.33 -0.96 6.66 -3 7 C-1.125 2.25 -1.125 2.25 0 0 Z " fill="#DEEBF5" transform="translate(92,33)"/>
<path d="M0 0 C0.33 0.66 0.66 1.32 1 2 C1.66 2 2.32 2 3 2 C3.33 4.31 3.66 6.62 4 9 C0.06153846 5.67692308 0.06153846 5.67692308 -0.25 2.25 C-0.1675 1.5075 -0.085 0.765 0 0 Z " fill="#061942" transform="translate(233,95)"/>
<path d="M0 0 C1.65 1.65 3.3 3.3 5 5 C4.01 5.33 3.02 5.66 2 6 C0.68 4.35 -0.64 2.7 -2 1 C-1.34 0.67 -0.68 0.34 0 0 Z " fill="#0E1030" transform="translate(60,70)"/>
<path d="M0 0 C0.33 0 0.66 0 1 0 C1 2.31 1 4.62 1 7 C-0.32 6.67 -1.64 6.34 -3 6 C-2.01 4.02 -1.02 2.04 0 0 Z " fill="#212747" transform="translate(71,54)"/>
<path d="M0 0 C1.50559539 1.96382007 2.89131683 3.78263366 4 6 C2.35 6.33 0.7 6.66 -1 7 C-1.04254356 5.00045254 -1.04080783 2.99958364 -1 1 C-0.67 0.67 -0.34 0.34 0 0 Z " fill="#011642" transform="translate(217,44)"/>
<path d="" fill="#FDFCFF" transform="translate(0,0)"/>
<path d="" fill="#93A0D2" transform="translate(0,0)"/>
<path d="" fill="#000838" transform="translate(0,0)"/>
<path d="" fill="#132B4E" transform="translate(0,0)"/>
<path d="" fill="#122467" transform="translate(0,0)"/>
<path d="" fill="#29425E" transform="translate(0,0)"/>
<path d="" fill="#0E184B" transform="translate(0,0)"/>
<path d="" fill="#06113F" transform="translate(0,0)"/>
<path d="" fill="#092741" transform="translate(0,0)"/>
<path d="" fill="#000C2E" transform="translate(0,0)"/>
<path d="" fill="#0B1642" transform="translate(0,0)"/>
<path d="" fill="#142554" transform="translate(0,0)"/>
<path d="" fill="#183141" transform="translate(0,0)"/>
<path d="" fill="#224160" transform="translate(0,0)"/>
<path d="" fill="#162F5B" transform="translate(0,0)"/>
<path d="" fill="#0A264A" transform="translate(0,0)"/>
<path d="" fill="#102C47" transform="translate(0,0)"/>
<path d="" fill="#051451" transform="translate(0,0)"/>
<path d="" fill="#071847" transform="translate(0,0)"/>
<path d="" fill="#154869" transform="translate(0,0)"/>
<path d="" fill="#000C33" transform="translate(0,0)"/>
<path d="" fill="#233B60" transform="translate(0,0)"/>
<path d="" fill="#183677" transform="translate(0,0)"/>
<path d="" fill="#05132A" transform="translate(0,0)"/>
<path d="" fill="#031145" transform="translate(0,0)"/>
<path d="" fill="#0C1E45" transform="translate(0,0)"/>
<path d="" fill="#1F2E52" transform="translate(0,0)"/>
<path d="" fill="#071F50" transform="translate(0,0)"/>
<path d="" fill="#233F55" transform="translate(0,0)"/>
</svg>
