<?xml version="1.0" encoding="UTF-8"?>
<svg version="1.1" xmlns="http://www.w3.org/2000/svg" width="986" height="150">
<path d="M0 0 C0.53546951 0.67446671 1.07093903 1.34893341 1.62263489 2.0438385 C4.14225881 5.04096161 6.51993063 7.21453874 9.81062317 9.32752991 C16.61594241 14.07320044 21.84319178 19.35898256 23.52565002 27.72834778 C25.21920677 38.81377901 25.01525989 50.07173502 24.76863098 61.25135803 C24.68322058 65.28139731 24.69649056 69.29033374 24.80769348 73.31971741 C25.33450409 92.68280853 25.80064943 111.49066065 11.80839539 126.39951897 C2.79195115 135.31732982 -6.1805498 140.40297554 -19.12809753 141.05189514 C-24.05757126 141.0230899 -28.91697179 140.65351394 -33.82731628 140.24720764 C-36.3640027 140.15072357 -38.90116604 140.06603842 -41.43864441 139.99330139 C-59.01988426 139.29504 -59.01988426 139.29504 -63.62101746 136.45472717 C-65.69589914 134.17307953 -67.60421997 131.79229631 -69.51481628 129.37220764 C-70.99981628 128.38220764 -70.99981628 128.38220764 -72.51481628 127.37220764 C-72.51481628 126.71220764 -72.51481628 126.05220764 -72.51481628 125.37220764 C-73.17481628 125.37220764 -73.83481628 125.37220764 -74.51481628 125.37220764 C-76.06559753 123.83314514 -76.06559753 123.83314514 -77.82731628 121.74720764 C-78.4009491 121.07431702 -78.97458191 120.40142639 -79.56559753 119.70814514 C-80.20883972 118.93728577 -80.85208191 118.16642639 -81.51481628 117.37220764 C-82.78513451 116.07032501 -82.78513451 116.07032501 -84.08111572 114.74214172 C-87.04013322 111.16590276 -87.32187659 107.63762619 -87.40324402 103.11732483 C-87.43598419 102.30965164 -87.46872437 101.50197845 -87.50245667 100.66983032 C-87.59906798 98.00275424 -87.65433756 95.33752367 -87.69841003 92.66908264 C-87.72366099 91.28626476 -87.72366099 91.28626476 -87.74942207 89.87551117 C-87.83060271 84.97598272 -87.87424016 80.0775228 -87.89299011 75.17738342 C-87.91557569 71.1709444 -88.01192121 67.17746202 -88.17814636 63.17445374 C-89.66460004 26.23783457 -89.66460004 26.23783457 -77.51045227 12.12368774 C-68.30845781 2.36900435 -58.73275594 -3.5878905 -45.04997253 -4.42076111 C-40.19965512 -4.4531888 -35.41350863 -4.15533967 -30.57731628 -3.81529236 C-28.07178356 -3.74138523 -25.56586711 -3.67948644 -23.05973816 -3.62974548 C-2.89424811 -3.11010319 -2.89424811 -3.11010319 0 0 Z M-56.51481628 1.37220764 C-56.51481628 2.36220764 -56.51481628 3.35220764 -56.51481628 4.37220764 C-55.93504532 4.33810287 -55.35527435 4.30399811 -54.75793457 4.26885986 C-8.019406 1.68658761 -8.019406 1.68658761 3.05706787 11.51223755 C7.52713388 15.94094922 11.28034405 20.97033519 14.48518372 26.37220764 C15.14518372 25.71220764 15.80518372 25.05220764 16.48518372 24.37220764 C10.80424664 15.27092126 3.68430028 5.61071901 -6.51481628 1.37220764 C-22.48437323 -2.29009248 -40.34561818 -0.06318955 -56.51481628 1.37220764 Z M-82.51481628 25.37220764 C-82.51481628 53.42220764 -82.51481628 81.47220764 -82.51481628 110.37220764 C-81.52481628 109.87720764 -81.52481628 109.87720764 -80.51481628 109.37220764 C-80.18481628 81.98220764 -79.85481628 54.59220764 -79.51481628 26.37220764 C-80.50481628 26.04220764 -81.49481628 25.71220764 -82.51481628 25.37220764 Z M16.48518372 25.37220764 C16.15518372 53.42220764 15.82518372 81.47220764 15.48518372 110.37220764 C16.47518372 110.70220764 17.46518372 111.03220764 18.48518372 111.37220764 C18.48518372 82.99220764 18.48518372 54.61220764 18.48518372 25.37220764 C17.82518372 25.37220764 17.16518372 25.37220764 16.48518372 25.37220764 Z M-46.51481628 28.37220764 C-46.84481628 29.36220764 -47.17481628 30.35220764 -47.51481628 31.37220764 C-44.68795754 32.78563702 -42.55048363 32.27882642 -39.40544128 32.04017639 C-38.17567566 31.96476624 -36.94591003 31.88935608 -35.67887878 31.81166077 C-33.08373165 31.64460788 -30.48980258 31.45732018 -27.89762878 31.24916077 C-26.66270691 31.18019592 -25.42778503 31.11123108 -24.15544128 31.04017639 C-23.0265448 30.96049622 -21.89764832 30.88081604 -20.73454285 30.79872131 C-16.95729556 31.47151126 -15.18900906 32.32908926 -12.6570282 35.18237305 C-10.07101922 40.14023757 -10.80074032 45.97066666 -10.92887878 51.41517639 C-10.94008531 52.78945046 -10.94861862 54.16374869 -10.9546051 55.53805542 C-10.97742465 59.14277741 -11.03626141 62.74602974 -11.10282898 66.35017395 C-11.16427359 70.02072907 -11.1916588 73.69152021 -11.22184753 77.36244202 C-11.27917208 83.80822177 -11.36610756 90.25291135 -11.47444153 96.69805908 C-11.50299542 98.58927427 -11.51481628 100.48077691 -11.51481628 102.37220764 C-9.15780891 100.56901349 -8.55831287 99.65533166 -8.10021973 96.67355347 C-8.08275192 95.58515671 -8.06528412 94.49675995 -8.04728699 93.37538147 C-8.02169205 92.14012222 -7.99609711 90.90486298 -7.96972656 89.63217163 C-7.95849818 88.28120582 -7.94882766 86.93022629 -7.94059753 85.57923889 C-7.92587094 84.19021446 -7.91099133 82.80119164 -7.89596558 81.41217041 C-7.8689678 78.49767923 -7.85542594 75.58344315 -7.8490448 72.6688385 C-7.83820644 68.95016764 -7.7766115 65.23423155 -7.70232868 61.51636219 C-7.65371984 58.64477685 -7.64151009 55.77383789 -7.63898277 52.90187645 C-7.63179017 51.53234722 -7.61146026 50.16281698 -7.57728004 48.79369545 C-7.42057906 41.99420422 -7.36578129 36.72249413 -12.11125183 31.51747131 C-15.95628332 28.33446216 -18.79352078 27.4163009 -23.85856628 27.59095764 C-24.51312805 27.60227722 -25.16768982 27.6135968 -25.84208679 27.6252594 C-27.9028355 27.66953017 -29.95622889 27.76971339 -32.01481628 27.87220764 C-33.42356881 27.91240215 -34.83243215 27.94889246 -36.24137878 27.98158264 C-39.66871226 28.07548219 -43.09031753 28.20671142 -46.51481628 28.37220764 Z M-49.51481628 39.37220764 C-50.2723762 43.70286309 -50.23900534 47.98463485 -50.21403503 52.37220764 C-50.22119034 53.64064514 -50.22834564 54.90908264 -50.23571777 56.21595764 C-50.24349884 58.89652096 -50.2409314 61.57474927 -50.22160339 64.25502014 C-50.19870806 67.68219712 -50.22550698 71.10689611 -50.26666546 74.53382874 C-50.29845099 77.8133284 -50.28524492 81.09260357 -50.27653503 84.37220764 C-50.29181747 85.59939514 -50.30709991 86.82658264 -50.32284546 88.09095764 C-50.38514632 93.95032561 -50.38514632 93.95032561 -48.31930542 99.27308655 C-46.02153233 101.38268484 -43.83867219 102.30972703 -40.80168152 102.89564514 C-39.90135193 102.84666077 -39.00102234 102.79767639 -38.07341003 102.74720764 C-36.57970886 102.67566467 -36.57970886 102.67566467 -35.05583191 102.60267639 C-34.03167175 102.5266217 -33.0075116 102.45056702 -31.95231628 102.37220764 C-30.41027527 102.30453186 -30.41027527 102.30453186 -28.83708191 102.23548889 C-21.63390893 101.89517473 -21.63390893 101.89517473 -15.51481628 98.37220764 C-14.5066557 95.34772589 -14.36470012 93.24400932 -14.32194519 90.07801819 C-14.30588226 88.99646957 -14.28981934 87.91492096 -14.27326965 86.80059814 C-14.22877668 81.85938681 -14.187764 76.91830874 -14.16471863 71.97694397 C-14.14815063 69.3707334 -14.12084998 66.76456841 -14.08268738 64.15858459 C-14.02793751 60.40012549 -14.00604707 56.6427305 -13.99137878 52.88392639 C-13.96870941 51.72124741 -13.94604004 50.55856842 -13.92268372 49.36065674 C-13.85327766 42.59019589 -13.85327766 42.59019589 -16.686203 36.63783264 C-19.88051937 34.07929166 -21.25527433 33.61213417 -25.29606628 33.61048889 C-26.3853241 33.60726624 -27.47458191 33.60404358 -28.59684753 33.60072327 C-29.72477722 33.62843811 -30.85270691 33.65615295 -32.01481628 33.68470764 C-33.14274597 33.66988342 -34.27067566 33.6550592 -35.43278503 33.63978577 C-43.78727375 33.64819884 -43.78727375 33.64819884 -49.51481628 39.37220764 Z M-53.51481628 36.37220764 C-55.76813942 38.20107807 -55.76813942 38.20107807 -55.75532532 40.89054871 C-55.75088409 41.95200104 -55.74644287 43.01345337 -55.74186707 44.10707092 C-55.741716 45.30816498 -55.74156494 46.50925903 -55.7414093 47.74674988 C-55.73108673 49.04885406 -55.72076416 50.35095825 -55.71012878 51.69252014 C-55.70639905 53.03487437 -55.70355189 54.37723131 -55.70155334 55.71958923 C-55.69391373 59.25422164 -55.67426258 62.78868992 -55.65214539 66.32325745 C-55.63169393 69.92939534 -55.62255314 73.53555973 -55.61247253 77.14173889 C-55.59101689 84.21862899 -55.55687708 91.29540761 -55.51481628 98.37220764 C-54.52481628 98.37220764 -53.53481628 98.37220764 -52.51481628 98.37220764 C-52.18481628 78.24220764 -51.85481628 58.11220764 -51.51481628 37.37220764 C-52.17481628 37.04220764 -52.83481628 36.71220764 -53.51481628 36.37220764 Z M-46.51481628 104.37220764 C-46.18481628 105.36220764 -45.85481628 106.35220764 -45.51481628 107.37220764 C-36.27481628 107.37220764 -27.03481628 107.37220764 -17.51481628 107.37220764 C-17.84481628 106.71220764 -18.17481628 106.05220764 -18.51481628 105.37220764 C-32.37481628 104.87720764 -32.37481628 104.87720764 -46.51481628 104.37220764 Z M-56.51481628 132.37220764 C-56.51481628 133.03220764 -56.51481628 133.69220764 -56.51481628 134.37220764 C-40.01481628 134.37220764 -23.51481628 134.37220764 -6.51481628 134.37220764 C-6.51481628 133.71220764 -6.51481628 133.05220764 -6.51481628 132.37220764 C-23.01481628 132.37220764 -39.51481628 132.37220764 -56.51481628 132.37220764 Z " fill="#011A54" transform="translate(92.51481628417969,7.6277923583984375)"/>
<path d="M0 0 C273.9 0 547.8 0 830 0 C830 0.99 830 1.98 830 3 C556.1 3 282.2 3 0 3 C0 2.01 0 1.02 0 0 Z " fill="#021642" transform="translate(149,108)"/>
<path d="M0 0 C0.53546951 0.67446671 1.07093903 1.34893341 1.62263489 2.0438385 C4.14225881 5.04096161 6.51993063 7.21453874 9.81062317 9.32752991 C16.61594241 14.07320044 21.84319178 19.35898256 23.52565002 27.72834778 C25.21920677 38.81377901 25.01525989 50.07173502 24.76863098 61.25135803 C24.68322058 65.28139731 24.69649056 69.29033374 24.80769348 73.31971741 C25.33450409 92.68280853 25.80064943 111.49066065 11.80839539 126.39951897 C2.79195115 135.31732982 -6.1805498 140.40297554 -19.12809753 141.05189514 C-24.05757126 141.0230899 -28.91697179 140.65351394 -33.82731628 140.24720764 C-36.3640027 140.15072357 -38.90116604 140.06603842 -41.43864441 139.99330139 C-59.01988426 139.29504 -59.01988426 139.29504 -63.62101746 136.45472717 C-65.69589914 134.17307953 -67.60421997 131.79229631 -69.51481628 129.37220764 C-70.99981628 128.38220764 -70.99981628 128.38220764 -72.51481628 127.37220764 C-72.51481628 126.71220764 -72.51481628 126.05220764 -72.51481628 125.37220764 C-73.17481628 125.37220764 -73.83481628 125.37220764 -74.51481628 125.37220764 C-76.06559753 123.83314514 -76.06559753 123.83314514 -77.82731628 121.74720764 C-78.4009491 121.07431702 -78.97458191 120.40142639 -79.56559753 119.70814514 C-80.20883972 118.93728577 -80.85208191 118.16642639 -81.51481628 117.37220764 C-82.78513451 116.07032501 -82.78513451 116.07032501 -84.08111572 114.74214172 C-87.04013322 111.16590276 -87.32187659 107.63762619 -87.40324402 103.11732483 C-87.43598419 102.30965164 -87.46872437 101.50197845 -87.50245667 100.66983032 C-87.59906798 98.00275424 -87.65433756 95.33752367 -87.69841003 92.66908264 C-87.72366099 91.28626476 -87.72366099 91.28626476 -87.74942207 89.87551117 C-87.83060271 84.97598272 -87.87424016 80.0775228 -87.89299011 75.17738342 C-87.91557569 71.1709444 -88.01192121 67.17746202 -88.17814636 63.17445374 C-89.66460004 26.23783457 -89.66460004 26.23783457 -77.51045227 12.12368774 C-68.30845781 2.36900435 -58.73275594 -3.5878905 -45.04997253 -4.42076111 C-40.19965512 -4.4531888 -35.41350863 -4.15533967 -30.57731628 -3.81529236 C-28.07178356 -3.74138523 -25.56586711 -3.67948644 -23.05973816 -3.62974548 C-2.89424811 -3.11010319 -2.89424811 -3.11010319 0 0 Z M-82.51481628 25.37220764 C-86.45075096 37.1220733 -85.99938005 49.95194644 -85.64372253 62.18031311 C-85.50668195 66.93095125 -85.58804184 71.64944941 -85.72616482 76.39898682 C-86.15385486 93.65843923 -85.98095243 110.15325099 -73.57787895 123.36413574 C-64.38611212 132.43897122 -54.80167557 136.96447973 -41.65681458 137.00856018 C-39.39336988 136.91762593 -37.13113291 136.7887681 -34.87199402 136.62220764 C-31.38873753 136.36755963 -27.93427673 136.29398815 -24.44255066 136.24720764 C-22.2045666 136.17399065 -19.96687504 136.09102884 -17.72966003 135.99720764 C-16.70364182 135.96320862 -15.6776236 135.92920959 -14.62051392 135.8941803 C-9.19099812 135.46087051 -6.21452491 134.69375143 -2.55509949 130.52455139 C-1.52400643 129.1535459 -0.50824702 127.77074413 0.48518372 126.37220764 C3.01471148 123.65078467 5.61858296 121.00978315 8.23518372 118.37220764 C8.89389465 117.6928717 9.55260559 117.01353577 10.23127747 116.31361389 C11.18453918 115.3526178 11.18453918 115.3526178 12.15705872 114.37220764 C12.72521301 113.79470764 13.29336731 113.21720764 13.8787384 112.62220764 C15.48518372 111.37220764 15.48518372 111.37220764 18.48518372 111.37220764 C18.67074787 100.28038405 18.81279356 89.18893113 18.89968109 78.09587002 C18.94138891 72.94450395 18.99793536 67.79420168 19.08869934 62.64344788 C19.17578458 57.67019301 19.223491 52.69795955 19.24420166 47.72400093 C19.25895536 45.82889286 19.28776793 43.93383919 19.33102417 42.0391674 C19.93568481 32.06785335 19.93568481 32.06785335 16.91119385 22.92105103 C14.93940113 21.15618055 14.93940113 21.15618055 12.69303894 19.79614258 C10.17452007 18.17184812 8.72263272 16.41617794 6.88386536 14.05995178 C0.43244006 6.29254738 -5.21852 0.69047293 -15.49324036 -0.8608551 C-19.90749004 -1.23296139 -24.26755653 -1.31416768 -28.69572449 -1.22862244 C-32.06943428 -1.1903817 -35.38399066 -1.36999086 -38.75114441 -1.56724548 C-57.6666251 -2.00960031 -74.54076845 7.89963441 -82.51481628 25.37220764 Z " fill="#061C4F" transform="translate(92.51481628417969,7.6277923583984375)"/>
<path d="M0 0 C6.6 0 13.2 0 20 0 C20 1.65 20 3.3 20 5 C18.02 5.99 18.02 5.99 16 7 C16.515625 8.11375 17.03125 9.2275 17.5625 10.375 C18.036875 11.57125 18.51125 12.7675 19 14 C18.67 14.66 18.34 15.32 18 16 C18.66 16.33 19.32 16.66 20 17 C19.67 17.66 19.34 18.32 19 19 C19.66 19.33 20.32 19.66 21 20 C21.66 20.99 22.32 21.98 23 23 C23.12375 22.2575 23.2475 21.515 23.375 20.75 C23.96646509 18.14755361 24.81696152 16.36607695 26 14 C27.38179464 10.07644509 27.38179464 10.07644509 28 6 C27.01 5.34 26.02 4.68 25 4 C25 2.68 25 1.36 25 0 C41.17 0 57.34 0 74 0 C74 3.63 74 7.26 74 11 C72.68 11 71.36 11 70 11 C70 15.62 70 20.24 70 25 C71.32 25 72.64 25 74 25 C74 28.63 74 32.26 74 36 C63.44 36 52.88 36 42 36 C42.66 34.35 43.32 32.7 44 31 C45.32 31 46.64 31 48 31 C47.505 18.625 47.505 18.625 47 6 C43.7 6 40.4 6 37 6 C36.855625 6.763125 36.71125 7.52625 36.5625 8.3125 C35.51992486 13.29369231 33.82068474 17.76897289 31 22 C30.4552374 23.63156399 29.9587043 25.27968284 29.5 26.9375 C28.57207538 30.28105446 27.57765848 32.84468304 26 36 C22.7 36 19.4 36 16 36 C14.9375 33.625 14.9375 33.625 14 31 C14.33 30.34 14.66 29.68 15 29 C14.34 29 13.68 29 13 29 C12.26919734 27.02253397 11.60578253 25.01927511 11 23 C11.33 22.34 11.66 21.68 12 21 C11.34 20.67 10.68 20.34 10 20 C10.33 19.34 10.66 18.68 11 18 C10.34 17.67 9.68 17.34 9 17 C6.93999331 13.37438822 5.60705486 10.12797305 5 6 C3.35 5.67 1.7 5.34 0 5 C0 3.35 0 1.7 0 0 Z M42 1 C43 4 43 4 43 4 Z M57 6 C57 8.97 57 11.94 57 15 C59.31 15 61.62 15 64 15 C64 13.68 64 12.36 64 11 C65.65 10.67 67.3 10.34 69 10 C69 8.68 69 7.36 69 6 C65.04 6 61.08 6 57 6 Z M57 20 C57 23.3 57 26.6 57 30 C60.96 30 64.92 30 69 30 C68.67 28.02 68.34 26.04 68 24 C67.01 24 66.02 24 65 24 C64.67 22.68 64.34 21.36 64 20 C61.69 20 59.38 20 57 20 Z M22 25 C23 27 23 27 23 27 Z " fill="#031A51" transform="translate(735,50)"/>
<path d="M0 0 C0.57621094 0.52851562 1.15242188 1.05703125 1.74609375 1.6015625 C2.44734375 2.2409375 3.14859375 2.8803125 3.87109375 3.5390625 C7.00801596 6.98967693 7.9514785 10.06090396 8.74609375 14.6015625 C8.91753906 15.21128906 9.08898437 15.82101563 9.265625 16.44921875 C10.80675202 23.35296662 10.35532788 31.4446337 6.74609375 37.6015625 C-0.52976681 44.87742306 -5.80970405 45.70266746 -16.01953125 45.734375 C-21.01140988 45.43765494 -23.63938599 42.82320012 -27.25390625 39.6015625 C-27.58390625 38.9415625 -27.91390625 38.2815625 -28.25390625 37.6015625 C-28.74310547 36.68890625 -28.74310547 36.68890625 -29.2421875 35.7578125 C-33.08146445 27.57526085 -33.01624666 17.91571463 -30.6171875 9.3203125 C-29.87890625 7.4140625 -29.87890625 7.4140625 -28.25390625 4.6015625 C-27.26390625 4.2715625 -26.27390625 3.9415625 -25.25390625 3.6015625 C-24.92390625 2.6115625 -24.59390625 1.6215625 -24.25390625 0.6015625 C-17.3581637 -1.58208931 -6.45278824 -4.00363638 0 0 Z M-17.06640625 7.4765625 C-19.18330338 10.33823287 -19.18330338 10.33823287 -20.25390625 12.6015625 C-19.92390625 13.2615625 -19.59390625 13.9215625 -19.25390625 14.6015625 C-19.91390625 14.6015625 -20.57390625 14.6015625 -21.25390625 14.6015625 C-21.25390625 19.5515625 -21.25390625 24.5015625 -21.25390625 29.6015625 C-20.59390625 29.6015625 -19.93390625 29.6015625 -19.25390625 29.6015625 C-19.58390625 30.5915625 -19.91390625 31.5815625 -20.25390625 32.6015625 C-19.59390625 32.6015625 -18.93390625 32.6015625 -18.25390625 32.6015625 C-18.58390625 33.5915625 -18.91390625 34.5815625 -19.25390625 35.6015625 C-17.29128345 37.64951673 -15.82617555 38.55132888 -12.984375 38.80078125 C-10.73436242 38.79015127 -8.50005063 38.73114775 -6.25390625 38.6015625 C-5.82078125 37.6734375 -5.82078125 37.6734375 -5.37890625 36.7265625 C-4.25390625 34.6015625 -4.25390625 34.6015625 -2.25390625 32.6015625 C-2.58390625 31.9415625 -2.91390625 31.2815625 -3.25390625 30.6015625 C-2.59390625 30.2715625 -1.93390625 29.9415625 -1.25390625 29.6015625 C-1.25390625 23.9915625 -1.25390625 18.3815625 -1.25390625 12.6015625 C-1.91390625 12.6015625 -2.57390625 12.6015625 -3.25390625 12.6015625 C-3.19203125 11.8178125 -3.13015625 11.0340625 -3.06640625 10.2265625 C-3.12828125 9.3603125 -3.19015625 8.4940625 -3.25390625 7.6015625 C-4.24390625 6.9415625 -5.23390625 6.2815625 -6.25390625 5.6015625 C-7.24390625 6.0965625 -7.24390625 6.0965625 -8.25390625 6.6015625 C-8.25390625 5.9415625 -8.25390625 5.2815625 -8.25390625 4.6015625 C-12.44863867 4.016251 -14.38748038 4.24931847 -17.06640625 7.4765625 Z " fill="#031951" transform="translate(312.25390625,41.3984375)"/>
<path d="M0 0 C6.6 0 13.2 0 20 0 C20 1.65 20 3.3 20 5 C16.25 6.125 16.25 6.125 14 5 C14.33 7.97 14.66 10.94 15 14 C18.63 14 22.26 14 26 14 C25.67 11.36 25.34 8.72 25 6 C23.68 5.67 22.36 5.34 21 5 C21 3.35 21 1.7 21 0 C27.6 0 34.2 0 41 0 C41 1.65 41 3.3 41 5 C38 6 38 6 35 5 C35 13.58 35 22.16 35 31 C36.32 30.67 37.64 30.34 39 30 C41 32 41 32 41 36 C34.4 36 27.8 36 21 36 C21 34.02 21 32.04 21 30 C22.65 30.33 24.3 30.66 26 31 C26 27.37 26 23.74 26 20 C22.04 20 18.08 20 14 20 C14 23.63 14 27.26 14 31 C15.32 30.67 16.64 30.34 18 30 C20 32 20 32 20 36 C13.4 36 6.8 36 0 36 C0 34.02 0 32.04 0 30 C1.65 30 3.3 30 5 30 C5 22.08 5 14.16 5 6 C3.35 5.67 1.7 5.34 0 5 C0 3.35 0 1.7 0 0 Z " fill="#051A50" transform="translate(187,50)"/>
<path d="M0 0 C6.6 0 13.2 0 20 0 C20 1.65 20 3.3 20 5 C18.68 5.33 17.36 5.66 16 6 C15.67 8.64 15.34 11.28 15 14 C18.63 14 22.26 14 26 14 C26 11.36 26 8.72 26 6 C23.525 5.505 23.525 5.505 21 5 C21 3.35 21 1.7 21 0 C27.6 0 34.2 0 41 0 C41 1.65 41 3.3 41 5 C37.25 6.125 37.25 6.125 35 5 C35 13.58 35 22.16 35 31 C36.32 30.67 37.64 30.34 39 30 C41 32 41 32 41 36 C34.4 36 27.8 36 21 36 C21 34.02 21 32.04 21 30 C22.65 30 24.3 30 26 30 C26 26.7 26 23.4 26 20 C22.37 20 18.74 20 15 20 C15 23.3 15 26.6 15 30 C16.65 30.33 18.3 30.66 20 31 C19.01 33.475 19.01 33.475 18 36 C15.37472811 36.05382106 12.75055287 36.09358313 10.125 36.125 C9.37863281 36.14175781 8.63226563 36.15851563 7.86328125 36.17578125 C5.90805539 36.1933959 3.95257979 36.10320189 2 36 C1.34 35.34 0.68 34.68 0 34 C0.375 31.875 0.375 31.875 1 30 C2.32 30 3.64 30 5 30 C5.33 21.75 5.66 13.5 6 5 C5.01 5.33 4.02 5.66 3 6 C2.01 5.67 1.02 5.34 0 5 C0 3.35 0 1.7 0 0 Z " fill="#031A52" transform="translate(323,50)"/>
<path d="M0 0 C0 1.98 0 3.96 0 6 C-3.75 7.125 -3.75 7.125 -6 6 C-5.88994608 10.39634104 -5.75935538 14.79183979 -5.625 19.1875 C-5.5940625 20.43337891 -5.563125 21.67925781 -5.53125 22.96289062 C-5.49257813 24.16494141 -5.45390625 25.36699219 -5.4140625 26.60546875 C-5.3826416 27.71043701 -5.3512207 28.81540527 -5.31884766 29.95385742 C-4.99751455 33.02374498 -4.41770896 35.26425018 -3 38 C0.55934795 39.28532009 4.24370542 39.24497573 8 39 C11.04436837 37.3885016 11.04436837 37.3885016 11.66772461 35.25488281 C12.07827185 32.46883262 12.21980969 29.73697475 12.31640625 26.921875 C12.37924805 25.18164062 12.37924805 25.18164062 12.44335938 23.40625 C12.48267578 22.1996875 12.52199219 20.993125 12.5625 19.75 C12.62727539 17.91695312 12.62727539 17.91695312 12.69335938 16.046875 C12.79937355 13.0313608 12.90143936 10.01576552 13 7 C11.35 6.34 9.7 5.68 8 5 C8 3.68 8 2.36 8 1 C13.61 1 19.22 1 25 1 C25 2.32 25 3.64 25 5 C23.02 5.99 23.02 5.99 21 7 C20.98018066 7.92337158 20.96036133 8.84674316 20.93994141 9.7980957 C20.86182261 13.22561174 20.77513003 16.65268798 20.68261719 20.07983398 C20.64434653 21.56282212 20.60949022 23.04590248 20.578125 24.52905273 C20.532432 26.66163072 20.47444662 28.79357491 20.4140625 30.92578125 C20.3826416 32.20880127 20.3512207 33.49182129 20.31884766 34.8137207 C19.89938594 39.0054472 18.06861204 41.28545858 15 44 C8.25417222 47.79452813 1.58725096 47.69430664 -5.875 46.25 C-9.81122197 44.67551121 -11.82511087 42.84815215 -14.07958984 39.30175781 C-15.33173087 36.17040885 -15.32844408 33.41453304 -15.4140625 30.046875 C-15.43342865 29.38665344 -15.4527948 28.72643188 -15.4727478 28.04620361 C-15.53229349 25.94759847 -15.57882722 23.84893772 -15.625 21.75 C-15.66320294 20.3228934 -15.70225602 18.89580928 -15.7421875 17.46875 C-15.8379733 13.97937309 -15.92209642 10.48982714 -16 7 C-17.32 6.34 -18.64 5.68 -20 5 C-20 3.68 -20 2.36 -20 1 C-16.85418896 0.83291073 -13.7083476 0.66639937 -10.5625 0.5 C-9.66466797 0.45230469 -8.76683594 0.40460937 -7.84179688 0.35546875 C-6.98779297 0.31035156 -6.13378906 0.26523437 -5.25390625 0.21875 C-4.46314697 0.17685547 -3.6723877 0.13496094 -2.85766602 0.09179688 C-1.90578081 0.04475931 -0.95304668 0 0 0 Z " fill="#021A4F" transform="translate(646,40)"/>
<path d="M0 0 C2.08304538 -0.05418326 4.16649768 -0.09287551 6.25 -0.125 C7.99023438 -0.15980469 7.99023438 -0.15980469 9.765625 -0.1953125 C12.85216691 -0.00892712 14.51148161 0.21063677 17 2 C17.33 2.99 17.66 3.98 18 5 C18.97272675 6.35335895 19.9739266 7.68662604 21 9 C23 12 23 12 23.875 14 C25.1025917 16.49684345 25.1025917 16.49684345 29 19 C29.33 14.38 29.66 9.76 30 5 C29.01 5.33 28.02 5.66 27 6 C26.01 5.67 25.02 5.34 24 5 C24 3.35 24 1.7 24 0 C29.28 0 34.56 0 40 0 C40.495 1.98 40.495 1.98 41 4 C40.34 4.66 39.68 5.32 39 6 C38.34 6 37.68 6 37 6 C36.67 15.9 36.34 25.8 36 36 C33.03 36 30.06 36 27 36 C26.67 35.01 26.34 34.02 26 33 C25.02727325 31.64664105 24.0260734 30.31337396 23 29 C21 26 21 26 20 23.9375 C19.04074983 21.83805638 19.04074983 21.83805638 17 20 C15.68 18.68 14.36 17.36 13 16 C12.67 20.95 12.34 25.9 12 31 C13.32 30.67 14.64 30.34 16 30 C18 32 18 32 18 36 C12.06 36 6.12 36 0 36 C0 34.35 0 32.7 0 31 C1.65 30.67 3.3 30.34 5 30 C5 22.08 5 14.16 5 6 C3.35 5.67 1.7 5.34 0 5 C0 3.35 0 1.7 0 0 Z " fill="#021955" transform="translate(671,50)"/>
<path d="M0 0 C0.80566406 0.00322266 1.61132812 0.00644531 2.44140625 0.00976562 C3.70404297 0.02233398 3.70404297 0.02233398 4.9921875 0.03515625 C6.26642578 0.04192383 6.26642578 0.04192383 7.56640625 0.04882812 C9.66669659 0.06062751 11.7669508 0.07856319 13.8671875 0.09765625 C13.8671875 0.75765625 13.8671875 1.41765625 13.8671875 2.09765625 C14.8571875 1.76765625 15.8471875 1.43765625 16.8671875 1.09765625 C17.8671875 2.09765625 17.8671875 2.09765625 17.96484375 4.6015625 C17.95324219 5.61089844 17.94164062 6.62023438 17.9296875 7.66015625 C17.92066406 8.67207031 17.91164063 9.68398438 17.90234375 10.7265625 C17.89074219 11.50902344 17.87914062 12.29148437 17.8671875 13.09765625 C15.8871875 13.09765625 13.9071875 13.09765625 11.8671875 13.09765625 C11.8671875 11.44765625 11.8671875 9.79765625 11.8671875 8.09765625 C11.1453125 7.95328125 10.4234375 7.80890625 9.6796875 7.66015625 C7.07552083 7.13932292 4.47135417 6.61848958 1.8671875 6.09765625 C1.8671875 6.75765625 1.8671875 7.41765625 1.8671875 8.09765625 C0.5471875 8.42765625 -0.7728125 8.75765625 -2.1328125 9.09765625 C-1.4728125 11.40765625 -0.8128125 13.71765625 -0.1328125 16.09765625 C0.6509375 16.18015625 1.4346875 16.26265625 2.2421875 16.34765625 C6.98316351 17.32854784 11.60361548 18.76915176 15.8671875 21.09765625 C16.1971875 22.08765625 16.5271875 23.07765625 16.8671875 24.09765625 C17.5271875 24.09765625 18.1871875 24.09765625 18.8671875 24.09765625 C19.87521359 29.01178345 20.45780938 34.09238608 19.8671875 39.09765625 C19.2071875 39.75765625 18.5471875 40.41765625 17.8671875 41.09765625 C16.784375 42.36609375 16.784375 42.36609375 15.6796875 43.66015625 C12.17824693 46.69473807 10.46848682 46.87501273 5.8671875 47.09765625 C4.99320312 47.14792969 4.11921875 47.19820312 3.21875 47.25 C-2.74188764 47.45413143 -6.86066479 46.90946836 -12.1328125 44.09765625 C-12.1328125 40.46765625 -12.1328125 36.83765625 -12.1328125 33.09765625 C-10.1528125 33.09765625 -8.1728125 33.09765625 -6.1328125 33.09765625 C-5.4728125 35.07765625 -4.8128125 37.05765625 -4.1328125 39.09765625 C-3.50632812 39.08605469 -2.87984375 39.07445312 -2.234375 39.0625 C-1.41710937 39.05347656 -0.59984375 39.04445312 0.2421875 39.03515625 C1.46035156 39.01775391 1.46035156 39.01775391 2.703125 39 C4.8671875 39.09765625 4.8671875 39.09765625 6.8671875 40.09765625 C7.1971875 39.43765625 7.5271875 38.77765625 7.8671875 38.09765625 C8.1971875 37.43765625 8.5271875 36.77765625 8.8671875 36.09765625 C9.5271875 36.09765625 10.1871875 36.09765625 10.8671875 36.09765625 C10.39865128 33.10360046 10.39865128 33.10360046 8.8671875 30.09765625 C5.62534608 28.80151024 5.62534608 28.80151024 1.8671875 28.09765625 C-3.23324075 26.24388614 -7.30753162 24.06617356 -10.23046875 19.3125 C-11.96087605 15.06513664 -11.80410445 10.58401335 -11.1328125 6.09765625 C-7.83560078 1.75921978 -5.35715727 -0.03772646 0 0 Z " fill="#041951" transform="translate(453.1328125,39.90234375)"/>
<path d="M0 0 C4.27077656 -0.05794812 8.54145236 -0.09357874 12.8125 -0.125 C14.02744141 -0.14175781 15.24238281 -0.15851562 16.49414062 -0.17578125 C17.65751953 -0.18222656 18.82089844 -0.18867187 20.01953125 -0.1953125 C21.62985229 -0.21102295 21.62985229 -0.21102295 23.27270508 -0.22705078 C26.86655416 0.07214174 28.49270085 1.49270085 31 4 C32.52717961 8.58153882 33.19589041 11.21643835 32 16 C31.01 16.33 30.02 16.66 29 17 C29.60875905 21.13956154 31.10522169 24.29282504 33 28 C33 28.66 33 29.32 33 30 C34.65 30.33 36.3 30.66 38 31 C38 32.65 38 34.3 38 36 C33.38 36 28.76 36 24 36 C23.8046875 33.94921875 23.609375 31.8984375 23.4140625 29.84765625 C23.27742187 29.23792969 23.14078125 28.62820312 23 28 C22.34 27.67 21.68 27.34 21 27 C20.5359375 25.7625 20.5359375 25.7625 20.0625 24.5 C19.711875 23.675 19.36125 22.85 19 22 C18.01 21.67 17.02 21.34 16 21 C15.67 24.3 15.34 27.6 15 31 C16.65 30.67 18.3 30.34 20 30 C20 31.98 20 33.96 20 36 C13.4 36 6.8 36 0 36 C0 34.02 0 32.04 0 30 C1.65 30 3.3 30 5 30 C5.33 21.75 5.66 13.5 6 5 C4.68 5.33 3.36 5.66 2 6 C1.34 5.34 0.68 4.68 0 4 C0 2.68 0 1.36 0 0 Z M15 5 C15 8.3 15 11.6 15 15 C19.66409356 15.45668855 19.66409356 15.45668855 21.8125 13.8125 C23.41501866 11.36655047 23.4409511 9.86618213 23 7 C19.90754997 4.53774984 19.90754997 4.53774984 15 5 Z " fill="#031A51" transform="translate(812,50)"/>
<path d="M0 0 C3.24376808 1.91799565 4.99739349 3.7545898 6.4375 7.3125 C8.38140878 15.08813513 8.48500664 24.16895283 4.4375 31.3125 C2.4453125 32.5 2.4453125 32.5 0.4375 33.3125 C-0.18125 33.663125 -0.8 34.01375 -1.4375 34.375 C-7.2280956 36.92967453 -13.98397223 37.28552935 -19.875 35.0625 C-22.69760287 33.22452604 -23.33478122 32.334577 -24.5625 29.3125 C-25.119375 28.8175 -25.67625 28.3225 -26.25 27.8125 C-26.683125 27.3175 -27.11625 26.8225 -27.5625 26.3125 C-27.25 24.125 -27.25 24.125 -26.5625 22.3125 C-27.2225 21.9825 -27.8825 21.6525 -28.5625 21.3125 C-28.5625 18.3425 -28.5625 15.3725 -28.5625 12.3125 C-27.9025 12.3125 -27.2425 12.3125 -26.5625 12.3125 C-26.9028125 11.44625 -26.9028125 11.44625 -27.25 10.5625 C-27.5625 8.3125 -27.5625 8.3125 -26.4375 6.375 C-19.12746456 -1.66603899 -10.60676125 -4.88936206 0 0 Z M-15.25 6.5625 C-19.0817864 11.11921896 -19.04426045 15.46415222 -18.5625 21.3125 C-17.66452887 24.68071272 -17.66452887 24.68071272 -16.5625 27.3125 C-15.9025 27.3125 -15.2425 27.3125 -14.5625 27.3125 C-14.2325 27.9725 -13.9025 28.6325 -13.5625 29.3125 C-12.9025 28.9825 -12.2425 28.6525 -11.5625 28.3125 C-11.5625 28.9725 -11.5625 29.6325 -11.5625 30.3125 C-10.5725 30.3125 -9.5825 30.3125 -8.5625 30.3125 C-8.5625 29.6525 -8.5625 28.9925 -8.5625 28.3125 C-7.5725 27.9825 -6.5825 27.6525 -5.5625 27.3125 C-4.82926204 25.29741642 -4.82926204 25.29741642 -4.5625 23.3125 C-3.9025 23.3125 -3.2425 23.3125 -2.5625 23.3125 C-2.50820041 21.56284642 -2.46957177 19.81270213 -2.4375 18.0625 C-2.41429687 17.08796875 -2.39109375 16.1134375 -2.3671875 15.109375 C-2.56642268 12.25632723 -3.00798264 10.68745708 -4.5625 8.3125 C-6.5960948 7.04445434 -6.5960948 7.04445434 -8.5625 6.3125 C-8.5625 5.6525 -8.5625 4.9925 -8.5625 4.3125 C-12.63549801 3.88454223 -12.63549801 3.88454223 -15.25 6.5625 Z " fill="#041953" transform="translate(414.5625,50.6875)"/>
<path d="M0 0 C3.63 0 7.26 0 11 0 C11.33 1.65 11.66 3.3 12 5 C12.99 6.485 12.99 6.485 14 8 C14.82944193 10.52150346 15.51782814 13.06511145 16.21875 15.625 C16.95663132 18.22411965 16.95663132 18.22411965 19 21 C19.46120059 22.34627918 19.89774701 23.70119417 20.3125 25.0625 C21.53386965 28.50713893 21.53386965 28.50713893 24.6875 30.5 C25.450625 30.665 26.21375 30.83 27 31 C26.34 32.65 25.68 34.3 25 36 C19.06 36 13.12 36 7 36 C7 34.02 7 32.04 7 30 C8.65 30.33 10.3 30.66 12 31 C12 30.34 12 29.68 12 29 C11.34 29 10.68 29 10 29 C10 28.34 10 27.68 10 27 C6.04 26.67 2.08 26.34 -2 26 C-2 26.99 -2 27.98 -2 29 C-2.66 29 -3.32 29 -4 29 C-4 29.66 -4 30.32 -4 31 C-2.35 30.67 -0.7 30.34 1 30 C1 31.98 1 33.96 1 36 C-4.61 36 -10.22 36 -16 36 C-16 34.02 -16 32.04 -16 30 C-14.35 30 -12.7 30 -11 30 C-10.5978125 28.453125 -10.5978125 28.453125 -10.1875 26.875 C-9.18728817 23.34233693 -7.64242128 20.28484256 -6 17 C-5.505 15.2675 -5.505 15.2675 -5 13.5 C-4.01387461 10.04856114 -2.62831783 7.18583923 -1 4 C-0.67 2.68 -0.34 1.36 0 0 Z M3 10 C3 10.66 3 11.32 3 12 C3.66 12 4.32 12 5 12 C5 11.34 5 10.68 5 10 C4.34 10 3.68 10 3 10 Z M2 13 C2.33 13.99 2.66 14.98 3 16 C2.01 16.495 2.01 16.495 1 17 C0.67 17.99 0.34 18.98 0 20 C2.31 20 4.62 20 7 20 C6.67 17.69 6.34 15.38 6 13 C4.68 13 3.36 13 2 13 Z " fill="#051A53" transform="translate(519,50)"/>
<path d="M0 0 C10.23 0 20.46 0 31 0 C31 3.63 31 7.26 31 11 C29.02 11 27.04 11 25 11 C25.33 15.95 25.66 20.9 26 26 C27.65 25.67 29.3 25.34 31 25 C31 28.63 31 32.26 31 36 C20.77 36 10.54 36 0 36 C0.33 34.35 0.66 32.7 1 31 C1.99 30.67 2.98 30.34 4 30 C4 22.08 4 14.16 4 6 C2.68 5.67 1.36 5.34 0 5 C0 3.35 0 1.7 0 0 Z M14 6 C14 8.97 14 11.94 14 15 C16.31 15 18.62 15 21 15 C21 13.68 21 12.36 21 11 C22.65 10.34 24.3 9.68 26 9 C26 8.01 26 7.02 26 6 C22.04 6 18.08 6 14 6 Z M14 20 C14 23.3 14 26.6 14 30 C17.96 30 21.92 30 26 30 C25.81584568 27.05908413 25.81584568 27.05908413 25 24 C23.06616713 22.69934079 23.06616713 22.69934079 21 22 C20.67 21.34 20.34 20.68 20 20 C18.02 20 16.04 20 14 20 Z " fill="#041B50" transform="translate(576,50)"/>
<path d="M0 0 C10.56 0 21.12 0 32 0 C32 3.63 32 7.26 32 11 C30.35 11 28.7 11 27 11 C27 15.95 27 20.9 27 26 C28.32 26 29.64 26 31 26 C31.33 29.3 31.66 32.6 32 36 C21.44 36 10.88 36 0 36 C0 34.35 0 32.7 0 31 C1.65 30.67 3.3 30.34 5 30 C5 22.08 5 14.16 5 6 C3.35 5.67 1.7 5.34 0 5 C0 3.35 0 1.7 0 0 Z M15 6 C15 8.97 15 11.94 15 15 C17.31 15 19.62 15 22 15 C22 13.68 22 12.36 22 11 C23.65 10.67 25.3 10.34 27 10 C26.67 8.68 26.34 7.36 26 6 C22.37 6 18.74 6 15 6 Z M15 20 C15 23.3 15 26.6 15 30 C18.63 30 22.26 30 26 30 C27.33333333 27 27.33333333 27 26 24 C25.01 24 24.02 24 23 24 C22.67 22.35 22.34 20.7 22 19 C19.66140564 19 17.29969577 19.60856242 15 20 Z " fill="#041A51" transform="translate(229,50)"/>
<path d="M0 0 C12.21 0 24.42 0 37 0 C37 3.63 37 7.26 37 11 C34.525 10.505 34.525 10.505 32 10 C31.67 9.34 31.34 8.68 31 8 C31.33 7.34 31.66 6.68 32 6 C29.03 6 26.06 6 23 6 C23 17.22 23 28.44 23 40 C25.97 39.505 25.97 39.505 29 39 C29 40.98 29 42.96 29 45 C22.07 45 15.14 45 8 45 C8 43.35 8 41.7 8 40 C11 39 11 39 14 40 C14 28.78 14 17.56 14 6 C9.545 6.495 9.545 6.495 5 7 C5 8.65 5 10.3 5 12 C3.35 11.67 1.7 11.34 0 11 C0 7.37 0 3.74 0 0 Z " fill="#021A52" transform="translate(149,41)"/>
<path d="M0 0 C-0.33 3.3 -0.66 6.6 -1 10 C-2.65 10.33 -4.3 10.66 -6 11 C-6.144375 10.21625 -6.28875 9.4325 -6.4375 8.625 C-6.87798925 6.03578982 -6.87798925 6.03578982 -8 4 C-9.98 4 -11.96 4 -14 4 C-14.66 5.65 -15.32 7.3 -16 9 C-13.10980269 10.92679821 -10.75049407 12.06882922 -7.375 13 C-3.33521613 14.196973 -2.00341412 15.26547374 0.05078125 18.81640625 C1.63290903 22.45595123 1.62864895 26.10977241 1 30 C-0.9375 31.9375 -0.9375 31.9375 -3 33 C-3.33 33.66 -3.66 34.32 -4 35 C-11.88028097 36.97007024 -19.30480853 36.23860116 -27 34 C-26.67 30.37 -26.34 26.74 -26 23 C-24.35 23 -22.7 23 -21 23 C-20.67 24.65 -20.34 26.3 -20 28 C-18.741875 28.04125 -17.48375 28.0825 -16.1875 28.125 C-15.47980469 28.14820312 -14.77210938 28.17140625 -14.04296875 28.1953125 C-11.68640281 28.13254462 -11.68640281 28.13254462 -9 26 C-9 25.34 -9 24.68 -9 24 C-10.32 23.34 -11.64 22.68 -13 22 C-13 21.34 -13 20.68 -13 20 C-13.598125 20.185625 -14.19625 20.37125 -14.8125 20.5625 C-18.3649055 21.2729811 -20.13599988 19.91296008 -23.125 18 C-26.49309518 15.13460559 -26.83762295 12.35735316 -27.1875 8.0859375 C-26.82921075 4.09996955 -23.8686251 1.5311398 -21 -1 C-14.10523376 -3.27865409 -6.7189433 -2.33702376 0 0 Z " fill="#031A52" transform="translate(878,51)"/>
<path d="M0 0 C6.27 0 12.54 0 19 0 C19.66 1.65 20.32 3.3 21 5 C20.01 5.99 19.02 6.98 18 8 C19.32 8.99 20.64 9.98 22 11 C23.32 9.35 24.64 7.7 26 6 C25.34 6 24.68 6 24 6 C23.67 4.02 23.34 2.04 23 0 C28.61 0 34.22 0 40 0 C40 1.65 40 3.3 40 5 C38.02 5.33 36.04 5.66 34 6 C33.9175 6.53625 33.835 7.0725 33.75 7.625 C32.46226198 11.70283705 30.00339996 14.99660004 27 18 C26.03929566 20.88211302 25.89418117 22.69850044 25.9375 25.6875 C25.94652344 26.49574219 25.95554687 27.30398437 25.96484375 28.13671875 C25.97644531 28.75160156 25.98804688 29.36648437 26 30 C27.32 30.66 28.64 31.32 30 32 C30 33.32 30 34.64 30 36 C23.4 36 16.8 36 10 36 C10 34.35 10 32.7 10 31 C11.65 30.67 13.3 30.34 15 30 C15.33 26.7 15.66 23.4 16 20 C15.01 19.67 14.02 19.34 13 19 C11.4296875 17.07421875 11.4296875 17.07421875 9.875 14.6875 C9.35679687 13.90761719 8.83859375 13.12773438 8.3046875 12.32421875 C7.09527439 10.16972533 6.45271863 8.41265903 6 6 C3.03 5.505 3.03 5.505 0 5 C0 3.35 0 1.7 0 0 Z " fill="#031951" transform="translate(937,50)"/>
<path d="M0 0 C10.89 0 21.78 0 33 0 C33 3.63 33 7.26 33 11 C30.525 10.505 30.525 10.505 28 10 C27.67 9.34 27.34 8.68 27 8 C27.33 7.34 27.66 6.68 28 6 C25.69 6 23.38 6 21 6 C21.33 13.92 21.66 21.84 22 30 C23.65 30.33 25.3 30.66 27 31 C27 32.65 27 34.3 27 36 C20.07 36 13.14 36 6 36 C6.66 34.35 7.32 32.7 8 31 C9.32 31 10.64 31 12 31 C12 22.75 12 14.5 12 6 C10.02 6.66 8.04 7.32 6 8 C5.03122943 10.03243548 5.03122943 10.03243548 5 12 C3.68 11.67 2.36 11.34 1 11 C0.67 7.37 0.34 3.74 0 0 Z " fill="#031950" transform="translate(903,50)"/>
<path d="M0 0 C11.22 0 22.44 0 34 0 C33.67 3.63 33.34 7.26 33 11 C31.68 11 30.36 11 29 11 C28.773125 10.360625 28.54625 9.72125 28.3125 9.0625 C27.879375 8.381875 27.44625 7.70125 27 7 C24.525 6.505 24.525 6.505 22 6 C22 13.92 22 21.84 22 30 C23.32 30.33 24.64 30.66 26 31 C26.33 32.65 26.66 34.3 27 36 C20.4 36 13.8 36 7 36 C7 34.02 7 32.04 7 30 C8.65 30 10.3 30 12 30 C12.33 22.08 12.66 14.16 13 6 C10.69 6 8.38 6 6 6 C6.33 6.99 6.66 7.98 7 9 C6.34 9.66 5.68 10.32 5 11 C3.68 11 2.36 11 1 11 C0.67 7.37 0.34 3.74 0 0 Z " fill="#041952" transform="translate(541,50)"/>
<path d="M0 0 C4.53897705 -0.02465392 9.07791543 -0.04283789 13.61694336 -0.05493164 C15.16219766 -0.0599714 16.70744716 -0.0668032 18.25268555 -0.07543945 C20.46925029 -0.08752076 22.68575218 -0.09323173 24.90234375 -0.09765625 C25.5971434 -0.10281754 26.29194305 -0.10797882 27.00779724 -0.11329651 C28.6722933 -0.11349277 30.33665499 -0.06189129 32 0 C33 1 33 1 33.09765625 3.28515625 C33.08605469 4.20167969 33.07445312 5.11820313 33.0625 6.0625 C33.05347656 6.98160156 33.04445313 7.90070312 33.03515625 8.84765625 C33.02355469 9.55792969 33.01195312 10.26820312 33 11 C30.525 10.505 30.525 10.505 28 10 C27.67 9.01 27.34 8.02 27 7 C24.03 6.505 24.03 6.505 21 6 C21 14.25 21 22.5 21 31 C22.32 30.67 23.64 30.34 25 30 C27 32 27 32 27 36 C20.4 36 13.8 36 7 36 C7.33 34.35 7.66 32.7 8 31 C8.66 30.67 9.32 30.34 10 30 C10.66 30.33 11.32 30.66 12 31 C12 22.75 12 14.5 12 6 C10.02 6.66 8.04 7.32 6 8 C5.67 8.99 5.34 9.98 5 11 C3.68 11 2.36 11 1 11 C0.67 7.37 0.34 3.74 0 0 Z " fill="#041850" transform="translate(474,50)"/>
<path d="M0 0 C0.99 0 1.98 0 3 0 C2.96145401 1.02634048 2.92290802 2.05268097 2.88319397 3.11012268 C2.53158395 12.88851863 2.30693319 22.66313839 2.19947147 32.44734287 C2.14034519 37.47619253 2.04003471 42.49644331 1.83764648 47.52172852 C0.08315005 73.26135714 0.08315005 73.26135714 10.70209026 95.6291151 C15.57114065 100.7020578 20.98901832 105.33724125 27 109 C27.66 109 28.32 109 29 109 C29 109.66 29 110.32 29 111 C45.83 111 62.66 111 80 111 C80.33 111.99 80.66 112.98 81 114 C73.11640408 114.10141744 65.23297638 114.17147331 57.34887695 114.21972656 C54.66672177 114.23758325 51.9849454 114.26541436 49.30297852 114.30175781 C45.44796934 114.35027542 41.59354002 114.37296994 37.73828125 114.390625 C36.53915604 114.41127014 35.34003082 114.43191528 34.10456848 114.45318604 C25.77441294 114.45543155 25.77441294 114.45543155 21.83666992 112.13964844 C19.83173224 109.80397465 17.90728805 107.4158982 16 105 C14.515 104.01 14.515 104.01 13 103 C13 102.34 13 101.68 13 101 C12.34 101 11.68 101 11 101 C9.44921875 99.4609375 9.44921875 99.4609375 7.6875 97.375 C7.11386719 96.70210938 6.54023438 96.02921875 5.94921875 95.3359375 C5.30597656 94.56507812 4.66273437 93.79421875 4 93 C3.14461136 92.14058807 2.28922272 91.28117615 1.40791321 90.39572144 C-1.76650316 86.55732467 -1.64209207 83.15080874 -1.47583008 78.33251953 C-1.46680664 77.48308273 -1.4577832 76.63364594 -1.44848633 75.75846863 C-1.41286806 72.96562711 -1.34142939 70.1749356 -1.26953125 67.3828125 C-1.2377506 65.44086139 -1.20821584 63.49887233 -1.18083191 61.55685425 C-1.10289665 56.45667532 -0.99452591 51.35758305 -0.87976074 46.25811768 C-0.76795449 41.04999575 -0.68500442 35.84142257 -0.59960938 30.6328125 C-0.42794439 20.42122787 -0.22411558 10.21055873 0 0 Z " fill="#051954" transform="translate(7,32)"/>
<path d="M0 0 C6.93 0 13.86 0 21 0 C21 1.65 21 3.3 21 5 C18 6 18 6 15 5 C15.33 13.25 15.66 21.5 16 30 C17.65 30.33 19.3 30.66 21 31 C21 32.65 21 34.3 21 36 C14.07 36 7.14 36 0 36 C0 34.35 0 32.7 0 31 C1.65 30.67 3.3 30.34 5 30 C5 22.08 5 14.16 5 6 C3.35 5.67 1.7 5.34 0 5 C0 3.35 0 1.7 0 0 Z " fill="#03184D" transform="translate(881,50)"/>
<path d="M0 0 C6.6 0 13.2 0 20 0 C20 1.65 20 3.3 20 5 C18.35 5.33 16.7 5.66 15 6 C15 13.92 15 21.84 15 30 C16.65 30 18.3 30 20 30 C20 31.98 20 33.96 20 36 C13.4 36 6.8 36 0 36 C0 34.35 0 32.7 0 31 C1.65 30.67 3.3 30.34 5 30 C5.33 21.75 5.66 13.5 6 5 C4.68 5.33 3.36 5.66 2 6 C1.34 5.34 0.68 4.68 0 4 C0 2.68 0 1.36 0 0 Z " fill="#051650" transform="translate(714,50)"/>
<path d="M0 0 C6.6 0 13.2 0 20 0 C20 1.65 20 3.3 20 5 C18.35 5.33 16.7 5.66 15 6 C15 13.92 15 21.84 15 30 C16.65 30 18.3 30 20 30 C20 31.98 20 33.96 20 36 C13.4 36 6.8 36 0 36 C0 34.02 0 32.04 0 30 C1.98 30.33 3.96 30.66 6 31 C6 22.42 6 13.84 6 5 C5.01 5.33 4.02 5.66 3 6 C2.01 5.67 1.02 5.34 0 5 C0 3.35 0 1.7 0 0 Z " fill="#04194C" transform="translate(366,50)"/>
<path d="M0 0 C12.21 0 24.42 0 37 0 C37 3.63 37 7.26 37 11 C34.525 10.505 34.525 10.505 32 10 C31.67 9.34 31.34 8.68 31 8 C31.33 7.34 31.66 6.68 32 6 C29.03 6 26.06 6 23 6 C23 16.56 23 27.12 23 38 C22.67 38 22.34 38 22 38 C21.97531354 33.33691801 21.95714651 28.67387392 21.94506836 24.01074219 C21.94003412 22.42382139 21.93320631 20.83690523 21.92456055 19.25 C21.91245518 16.97134251 21.90676267 14.69274624 21.90234375 12.4140625 C21.89718246 11.70255035 21.89202118 10.99103821 21.88670349 10.25796509 C21.88612829 5.22774341 21.88612829 5.22774341 23 3 C21.51988629 3.30798326 20.04092675 3.621518 18.5625 3.9375 C17.32693359 4.19853516 17.32693359 4.19853516 16.06640625 4.46484375 C14.02338796 4.80752994 14.02338796 4.80752994 13 6 C10.34536879 6.45459858 7.67810862 6.70243238 5 7 C5 8.65 5 10.3 5 12 C3.35 11.67 1.7 11.34 0 11 C0 7.37 0 3.74 0 0 Z " fill="#061945" transform="translate(149,41)"/>
<path d="M0 0 C0.99 0 1.98 0 3 0 C3 29.04 3 58.08 3 88 C1.68 88 0.36 88 -1 88 C-0.67 58.96 -0.34 29.92 0 0 Z " fill="#2B3B60" transform="translate(7,32)"/>
<path d="M0 0 C0 0.66 0 1.32 0 2 C-0.60038589 1.96145401 -1.20077179 1.92290802 -1.8193512 1.88319397 C-32.68843728 -1.50694893 -32.68843728 -1.50694893 -60.57421875 8.1875 C-66.30765962 13.30206027 -70.9913665 19.46884941 -75 26 C-75.99 25.34 -76.98 24.68 -78 24 C-59.43933928 -6.37566238 -32.41894801 -2.77230096 0 0 Z " fill="#051951" transform="translate(86,7)"/>
<path d="M0 0 C2.76276177 0.52268466 5.3260876 1.10869587 8 2 C9.70283422 2.08770177 11.40892748 2.11765393 13.11401367 2.11352539 C14.67529243 2.11341209 14.67529243 2.11341209 16.26811218 2.11329651 C17.39006485 2.10813522 18.51201752 2.10297394 19.66796875 2.09765625 C20.81791824 2.0962413 21.96786774 2.09482635 23.15266418 2.09336853 C26.83096908 2.08776429 30.50921345 2.07521104 34.1875 2.0625 C36.67903558 2.05748555 39.17057211 2.05292255 41.66210938 2.04882812 C47.77476029 2.03779347 53.88737582 2.02105118 60 2 C60.495 3.485 60.495 3.485 61 5 C53.11646695 5.12677079 45.23319669 5.21433995 37.34887695 5.2746582 C34.66661546 5.29697994 31.9849458 5.33176794 29.30297852 5.37719727 C25.44790745 5.43784525 21.5937423 5.46621127 17.73828125 5.48828125 C15.93959343 5.52699089 15.93959343 5.52699089 14.10456848 5.56648254 C4.834603 5.56960611 4.834603 5.56960611 1.70385742 2.46948242 C1.14158447 1.65455322 0.57931152 0.83962402 0 0 Z " fill="#3D487B" transform="translate(27,141)"/>
<path d="M0 0 C4.29 0 8.58 0 13 0 C13 0.66 13 1.32 13 2 C13.99 1.67 14.98 1.34 16 1 C17 2 17 2 17.09765625 4.50390625 C17.08605469 5.51324219 17.07445312 6.52257813 17.0625 7.5625 C17.05347656 8.57441406 17.04445313 9.58632813 17.03515625 10.62890625 C17.02355469 11.41136719 17.01195312 12.19382812 17 13 C15.02 13 13.04 13 11 13 C11 11.35 11 9.7 11 8 C8.23735711 7.40267181 5.83967231 7 3 7 C3 6.34 3 5.68 3 5 C2.34 5 1.68 5 1 5 C0.67 3.35 0.34 1.7 0 0 Z " fill="#071649" transform="translate(454,40)"/>
<path d="M0 0 C1.32 0 2.64 0 4 0 C4 3.63 4 7.26 4 11 C-5.9 11 -15.8 11 -26 11 C-26 10.67 -26 10.34 -26 10 C-18.41 9.67 -10.82 9.34 -3 9 C-3 8.67 -3 8.34 -3 8 C-4.299375 7.87625 -5.59875 7.7525 -6.9375 7.625 C-9.15234375 7.4140625 -9.15234375 7.4140625 -11 7 C-11.33 6.34 -11.66 5.68 -12 5 C-8.37 5 -4.74 5 -1 5 C-1.33 4.01 -1.66 3.02 -2 2 C-1.34 1.34 -0.68 0.68 0 0 Z " fill="#0C2255" transform="translate(805,75)"/>
<path d="M0 0 C2.48163409 2.48163409 2.68487523 4.53625227 3.02734375 7.9609375 C2.9854018 11.08860895 2.08165373 12.7101809 0 15 C-2.6875 15.8125 -2.6875 15.8125 -5 16 C-5 15.01 -5 14.02 -5 13 C-5.66 13 -6.32 13 -7 13 C-6.67 12.01 -6.34 11.02 -6 10 C-5.360625 9.773125 -4.72125 9.54625 -4.0625 9.3125 C-1.48365921 7.6714195 -1.45867714 6.77598772 -0.75 3.875 C-0.5025 2.59625 -0.255 1.3175 0 0 Z " fill="#091B5D" transform="translate(79,97)"/>
<path d="M0 0 C0.66 0 1.32 0 2 0 C2.34274406 1.66475686 2.67364302 3.33195323 3 5 C3.309375 6.3303125 3.309375 6.3303125 3.625 7.6875 C4.38964562 14.44186968 4.12858036 19.49522619 0 25 C0 16.75 0 8.5 0 0 Z " fill="#041138" transform="translate(720,56)"/>
<path d="M0 0 C0.33 0 0.66 0 1 0 C1 8.58 1 17.16 1 26 C2.32 25.67 3.64 25.34 5 25 C5.66 25.66 6.32 26.32 7 27 C6.67 27.66 6.34 28.32 6 29 C2.7 29 -0.6 29 -4 29 C-3.01 27.68 -2.02 26.36 -1 25 C-0.49888483 22.20236557 -0.49888483 22.20236557 -0.48828125 19.140625 C-0.45283203 18.02558594 -0.41738281 16.91054687 -0.38085938 15.76171875 C-0.35830078 14.60285156 -0.33574219 13.44398437 -0.3125 12.25 C-0.27833984 11.07566406 -0.24417969 9.90132812 -0.20898438 8.69140625 C-0.12654827 5.79436611 -0.05738189 2.89762702 0 0 Z " fill="#041943" transform="translate(357,55)"/>
<path d="M0 0 C5.61 0 11.22 0 17 0 C17 0.99 17 1.98 17 3 C11.39 3 5.78 3 0 3 C0 2.01 0 1.02 0 0 Z " fill="#071332" transform="translate(149,108)"/>
<path d="M0 0 C0.66 0 1.32 0 2 0 C3.31961681 7.33120449 3.11160733 14.63439319 2 22 C1.34 22.66 0.68 23.32 0 24 C0 16.08 0 8.16 0 0 Z " fill="#051438" transform="translate(192,56)"/>
<path d="M0 0 C1.65 0.33 3.3 0.66 5 1 C5 2.65 5 4.3 5 6 C-0.94 6 -6.88 6 -13 6 C-13 5.67 -13 5.34 -13 5 C-11.84371094 4.83564453 -11.84371094 4.83564453 -10.6640625 4.66796875 C-9.66117188 4.50941406 -8.65828125 4.35085937 -7.625 4.1875 C-6.62726562 4.03667969 -5.62953125 3.88585937 -4.6015625 3.73046875 C-1.6712636 3.21227702 -1.6712636 3.21227702 0 0 Z " fill="#0E2352" transform="translate(897,80)"/>
<path d="M0 0 C0.33 0 0.66 0 1 0 C1.02891546 4.45831982 1.04676981 8.91661569 1.0625 13.375 C1.07087891 14.64601563 1.07925781 15.91703125 1.08789062 17.2265625 C1.09111328 18.43828125 1.09433594 19.65 1.09765625 20.8984375 C1.10289307 22.01911621 1.10812988 23.13979492 1.11352539 24.29443359 C1 27 1 27 0 29 C-2.5625 29.625 -2.5625 29.625 -5 30 C-4.625 27.5625 -4.625 27.5625 -4 25 C-3.34 24.67 -2.68 24.34 -2 24 C-1.34 24.33 -0.68 24.66 0 25 C0 16.75 0 8.5 0 0 Z " fill="#0A183F" transform="translate(486,56)"/>
<path d="M0 0 C0.33 1.32 0.66 2.64 1 4 C5.29 4 9.58 4 14 4 C14.33 2.68 14.66 1.36 15 0 C17 2 17 2 17 6 C11.06 6 5.12 6 -1 6 C-1 1 -1 1 0 0 Z " fill="#112559" transform="translate(672,80)"/>
<path d="M0 0 C4.29 0 8.58 0 13 0 C13 0.66 13 1.32 13 2 C12.05125 2.268125 11.1025 2.53625 10.125 2.8125 C6.74732727 3.74986588 6.74732727 3.74986588 5 7 C4.34 7 3.68 7 3 7 C3 6.34 3 5.68 3 5 C2.34 5 1.68 5 1 5 C0.67 3.35 0.34 1.7 0 0 Z " fill="#061446" transform="translate(454,40)"/>
<path d="M0 0 C0.99 0 1.98 0 3 0 C3 7.92 3 15.84 3 24 C2.01 24 1.02 24 0 24 C-0.625 21.125 -0.625 21.125 -1 18 C-0.34 17.34 0.32 16.68 1 16 C1.28222404 12.97457391 1.28222404 12.97457391 1.1875 9.5625 C1.18105469 8.40878906 1.17460938 7.25507812 1.16796875 6.06640625 C1.13302925 2.9593109 1.13302925 2.9593109 0 0 Z " fill="#021138" transform="translate(637,48)"/>
<path d="M0 0 C5.61 0 11.22 0 17 0 C17 1.65 17 3.3 17 5 C15.125 5.625 15.125 5.625 13 6 C12.34 5.34 11.68 4.68 11 4 C11.99 4 12.98 4 14 4 C13.34 3.34 12.68 2.68 12 2 C9.09324817 1.97831363 9.09324817 1.97831363 5.875 2.375 C4.77929688 2.48585937 3.68359375 2.59671875 2.5546875 2.7109375 C1.71164062 2.80632813 0.86859375 2.90171875 0 3 C0 2.01 0 1.02 0 0 Z " fill="#091C43" transform="translate(960,50)"/>
<path d="M0 0 C5.61 0 11.22 0 17 0 C17 1.32 17 2.64 17 4 C16.34 4 15.68 4 15 4 C15 3.34 15 2.68 15 2 C13.35 2.33 11.7 2.66 10 3 C10 2.34 10 1.68 10 1 C7.6568787 1.25561323 5.32156597 1.59270772 3 2 C2.67 2.66 2.34 3.32 2 4 C1.34 4 0.68 4 0 4 C0 2.68 0 1.36 0 0 Z " fill="#041340" transform="translate(654,41)"/>
<path d="M0 0 C4.95 0 9.9 0 15 0 C15 0.99 15 1.98 15 3 C9.72 2.67 4.44 2.34 -1 2 C-0.67 1.34 -0.34 0.68 0 0 Z " fill="#101E47" transform="translate(964,108)"/>
<path d="M0 0 C1.17539996 0.92652701 2.34010577 1.86663387 3.5 2.8125 C4.1496875 3.33457031 4.799375 3.85664062 5.46875 4.39453125 C7 6 7 6 7 9 C5.68 9.33 4.36 9.66 3 10 C2.71125 9.236875 2.4225 8.47375 2.125 7.6875 C1.03730987 4.84970692 1.03730987 4.84970692 -1 2 C-0.67 1.34 -0.34 0.68 0 0 Z " fill="#021D61" transform="translate(15,123)"/>
<path d="M0 0 C5.94 0 11.88 0 18 0 C18 1.65 18 3.3 18 5 C16.68 5.33 15.36 5.66 14 6 C14 4.68 14 3.36 14 2 C7.07 1.505 7.07 1.505 0 1 C0 0.67 0 0.34 0 0 Z " fill="#031844" transform="translate(346,50)"/>
<path d="M0 0 C0.33 0.66 0.66 1.32 1 2 C-0.72888555 2.16955795 -2.45812443 2.33551514 -4.1875 2.5 C-5.15042969 2.5928125 -6.11335937 2.685625 -7.10546875 2.78125 C-10 3 -10 3 -12.71875 2.96875 C-15.32106225 3.00439811 -16.78327974 3.68638799 -19 5 C-19 3.68 -19 2.36 -19 1 C-12.73 0.67 -6.46 0.34 0 0 Z " fill="#06133D" transform="translate(645,40)"/>
<path d="M0 0 C6.6 0 13.2 0 20 0 C20 0.33 20 0.66 20 1 C14.06 1 8.12 1 2 1 C2.33 2.32 2.66 3.64 3 5 C2.01 5 1.02 5 0 5 C0 3.35 0 1.7 0 0 Z " fill="#071A43" transform="translate(208,50)"/>
<path d="M0 0 C4.62 0 9.24 0 14 0 C14.33 1.32 14.66 2.64 15 4 C14.34 4.66 13.68 5.32 13 6 C12.34 6 11.68 6 11 6 C11 4.68 11 3.36 11 2 C7.37 1.67 3.74 1.34 0 1 C0 0.67 0 0.34 0 0 Z " fill="#041643" transform="translate(697,50)"/>
<path d="M0 0 C0.99 0.66 1.98 1.32 3 2 C3 3.32 3 4.64 3 6 C0.69 5.34 -1.62 4.68 -4 4 C-3.67 3.01 -3.34 2.02 -3 1 C-2.01 0.67 -1.02 0.34 0 0 Z " fill="#0C173B" transform="translate(565,80)"/>
<path d="M0 0 C3.3 0 6.6 0 10 0 C9.67 0.66 9.34 1.32 9 2 C8.01 2.33 7.02 2.66 6 3 C6 3.66 6 4.32 6 5 C4.68 4.67 3.36 4.34 2 4 C2.33 3.34 2.66 2.68 3 2 C2.01 2 1.02 2 0 2 C0 1.34 0 0.68 0 0 Z " fill="#0E204F" transform="translate(338,64)"/>
<path d="M0 0 C3.59905908 0.55550695 4.99909799 1.74887248 7.25 4.5625 C8.03117187 5.52349609 8.03117187 5.52349609 8.828125 6.50390625 C9.21484375 6.99761719 9.6015625 7.49132812 10 8 C9.01 8 8.02 8 7 8 C7 7.34 7 6.68 7 6 C6.21625 5.7525 5.4325 5.505 4.625 5.25 C1.67682892 3.84610901 1.0975223 2.99324263 0 0 Z " fill="#01123F" transform="translate(37,106)"/>
<path d="M0 0 C4.29 0 8.58 0 13 0 C13 0.33 13 0.66 13 1 C8.545 1.495 8.545 1.495 4 2 C3.67 3.32 3.34 4.64 3 6 C2.01 5.34 1.02 4.68 0 4 C0 2.68 0 1.36 0 0 Z " fill="#071544" transform="translate(671,50)"/>
<path d="M0 0 C0.33 0.66 0.66 1.32 1 2 C2.32 2 3.64 2 5 2 C5.33 5.3 5.66 8.6 6 12 C5.34 12 4.68 12 4 12 C3.87882812 11.43410156 3.75765625 10.86820313 3.6328125 10.28515625 C3.38144531 9.18494141 3.38144531 9.18494141 3.125 8.0625 C2.96257812 7.33160156 2.80015625 6.60070312 2.6328125 5.84765625 C2.17038477 3.79299706 2.17038477 3.79299706 0 3 C0 2.01 0 1.02 0 0 Z " fill="#091A46" transform="translate(255,74)"/>
<path d="M0 0 C0.99 0 1.98 0 3 0 C3 5.61 3 11.22 3 17 C2.67 17 2.34 17 2 17 C1.67 13.04 1.34 9.08 1 5 C0.67 5 0.34 5 0 5 C0 3.35 0 1.7 0 0 Z " fill="#021038" transform="translate(893,64)"/>
<path d="M0 0 C5.94 1.485 5.94 1.485 12 3 C12 3.33 12 3.66 12 4 C8.37 4 4.74 4 1 4 C0.67 2.68 0.34 1.36 0 0 Z " fill="#253970" transform="translate(517,72)"/>
<path d="M0 0 C1.98 0.495 1.98 0.495 4 1 C4.33 2.65 4.66 4.3 5 6 C3.68 6 2.36 6 1 6 C1 5.01 1 4.02 1 3 C0.34 3 -0.32 3 -1 3 C-0.67 2.01 -0.34 1.02 0 0 Z " fill="#07216B" transform="translate(73,107)"/>
<path d="M0 0 C0.99 0 1.98 0 3 0 C3 1.98 3 3.96 3 6 C1.68 5.67 0.36 5.34 -1 5 C-0.67 3.35 -0.34 1.7 0 0 Z " fill="#07143E" transform="translate(731,80)"/>
<path d="M0 0 C0.99 0.33 1.98 0.66 3 1 C2.67 2.32 2.34 3.64 2 5 C0.68 5.33 -0.64 5.66 -2 6 C-1.125 1.125 -1.125 1.125 0 0 Z " fill="#091135" transform="translate(578,80)"/>
<path d="M0 0 C0.33 0 0.66 0 1 0 C1.33 4.29 1.66 8.58 2 13 C1.34 12.67 0.68 12.34 0 12 C-0.44921875 10.0390625 -0.44921875 10.0390625 -0.6875 7.625 C-0.77386719 6.83351563 -0.86023438 6.04203125 -0.94921875 5.2265625 C-1 3 -1 3 0 0 Z " fill="#08153F" transform="translate(281,58)"/>
<path d="M0 0 C3 1 3 1 4.1875 3.0625 C4.455625 3.701875 4.72375 4.34125 5 5 C3.0625 5.5625 3.0625 5.5625 1 6 C0 5 0 5 -0.0625 2.4375 C-0.041875 1.633125 -0.02125 0.82875 0 0 Z " fill="#031C3F" transform="translate(576,50)"/>
<path d="M0 0 C1.65 0 3.3 0 5 0 C5.33 0.99 5.66 1.98 6 3 C4.35 3.66 2.7 4.32 1 5 C0.67 3.35 0.34 1.7 0 0 Z " fill="#071847" transform="translate(548,80)"/>
<path d="M0 0 C1.32 0 2.64 0 4 0 C3.6875 1.9375 3.6875 1.9375 3 4 C2.01 4.33 1.02 4.66 0 5 C-0.5625 3.0625 -0.5625 3.0625 -1 1 C-0.67 0.67 -0.34 0.34 0 0 Z " fill="#091555" transform="translate(642,42)"/>
<path d="M0 0 C0.625 1.875 0.625 1.875 1 4 C0.34 4.66 -0.32 5.32 -1 6 C-1.99 6 -2.98 6 -4 6 C-4 5.01 -4 4.02 -4 3 C-3.34 3 -2.68 3 -2 3 C-2 2.34 -2 1.68 -2 1 C-1.34 0.67 -0.68 0.34 0 0 Z " fill="#081E4F" transform="translate(45,36)"/>
<path d="M0 0 C0.99 0.66 1.98 1.32 3 2 C3 2.99 3 3.98 3 5 C1.68 5 0.36 5 -1 5 C-1.33 3.68 -1.66 2.36 -2 1 C-1.34 0.67 -0.68 0.34 0 0 Z " fill="#03183F" transform="translate(231,80)"/>
<path d="M0 0 C2.31 0 4.62 0 7 0 C7 0.66 7 1.32 7 2 C5.02 2.33 3.04 2.66 1 3 C0.67 2.01 0.34 1.02 0 0 Z " fill="#020F30" transform="translate(454,40)"/>
<path d="" fill="#EEFEFF" transform="translate(0,0)"/>
<path d="" fill="#8A9EC2" transform="translate(0,0)"/>
<path d="" fill="#1E3163" transform="translate(0,0)"/>
<path d="" fill="#283B6E" transform="translate(0,0)"/>
<path d="" fill="#192D5D" transform="translate(0,0)"/>
<path d="" fill="#1D3468" transform="translate(0,0)"/>
<path d="" fill="#0C2760" transform="translate(0,0)"/>
<path d="" fill="#04215E" transform="translate(0,0)"/>
<path d="" fill="#09275B" transform="translate(0,0)"/>
<path d="" fill="#0B2852" transform="translate(0,0)"/>
<path d="" fill="#0A2454" transform="translate(0,0)"/>
<path d="" fill="#05204E" transform="translate(0,0)"/>
<path d="" fill="#09244F" transform="translate(0,0)"/>
<path d="" fill="#0E285D" transform="translate(0,0)"/>
<path d="" fill="#091F5C" transform="translate(0,0)"/>
<path d="" fill="#061B5A" transform="translate(0,0)"/>
<path d="" fill="#081F55" transform="translate(0,0)"/>
<path d="" fill="#08214D" transform="translate(0,0)"/>
<path d="" fill="#081F55" transform="translate(0,0)"/>
<path d="" fill="#081C5A" transform="translate(0,0)"/>
<path d="" fill="#0F1F60" transform="translate(0,0)"/>
<path d="" fill="#1B296B" transform="translate(0,0)"/>
<path d="" fill="#101F5E" transform="translate(0,0)"/>
<path d="" fill="#0A1C58" transform="translate(0,0)"/>
<path d="" fill="#092058" transform="translate(0,0)"/>
<path d="" fill="#08204F" transform="translate(0,0)"/>
<path d="" fill="#0E2242" transform="translate(0,0)"/>
<path d="" fill="#F4F9FF" transform="translate(0,0)"/>
<path d="" fill="#060B29" transform="translate(0,0)"/>
<path d="" fill="#03134F" transform="translate(0,0)"/>
<path d="" fill="#041D4B" transform="translate(0,0)"/>
<path d="" fill="#0E0971" transform="translate(0,0)"/>
<path d="" fill="#040B40" transform="translate(0,0)"/>
<path d="" fill="#0A1A42" transform="translate(0,0)"/>
<path d="" fill="#05177C" transform="translate(0,0)"/>
<path d="" fill="#172048" transform="translate(0,0)"/>
<path d="" fill="#081484" transform="translate(0,0)"/>
<path d="" fill="#181F48" transform="translate(0,0)"/>
<path d="" fill="#0F156E" transform="translate(0,0)"/>
<path d="" fill="#0D1844" transform="translate(0,0)"/>
<path d="" fill="#11135B" transform="translate(0,0)"/>
<path d="" fill="#122346" transform="translate(0,0)"/>
<path d="" fill="#11264E" transform="translate(0,0)"/>
<path d="" fill="#151B47" transform="translate(0,0)"/>
<path d="" fill="#061F48" transform="translate(0,0)"/>
<path d="" fill="#0F314C" transform="translate(0,0)"/>
<path d="" fill="#022539" transform="translate(0,0)"/>
<path d="" fill="#042352" transform="translate(0,0)"/>
<path d="" fill="#09154A" transform="translate(0,0)"/>
<path d="" fill="#082250" transform="translate(0,0)"/>
<path d="" fill="#091646" transform="translate(0,0)"/>
<path d="" fill="#1B3477" transform="translate(0,0)"/>
<path d="" fill="#08122A" transform="translate(0,0)"/>
<path d="" fill="#040F20" transform="translate(0,0)"/>
<path d="" fill="#061F59" transform="translate(0,0)"/>
<path d="" fill="#041536" transform="translate(0,0)"/>
<path d="" fill="#0D1529" transform="translate(0,0)"/>
<path d="" fill="#092559" transform="translate(0,0)"/>
<path d="" fill="#0D104F" transform="translate(0,0)"/>
<path d="" fill="#091030" transform="translate(0,0)"/>
<path d="" fill="#0A1E40" transform="translate(0,0)"/>
<path d="" fill="#181D36" transform="translate(0,0)"/>
<path d="" fill="#07101F" transform="translate(0,0)"/>
<path d="" fill="#0A1022" transform="translate(0,0)"/>
<path d="" fill="#13152D" transform="translate(0,0)"/>
<path d="" fill="#0D1B32" transform="translate(0,0)"/>
<path d="" fill="#081B4D" transform="translate(0,0)"/>
<path d="" fill="#0B265D" transform="translate(0,0)"/>
<path d="" fill="#081A4F" transform="translate(0,0)"/>
<path d="" fill="#172B4B" transform="translate(0,0)"/>
<path d="" fill="#41578B" transform="translate(0,0)"/>
<path d="" fill="#05183A" transform="translate(0,0)"/>
<path d="" fill="#101737" transform="translate(0,0)"/>
<path d="" fill="#062042" transform="translate(0,0)"/>
<path d="" fill="#031A36" transform="translate(0,0)"/>
<path d="" fill="#08184E" transform="translate(0,0)"/>
<path d="" fill="#061B46" transform="translate(0,0)"/>
<path d="" fill="#0C1864" transform="translate(0,0)"/>
<path d="" fill="#011A36" transform="translate(0,0)"/>
<path d="" fill="#0C1A27" transform="translate(0,0)"/>
<path d="" fill="#365B80" transform="translate(0,0)"/>
<path d="" fill="#061A48" transform="translate(0,0)"/>
<path d="" fill="#031241" transform="translate(0,0)"/>
<path d="" fill="#021B45" transform="translate(0,0)"/>
<path d="" fill="#0A1948" transform="translate(0,0)"/>
<path d="" fill="#0C154B" transform="translate(0,0)"/>
<path d="" fill="#0F2A63" transform="translate(0,0)"/>
<path d="" fill="#09154A" transform="translate(0,0)"/>
<path d="" fill="#0C285C" transform="translate(0,0)"/>
<path d="" fill="#08165C" transform="translate(0,0)"/>
<path d="" fill="#011174" transform="translate(0,0)"/>
<path d="" fill="#06142F" transform="translate(0,0)"/>
<path d="" fill="#031268" transform="translate(0,0)"/>
<path d="" fill="#13133A" transform="translate(0,0)"/>
<path d="" fill="#0E0A69" transform="translate(0,0)"/>
<path d="" fill="#141539" transform="translate(0,0)"/>
<path d="" fill="#091845" transform="translate(0,0)"/>
<path d="" fill="#090B73" transform="translate(0,0)"/>
<path d="" fill="#080B73" transform="translate(0,0)"/>
<path d="" fill="#0D077D" transform="translate(0,0)"/>
<path d="" fill="#09142E" transform="translate(0,0)"/>
<path d="" fill="#0F1632" transform="translate(0,0)"/>
<path d="" fill="#091A32" transform="translate(0,0)"/>
<path d="" fill="#05052E" transform="translate(0,0)"/>
<path d="" fill="#071945" transform="translate(0,0)"/>
<path d="" fill="#051B4A" transform="translate(0,0)"/>
<path d="" fill="#102353" transform="translate(0,0)"/>
<path d="" fill="#061F3B" transform="translate(0,0)"/>
<path d="" fill="#0A133D" transform="translate(0,0)"/>
<path d="" fill="#021B52" transform="translate(0,0)"/>
<path d="" fill="#081D3F" transform="translate(0,0)"/>
<path d="" fill="#081955" transform="translate(0,0)"/>
<path d="" fill="#000A41" transform="translate(0,0)"/>
<path d="" fill="#03192D" transform="translate(0,0)"/>
<path d="" fill="#051A4C" transform="translate(0,0)"/>
<path d="" fill="#091A4D" transform="translate(0,0)"/>
<path d="" fill="#162557" transform="translate(0,0)"/>
<path d="" fill="#091261" transform="translate(0,0)"/>
<path d="" fill="#091A4D" transform="translate(0,0)"/>
<path d="" fill="#071363" transform="translate(0,0)"/>
<path d="" fill="#07196E" transform="translate(0,0)"/>
<path d="" fill="#100D7E" transform="translate(0,0)"/>
<path d="" fill="#0E0C6C" transform="translate(0,0)"/>
<path d="" fill="#0A1B4E" transform="translate(0,0)"/>
<path d="" fill="#0A1948" transform="translate(0,0)"/>
<path d="" fill="#0B0E5B" transform="translate(0,0)"/>
<path d="" fill="#081633" transform="translate(0,0)"/>
<path d="" fill="#071635" transform="translate(0,0)"/>
<path d="" fill="#081540" transform="translate(0,0)"/>
<path d="" fill="#09153C" transform="translate(0,0)"/>
<path d="" fill="#051C3B" transform="translate(0,0)"/>
<path d="" fill="#051C39" transform="translate(0,0)"/>
<path d="" fill="#172252" transform="translate(0,0)"/>
<path d="" fill="#03193A" transform="translate(0,0)"/>
<path d="" fill="#202857" transform="translate(0,0)"/>
<path d="" fill="#04122B" transform="translate(0,0)"/>
<path d="" fill="#0C0D4E" transform="translate(0,0)"/>
<path d="" fill="#0B1327" transform="translate(0,0)"/>
<path d="" fill="#051B4A" transform="translate(0,0)"/>
<path d="" fill="#02224C" transform="translate(0,0)"/>
<path d="" fill="#1E2955" transform="translate(0,0)"/>
<path d="" fill="#0E2848" transform="translate(0,0)"/>
<path d="" fill="#051952" transform="translate(0,0)"/>
<path d="" fill="#0A204D" transform="translate(0,0)"/>
<path d="" fill="#0D295B" transform="translate(0,0)"/>
<path d="" fill="#18264D" transform="translate(0,0)"/>
<path d="" fill="#051A50" transform="translate(0,0)"/>
<path d="" fill="#122D64" transform="translate(0,0)"/>
<path d="" fill="#0D2141" transform="translate(0,0)"/>
<path d="" fill="#04225C" transform="translate(0,0)"/>
<path d="" fill="#0A2B6B" transform="translate(0,0)"/>
<path d="" fill="#0A1017" transform="translate(0,0)"/>
<path d="" fill="#05034A" transform="translate(0,0)"/>
<path d="" fill="#0C0F17" transform="translate(0,0)"/>
<path d="" fill="#070F23" transform="translate(0,0)"/>
<path d="" fill="#062563" transform="translate(0,0)"/>
<path d="" fill="#001C59" transform="translate(0,0)"/>
<path d="" fill="#001B56" transform="translate(0,0)"/>
<path d="" fill="#112A5F" transform="translate(0,0)"/>
<path d="" fill="#031B4E" transform="translate(0,0)"/>
<path d="" fill="#011C57" transform="translate(0,0)"/>
<path d="" fill="#16316A" transform="translate(0,0)"/>
<path d="" fill="#F0F7FF" transform="translate(0,0)"/>
<path d="" fill="#0B265F" transform="translate(0,0)"/>
<path d="" fill="#979CB5" transform="translate(0,0)"/>
<path d="" fill="#16316A" transform="translate(0,0)"/>
<path d="" fill="#0F1246" transform="translate(0,0)"/>
<path d="" fill="#021E56" transform="translate(0,0)"/>
<path d="" fill="#0E1452" transform="translate(0,0)"/>
<path d="" fill="#08235C" transform="translate(0,0)"/>
<path d="" fill="#0E174F" transform="translate(0,0)"/>
<path d="" fill="#0E2962" transform="translate(0,0)"/>
<path d="" fill="#0D1C4E" transform="translate(0,0)"/>
<path d="" fill="#08235C" transform="translate(0,0)"/>
<path d="" fill="#0A204B" transform="translate(0,0)"/>
<path d="" fill="#001B54" transform="translate(0,0)"/>
<path d="" fill="#092549" transform="translate(0,0)"/>
<path d="" fill="#27427B" transform="translate(0,0)"/>
<path d="" fill="#072944" transform="translate(0,0)"/>
<path d="" fill="#0D2861" transform="translate(0,0)"/>
<path d="" fill="#072946" transform="translate(0,0)"/>
<path d="" fill="#09245F" transform="translate(0,0)"/>
<path d="" fill="#0A254E" transform="translate(0,0)"/>
<path d="" fill="#07225D" transform="translate(0,0)"/>
<path d="" fill="#0C234B" transform="translate(0,0)"/>
<path d="" fill="#15306B" transform="translate(0,0)"/>
<path d="" fill="#0E2144" transform="translate(0,0)"/>
<path d="" fill="#0C2664" transform="translate(0,0)"/>
<path d="" fill="#0A1E40" transform="translate(0,0)"/>
<path d="" fill="#152F6D" transform="translate(0,0)"/>
<path d="" fill="#041E45" transform="translate(0,0)"/>
<path d="" fill="#051F5D" transform="translate(0,0)"/>
<path d="" fill="#041A49" transform="translate(0,0)"/>
<path d="" fill="#0D246A" transform="translate(0,0)"/>
<path d="" fill="#0F1255" transform="translate(0,0)"/>
<path d="" fill="#11286D" transform="translate(0,0)"/>
<path d="" fill="#110E56" transform="translate(0,0)"/>
<path d="" fill="#081F5E" transform="translate(0,0)"/>
<path d="" fill="#0E1346" transform="translate(0,0)"/>
<path d="" fill="#031B4E" transform="translate(0,0)"/>
<path d="" fill="#0B173C" transform="translate(0,0)"/>
<path d="" fill="#12284C" transform="translate(0,0)"/>
<path d="" fill="#091B37" transform="translate(0,0)"/>
<path d="" fill="#081C3A" transform="translate(0,0)"/>
<path d="" fill="#0D1E41" transform="translate(0,0)"/>
<path d="" fill="#0E1E49" transform="translate(0,0)"/>
<path d="" fill="#0E1A4A" transform="translate(0,0)"/>
<path d="" fill="#121B45" transform="translate(0,0)"/>
<path d="" fill="#E0EBFF" transform="translate(0,0)"/>
</svg>
