<?xml version="1.0" encoding="UTF-8"?>
<svg version="1.1" xmlns="http://www.w3.org/2000/svg" width="195" height="63">
<path d="M0 0 C17.82 0 35.64 0 54 0 C54 36.38341969 54 36.38341969 49.125 42.875 C48.31675781 43.96554688 48.31675781 43.96554688 47.4921875 45.078125 C46.99976563 45.71234375 46.50734375 46.3465625 46 47 C45.13375 48.299375 45.13375 48.299375 44.25 49.625 C39.97627239 54.13615692 33.76012115 59.3419788 27.5 60.4375 C19.2435546 59.40544432 12.93665136 53.37876592 7.10546875 47.83203125 C-0.45897089 37.65722839 -0.64283347 28.46701783 -0.3125 16.3125 C-0.209375 10.929375 -0.10625 5.54625 0 0 Z " fill="#041C52" transform="translate(0,0)"/>
<path d="M0 0 C3.96 0 7.92 0 12 0 C12.33 0.99 12.66 1.98 13 3 C13.55816406 2.51402344 14.11632812 2.02804688 14.69140625 1.52734375 C18.55089863 -1.02605984 22.53090545 -0.6653021 27 0 C30.55680172 2.10504591 31.69468936 3.08406808 33 7 C33.13513804 8.54120056 33.22384192 10.08676406 33.28125 11.6328125 C33.33732422 12.96505859 33.33732422 12.96505859 33.39453125 14.32421875 C33.46513753 16.19920771 33.5354476 18.07420785 33.60546875 19.94921875 C33.66154297 21.27759766 33.66154297 21.27759766 33.71875 22.6328125 C33.74904297 23.44637207 33.77933594 24.25993164 33.81054688 25.09814453 C33.79811868 27.00929631 33.79811868 27.00929631 35 28 C37.5 28.16666667 37.5 28.16666667 40 28 C41.26181095 26.96207228 41.26181095 26.96207228 41.11352539 24.68334961 C41.10828857 23.68311768 41.10305176 22.68288574 41.09765625 21.65234375 C41.09443359 20.57275391 41.09121094 19.49316406 41.08789062 18.38085938 C41.07951172 17.24455078 41.07113281 16.10824219 41.0625 14.9375 C41.05798828 13.79732422 41.05347656 12.65714844 41.04882812 11.48242188 C41.03699747 8.65489649 41.0205141 5.8274736 41 3 C39.68 3 38.36 3 37 3 C37 2.01 37 1.02 37 0 C40.96 0 44.92 0 49 0 C49.495 1.485 49.495 1.485 50 3 C50.55816406 2.5153125 51.11632812 2.030625 51.69140625 1.53125 C55.54960154 -1.02782369 59.53491001 -0.79475712 64 0 C66.82424288 2.19022918 68.41508603 3.83017207 70 7 C70.15123831 8.5195764 70.24881693 10.04472502 70.31640625 11.5703125 C70.35830078 12.46621094 70.40019531 13.36210937 70.44335938 14.28515625 C70.48267578 15.22230469 70.52199219 16.15945312 70.5625 17.125 C70.60568359 18.06988281 70.64886719 19.01476562 70.69335938 19.98828125 C70.79959072 22.32537092 70.90163176 24.6625683 71 27 C72.32 27.66 73.64 28.32 75 29 C75 29.66 75 30.32 75 31 C69.39 31 63.78 31 58 31 C58 30.34 58 29.68 58 29 C59.65 28.67 61.3 28.34 63 28 C62.89013032 24.72847382 62.7595003 21.45809886 62.625 18.1875 C62.5940625 17.25873047 62.563125 16.32996094 62.53125 15.37304688 C62.47324219 14.0340332 62.47324219 14.0340332 62.4140625 12.66796875 C62.3826416 11.84578857 62.3512207 11.0236084 62.31884766 10.17651367 C62.11626378 7.71047063 62.11626378 7.71047063 60 5 C56.86753281 4.59141732 54.74041424 4.6881768 51.8203125 5.91796875 C48.80735496 9.36411976 49.58256366 13.2858562 49.75 17.6875 C49.76804688 18.58017578 49.78609375 19.47285156 49.8046875 20.39257812 C49.85182241 22.59613504 49.91759343 24.79752601 50 27 C51.32 27.66 52.64 28.32 54 29 C54 29.66 54 30.32 54 31 C43.11 31 32.22 31 21 31 C21 30.34 21 29.68 21 29 C22.65 28.67 24.3 28.34 26 28 C25.8904307 24.54099522 25.75973152 21.08310891 25.625 17.625 C25.5940625 16.64015625 25.563125 15.6553125 25.53125 14.640625 C25.49257812 13.69960938 25.45390625 12.75859375 25.4140625 11.7890625 C25.36693115 10.48509521 25.36693115 10.48509521 25.31884766 9.15478516 C25.18770567 6.79038206 25.18770567 6.79038206 23 5 C19.58706727 4.55483486 17.72233979 4.52102917 14.8203125 6.4453125 C12.10098778 10.26170385 12.56474748 13.68993792 12.75 18.25 C12.77707031 19.51070312 12.77707031 19.51070312 12.8046875 20.796875 C12.85169202 22.86507395 12.92343276 24.93268441 13 27 C14.32 27.66 15.64 28.32 17 29 C17 29.66 17 30.32 17 31 C11.39 31 5.78 31 0 31 C0 30.34 0 29.68 0 29 C1.65 28.67 3.3 28.34 5 28 C4.67 20.08 4.34 12.16 4 4 C2.68 3.67 1.36 3.34 0 3 C0 2.01 0 1.02 0 0 Z " fill="#081E5A" transform="translate(120,18)"/>
<path d="M0 0 C0.33 0 0.66 0 1 0 C1.05883232 4.27077392 1.09387308 8.54144139 1.125 12.8125 C1.14175781 14.00810547 1.15851562 15.20371094 1.17578125 16.43554688 C1.21623057 23.85799643 0.64462645 30.75678331 -1 38 C-5.57154235 38 -5.89194205 37.62045216 -9.00390625 34.60546875 C-9.74447266 33.89712891 -10.48503906 33.18878906 -11.24804688 32.45898438 C-12.01181641 31.70939453 -12.77558594 30.95980469 -13.5625 30.1875 C-14.33013672 29.44951172 -15.09777344 28.71152344 -15.88867188 27.95117188 C-21.40695486 22.6349533 -21.40695486 22.6349533 -23.6237793 20.26147461 C-24.92117785 18.78320866 -24.92117785 18.78320866 -26.890625 19.0234375 C-29.81022898 20.37510601 -31.53922014 22.29452823 -33.75 24.625 C-45.18095827 36.39365276 -45.18095827 36.39365276 -50 38 C-52.35582065 33.37183267 -52.23521469 29.24465865 -52.125 24.1875 C-52.11597656 23.39923828 -52.10695312 22.61097656 -52.09765625 21.79882812 C-52.07422504 19.86575334 -52.03835838 17.9328362 -52 16 C-47.38 15.67 -42.76 15.34 -38 15 C-38 14.34 -38 13.68 -38 13 C-42.29 13 -46.58 13 -51 13 C-51 10.03 -51 7.06 -51 4 C-46.52745503 2.50915168 -42.47254497 2.50915168 -38 4 C-37.67 4.99 -37.34 5.98 -37 7 C-36.67 6.505 -36.34 6.01 -36 5.5 C-33.28702791 3.46527093 -31.24663673 3.68041684 -27.9375 3.69921875 C-26 4 -26 4 -23 6 C-22.67 6.845625 -22.34 7.69125 -22 8.5625 C-21.67 9.366875 -21.34 10.17125 -21 11 C-19.515 11.495 -19.515 11.495 -18 12 C-18.66 10.68 -19.32 9.36 -20 8 C-19.34 7.01 -18.68 6.02 -18 5 C-17.34 5 -16.68 5 -16 5 C-15.8125 8.375 -15.8125 8.375 -16 12 C-19 14 -19 14 -22.125 13.6875 C-25 13 -25 13 -26 12 C-27.66617115 11.95936168 -29.33388095 11.957279 -31 12 C-31.33 12.66 -31.66 13.32 -32 14 C-32.66 14 -33.32 14 -34 14 C-34 14.66 -34 15.32 -34 16 C-22.78 16 -11.56 16 0 16 C0 10.72 0 5.44 0 0 Z " fill="#546480" transform="translate(53,0)"/>
<path d="M0 0 C3.83318619 -0.08789644 7.66610928 -0.14069087 11.5 -0.1875 C13.11648437 -0.22520508 13.11648437 -0.22520508 14.765625 -0.26367188 C21.25657774 -0.32304035 26.13719352 0.13313518 32 3 C36.26007084 7.47853601 37.41583754 10.62712719 37.34765625 16.67578125 C36.74665192 20.69373153 34.98265089 22.28247364 32 25 C27.84917348 27.15579899 24.32026107 27.21159366 19.6875 27.125 C16.3771875 27.063125 16.3771875 27.063125 13 27 C13.33 32.94 13.66 38.88 14 45 C15.32 45.66 16.64 46.32 18 47 C18 47.66 18 48.32 18 49 C11.73 49 5.46 49 -1 49 C-1 48.34 -1 47.68 -1 47 C1.475 46.505 1.475 46.505 4 46 C4.12350083 40.21598128 4.21429191 34.4327279 4.2746582 28.64770508 C4.29981914 26.67947016 4.33395164 24.71132883 4.37719727 22.7434082 C4.4377807 19.91594381 4.46619307 17.08971318 4.48828125 14.26171875 C4.51408768 13.38037766 4.5398941 12.49903656 4.56648254 11.59098816 C4.56754455 9.28329866 4.53931365 7.24412662 4 5 C1.64145516 2.83305447 1.64145516 2.83305447 -1 2 C-0.67 1.34 -0.34 0.68 0 0 Z M13 3 C13 9.93 13 16.86 13 24 C22.21516318 24.78562879 22.21516318 24.78562879 26.625 22.0625 C29.42589559 18.45081884 29.71273253 16.59976157 29.39453125 12.15234375 C28.8518405 9.19172392 27.94690219 7.2945633 26 5 C21.40371521 2.32917961 21.40371521 2.32917961 13 3 Z " fill="#071D56" transform="translate(60,0)"/>
<path d="M0 0 C5.29012124 4.40843437 10.18808428 9.07559794 15 14 C13.32801536 19.22050522 10.84574112 21.01689007 6.3046875 23.82421875 C3.20899645 25.40354588 1.4117511 25.74168502 -2 25 C-6.95342366 22.69409588 -9.83689935 20.55486494 -13 16 C-11.57699887 11.31095412 -8.84303666 8.48389525 -5.375 5.1875 C-4.859375 4.68541016 -4.34375 4.18332031 -3.8125 3.66601562 C-2.54840846 2.43703773 -1.27511194 1.21753999 0 0 Z " fill="#DFE2E3" transform="translate(26,35)"/>
<path d="M0 0 C3.91075925 1.98968453 5.57689098 3.36533646 8 7 C8 8.98 8 10.96 8 13 C0.74 13 -6.52 13 -14 13 C-13.1028125 15.6296875 -13.1028125 15.6296875 -12.1875 18.3125 C-11.85105469 19.29863281 -11.51460937 20.28476562 -11.16796875 21.30078125 C-10.03493877 23.91925523 -9.24688369 25.28835411 -7 27 C-3.12417136 28.00484446 -0.95945437 28.46857074 2.6875 26.6875 C3.450625 26.130625 4.21375 25.57375 5 25 C6.32608822 24.31903578 7.65686601 23.64669414 9 23 C8.45712148 26.80014965 6.88535357 28.53896313 4 31 C-1.39919857 32.79973286 -6.93557265 32.70112627 -12.3125 30.875 C-16.43843192 27.99644284 -19.37787651 24.86637047 -21 20 C-21.42199679 14.51404179 -20.60457866 10.84990509 -18 6 C-12.3945476 -0.28904416 -8.23063564 -0.85905083 0 0 Z M-11.375 4.75 C-13.29014897 7.10832228 -13.29014897 7.10832228 -14 11 C-8.72 11 -3.44 11 2 11 C0.59628479 5.2981424 0.59628479 5.2981424 -2 3 C-5.94245817 2.56194909 -8.12497559 2.35524517 -11.375 4.75 Z " fill="#072056" transform="translate(112,18)"/>
<path d="M0 0 C2.5 0.25 2.5 0.25 4.5 2.25 C4.625 4.875 4.625 4.875 4.5 7.25 C5.16 7.58 5.82 7.91 6.5 8.25 C5.51 8.745 5.51 8.745 4.5 9.25 C4.83 10.24 5.16 11.23 5.5 12.25 C5.83 11.59 6.16 10.93 6.5 10.25 C7.16 10.25 7.82 10.25 8.5 10.25 C8.83 8.93 9.16 7.61 9.5 6.25 C9.83 6.91 10.16 7.57 10.5 8.25 C11.180625 8.105625 11.86125 7.96125 12.5625 7.8125 C17.21386434 8.50525639 19.45807592 11.86327344 22.5 15.25 C23.16 15.91 23.82 16.57 24.5 17.25 C23.24131097 19.09169226 21.96766474 20.92317031 20.6875 22.75 C19.97980469 23.7709375 19.27210937 24.791875 18.54296875 25.84375 C17.86878906 26.6378125 17.19460937 27.431875 16.5 28.25 C15.51 28.25 14.52 28.25 13.5 28.25 C13.28601563 27.70859375 13.07203125 27.1671875 12.8515625 26.609375 C11.01922057 23.4107203 8.50203394 21.04035516 5.875 18.5 C5.359375 17.99339844 4.84375 17.48679687 4.3125 16.96484375 C3.04616661 15.72196098 1.7736856 14.48534724 0.5 13.25 C-0.49 13.58 -1.48 13.91 -2.5 14.25 C-2.5 13.59 -2.5 12.93 -2.5 12.25 C-3.16 12.25 -3.82 12.25 -4.5 12.25 C-4.55395478 10.62536158 -4.59277195 9.00021459 -4.625 7.375 C-4.64820312 6.47007813 -4.67140625 5.56515625 -4.6953125 4.6328125 C-4.41286704 1.18697783 -3.40798164 0.34079816 0 0 Z " fill="#172B55" transform="translate(26.5,22.75)"/>
<path d="M0 0 C8.25 0 16.5 0 25 0 C18.28468654 7.83453237 18.28468654 7.83453237 14.9375 10.625 C12.5796208 12.62358332 10.41794284 14.59528574 8.25 16.8125 C6.20618485 18.79954251 4.6154888 19.93443049 2 21 C-0.20968524 16.58932906 -0.23609543 12.50638736 -0.125 7.6875 C-0.08375 5.150625 -0.0425 2.61375 0 0 Z " fill="#F1F1F2" transform="translate(1,17)"/>
<path d="M0 0 C8.25 0 16.5 0 25 0 C25.04125 2.536875 25.0825 5.07375 25.125 7.6875 C25.14320801 8.47729248 25.16141602 9.26708496 25.18017578 10.08081055 C25.21238339 14.18935813 24.84545212 17.31636131 23 21 C20.03482834 19.65452488 17.8434551 18.13850211 15.46875 15.91796875 C14.50001953 15.01401367 14.50001953 15.01401367 13.51171875 14.09179688 C12.84785156 13.46337891 12.18398438 12.83496094 11.5 12.1875 C10.83613281 11.57068359 10.17226563 10.95386719 9.48828125 10.31835938 C5.958462 7.00342932 3.0640433 3.83005413 0 0 Z " fill="#F2F2F4" transform="translate(27,17)"/>
<path d="M0 0 C3.09556477 1.71582733 5.38522573 4.16003243 7.80078125 6.69921875 C8.30738281 7.21935547 8.81398438 7.73949219 9.3359375 8.27539062 C10.5811253 9.55581959 11.81689627 10.84539429 13.05078125 12.13671875 C12.42300781 12.43320312 11.79523437 12.7296875 11.1484375 13.03515625 C8.99183385 14.02675836 8.99183385 14.02675836 7.48828125 15.76171875 C6.05078125 17.13671875 6.05078125 17.13671875 3.05078125 17.13671875 C3.21578125 16.49734375 3.38078125 15.85796875 3.55078125 15.19921875 C4.38744922 11.74796338 3.19277739 9.49133241 2.05078125 6.13671875 C0.3846622 6.09399775 -1.2830476 6.09608043 -2.94921875 6.13671875 C-4.61264712 7.80014712 -4.30969972 9.91928965 -4.51171875 12.19921875 C-4.59550781 13.11832031 -4.67929687 14.03742187 -4.765625 14.984375 C-4.85650391 16.04978516 -4.85650391 16.04978516 -4.94921875 17.13671875 C-4.28921875 17.13671875 -3.62921875 17.13671875 -2.94921875 17.13671875 C-3.27921875 18.45671875 -3.60921875 19.77671875 -3.94921875 21.13671875 C-5.26921875 21.46671875 -6.58921875 21.79671875 -7.94921875 22.13671875 C-8.60921875 20.48671875 -9.26921875 18.83671875 -9.94921875 17.13671875 C-12.28086909 16.80173574 -12.28086909 16.80173574 -14.94921875 17.13671875 C-17.26299022 19.03255984 -17.26299022 19.03255984 -18.94921875 21.13671875 C-19.93921875 20.47671875 -20.92921875 19.81671875 -21.94921875 19.13671875 C-21.22734375 18.57984375 -20.50546875 18.02296875 -19.76171875 17.44921875 C-16.02033059 14.37296626 -12.72069231 10.96168432 -9.4140625 7.42578125 C-8.58003906 6.54664063 -7.74601562 5.6675 -6.88671875 4.76171875 C-6.05011719 3.86710937 -5.21351562 2.9725 -4.3515625 2.05078125 C-1.94921875 0.13671875 -1.94921875 0.13671875 0 0 Z " fill="#162C56" transform="translate(26.94921875,17.86328125)"/>
<path d="M0 0 C0.33 0 0.66 0 1 0 C1.06058594 1.16917969 1.12117187 2.33835937 1.18359375 3.54296875 C1.26804034 5.09115614 1.35268625 6.63933268 1.4375 8.1875 C1.47681641 8.95642578 1.51613281 9.72535156 1.55664062 10.51757812 C1.77507034 14.43251075 2.08692108 18.17120688 3 22 C7.96911366 20.87302957 7.96911366 20.87302957 12 18 C14.5 17.75 14.5 17.75 17 18 C19 20 19 20 19 24 C19.66 24.33 20.32 24.66 21 25 C18.69 27.64 16.38 30.28 14 33 C14.66 34.32 15.32 35.64 16 37 C16.33 37.66 16.66 38.32 17 39 C9.38557347 35.59131463 4.03543556 28.93788609 0.83203125 21.36328125 C-0.89646048 14.37627949 -0.35345461 7.13978302 0 0 Z " fill="#1B2959" transform="translate(0,16)"/>
<path d="M0 0 C4.08403601 -0.10778981 8.1652368 -0.18722647 12.25 -0.25 C13.40886719 -0.28351562 14.56773438 -0.31703125 15.76171875 -0.3515625 C16.87675781 -0.36445312 17.99179687 -0.37734375 19.140625 -0.390625 C20.16704102 -0.41157227 21.19345703 -0.43251953 22.25097656 -0.45410156 C25.67322977 0.11120847 26.82758037 1.37309927 29 4 C28.67 4.66 28.34 5.32 28 6 C27.67 5.67 27.34 5.34 27 5 C21.46449693 4.51676931 21.46449693 4.51676931 16.5 6.5 C16.005 6.995 15.51 7.49 15 8 C15 6.68 15 5.36 15 4 C10.71 4 6.42 4 2 4 C2 6.97 2 9.94 2 13 C6.29 13 10.58 13 15 13 C15.33 12.34 15.66 11.68 16 11 C16.33 12.65 16.66 14.3 17 16 C11.39 16 5.78 16 0 16 C0 10.72 0 5.44 0 0 Z " fill="#0F2461" transform="translate(0,0)"/>
<path d="M0 0 C11.55 0 23.1 0 35 0 C34.34 2.31 33.68 4.62 33 7 C32.34 7 31.68 7 31 7 C30.34 5.68 29.68 4.36 29 3 C28.67 4.32 28.34 5.64 28 7 C27.01 7 26.02 7 25 7 C25.33 5.35 25.66 3.7 26 2 C25.01 2 24.02 2 23 2 C23.33 3.65 23.66 5.3 24 7 C23.443125 6.814375 22.88625 6.62875 22.3125 6.4375 C19.5527914 5.91539297 17.75047422 6.437403 15 7 C12.32659425 7.08961137 9.6761048 7.04535771 7 7 C6.34 5.68 5.68 4.36 5 3 C4.34 4.32 3.68 5.64 3 7 C2.34 6.67 1.68 6.34 1 6 C0.67 4.02 0.34 2.04 0 0 Z M15 3 C15.33 3.66 15.66 4.32 16 5 C16.33 4.34 16.66 3.68 17 3 C16.34 3 15.68 3 15 3 Z " fill="#233366" transform="translate(78,54)"/>
<path d="M0 0 C0 5.28 0 10.56 0 16 C-11.22 16 -22.44 16 -34 16 C-34 15.34 -34 14.68 -34 14 C-33.34 14 -32.68 14 -32 14 C-31.67 13.01 -31.34 12.02 -31 11 C-28.25203745 10.84733541 -26.462586 10.75425119 -24 12.0625 C-21.34415882 13.30742555 -19.76432655 12.76786849 -17 12 C-16.67 9.69 -16.34 7.38 -16 5 C-15.67 5 -15.34 5 -15 5 C-14.67 7.31 -14.34 9.62 -14 12 C-10.04 12.33 -6.08 12.66 -2 13 C-2 10.03 -2 7.06 -2 4 C-3.134375 3.87625 -4.26875 3.7525 -5.4375 3.625 C-6.613125 3.41875 -7.78875 3.2125 -9 3 C-9.33 2.34 -9.66 1.68 -10 1 C-8 0 -8 0 0 0 Z " fill="#0E214F" transform="translate(53,0)"/>
<path d="M0 0 C0.91523438 0.0721875 1.83046875 0.144375 2.7734375 0.21875 C3.96195313 0.3115625 5.15046875 0.404375 6.375 0.5 C8.15003906 0.63921875 8.15003906 0.63921875 9.9609375 0.78125 C11.63786843 0.90195454 13.31873056 1 15 1 C19.33333333 1 23.66666667 1 28 1 C28.33 2.98 28.66 4.96 29 7 C27.68 7.33 26.36 7.66 25 8 C24.34 6.68 23.68 5.36 23 4 C22.67 5.32 22.34 6.64 22 8 C21.319375 7.814375 20.63875 7.62875 19.9375 7.4375 C16.41592502 6.91301011 13.5014584 7.42703408 10 8 C8.68 8 7.36 8 6 8 C5.67 6.68 5.34 5.36 5 4 C4.34 5.32 3.68 6.64 3 8 C2.01 8 1.02 8 0 8 C0 5.36 0 2.72 0 0 Z M2 1 C3 3 3 3 3 3 Z " fill="#152659" transform="translate(129,53)"/>
<path d="M0 0 C1.97265625 0.265625 1.97265625 0.265625 4.97265625 2.265625 C5.30265625 3.11125 5.63265625 3.956875 5.97265625 4.828125 C6.30265625 5.6325 6.63265625 6.436875 6.97265625 7.265625 C7.96265625 7.595625 8.95265625 7.925625 9.97265625 8.265625 C9.31265625 6.945625 8.65265625 5.625625 7.97265625 4.265625 C8.63265625 3.275625 9.29265625 2.285625 9.97265625 1.265625 C10.63265625 1.265625 11.29265625 1.265625 11.97265625 1.265625 C12.16015625 4.640625 12.16015625 4.640625 11.97265625 8.265625 C8.97265625 10.265625 8.97265625 10.265625 5.84765625 9.953125 C2.97265625 9.265625 2.97265625 9.265625 1.97265625 8.265625 C-1.51615324 8.07180225 -4.62904014 8.48886989 -8.02734375 9.265625 C-8.15234375 5.890625 -8.15234375 5.890625 -8.02734375 2.265625 C-5.42029477 -0.34142398 -3.55396134 0.02657167 0 0 Z " fill="#C8D3DE" transform="translate(25.02734375,3.734375)"/>
<path d="M0 0 C9.76991826 -0.62583106 9.76991826 -0.62583106 14.5625 1.8125 C17 4 17 4 19 7 C19 8.98 19 10.96 19 13 C12.4 13 5.8 13 -1 13 C-1 12.34 -1 11.68 -1 11 C3.62 11 8.24 11 13 11 C10.8003784 4.9467027 10.8003784 4.9467027 7.0625 3.8125 C6.051875 3.544375 5.04125 3.27625 4 3 C2.63953039 2.03724343 1.30062543 1.04218582 0 0 Z " fill="#0A1B4B" transform="translate(101,18)"/>
<path d="M0 0 C0.66 0 1.32 0 2 0 C2.33 1.65 2.66 3.3 3 5 C3.66 5 4.32 5 5 5 C4.67 3.35 4.34 1.7 4 0 C7.33333333 0 10.66666667 0 14 0 C13.67 1.65 13.34 3.3 13 5 C13.66 5 14.32 5 15 5 C15.33 3.35 15.66 1.7 16 0 C16.66 0 17.32 0 18 0 C18.66 1.98 19.32 3.96 20 6 C16.91288999 6.91469926 14.21168678 7.08029217 11 7 C9.68 7 8.36 7 7 7 C4 7 1 7 -2 7 C-1.34 4.69 -0.68 2.38 0 0 Z " fill="#142658" transform="translate(175,54)"/>
<path d="M0 0 C0.99 0.33 1.98 0.66 3 1 C3 2.32 3 3.64 3 5 C3.66 5.33 4.32 5.66 5 6 C4.67 4.02 4.34 2.04 4 0 C8.29 0.33 12.58 0.66 17 1 C17.33 2.98 17.66 4.96 18 7 C17.01 7.33 16.02 7.66 15 8 C14.67 6.35 14.34 4.7 14 3 C13.67 4.32 13.34 5.64 13 7 C8.68429392 7.93312564 5.26900429 8.28070129 1 7 C0 6 0 6 -0.0625 2.9375 C-0.041875 1.968125 -0.02125 0.99875 0 0 Z M7 3 C8 6 8 6 8 6 Z " fill="#16255B" transform="translate(60,53)"/>
<path d="M0 0 C1.65 0.33 3.3 0.66 5 1 C2.38888348 5.83540096 -0.37457083 9.87103901 -4 14 C-6.56326494 12.71836753 -6.82416059 11.57214871 -8 9 C-8.37125 8.2575 -8.7425 7.515 -9.125 6.75 C-9.41375 6.1725 -9.7025 5.595 -10 5 C-9.0925 5.04125 -8.185 5.0825 -7.25 5.125 C-4.1217954 5.00468444 -2.61385994 4.6085292 0 3 C0 2.01 0 1.02 0 0 Z " fill="#0C2056" transform="translate(46,38)"/>
<path d="M0 0 C3.5 0.125 3.5 0.125 4.5 1.125 C4.54092937 3.45797433 4.54241723 5.79205225 4.5 8.125 C1.12182575 8.96954356 -1.17465243 9.23344919 -4.5 8.125 C-4.54241723 5.79205225 -4.54092937 3.45797433 -4.5 1.125 C-3.5 0.125 -3.5 0.125 0 0 Z " fill="#F1F0F3" transform="translate(8.5,2.875)"/>
<path d="M0 0 C1 1 1 1 1.0625 4.5625 C1.041875 5.696875 1.02125 6.83125 1 8 C-1.97 8 -4.94 8 -8 8 C-8.33 5.69 -8.66 3.38 -9 1 C-6.01787087 -0.49106457 -3.28390342 -0.11941467 0 0 Z " fill="#E3E9F6" transform="translate(48,3)"/>
<path d="M0 0 C2.33944736 0.28730055 4.6739143 0.61936779 7 1 C7.1875 3.875 7.1875 3.875 7 7 C4 9 4 9 1.9375 8.75 C0 8 0 8 -2 6 C-1.44444444 1.44444444 -1.44444444 1.44444444 0 0 Z " fill="#E1E5ED" transform="translate(36,34)"/>
<path d="M0 0 C2.5 0.25 2.5 0.25 4.5 2.25 C4.17028521 5.54714793 3.8773161 6.8726839 1.5 9.25 C-3.05555556 8.69444444 -3.05555556 8.69444444 -4.5 7.25 C-4.6875 4.8125 -4.6875 4.8125 -4.5 2.25 C-2.5 0.25 -2.5 0.25 0 0 Z " fill="#F2F1F8" transform="translate(14.5,33.75)"/>
<path d="M0 0 C2.5625 0.1875 2.5625 0.1875 4.5625 2.1875 C4.00694444 6.74305556 4.00694444 6.74305556 2.5625 8.1875 C0.125 8.375 0.125 8.375 -2.4375 8.1875 C-3.0975 7.5275 -3.7575 6.8675 -4.4375 6.1875 C-3.71780303 0.28598485 -3.71780303 0.28598485 0 0 Z " fill="#E5F3F7" transform="translate(26.4375,22.8125)"/>
<path d="M0 0 C2.01822917 0.06510417 4.03645833 0.13020833 6.0546875 0.1953125 C6.0546875 0.8553125 6.0546875 1.5153125 6.0546875 2.1953125 C3.7446875 1.8653125 1.4346875 1.5353125 -0.9453125 1.1953125 C-0.9453125 1.8553125 -0.9453125 2.5153125 -0.9453125 3.1953125 C1.0346875 3.1953125 3.0146875 3.1953125 5.0546875 3.1953125 C4.0646875 3.5253125 3.0746875 3.8553125 2.0546875 4.1953125 C2.0546875 4.8553125 2.0546875 5.5153125 2.0546875 6.1953125 C2.7146875 6.5253125 3.3746875 6.8553125 4.0546875 7.1953125 C0.96659055 8.95993933 -0.17843386 9.1953125 -3.9453125 9.1953125 C-4.0703125 5.8203125 -4.0703125 5.8203125 -3.9453125 2.1953125 C-1.9453125 0.1953125 -1.9453125 0.1953125 0 0 Z " fill="#9FA7B7" transform="translate(20.9453125,3.8046875)"/>
<path d="M0 0 C0.33 0.99 0.66 1.98 1 3 C5.29 3 9.58 3 14 3 C14.33 2.34 14.66 1.68 15 1 C15.33 2.65 15.66 4.3 16 6 C10.72 6 5.44 6 0 6 C0 4.02 0 2.04 0 0 Z " fill="#091E4C" transform="translate(1,10)"/>
<path d="M0 0 C3.25543229 0.34879632 4.01873107 1.02133261 6.25 3.5625 C6.8275 4.366875 7.405 5.17125 8 6 C4.535 7.485 4.535 7.485 1 9 C1 9.66 1 10.32 1 11 C0.01 10.67 -0.98 10.34 -2 10 C-1.835 9.401875 -1.67 8.80375 -1.5 8.1875 C-0.8885876 5.88655664 -0.8885876 5.88655664 -1 3 C-0.67 2.01 -0.34 1.02 0 0 Z " fill="#111C4A" transform="translate(32,25)"/>
<path d="M0 0 C4.29 0 8.58 0 13 0 C11.73577236 2.52845528 10.47154472 2.76422764 8 4 C7.67 4.66 7.34 5.32 7 6 C7.99 6.33 8.98 6.66 10 7 C9.34 7.66 8.68 8.32 8 9 C6.66368764 7.6905332 5.33102075 6.37734515 4 5.0625 C3.2575 4.33160156 2.515 3.60070312 1.75 2.84765625 C0 1 0 1 0 0 Z " fill="#E4F0F8" transform="translate(27,17)"/>
<path d="M0 0 C3.27344435 1.63672217 4.90973729 4.17035146 7.125 7.0625 C6.465 7.0625 5.805 7.0625 5.125 7.0625 C4.795 8.0525 4.465 9.0425 4.125 10.0625 C3.465 8.7425 2.805 7.4225 2.125 6.0625 C0.145 6.0625 -1.835 6.0625 -3.875 6.0625 C-4.205 5.0725 -4.535 4.0825 -4.875 3.0625 C-2.49143836 0.08304795 -2.49143836 0.08304795 0 0 Z " fill="#26325F" transform="translate(26.875,17.9375)"/>
<path d="M0 0 C2.75 1.0625 2.75 1.0625 4.125 3.625 C4.33125 4.429375 4.5375 5.23375 4.75 6.0625 C4.09 5.7325 3.43 5.4025 2.75 5.0625 C-2.7895843 4.57804304 -2.7895843 4.57804304 -7.75 6.5625 C-8.245 7.0575 -8.74 7.5525 -9.25 8.0625 C-9.25 6.7425 -9.25 5.4225 -9.25 4.0625 C-6.09732658 1.28514484 -4.23935438 0.08152605 0 0 Z " fill="#192956" transform="translate(24.25,-0.0625)"/>
<path d="M0 0 C0.66 0 1.32 0 2 0 C2 2.97 2 5.94 2 9 C-1.96 9 -5.92 9 -10 9 C-9.67 8.34 -9.34 7.68 -9 7 C-6.03 7 -3.06 7 0 7 C0 4.69 0 2.38 0 0 Z " fill="#7382A1" transform="translate(49,4)"/>
<path d="M0 0 C0.99 0.33 1.98 0.66 3 1 C3 2.32 3 3.64 3 5 C3.66 5.33 4.32 5.66 5 6 C4.67 4.02 4.34 2.04 4 0 C5.32 0.33 6.64 0.66 8 1 C7.25 3.9375 7.25 3.9375 6 7 C4 8 4 8 2 8 C0 6 0 6 -0.125 2.875 C-0.08375 1.92625 -0.0425 0.9775 0 0 Z " fill="#1D2A54" transform="translate(60,53)"/>
<path d="M0 0 C0.66 0 1.32 0 2 0 C2 2.31 2 4.62 2 7 C4.97 7 7.94 7 11 7 C11.33 7.66 11.66 8.32 12 9 C8.04 9 4.08 9 0 9 C0 6.03 0 3.06 0 0 Z " fill="#6E7C9D" transform="translate(2,4)"/>
<path d="M0 0 C2.31 0 4.62 0 7 0 C6 3 6 3 3.9375 4.1875 C3.298125 4.455625 2.65875 4.72375 2 5 C2 7.31 2 9.62 2 12 C1.34 12 0.68 12 0 12 C0 8.04 0 4.08 0 0 Z " fill="#243667" transform="translate(38,0)"/>
<path d="M0 0 C1.98 1.65 3.96 3.3 6 5 C5.01 5.495 5.01 5.495 4 6 C4 6.99 4 7.98 4 9 C1.5 10.6875 1.5 10.6875 -1 12 C-1.33 11.34 -1.66 10.68 -2 10 C-1.34 9.67 -0.68 9.34 0 9 C0.65772428 5.97065509 0.65772428 5.97065509 1 3 C0.34 2.67 -0.32 2.34 -1 2 C-0.67 1.34 -0.34 0.68 0 0 Z " fill="#2E3865" transform="translate(42,32)"/>
<path d="M0 0 C0.33 0 0.66 0 1 0 C1 1.65 1 3.3 1 5 C1.66 5 2.32 5 3 5 C2.67 6.32 2.34 7.64 2 9 C0.68 9.33 -0.64 9.66 -2 10 C-2 7.36 -2 4.72 -2 2 C-1.34 2 -0.68 2 0 2 C0 1.34 0 0.68 0 0 Z " fill="#08235C" transform="translate(21,30)"/>
<path d="M0 0 C3.3 0 6.6 0 10 0 C8.02 0.99 8.02 0.99 6 2 C4.24677063 4.53188648 4.24677063 4.53188648 3 7 C2.34 6.67 1.68 6.34 1 6 C0.375 2.9375 0.375 2.9375 0 0 Z " fill="#18275E" transform="translate(78,54)"/>
<path d="M0 0 C3.96 0 7.92 0 12 0 C12 0.66 12 1.32 12 2 C9.69 2 7.38 2 5 2 C4.67 2.66 4.34 3.32 4 4 C2.68 3.67 1.36 3.34 0 3 C0 2.01 0 1.02 0 0 Z " fill="#0B1C4E" transform="translate(120,18)"/>
<path d="M0 0 C0.99 0.495 0.99 0.495 2 1 C2.4140625 3.50390625 2.4140625 3.50390625 2.625 6.5625 C2.69976562 7.57441406 2.77453125 8.58632813 2.8515625 9.62890625 C2.92503906 10.80259766 2.92503906 10.80259766 3 12 C2.01 12.33 1.02 12.66 0 13 C0 8.71 0 4.42 0 0 Z " fill="#F6F5FC" transform="translate(1,17)"/>
<path d="M0 0 C0.66 0 1.32 0 2 0 C2.1875 3.375 2.1875 3.375 2 7 C-1 9 -1 9 -3.1875 8.625 C-3.785625 8.41875 -4.38375 8.2125 -5 8 C-5 7.34 -5 6.68 -5 6 C-2.525 6.495 -2.525 6.495 0 7 C-0.66 5.68 -1.32 4.36 -2 3 C-1.34 2.01 -0.68 1.02 0 0 Z " fill="#B4C5DE" transform="translate(35,5)"/>
<path d="M0 0 C0.99 0 1.98 0 3 0 C2.88658363 2.31309705 2.75896193 4.62550185 2.625 6.9375 C2.52058594 8.86916016 2.52058594 8.86916016 2.4140625 10.83984375 C2.27742187 11.88269531 2.14078125 12.92554688 2 14 C1.01 14.495 1.01 14.495 0 15 C0 10.05 0 5.1 0 0 Z " fill="#0A2756" transform="translate(0,1)"/>
<path d="M0 0 C-0.185625 0.763125 -0.37125 1.52625 -0.5625 2.3125 C-1.22819173 5.08967375 -1.22819173 5.08967375 0 8 C-1.32 7.67 -2.64 7.34 -4 7 C-4.33 5.02 -4.66 3.04 -5 1 C-2 0 -2 0 0 0 Z " fill="#1B2C52" transform="translate(35,4)"/>
<path d="M0 0 C0.99 0.33 1.98 0.66 3 1 C2.67 1.99 2.34 2.98 2 4 C1.34 4 0.68 4 0 4 C-0.99 7.465 -0.99 7.465 -2 11 C-2.33 11 -2.66 11 -3 11 C-3.36923077 3.49230769 -3.36923077 3.49230769 -1.5 1 C-1.005 0.67 -0.51 0.34 0 0 Z " fill="#18225C" transform="translate(124,52)"/>
<path d="M0 0 C3.63 0 7.26 0 11 0 C10.67 0.99 10.34 1.98 10 3 C5.06071112 3.3367697 4.21507278 3.16130459 0 0 Z " fill="#072361" transform="translate(25,0)"/>
<path d="M0 0 C1.65 0.33 3.3 0.66 5 1 C4.34 2.65 3.68 4.3 3 6 C1.68 5.67 0.36 5.34 -1 5 C-0.67 3.35 -0.34 1.7 0 0 Z M1 2 C2 4 2 4 2 4 Z " fill="#152358" transform="translate(116,55)"/>
<path d="M0 0 C2.0625 2.3125 2.0625 2.3125 4 5 C3.67 5.99 3.34 6.98 3 8 C1.68 8 0.36 8 -1 8 C-1.04241723 5.66705225 -1.04092937 3.33297433 -1 1 C-0.67 0.67 -0.34 0.34 0 0 Z " fill="#D2DDEF" transform="translate(18,5)"/>
<path d="M0 0 C0.6875 1.8125 0.6875 1.8125 1 4 C-0.125 5.8125 -0.125 5.8125 -2 7 C-4.625 6.8125 -4.625 6.8125 -7 6 C-7.33 5.34 -7.66 4.68 -8 4 C-5.36 3.67 -2.72 3.34 0 3 C0 2.01 0 1.02 0 0 Z " fill="#C2C8DF" transform="translate(18,36)"/>
<path d="M0 0 C1.32 0.66 2.64 1.32 4 2 C3.773125 2.5775 3.54625 3.155 3.3125 3.75 C2.73494807 6.12172477 2.73494807 6.12172477 4.4375 8.25 C4.953125 8.8275 5.46875 9.405 6 10 C2.19118361 8.55527654 0.70257114 6.67396929 -1 3 C-0.67 2.01 -0.34 1.02 0 0 Z " fill="#2C3465" transform="translate(11,45)"/>
<path d="M0 0 C3.63 0 7.26 0 11 0 C9.68 1.32 8.36 2.64 7 4 C7 3.01 7 2.02 7 1 C6.401875 1.350625 5.80375 1.70125 5.1875 2.0625 C3 3 3 3 0 2 C0 1.34 0 0.68 0 0 Z " fill="#EDF3FE" transform="translate(15,17)"/>
<path d="M0 0 C1.65 0 3.3 0 5 0 C4.34 2.31 3.68 4.62 3 7 C2.34 7 1.68 7 1 7 C0.67 4.69 0.34 2.38 0 0 Z " fill="#182652" transform="translate(108,54)"/>
<path d="M0 0 C1.65 0 3.3 0 5 0 C4.34 2.31 3.68 4.62 3 7 C0.64046906 4.64046906 0.50858587 3.22104383 0 0 Z " fill="#182259" transform="translate(158,54)"/>
<path d="M0 0 C1.98 0.66 3.96 1.32 6 2 C5.01 2.66 4.02 3.32 3 4 C3.66 4.66 4.32 5.32 5 6 C4.01 6.66 3.02 7.32 2 8 C2 7.34 2 6.68 2 6 C1.34 6 0.68 6 0 6 C0 4.02 0 2.04 0 0 Z " fill="#22336B" transform="translate(22,29)"/>
<path d="M0 0 C0.66 0 1.32 0 2 0 C2.125 2.375 2.125 2.375 2 5 C1.34 5.66 0.68 6.32 0 7 C-0.99 7 -1.98 7 -3 7 C-2.42655063 4.13275314 -2.1385485 3.1385485 0 1 C0 0.67 0 0.34 0 0 Z " fill="#031F5E" transform="translate(33,28)"/>
<path d="M0 0 C0.99 0 1.98 0 3 0 C3.125 5.75 3.125 5.75 2 8 C1.34 8 0.68 8 0 8 C0 5.36 0 2.72 0 0 Z " fill="#0A1548" transform="translate(65,8)"/>
<path d="M0 0 C1.98 0 3.96 0 6 0 C5.34 1.98 4.68 3.96 4 6 C3.34 6 2.68 6 2 6 C1.34 4.02 0.68 2.04 0 0 Z " fill="#16255A" transform="translate(168,54)"/>
<path d="M0 0 C1.134375 0.020625 2.26875 0.04125 3.4375 0.0625 C1.07796906 2.42203094 -0.34145617 2.55391413 -3.5625 3.0625 C-3.5625 4.7125 -3.5625 6.3625 -3.5625 8.0625 C-3.8925 8.0625 -4.2225 8.0625 -4.5625 8.0625 C-4.60491723 5.72955225 -4.60342937 3.39547433 -4.5625 1.0625 C-3.5625 0.0625 -3.5625 0.0625 0 0 Z " fill="#D0D6ED" transform="translate(8.5625,2.9375)"/>
<path d="M0 0 C0.99 0.33 1.98 0.66 3 1 C3 1.99 3 2.98 3 4 C3.66 4.33 4.32 4.66 5 5 C4.67 5.66 4.34 6.32 4 7 C2.68 6.67 1.36 6.34 0 6 C0 4.02 0 2.04 0 0 Z " fill="#182450" transform="translate(164,54)"/>
<path d="M0 0 C1.32 0.66 2.64 1.32 4 2 C3.67 2.99 3.34 3.98 3 5 C1.68 4.67 0.36 4.34 -1 4 C-0.67 2.68 -0.34 1.36 0 0 Z " fill="#DDE5F0" transform="translate(37,47)"/>
<path d="M0 0 C2.5 1.375 2.5 1.375 5 3 C5 3.66 5 4.32 5 5 C4.01 5.33 3.02 5.66 2 6 C1.01 5.01 0.02 4.02 -1 3 C-0.67 2.01 -0.34 1.02 0 0 Z " fill="#EEF2FD" transform="translate(14,48)"/>
<path d="M0 0 C0.99 0 1.98 0 3 0 C3 0.66 3 1.32 3 2 C3.99 2.66 4.98 3.32 6 4 C4.35 4.33 2.7 4.66 1 5 C0.67 3.35 0.34 1.7 0 0 Z " fill="#18255C" transform="translate(84,56)"/>
<path d="M0 0 C0.99 0 1.98 0 3 0 C3 2.31 3 4.62 3 7 C2.34 7 1.68 7 1 7 C0.67 4.69 0.34 2.38 0 0 Z " fill="#E4F7FB" transform="translate(49,17)"/>
<path d="M0 0 C2.64 0 5.28 0 8 0 C8 0.99 8 1.98 8 3 C5.36 2.67 2.72 2.34 0 2 C0 1.34 0 0.68 0 0 Z " fill="#E6EDF5" transform="translate(20,5)"/>
</svg>
